<svg width="16" height="16" viewBox="0 0 16 16" fill="none" xmlns="http://www.w3.org/2000/svg">
<mask id="mask0_1742_2878" style="mask-type:alpha" maskUnits="userSpaceOnUse" x="0" y="0" width="16" height="16">
<rect width="16" height="16" fill="#D9D9D9"/>
</mask>
<g mask="url(#mask0_1742_2878)">
<path d="M10.3125 1.5H1.97827C1.48022 1.5 1.07617 1.90393 1.07617 2.4022V12.4137C1.07617 12.912 1.48022 13.3159 1.97827 13.3159H11.5591C12.0574 13.3159 12.4614 12.912 12.4614 12.4137V3.64873L10.3125 1.5Z" fill="#E8F0F5" stroke="#486A7F" stroke-width="0.75" stroke-miterlimit="10"/>
<path d="M4.18408 2.61798V6.37199H9.29199V2.61798H4.18408ZM8.70825 5.81031H7.1687V3.06032H8.70825V5.81031Z" fill="#486A7F"/>
<path d="M9.50928 10.2478H4.02832V13.229H9.50928V10.2478Z" fill="#4B96CD" stroke="#486A7F" stroke-width="0.687904" stroke-miterlimit="10"/>
<path d="M13.0569 15.2908L11.3499 14.1453C11.2603 14.0798 11.2239 13.9952 11.2239 13.896V11.0453L8.97782 7.95899C8.78031 7.73559 8.86991 7.4104 9.22464 7.4104H15.6653C16.043 7.4104 16.0613 7.77958 15.9153 7.95899L13.597 11.1298V15.0424C13.6253 15.3581 13.2578 15.4374 13.0569 15.2908Z" fill="#4B96CD"/>
</g>
</svg>
