<svg width="16" height="16" viewBox="0 0 16 16" fill="none" xmlns="http://www.w3.org/2000/svg">
<path d="M13.7651 7.65058C14.2152 7.54653 14.6583 7.86388 14.6411 8.32538C14.6162 8.97763 14.4914 9.63757 14.2583 10.2844C13.0405 13.6613 9.3159 15.4122 5.93893 14.1945C4.42545 13.6487 3.23971 12.5989 2.50045 11.3029V12.8322C2.50025 13.2461 2.16434 13.582 1.75045 13.5822C1.33637 13.5822 1.00066 13.2463 1.00045 12.8322V9.78144C1.00067 9.25707 1.4253 8.8324 1.94967 8.83222H5.00045C5.41447 8.83245 5.75045 9.16815 5.75045 9.58222C5.75025 9.99611 5.41434 10.332 5.00045 10.3322H3.68405C4.23898 11.4327 5.19674 12.3322 6.44772 12.7834C9.0454 13.7201 11.9104 12.3733 12.8471 9.77558C13.006 9.33487 13.0998 8.88599 13.1323 8.44062C13.1596 8.06931 13.4024 7.73464 13.7651 7.65058Z" fill="#404952"/>
<path d="M1.38327 5.29706C2.60103 1.92012 6.32564 0.169208 9.7026 1.38691C11.2157 1.93255 12.4018 2.98197 13.1411 4.27753V2.75019C13.1411 2.33611 13.4771 2.00041 13.8911 2.00019C14.3053 2.00019 14.6411 2.33597 14.6411 2.75019V5.79999C14.6411 6.32454 14.2164 6.74999 13.6919 6.75019H10.6411C10.2271 6.74996 9.89119 6.41417 9.89108 6.00019C9.89108 5.58611 10.2271 5.25041 10.6411 5.25019H11.9585C11.4036 4.14925 10.4452 3.24929 9.19381 2.79804C6.59614 1.86132 3.73115 3.2082 2.7944 5.80585C2.63546 6.24665 2.54174 6.69534 2.50924 7.14081C2.48204 7.51224 2.2392 7.84675 1.87643 7.93085C1.42622 8.03498 0.982975 7.71777 1.00045 7.25605C1.02531 6.6037 1.15002 5.94395 1.38327 5.29706Z" fill="#404952"/>
</svg>
