<svg width="16" height="16" viewBox="0 0 16 16" fill="none" xmlns="http://www.w3.org/2000/svg">
<mask id="mask0_1742_2198" style="mask-type:alpha" maskUnits="userSpaceOnUse" x="0" y="0" width="16" height="16">
<rect width="16" height="16" fill="#D9D9D9"/>
</mask>
<g mask="url(#mask0_1742_2198)">
<path d="M8.09996 9.52743C7.99995 9.22743 7.59996 9.02743 7.39995 9.32743L4.79994 12.3274C4.59993 12.5274 4.69994 12.8274 4.89995 12.9274L8.39995 14.9274C8.69994 15.1274 8.99995 14.8274 8.99995 14.5274L8.79994 13.3274C13.1999 12.5274 14.8999 7.32743 12.1999 4.52743C13.8999 8.22743 10.7999 11.1274 8.29994 10.6274L8.09996 9.52743Z" fill="#009AD5"/>
<path d="M6.99997 1.52743L7.19998 2.72743C2.79998 3.52743 1.09997 8.72743 3.79998 11.4274C2.09997 7.72743 5.09997 4.82743 7.69998 5.32743L7.89999 6.52743C8 6.82743 8.39999 6.92743 8.6 6.72743L11.3 3.62743C11.5 3.42743 11.4 3.12743 11.2 3.02743L7.6 1.02743C7.29998 0.927426 6.89999 1.22743 6.99997 1.52743Z" fill="#009AD5"/>
</g>
</svg>
