<svg width="16" height="16" viewBox="0 0 16 16" fill="none" xmlns="http://www.w3.org/2000/svg">
<mask id="mask0_1742_3135" style="mask-type:alpha" maskUnits="userSpaceOnUse" x="0" y="0" width="16" height="16">
<rect width="16" height="16" fill="#D9D9D9"/>
</mask>
<g mask="url(#mask0_1742_3135)">
<path d="M8.21436 14.5269C5.4043 14.4596 3.25366 12.5035 2.58203 10.6049C2.56323 10.5514 2.57129 10.4924 2.60229 10.4471C2.63452 10.4005 2.68555 10.3731 2.74072 10.3731L3.6875 10.3717C4.03418 10.3717 4.38062 10.3744 4.72583 10.3813C4.84424 10.384 4.96777 10.4663 5.09253 10.6268C5.89868 11.6735 7.10205 12.273 8.39307 12.273C10.0947 12.273 11.5698 11.2839 12.2441 9.6899C13.113 7.63426 12.2588 5.21989 10.2976 4.19241C9.71606 3.88787 9.09009 3.73355 8.43872 3.73355C7.2229 3.73355 6.03955 4.29873 5.24585 5.25213L6.65479 6.70349C6.77173 6.84204 6.79321 7.01009 6.71924 7.17265C6.5918 7.45729 6.18066 7.70696 5.84082 7.70696H2.07837C1.60156 7.70696 1.21338 7.3112 1.21338 6.82489V2.94408C1.21338 2.54557 1.57593 2.01194 1.94531 2.01194C2.03418 2.01194 2.11743 2.0428 2.18579 2.10042L3.69556 3.65535C4.82129 2.38987 6.14575 1.6882 7.74146 1.51192C7.98193 1.48586 8.21973 1.47214 8.45483 1.47214C9.61401 1.47214 10.7153 1.7952 11.7283 2.43102C14.1851 3.97498 15.3374 7.01695 14.5303 9.82845C13.7256 12.6393 11.2473 14.5282 8.36621 14.5282L8.21436 14.5269Z" fill="#7295A3"/>
<path d="M8.45435 1.64459C9.5813 1.64459 10.6492 1.95626 11.6392 2.57796C14.0508 4.09289 15.1594 7.02666 14.3694 9.78084C13.5862 12.5121 11.1709 14.3554 8.36743 14.3554C8.31787 14.3554 8.26831 14.3548 8.21875 14.3537C5.41626 14.2886 3.35645 12.285 2.74023 10.5453C3.05029 10.5453 3.35864 10.5439 3.66577 10.5439C4.0188 10.5439 4.37061 10.5458 4.72217 10.5537C4.80322 10.5554 4.89868 10.6562 4.95898 10.7342C5.85205 11.8923 7.12769 12.4457 8.39233 12.4457C10.0342 12.4457 11.6575 11.5125 12.3992 9.75853C13.3069 7.61241 12.4214 5.1117 10.3745 4.03946C9.75488 3.71504 9.09302 3.56123 8.43921 3.56123C7.13501 3.56123 5.8623 4.1729 5.01953 5.26307L6.53589 6.82477C6.7771 7.11212 6.22437 7.53484 5.84033 7.53484H2.07812C1.69409 7.53484 1.38257 7.21688 1.38257 6.82477V2.94376C1.38257 2.61398 1.69434 2.184 1.94482 2.18403C1.99219 2.18403 2.0376 2.19939 2.07812 2.23369L3.70288 3.90706C4.78125 2.63878 6.10376 1.86596 7.75903 1.68331C7.99316 1.65749 8.22485 1.64459 8.45435 1.64459ZM8.45435 1.30013C8.21289 1.30013 7.96924 1.31367 7.7229 1.34082C6.1416 1.5153 4.81958 2.19217 3.69189 3.40666L2.31763 1.99114C2.19385 1.88414 2.07324 1.83957 1.94482 1.83957C1.71899 1.83952 1.48389 1.9831 1.30005 2.23349C1.13818 2.45378 1.04541 2.71267 1.04541 2.94376V6.82477C1.04541 7.40624 1.50854 7.87931 2.07812 7.87931H5.84033C6.24536 7.87931 6.71826 7.58838 6.87329 7.24399C6.97339 7.02114 6.94312 6.78056 6.79175 6.60044L5.47705 5.24534C6.23608 4.40165 7.32251 3.90569 8.43921 3.90569C9.06323 3.90569 9.6626 4.05383 10.2205 4.34598C12.1028 5.33197 12.9236 7.64945 12.0896 9.62194C11.4429 11.1512 10.0261 12.1012 8.39233 12.1012C7.15308 12.1012 5.99829 11.5253 5.22388 10.521C5.06689 10.3177 4.90039 10.2129 4.729 10.2093C4.37549 10.2013 4.02148 10.1995 3.66577 10.1995L3.20483 10.2002L2.74023 10.2009C2.63013 10.2009 2.5271 10.2556 2.46411 10.3475C2.40088 10.4394 2.3855 10.557 2.42285 10.6625C3.11548 12.6172 5.32593 14.6311 8.21094 14.6981L8.36743 14.6999C11.324 14.6999 13.866 12.762 14.6931 9.87765C15.521 6.99124 14.3379 3.86884 11.8159 2.28455C10.7756 1.63132 9.64478 1.30013 8.45435 1.30013Z" fill="#7295A3"/>
</g>
</svg>
