<svg width="16" height="16" viewBox="0 0 16 16" fill="none" xmlns="http://www.w3.org/2000/svg">
<mask id="mask0_1742_1913" style="mask-type:alpha" maskUnits="userSpaceOnUse" x="0" y="0" width="16" height="16">
<rect width="16" height="16" fill="#D9D9D9"/>
</mask>
<g mask="url(#mask0_1742_1913)">
<path d="M14.15 12.75L10.75 9.35001C11.25 8.55001 11.55 7.65 11.55 6.55C11.55 3.75001 9.34999 1.55 6.54999 1.55C3.74998 1.55 1.54999 3.75 1.54999 6.55C1.54999 9.35 3.74998 11.55 6.54999 11.55C7.54999 11.55 8.54999 11.25 9.34999 10.75L12.75 14.15C13.15 14.55 13.75 14.55 14.15 14.15C14.55 13.75 14.55 13.15 14.15 12.75ZM6.54997 9.75001C4.74997 9.75001 3.24997 8.25001 3.24997 6.45C3.24997 4.65 4.74997 3.15001 6.54997 3.15001C8.34998 3.15001 9.84998 4.65 9.84998 6.45C9.74998 8.25001 8.34998 9.75001 6.54997 9.75001Z" fill="#486A7F"/>
</g>
</svg>
