<svg width="16" height="16" viewBox="0 0 16 16" fill="none" xmlns="http://www.w3.org/2000/svg">
<mask id="mask0_1742_2276" style="mask-type:alpha" maskUnits="userSpaceOnUse" x="0" y="0" width="16" height="16">
<rect width="16" height="16" fill="#D9D9D9"/>
</mask>
<g mask="url(#mask0_1742_2276)">
<path d="M3.46991 5.995V13.871C3.46991 14.308 3.82391 14.658 4.25793 14.658H11.7369C12.1749 14.658 12.525 14.304 12.525 13.871V5.995H3.46991Z" fill="#7295A3"/>
<path d="M10.9519 7.963H9.76892V13.157H10.9519V7.963Z" fill="#E8F0F5"/>
<path d="M6.22693 7.963H5.04492V13.157H6.22693V7.963Z" fill="#E8F0F5"/>
<path d="M8.59192 7.963H7.40393V13.157H8.59192V7.963Z" fill="#E8F0F5"/>
<path d="M12.8519 4.41899V4.02599C12.8519 3.37399 12.3259 2.84499 11.6709 2.84499H9.31091H6.68994H4.32794C3.68195 2.84499 3.14496 3.37399 3.14496 4.02599V4.41899H2.36096V5.20599H3.18298H12.817H13.639V4.41899H12.8519Z" fill="#7295A3"/>
<path d="M6.49994 1.342H9.48895C9.85693 1.342 10.158 1.64 10.158 2.008V3.018H9.48895V2.342C9.48895 2.158 9.34296 2.008 9.15796 2.008H6.83197C6.64398 2.008 6.50098 2.158 6.50098 2.342V3.017H5.83398V2.007C5.83392 1.639 6.13293 1.342 6.49994 1.342Z" fill="#7295A3"/>
</g>
</svg>
