<svg width="16" height="16" viewBox="0 0 16 16" fill="none" xmlns="http://www.w3.org/2000/svg">
<path d="M13.3209 4.76589C11.6858 1.90671 8.11777 0.693987 5.04262 2.05984C1.76212 3.51718 0.283733 7.35829 1.74086 10.6389C3.19813 13.9195 7.03929 15.3978 10.32 13.9407C10.9483 13.6616 11.5105 13.2949 11.9987 12.8616C12.3443 12.5548 12.2672 12.015 11.8805 11.762C11.5687 11.5581 11.1588 11.6143 10.8717 11.8518C10.5277 12.1364 10.1396 12.3795 9.71156 12.5696C7.18787 13.6905 4.23287 12.5533 3.11195 10.0296C1.99108 7.50592 3.12839 4.55188 5.65199 3.43093C8.10165 2.3429 10.9565 3.38226 12.1471 5.75222H9.82094C9.40692 5.75245 9.07094 6.08815 9.07094 6.50222C9.07116 6.9161 9.40706 7.25199 9.82094 7.25222H13.8717C14.3962 7.25203 14.8208 6.82648 14.8209 6.30203V2.25222C14.8209 1.83801 14.4852 1.50222 14.0709 1.50222C13.6569 1.50245 13.3209 1.83815 13.3209 2.25222V4.76589Z" fill="#404952"/>
</svg>
