<svg width="16" height="16" viewBox="0 0 16 16" fill="none" xmlns="http://www.w3.org/2000/svg">
<mask id="mask0_1742_2592" style="mask-type:alpha" maskUnits="userSpaceOnUse" x="0" y="0" width="16" height="16">
<rect width="16" height="16" fill="#D9D9D9"/>
</mask>
<g mask="url(#mask0_1742_2592)">
<path d="M13.1 11.25C14.5 11.25 15.6 10.05 15.6 8.65C15.6 7.45 14.7999 6.35 13.7 6.05C13.7 3.45 11.7 1.25 9.19995 1.25C7.5 1.25 6 2.25 5.29993 3.75C5.09998 3.65 4.79993 3.55 4.49988 3.55C3.49988 3.55 2.69983 4.35 2.59985 5.34999C1.2998 5.64999 0.399902 6.84999 0.399902 8.25001C0.399902 9.85001 1.59985 11.25 3.19995 11.25C3.5 11.25 12.8 11.25 13.1 11.25Z" fill="#E8F0F5" stroke="#486A7F" stroke-width="0.4907" stroke-miterlimit="10"/>
<path d="M8.05312 4.95507L5.03921 7.9689C4.91372 8.09447 4.91372 8.22005 5.16482 8.22005H6.42055C6.67165 8.22005 6.79738 8.34563 6.79738 8.59678V10.8571V11.8618C6.79738 12.1129 6.92287 12.2385 7.17409 12.2385H9.30886C9.55996 12.2385 9.68569 12.1129 9.68569 11.8618V8.59678C9.68569 8.34563 9.93679 8.22005 10.0625 8.22005H11.3183C11.5694 8.22005 11.5694 8.09447 11.4437 7.9689L8.42995 4.95507C8.32998 4.85519 8.14785 4.85519 8.05312 4.95507Z" fill="#486A7F"/>
<path d="M6.79736 13.2431C6.79736 12.9919 6.92285 12.8664 7.17407 12.8664H9.56006C9.68567 12.8664 9.93689 12.9919 9.93689 13.2431C9.93689 13.4942 9.8114 13.6198 9.56006 13.6198H7.17407C7.04846 13.6198 6.79736 13.4942 6.79736 13.2431Z" fill="#486A7F"/>
<path d="M6.79736 14.3733C6.79736 14.1221 6.92285 13.9966 7.17407 13.9966H9.56006C9.68567 13.9966 9.93689 14.1221 9.93689 14.3733C9.93689 14.6244 9.8114 14.75 9.56006 14.75H7.17407C7.04846 14.75 6.79736 14.6244 6.79736 14.3733Z" fill="#486A7F"/>
</g>
</svg>
