<svg width="16" height="16" viewBox="0 0 16 16" fill="none" xmlns="http://www.w3.org/2000/svg">
<mask id="mask0_1742_2292" style="mask-type:alpha" maskUnits="userSpaceOnUse" x="0" y="0" width="16" height="16">
<rect width="16" height="16" fill="#D9D9D9"/>
</mask>
<g mask="url(#mask0_1742_2292)">
<path d="M13.3315 5.8063L10.5845 3.08131C10.4365 2.94831 10.3105 3.00631 10.3105 3.20731V4.3493C10.3105 4.5493 10.1395 4.7143 9.93646 4.7143L7.88745 4.7173H6.92242V4.7223C6.72644 4.7223 6.56342 4.8863 6.56342 5.0883V7.0113C6.56342 7.2143 6.72644 7.3773 6.92444 7.3773L9.89642 7.3723H9.93945C10.1365 7.3723 10.3024 7.5373 10.3024 7.7373V8.88031C10.3024 9.08131 10.4364 9.13831 10.5784 9.00731L13.3314 6.2903C13.4865 6.1513 13.4865 5.9383 13.3315 5.8063Z" fill="#08B848"/>
<path d="M2.66642 9.71231L5.41239 6.9883C5.55839 6.8553 5.68339 6.9143 5.68339 7.1283V8.25931C5.68339 8.46031 5.84641 8.62431 6.04441 8.62431L8.10441 8.63831H9.05839V8.64431C9.25639 8.64431 9.42136 8.80631 9.42136 9.00731V10.9333C9.42136 11.1363 9.25736 11.2983 9.05839 11.2983L6.08939 11.2903H6.04636C5.84739 11.2943 5.68339 11.4583 5.68339 11.6553V12.7903C5.68339 12.9933 5.55741 13.0483 5.41239 12.9253L2.66538 10.2023C2.51444 10.0603 2.51444 9.84131 2.66642 9.71231Z" fill="#08B848"/>
</g>
</svg>
