<svg width="16" height="16" viewBox="0 0 16 16" fill="none" xmlns="http://www.w3.org/2000/svg">
<path d="M3.22725 3.21211C3.52182 2.92089 3.99756 2.92341 4.28878 3.21797C5.63691 4.58159 6.98961 5.9335 8.3464 7.28633C8.73882 7.67768 8.73845 8.31359 8.34347 8.70234C6.98971 10.0344 5.65222 11.3982 4.3171 12.7404C4.04616 13.0535 3.57271 13.0883 3.25948 12.8176C2.94626 12.5465 2.91227 12.0722 3.18331 11.759C4.45719 10.5625 5.68273 9.2353 6.93136 7.99434C6.08584 7.15045 4.41642 5.48142 3.22139 4.27266C2.9304 3.97816 2.93298 3.5033 3.22725 3.21211Z" fill="#404952"/>
<path d="M7.58761 3.21211C7.88214 2.92094 8.35694 2.9235 8.64815 3.21797C9.99628 4.58158 11.349 5.93351 12.7058 7.28633C13.0983 7.6777 13.0979 8.31357 12.7028 8.70234C11.3491 10.0344 10.0426 11.3755 8.6794 12.7385L8.67745 12.7404C8.40644 13.0536 7.93208 13.0885 7.61886 12.8176C7.30563 12.5465 7.25254 12.0546 7.54268 11.759C8.84755 10.4295 10.0429 9.23545 11.2917 7.99434C10.4462 7.15047 8.77677 5.48141 7.58175 4.27266C7.29053 3.97809 7.29304 3.50332 7.58761 3.21211Z" fill="#404952"/>
</svg>
