<svg width="16" height="16" viewBox="0 0 16 16" fill="none" xmlns="http://www.w3.org/2000/svg">
<path d="M7.35166 3.21798C7.64284 2.92345 8.11763 2.92101 8.4122 3.21212C8.70677 3.50333 8.70928 3.9781 8.41806 4.27266C7.22305 5.48141 5.55357 7.1505 4.7081 7.99434C5.9569 9.23546 7.15226 10.4295 8.45713 11.759C8.74727 12.0546 8.69418 12.5465 8.38095 12.8176C8.06773 13.0884 7.59432 13.0536 7.32334 12.7404C7.32513 12.7425 7.32415 12.7425 7.32041 12.7385C5.95716 11.3755 4.65075 10.0345 3.29697 8.70235C2.90188 8.31358 2.90153 7.67771 3.29404 7.28633C4.65084 5.93348 6.00351 4.58162 7.35166 3.21798Z" fill="#404952"/>
<path d="M11.712 3.21798C12.0032 2.92368 12.4781 2.92099 12.7726 3.21212C13.0669 3.50332 13.0695 3.97815 12.7784 4.27266C11.5834 5.48142 9.91397 7.15045 9.06845 7.99434C10.3172 9.23545 11.5434 10.5624 12.8175 11.759C13.0885 12.0722 13.0535 12.5466 12.7403 12.8176C12.4466 13.0714 12.0118 13.0571 11.7354 12.7961L11.6847 12.7424C11.6862 12.744 11.6842 12.7421 11.6827 12.7404C10.3476 11.3982 9.01007 10.0344 7.65634 8.70235C7.26146 8.31361 7.26109 7.67767 7.65342 7.28633C9.01024 5.93346 10.3638 4.58164 11.712 3.21798Z" fill="#404952"/>
</svg>
