<svg width="16" height="16" viewBox="0 0 16 16" fill="none" xmlns="http://www.w3.org/2000/svg">
<mask id="mask0_1742_1760" style="mask-type:alpha" maskUnits="userSpaceOnUse" x="0" y="0" width="16" height="16">
<rect width="16" height="16" fill="#D9D9D9"/>
</mask>
<g mask="url(#mask0_1742_1760)">
<path d="M12.8948 3.03737C10.1658 0.319375 5.75575 0.322375 3.04075 3.03737C0.31975 5.75937 0.31975 10.1664 3.04075 12.8864C5.76175 15.6074 10.1717 15.6074 12.8948 12.8884C15.6148 10.1684 15.6148 5.75737 12.8948 3.03737Z" fill="#08B848"/>
<path d="M8.26076 9.13538V10.5734C8.26076 10.6654 8.32275 10.7474 8.40475 10.7864C8.48676 10.8254 8.58475 10.8144 8.65475 10.7644L11.5878 8.15838C11.6497 8.11238 11.6777 8.04337 11.6777 7.97037C11.6777 7.89737 11.6517 7.82937 11.5878 7.78237L8.64975 5.17237C8.57776 5.11337 8.47475 5.10437 8.39675 5.14537C8.31575 5.18337 8.25375 5.26637 8.25375 5.35837V6.75937C8.26775 7.82837 8.26775 7.96237 8.26076 9.13538Z" fill="white"/>
<path d="M5.34376 9.13538V10.5734C5.34376 10.6654 5.39276 10.7474 5.47576 10.7864C5.55676 10.8254 5.66276 10.8144 5.72476 10.7644L8.66277 8.15838C8.72376 8.11238 8.75176 8.04337 8.75176 7.97037C8.75176 7.89737 8.72276 7.82937 8.66277 7.78237L5.72476 5.17237C5.65975 5.11337 5.55775 5.10437 5.47575 5.14537C5.39275 5.18237 5.34375 5.26537 5.34375 5.35637V6.75737C5.34975 7.82837 5.34975 7.96237 5.34376 9.13538Z" fill="white"/>
</g>
</svg>
