<svg width="16" height="16" viewBox="0 0 16 16" fill="none" xmlns="http://www.w3.org/2000/svg">
<mask id="mask0_1742_2109" style="mask-type:alpha" maskUnits="userSpaceOnUse" x="0" y="0" width="16" height="16">
<rect width="16" height="16" fill="#D9D9D9"/>
</mask>
<g mask="url(#mask0_1742_2109)">
<path d="M12.4561 4.179H3.54514C2.92314 4.179 2.42014 4.683 2.42014 5.304V10.582C2.42014 11.203 2.92213 11.707 3.54514 11.707H12.4561C13.0751 11.707 13.5801 11.203 13.5801 10.582V5.304C13.5801 4.683 13.0751 4.179 12.4561 4.179Z" fill="#E8F0F5"/>
<path d="M12.4561 4.179H3.54514C2.92314 4.179 2.42014 4.683 2.42014 5.304V10.582C2.42014 11.203 2.92213 11.707 3.54514 11.707H12.4561C13.0751 11.707 13.5801 11.203 13.5801 10.582V5.304C13.5801 4.683 13.0751 4.179 12.4561 4.179Z" fill="#ACC1C6"/>
<path d="M6.38013 9.227H4.56813C4.27213 9.227 4.03214 8.998 4.03214 8.694C4.03214 8.402 4.27214 8.171 4.56813 8.171H6.38013C6.68613 8.171 6.91612 8.411 6.91612 8.694C6.91612 8.987 6.67513 9.227 6.38013 9.227Z" fill="white"/>
<path d="M7.70613 7.022H4.56013C4.26413 7.022 4.02414 6.782 4.02414 6.486C4.02414 6.19 4.26414 5.952 4.56013 5.952H7.70613C8.00113 5.952 8.23714 6.19 8.23714 6.486C8.23712 6.783 8.00113 7.022 7.70613 7.022Z" fill="white"/>
<path d="M10.0641 1.967L7.62814 4.417C7.51614 4.555 7.56614 4.666 7.73814 4.666H8.75914C8.93814 4.666 9.07614 4.812 9.07614 4.993L9.08613 6.826V7.677H9.09213C9.09314 7.857 9.23812 8.002 9.40812 8.002H11.1321C11.3131 8.002 11.4501 7.856 11.4501 7.676L11.4441 5.029V4.992C11.4451 4.813 11.5901 4.667 11.7711 4.667H12.7921C12.9751 4.667 13.0211 4.556 12.9011 4.418L10.4681 1.968C10.3731 1.832 10.1801 1.832 10.0641 1.967Z" fill="#08B848"/>
<path d="M13.4991 1.742C13.4991 1.778 13.4781 1.808 13.4371 1.808H7.12514C7.09013 1.808 7.06314 1.778 7.06314 1.742V0.646001C7.06314 0.611001 7.08414 0.582001 7.12514 0.582001H13.4371C13.4731 0.582001 13.4991 0.611001 13.4991 0.646001V1.742Z" fill="#08B848"/>
</g>
</svg>
