<svg width="16" height="16" viewBox="0 0 16 16" fill="none" xmlns="http://www.w3.org/2000/svg">
<mask id="mask0_3686_24309" style="mask-type:alpha" maskUnits="userSpaceOnUse" x="0" y="0" width="16" height="16">
<rect width="16" height="16" fill="#D9D9D9"/>
</mask>
<g mask="url(#mask0_3686_24309)">
<path d="M1.59009 10.1669C1.59009 10.2689 1.68003 10.3529 1.78003 10.3529H12.27C12.37 10.3529 12.4501 10.2689 12.4501 10.1669V3.32184C12.4501 3.21985 12.37 3.13684 12.27 3.13684H1.78003C1.67003 3.13684 1.59009 3.21985 1.59009 3.32184V10.1669Z" fill="#E8F0F5"/>
<path d="M12.3201 1.56897H1.69006C0.750063 1.56897 0 2.30695 0 3.21698V10.273C0 11.183 0.770063 11.841 1.69006 11.841L4.97998 11.843V13.195H3.04004C2.69004 13.195 2.40002 13.47 2.40002 13.812C2.40002 14.156 2.67004 14.431 3.04004 14.431H10.9301C11.2801 14.431 11.5601 14.156 11.5601 13.812C11.5601 13.47 11.2901 13.195 10.9301 13.195H8.98999V11.843L12.35 11.822C13.28 11.822 14.01 11.179 14.01 10.271V3.21698C14.02 2.30695 13.2601 1.56897 12.3201 1.56897ZM12.4501 10.167C12.4501 10.269 12.36 10.353 12.26 10.353H1.77002C1.66002 10.353 1.58008 10.269 1.58008 10.167V3.32196C1.58008 3.21997 1.68002 3.13696 1.77002 3.13696H12.26C12.36 3.13696 12.4501 3.21997 12.4501 3.32196V10.167Z" fill="#294F69"/>
<path d="M12.2101 10.8106H1.79004C1.27004 10.8106 0.840088 10.3803 0.840088 9.85448V3.42291C0.840088 2.89703 1.27004 2.4668 1.79004 2.4668H12.2101C12.7401 2.4668 13.17 2.89703 13.17 3.42291V9.85448C13.17 10.3803 12.7401 10.8106 12.2101 10.8106Z" fill="#E8F0F5"/>
</g>
</svg>
