<svg width="16" height="16" viewBox="0 0 16 16" fill="none" xmlns="http://www.w3.org/2000/svg">
<mask id="mask0_1742_1907" style="mask-type:alpha" maskUnits="userSpaceOnUse" x="0" y="0" width="16" height="16">
<rect width="16" height="16" fill="#D9D9D9"/>
</mask>
<g mask="url(#mask0_1742_1907)">
<path d="M2.34166 7.62838V13.9604C2.34166 14.4884 2.70865 14.9234 3.14666 14.9234H12.8467C13.2986 14.9234 13.6587 14.4884 13.6587 13.9604V7.62838C13.6587 7.09738 13.2856 6.66738 12.8467 6.66738H12.5636V5.40538C12.5636 3.06938 10.5897 1.11938 8.12865 1.07738C8.04865 1.07638 7.91965 1.07638 7.85766 1.07738C5.89165 1.11238 4.25365 2.35938 3.66265 4.04638H5.18564C5.63064 3.08838 6.54964 2.27838 7.99364 2.27838C10.1137 2.27838 11.0976 4.01538 11.0976 5.40538V6.66738H8.12765H7.85665H3.13065C2.68665 6.66738 2.32964 7.09838 2.34166 7.62838ZM6.71467 9.97338C6.71467 9.37138 7.21367 8.84738 7.85067 8.82638C7.91866 8.82238 8.05367 8.82238 8.12166 8.82638C8.75567 8.84138 9.25567 9.36938 9.25567 9.97338C9.25567 10.2904 9.12966 10.5794 8.90166 10.7904V12.7024C8.90166 12.9184 8.69365 13.1064 8.46366 13.1064H7.50165C7.26665 13.1064 7.07465 12.9214 7.07465 12.7024V10.7904C6.84664 10.5794 6.71665 10.2904 6.71467 9.97338Z" fill="#FF9C00"/>
</g>
</svg>
