<svg width="16" height="16" viewBox="0 0 16 16" fill="none" xmlns="http://www.w3.org/2000/svg">
<mask id="mask0_1742_2526" style="mask-type:alpha" maskUnits="userSpaceOnUse" x="0" y="0" width="16" height="16">
<rect width="16" height="16" fill="#D9D9D9"/>
</mask>
<g mask="url(#mask0_1742_2526)">
<path d="M1.20123 7.62838V13.9604C1.20123 14.4884 1.56817 14.9234 2.00616 14.9234H11.7062C12.1581 14.9234 12.5181 14.4884 12.5181 13.9604V7.62838C12.5181 7.09738 12.1452 6.66738 11.7062 6.66738H11.4231V5.40538C11.4231 3.06938 9.44915 1.11938 6.98821 1.07738C6.90813 1.07638 6.77923 1.07638 6.71722 1.07738C4.75115 1.11238 3.11321 2.35938 2.52215 4.04638H4.04522C4.49017 3.08838 5.40911 2.27838 6.8532 2.27838C8.9732 2.27838 9.95721 4.01538 9.95721 5.40538V6.66738H6.98711H6.71612H1.99017C1.5462 6.66738 1.18914 7.09838 1.20123 7.62838ZM5.57415 9.97338C5.57415 9.37138 6.07317 8.84738 6.71014 8.82638C6.77813 8.82238 6.91314 8.82238 6.98113 8.82638C7.61517 8.84138 8.11517 9.36938 8.11517 9.97338C8.11517 10.2904 7.98919 10.5794 7.76116 10.7904V12.7024C7.76116 12.9184 7.55315 13.1064 7.32317 13.1064H6.36114C6.12615 13.1064 5.93414 12.9214 5.93414 12.7024V10.7904C5.70611 10.5794 5.57623 10.2904 5.57415 9.97338Z" fill="#FF9C00"/>
<path d="M10.4811 2.61658L10.1638 4.1293C4.67725 2.96427 2.43347 6.13508 2.43347 10.967C3.1228 8.26794 6.64844 6.4299 9.47363 7.4089L9.15637 8.94602C9.07104 9.3486 9.51025 9.67595 9.89148 9.49194L14.5293 7.16694C14.8118 7.01852 14.8892 6.6383 14.6808 6.38415L11.3555 2.38073C11.1033 2.03711 10.5715 2.18961 10.4811 2.61658Z" fill="#009AD5"/>
</g>
</svg>
