<svg width="16" height="16" viewBox="0 0 16 16" fill="none" xmlns="http://www.w3.org/2000/svg">
<mask id="mask0_1742_2807" style="mask-type:alpha" maskUnits="userSpaceOnUse" x="0" y="0" width="16" height="16">
<rect width="16" height="16" fill="#D9D9D9"/>
</mask>
<g mask="url(#mask0_1742_2807)">
<path d="M13.4707 2.57242C11.9802 1.07567 9.54834 1.07567 8.04907 2.57242C6.89722 3.723 6.6333 5.42645 7.25085 6.82856L6.62952 7.45988L5.54993 7.7662L5.24109 8.84456L4.15283 9.15836L3.86646 10.2404L2.78931 10.5493L2.48425 11.6276L1.40466 11.9364L1.68982 14.2226L3.63477 14.5501L9.33167 8.84705C10.7064 9.41363 12.3676 9.13096 13.4883 8.01027C14.9674 6.49858 14.9674 4.07041 13.4707 2.57242ZM12.0773 5.56093L10.481 3.9683C10.04 3.52501 10.4037 2.76418 11.0262 2.82893C11.5654 2.88621 12.0897 3.1228 12.5056 3.53871C12.9215 3.95461 13.1543 4.48008 13.2091 5.02424C13.2777 5.64436 12.5206 6.00298 12.0773 5.56093Z" fill="#486A7F"/>
</g>
</svg>
