<svg width="16" height="16" viewBox="0 0 16 16" fill="none" xmlns="http://www.w3.org/2000/svg">
<mask id="mask0_1742_2191" style="mask-type:alpha" maskUnits="userSpaceOnUse" x="0" y="0" width="16" height="16">
<rect width="16" height="16" fill="#D9D9D9"/>
</mask>
<g mask="url(#mask0_1742_2191)">
<path d="M14.3394 7.7345H14.0804V6.6045C14.0804 4.5105 12.3145 2.7635 10.1094 2.7245C10.0474 2.7245 9.92145 2.7245 9.86743 2.7245C9.61145 2.7275 9.3634 2.7615 9.12146 2.8085V3.9385C9.38947 3.8575 9.66943 3.8005 9.98444 3.8005C11.8804 3.8005 12.7554 5.3575 12.7554 6.6045V7.7345H10.1094H9.86945H9.12146V12.4065H4.92346V14.2735C4.92346 14.7495 5.24243 15.1275 5.64545 15.1275H14.3425C14.7385 15.1275 15.0615 14.7315 15.0615 14.2735V8.59651C15.0534 8.12151 14.7384 7.7345 14.3394 7.7345Z" fill="#294F69"/>
<path d="M10.3694 5.8835H10.1135V4.7525C10.1135 2.6595 8.34247 0.910498 6.13446 0.872498C6.07245 0.872498 5.94647 0.872498 5.89343 0.872498C3.69946 0.911498 1.91846 2.6605 1.91846 4.7525V5.8845H1.65948C1.26349 5.8845 0.938477 6.2695 0.938477 6.7455V12.4205C0.938477 12.8995 1.25049 13.2825 1.65948 13.2825H10.3565C10.7525 13.2825 11.0735 12.8935 11.0735 12.4205V6.7425C11.0844 6.2685 10.7614 5.8835 10.3694 5.8835ZM6.83344 9.5775V11.2925C6.83344 11.4875 6.65741 11.6535 6.44843 11.6535H5.59241C5.38342 11.6535 5.20239 11.4875 5.20239 11.2925V9.5775C5.00342 9.3885 4.88538 9.1325 4.88538 8.8415C4.88538 8.2995 5.32935 7.8365 5.90637 7.8155C5.96838 7.8125 6.09436 7.8125 6.13635 7.8155C6.69836 7.8365 7.15735 8.3015 7.15735 8.8415C7.15442 9.1305 7.03741 9.3875 6.83344 9.5775ZM8.80243 5.8835H6.14044H5.90845H3.25244V4.7525C3.25244 3.5055 4.14844 1.9485 6.02344 1.9485C7.91943 1.9485 8.80646 3.5055 8.80646 4.7525L8.80243 5.8835Z" fill="#08B848"/>
</g>
</svg>
