<svg width="16" height="16" viewBox="0 0 16 16" fill="none" xmlns="http://www.w3.org/2000/svg">
<mask id="mask0_1742_2358" style="mask-type:alpha" maskUnits="userSpaceOnUse" x="0" y="0" width="16" height="16">
<rect width="16" height="16" fill="#D9D9D9"/>
</mask>
<g mask="url(#mask0_1742_2358)">
<path d="M11.2043 11.95C10.3042 13.15 9.20425 14.15 7.9042 14.95C6.60415 14.15 5.50418 13.15 4.70425 11.95C3.0043 9.65 2.20425 6.75 2.30423 3.15C3.20425 3.05 4.10428 2.75 5.00418 2.45C5.9042 2.15 6.9042 1.65 8.00418 1.05C9.10415 1.65 10.1042 2.05 11.0042 2.45C11.9042 2.75 12.8042 3.05 13.7041 3.15C13.7043 6.75 12.9043 9.65 11.2043 11.95Z" fill="#08B848"/>
<path d="M10.2043 10.65C9.60429 11.45 8.90422 12.05 8.00431 12.65C7.10429 12.15 6.40434 11.45 5.80436 10.65C4.70439 9.15 4.10441 7.15 4.20439 4.75C4.80436 4.65 5.40434 4.45 6.00444 4.25C6.60441 4.05 7.30448 3.75 8.00444 3.35C8.70439 3.75 9.40446 4.05 10.0044 4.25C10.6044 4.45 11.2044 4.65 11.8045 4.75C11.8044 7.15 11.3044 9.15 10.2043 10.65Z" fill="#08B848" stroke="white" stroke-width="0.9449" stroke-miterlimit="10"/>
</g>
</svg>
