<svg width="24" height="24" viewBox="0 0 24 24" fill="none" xmlns="http://www.w3.org/2000/svg">
<mask id="mask0_1742_3214" style="mask-type:alpha" maskUnits="userSpaceOnUse" x="0" y="0" width="24" height="24">
<path d="M24 0H0V24H24V0Z" fill="#F0C4CC"/>
</mask>
<g mask="url(#mask0_1742_3214)">
<path fill-rule="evenodd" clip-rule="evenodd" d="M17.9998 15H16.9998V9.00007C16.9998 6.23871 14.7613 4.00014 11.9999 4.00014C9.23854 4.00014 6.99997 6.23871 6.99997 9.00007V15H5.99999C5.44771 15 5 15.4477 5 16C5 16.5523 5.44771 17 5.99999 17H17.9998C18.5521 17 18.9998 16.5523 18.9998 16C18.9998 15.4477 18.5521 15 17.9998 15ZM8.99995 15V9.00007C8.99995 7.34329 10.343 6.00011 11.9999 6.00011C13.6568 6.00011 14.9999 7.34329 14.9999 9.00007V15H8.99995Z" fill="#447DB8"/>
<path d="M11.9999 19.9999C10.8953 19.9999 9.99994 19.1045 9.99994 18H13.9999C13.9999 19.1045 13.1045 19.9999 11.9999 19.9999Z" fill="#447DB8"/>
<path d="M8.49994 8.84137C8.49994 7.0065 10.0668 5.51912 11.9999 5.51912C13.9329 5.51912 15.4998 7.0066 15.4998 8.84137V15.486H8.49994V8.84137Z" fill="#447DB8"/>
<path d="M21.4998 5.00012C21.4998 2.51487 19.4851 0.500183 16.9998 0.500183C14.5146 0.500183 12.4999 2.51487 12.4999 5.00012C12.4999 7.48537 14.5146 9.50006 16.9998 9.50006C19.4851 9.50006 21.4998 7.48537 21.4998 5.00012Z" fill="#CC0000"/>
<path d="M21.4998 5.00012C21.4998 2.51487 19.4851 0.500183 16.9998 0.500183C14.5146 0.500183 12.4999 2.51487 12.4999 5.00012C12.4999 7.48537 14.5146 9.50006 16.9998 9.50006C19.4851 9.50006 21.4998 7.48537 21.4998 5.00012Z" stroke="white" stroke-width="0.999986"/>
</g>
</svg>
