<svg width="16" height="16" viewBox="0 0 16 16" fill="none" xmlns="http://www.w3.org/2000/svg">
<mask id="mask0_1742_2364" style="mask-type:alpha" maskUnits="userSpaceOnUse" x="0" y="0" width="16" height="16">
<rect width="16" height="16" fill="#D9D9D9"/>
</mask>
<g mask="url(#mask0_1742_2364)">
<path d="M12.3291 10.0535H7.61206H6.46606H0.737061C0.521118 10.0535 0.349121 10.2255 0.349121 10.4365C0.349121 10.9985 0.792114 11.4405 1.35413 11.4405H6.45813H11.6871C12.2461 11.4405 12.6962 11.0025 12.6962 10.4365C12.7041 10.2255 12.5371 10.0535 12.3291 10.0535Z" fill="#294F69"/>
<path d="M2.57104 9.65549H6.4751H7.62109H11.5171C12.1011 9.65549 12.5791 9.18049 12.5791 8.59849V1.92949C12.5791 1.34949 12.1001 0.875488 11.5171 0.875488H8.4801H2.57715C1.99219 0.875488 1.51514 1.34949 1.51514 1.92949V8.59849C1.51709 9.18049 1.98706 9.65549 2.57104 9.65549ZM2.49207 1.92949C2.49207 1.88849 2.51807 1.85349 2.56104 1.85349H5.59802H11.51C11.5551 1.85349 11.574 1.88849 11.574 1.92949V8.59849C11.574 8.64349 11.553 8.65949 11.51 8.65949H7.61401H6.46802H2.56104C2.51807 8.65949 2.49207 8.63949 2.49207 8.59849V1.92949Z" fill="#294F69"/>
<path d="M2.49207 1.92949C2.49207 1.88849 2.51807 1.85349 2.56104 1.85349H5.59802H11.51C11.5551 1.85349 11.574 1.88849 11.574 1.92949V8.59849C11.574 8.64349 11.553 8.65949 11.51 8.65949H7.61401H6.46802H2.56104C2.51807 8.65949 2.49207 8.63949 2.49207 8.59849V1.92949Z" fill="#E6EEF3"/>
<path d="M12.8291 10.5595C12.5302 10.5145 12.2061 9.72549 12.2061 9.72549C12.2061 9.72549 13.395 8.89149 13.6021 7.77149C14.119 7.77149 14.4331 6.58049 13.9141 6.16049C13.9351 5.72149 14.2681 2.69549 11.0181 2.69549C7.78906 2.69549 8.11804 5.71649 8.12207 6.16049C7.61011 6.58049 7.93408 7.77149 8.43408 7.77149C8.62207 8.89349 9.8241 9.72749 9.8241 9.72749C9.8241 9.72749 9.50012 10.5145 9.20105 10.5595C8.24207 10.7055 6.14307 12.2275 6.14307 13.8955C6.14307 13.8955 7.45508 15.1245 10.9971 15.1245H11.0001C14.5411 15.1245 15.8551 13.8955 15.8551 13.8955C15.8911 12.2255 13.7871 10.7075 12.8291 10.5595Z" fill="#08B848" stroke="white" stroke-width="0.3" stroke-miterlimit="10"/>
</g>
</svg>
