<svg width="16" height="16" viewBox="0 0 16 16" fill="none" xmlns="http://www.w3.org/2000/svg">
<mask id="mask0_1742_1974" style="mask-type:alpha" maskUnits="userSpaceOnUse" x="0" y="0" width="16" height="16">
<rect width="16" height="16" fill="#D9D9D9"/>
</mask>
<g mask="url(#mask0_1742_1974)">
<path d="M12.891 3.03737C10.168 0.319375 5.763 0.322375 3.04 3.03737C0.32 5.75937 0.32 10.1664 3.04 12.8864C5.762 15.6074 10.169 15.6074 12.891 12.8884C15.609 10.1684 15.609 5.75837 12.891 3.03737Z" fill="#FF6400"/>
<path d="M4.59962 9.10853C4.44362 9.10853 4.31662 8.98153 4.31662 8.82753V7.10053C4.31662 6.94353 4.44362 6.81653 4.59962 6.81653H11.3549C11.502 6.81653 11.6329 6.94353 11.6329 7.10053V8.82753C11.6329 8.98353 11.502 9.11053 11.3549 9.11053H4.59962V9.10853Z" fill="white"/>
</g>
</svg>
