<svg width="16" height="16" viewBox="0 0 16 16" fill="none" xmlns="http://www.w3.org/2000/svg">
<mask id="mask0_1742_2856" style="mask-type:alpha" maskUnits="userSpaceOnUse" x="0" y="0" width="16" height="16">
<rect width="16" height="16" fill="#D9D9D9"/>
</mask>
<g mask="url(#mask0_1742_2856)">
<path d="M3.70642 3.84235C3.05029 4.81633 2.54736 6.16945 2.54736 8.01531C2.54736 9.83053 3.06055 11.1734 3.70642 12.1576H2.78345C2.19885 11.3368 1.54272 10.0041 1.54272 8.01531C1.55298 6.01627 2.19885 4.67336 2.78345 3.84235L3.70642 3.84235Z" fill="#7295A3"/>
<path d="M4.83618 10.4139C4.83618 10.0348 5.09143 9.76797 5.45142 9.76797C5.81018 9.76797 6.05518 10.0348 6.05518 10.4139C6.05518 10.7828 5.82031 11.0598 5.43994 11.0598C5.0813 11.0598 4.83618 10.7828 4.83618 10.4139Z" fill="#7295A3"/>
<path d="M7.47339 10.4139C7.47339 10.0348 7.72876 9.76797 8.08875 9.76797C8.44739 9.76797 8.6925 10.0348 8.6925 10.4139C8.6925 10.7828 8.45764 11.0598 8.07727 11.0598C7.71851 11.0598 7.47339 10.7828 7.47339 10.4139Z" fill="#7295A3"/>
<path d="M10.1095 10.4139C10.1095 10.0348 10.3647 9.76797 10.7235 9.76797C11.0835 9.76797 11.3285 10.0348 11.3285 10.4139C11.3285 10.7828 11.0936 11.0598 10.7133 11.0598C10.3546 11.0598 10.1095 10.7828 10.1095 10.4139Z" fill="#7295A3"/>
<path d="M12.2949 12.1576C12.9408 11.1836 13.4425 9.82032 13.4425 7.99488C13.4425 6.16945 12.9408 4.82655 12.2949 3.84235H13.2076C13.8011 4.66315 14.4573 5.99584 14.4573 8.00509C14.4471 10.0041 13.8011 11.3266 13.2076 12.1576H12.2949Z" fill="#7295A3"/>
</g>
</svg>
