<svg width="16" height="16" viewBox="0 0 16 16" fill="none" xmlns="http://www.w3.org/2000/svg">
<mask id="mask0_1742_2509" style="mask-type:alpha" maskUnits="userSpaceOnUse" x="0" y="0" width="16" height="16">
<rect width="16" height="16" fill="#D9D9D9"/>
</mask>
<g mask="url(#mask0_1742_2509)">
<path d="M14.9119 8.10817C14.7682 8.31814 14.6393 8.5403 14.4783 8.73605C13.609 9.79276 12.5933 10.6748 11.3655 11.2964C10.5276 11.7205 9.64394 11.9909 8.70632 12.0798C6.88466 12.2526 5.23732 11.769 3.72853 10.7626C2.74892 10.1092 1.93215 9.28543 1.22023 8.35327C1.04457 8.12338 1.04408 7.87433 1.21889 7.64545C2.04042 6.57013 3.00002 5.64551 4.17299 4.95691C5.14296 4.38754 6.18202 4.02585 7.30653 3.91954C8.94325 3.76481 10.4549 4.14542 11.8611 4.97727C13.0239 5.66507 13.9738 6.5872 14.787 7.65701C14.8401 7.72675 14.8709 7.81341 14.9119 7.8922C14.9119 7.96419 14.9119 8.03618 14.9119 8.10817ZM5.09877 7.90627C5.06911 9.53345 6.32814 10.875 7.91286 10.9046C9.52284 10.9348 10.8744 9.66371 10.9028 8.09284C10.9323 6.46592 9.67128 5.12352 8.08742 5.09575C6.47048 5.06739 5.12758 6.33015 5.09877 7.90627Z" fill="#486A7F"/>
<path d="M9.56607 8.00385C9.57193 7.14903 8.87552 6.43924 8.02664 6.43508C7.1597 6.43082 6.44266 7.13104 6.43741 7.98707C6.43216 8.84995 7.1293 9.56036 7.98453 9.56368C8.8483 9.56703 9.56009 8.86502 9.56607 8.00385Z" fill="#4B96CD"/>
<path d="M9.56607 8.00385C9.56009 8.86502 8.8483 9.56703 7.98453 9.56368C7.1293 9.56036 6.43216 8.84995 6.43741 7.98707C6.44266 7.13104 7.1597 6.43082 8.02664 6.43508C8.87552 6.43924 9.57193 7.14903 9.56607 8.00385Z" fill="#4B96CD"/>
</g>
</svg>
