<svg width="16" height="16" viewBox="0 0 16 16" fill="none" xmlns="http://www.w3.org/2000/svg">
<mask id="mask0_1742_2040" style="mask-type:alpha" maskUnits="userSpaceOnUse" x="0" y="0" width="16" height="16">
<rect width="16" height="16" fill="#D9D9D9"/>
</mask>
<g mask="url(#mask0_1742_2040)">
<path d="M15.3419 2.9485H0.657928C0.479919 2.9485 0.345917 3.0935 0.345917 3.2705V5.2625V6.1235V9.8455V10.4985V12.7345C0.345917 12.9125 0.491913 13.0515 0.657928 13.0515H15.3419C15.5189 13.0515 15.6539 12.9055 15.6539 12.7345V10.5005V9.8465V6.1225V5.2625V3.2695C15.6599 3.0925 15.5179 2.9485 15.3419 2.9485Z" fill="#FF9C00"/>
<path d="M4.90289 4.4595C5.47989 4.3625 6.2189 4.3085 7.0069 4.3085C8.3609 4.3085 9.2999 4.5885 9.9679 5.1485C10.6559 5.7195 11.0979 6.5805 11.0979 7.8185C11.0979 9.1115 10.6599 10.0805 9.9679 10.7055C9.23889 11.3615 8.0939 11.6955 6.68289 11.6955C5.9119 11.6955 5.32889 11.6525 4.9039 11.5915L4.90289 4.4595ZM6.2269 10.6105C6.41489 10.6415 6.68991 10.6415 6.9559 10.6415C8.68491 10.6535 9.69989 9.7035 9.69989 7.8635C9.72089 6.2595 8.78488 5.3435 7.13788 5.3435C6.70789 5.3435 6.40887 5.3755 6.23389 5.4185L6.2269 10.6105Z" fill="white"/>
</g>
</svg>
