<svg width="16" height="16" viewBox="0 0 16 16" fill="none" xmlns="http://www.w3.org/2000/svg">
<mask id="mask0_1742_2289" style="mask-type:alpha" maskUnits="userSpaceOnUse" x="0" y="0" width="16" height="16">
<rect width="16" height="16" fill="#D9D9D9"/>
</mask>
<g mask="url(#mask0_1742_2289)">
<path d="M6.15753 3.30149V5.33049C6.15753 5.62649 6.40753 5.87549 6.71954 5.87549L7.32153 5.87649L7.32355 6.99949C7.32355 6.99949 7.30255 7.12449 7.26154 7.16549C5.65753 7.29649 4.32355 7.90849 4.32251 9.7555C4.31952 9.9845 4.32251 9.8575 4.32452 10.1185H3.67853C3.36652 10.1185 3.11652 10.3645 3.11652 10.6615V12.6905C3.11652 12.9875 3.36652 13.2245 3.67853 13.2245H6.18451C6.49652 13.2245 6.74548 12.9835 6.74548 12.6905V10.6615C6.74548 10.3645 6.4975 10.1185 6.18451 10.1185H5.54852C5.54852 9.8005 5.54852 10.0505 5.54852 9.7225C5.54852 8.7655 5.86053 8.6285 6.40552 8.4895C7.06854 8.2755 8.9165 8.2315 9.59851 8.4895C10.0085 8.6355 10.4525 8.7655 10.4555 9.7225C10.4555 10.0525 10.4555 9.7885 10.4555 10.1185H9.81549C9.50348 10.1185 9.25452 10.3645 9.25452 10.6615V12.6905C9.25452 12.9875 9.5025 13.2245 9.81549 13.2245H12.3215C12.6335 13.2245 12.8835 12.9835 12.8835 12.6905V10.6615C12.8835 10.3645 12.6335 10.1185 12.3215 10.1185H11.6805C11.6835 9.8395 11.6835 9.9815 11.6835 9.7555C11.6765 7.87049 10.4245 7.25949 8.71948 7.14549C8.68549 7.10649 8.66748 7.06249 8.66748 7.00849L8.65747 5.89049L9.21948 5.88249C9.52246 5.88249 9.78149 5.63449 9.78149 5.34449V3.31449C9.78149 3.01949 9.5235 2.77549 9.21948 2.77549H6.71051C6.40753 2.7735 6.15753 3.00749 6.15753 3.30149Z" fill="#009AD5"/>
</g>
</svg>
