<svg width="16" height="16" viewBox="0 0 16 16" fill="none" xmlns="http://www.w3.org/2000/svg">
<mask id="mask0_1742_1667" style="mask-type:alpha" maskUnits="userSpaceOnUse" x="0" y="0" width="16" height="16">
<rect width="16" height="16" fill="#D9D9D9"/>
</mask>
<g mask="url(#mask0_1742_1667)">
<path d="M12.6576 6.06371C12.6576 3.26372 10.2576 1.06371 7.45762 1.36371C5.35761 1.56371 3.55763 3.36371 3.35761 5.46371C3.25761 6.76371 3.65762 8.06372 4.35761 8.96372C5.05761 9.86372 5.45762 10.8637 5.45762 11.9637H10.5576C10.5576 10.8637 10.9576 9.86372 11.6576 8.96372C12.2576 8.16372 12.6576 7.16371 12.6576 6.06371Z" fill="#FFC600"/>
<path d="M5.25763 12.9637H10.7576V10.5637H5.25763V12.9637Z" fill="#C9893B"/>
<path d="M5.25763 12.9637C5.65762 13.9637 6.85764 14.6637 7.95763 14.6637C9.15762 14.6637 10.3576 13.9637 10.6576 12.9637C10.7576 12.9637 5.25763 12.9637 5.25763 12.9637Z" fill="#294F69"/>
<path d="M7.95761 9.96371C10.1115 9.96371 11.8576 8.21762 11.8576 6.06371C11.8576 3.90981 10.1115 2.16372 7.95761 2.16372C5.8037 2.16372 4.05762 3.90981 4.05762 6.06371C4.05762 8.21762 5.8037 9.96371 7.95761 9.96371Z" fill="#FFD800"/>
<path d="M7.95761 8.96371C9.55923 8.96371 10.8576 7.66534 10.8576 6.06371C10.8576 4.46209 9.55923 3.16372 7.95761 3.16372C6.35599 3.16372 5.05762 4.46209 5.05762 6.06371C5.05762 7.66534 6.35599 8.96371 7.95761 8.96371Z" fill="#FFE600"/>
</g>
</svg>
