<svg width="16" height="16" viewBox="0 0 16 16" fill="none" xmlns="http://www.w3.org/2000/svg">
<mask id="mask0_1742_2813" style="mask-type:alpha" maskUnits="userSpaceOnUse" x="0" y="0" width="16" height="16">
<rect width="16" height="16" fill="#D9D9D9"/>
</mask>
<g mask="url(#mask0_1742_2813)">
<path d="M4.22913 5.72158C4 5.72158 3.8125 5.53408 3.8125 5.30491V2.49241C3.8125 2.26324 4 2.07574 4.22913 2.07574C4.45825 2.07574 4.64575 2.26324 4.64575 2.49241V5.30491C4.64575 5.53408 4.45825 5.72158 4.22913 5.72158Z" fill="#486A7F"/>
<path d="M11.7708 5.72158C11.5416 5.72158 11.3541 5.53408 11.3541 5.30491V2.49241C11.3541 2.26324 11.5416 2.07574 11.7708 2.07574C12 2.07574 12.1875 2.26324 12.1875 2.49241V5.30491C12.1875 5.53408 12 5.72158 11.7708 5.72158Z" fill="#486A7F"/>
<path d="M9.25696 5.72158C9.02771 5.72158 8.84021 5.53408 8.84021 5.30491V2.49241C8.84021 2.26324 9.02771 2.07574 9.25696 2.07574C9.48608 2.07574 9.67358 2.26324 9.67358 2.49241V5.30491C9.67358 5.53408 9.48608 5.72158 9.25696 5.72158Z" fill="#486A7F"/>
<path d="M6.74304 5.72158C6.51392 5.72158 6.32642 5.53408 6.32642 5.30491V2.49241C6.32642 2.26324 6.51392 2.07574 6.74304 2.07574C6.97217 2.07574 7.15967 2.26324 7.15967 2.49241V5.30491C7.15967 5.53408 6.97217 5.72158 6.74304 5.72158Z" fill="#486A7F"/>
<path d="M14.5632 4.03877H1.52441V13.3908H14.5632V4.03877Z" fill="#E8F0F5"/>
<path d="M14.7299 3.18777H10.84L9.88489 3.18677H8.19397H7.23987H5.55188H4.59485H1.29077C1.02661 3.18677 0.811768 3.39777 0.811768 3.65877V13.4533C0.811768 13.7133 1.02661 13.9243 1.29077 13.9243H14.715C14.976 13.9243 15.1879 13.7133 15.1879 13.4533V3.65877C15.1959 3.39877 14.9879 3.18777 14.7299 3.18777ZM14.2899 4.13077V13.172H14.2599H1.77856V4.13077" fill="#486A7F"/>
<path d="M6.97205 7.29376H3.6438C3.41406 7.29376 3.21838 7.48517 3.21838 7.72001C3.21838 7.95558 3.41785 8.14625 3.6438 8.14625H6.97205C7.20178 8.14625 7.39819 7.95558 7.39819 7.72001C7.39819 7.48517 7.20312 7.29376 6.97205 7.29376Z" fill="#486A7F"/>
<path d="M6.97205 9.18723H3.6438C3.41406 9.18723 3.21838 9.37863 3.21838 9.61347C3.21838 9.84904 3.41785 10.0397 3.6438 10.0397H6.97205C7.20178 10.0397 7.39819 9.84904 7.39819 9.61347C7.39819 9.37863 7.20312 9.18723 6.97205 9.18723Z" fill="#486A7F"/>
<path d="M12.3555 7.29376H9.02722C8.79749 7.29376 8.60181 7.48517 8.60181 7.72001C8.60181 7.95558 8.80127 8.14625 9.02722 8.14625H12.3555C12.5851 8.14625 12.7815 7.95558 12.7815 7.72001C12.7815 7.48517 12.5865 7.29376 12.3555 7.29376Z" fill="#486A7F"/>
<path d="M12.3555 9.18723H9.02722C8.79749 9.18723 8.60181 9.37863 8.60181 9.61347C8.60181 9.84904 8.80127 10.0397 9.02722 10.0397H12.3555C12.5851 10.0397 12.7815 9.84904 12.7815 9.61347C12.7815 9.37863 12.5865 9.18723 12.3555 9.18723Z" fill="#486A7F"/>
</g>
</svg>
