<svg width="16" height="16" viewBox="0 0 16 16" fill="none" xmlns="http://www.w3.org/2000/svg">
<mask id="mask0_1742_1962" style="mask-type:alpha" maskUnits="userSpaceOnUse" x="0" y="0" width="16" height="16">
<rect width="16" height="16" fill="#D9D9D9"/>
</mask>
<g mask="url(#mask0_1742_1962)">
<path d="M9.83911 12.248H10.9711V2.11205H1.73615V14.6691H9.83911V12.248Z" fill="#E8F0F5"/>
<path d="M11.0092 2.41608V12.2891H11.9472V1.94408C11.9472 1.68408 11.7352 1.47308 11.4682 1.47308H9.69421V0.781082C9.69421 0.521082 9.47723 0.309082 9.21521 0.309082C8.94922 0.309082 8.73621 0.520082 8.73621 0.781082V1.47308H7.04822V0.781082C7.04822 0.521082 6.83624 0.309082 6.56921 0.309082C6.3042 0.309082 6.09021 0.520082 6.09021 0.781082V1.47308H4.40222V0.781082C4.40222 0.521082 4.19025 0.309082 3.92322 0.309082C3.66119 0.309082 3.44623 0.520082 3.44623 0.781082V1.47308H1.6712C1.40521 1.47308 1.1922 1.68408 1.1922 1.94508V14.1981C1.1922 14.4581 1.40521 14.6691 1.6712 14.6691H9.8512L9.83911 13.7281H2.13513V2.41608" fill="#486A7F"/>
<path d="M14.6671 9.608L13.9291 8.868C13.8251 8.764 13.7001 8.714 13.5582 8.714C13.4122 8.714 13.2872 8.773 13.1872 8.868L9.59918 12.46L7.99518 10.851C7.89117 10.747 7.76617 10.699 7.62219 10.699C7.4762 10.699 7.3512 10.761 7.2522 10.851L6.5152 11.596C6.41119 11.699 6.3692 11.822 6.3692 11.962C6.3692 12.108 6.42419 12.233 6.5152 12.333L8.4942 14.312L9.22321 15.056C9.32721 15.16 9.45221 15.205 9.59222 15.205C9.73822 15.205 9.86322 15.154 9.96722 15.056L10.7072 14.312L14.6602 10.359C14.7642 10.255 14.8062 10.13 14.8062 9.984C14.8181 9.834 14.7621 9.709 14.6671 9.608Z" fill="#08B848"/>
<path d="M8.38715 5.58099H3.86713C3.55115 5.58099 3.28711 5.84099 3.28711 6.15999C3.28711 6.47999 3.55109 6.73899 3.86713 6.73899H8.38715C8.70312 6.73899 8.96716 6.47999 8.96716 6.15999C8.96912 5.83999 8.70813 5.58099 8.38715 5.58099Z" fill="#486A7F"/>
<path d="M7.40015 8.149H3.87915C3.56018 8.149 3.30017 8.409 3.30017 8.727C3.30017 9.039 3.56018 9.309 3.87915 9.309H7.40015C7.71216 9.309 7.97113 9.038 7.97113 8.727C7.97113 8.409 7.72015 8.149 7.40015 8.149Z" fill="#486A7F"/>
</g>
</svg>
