<svg width="16" height="16" viewBox="0 0 16 16" fill="none" xmlns="http://www.w3.org/2000/svg">
<mask id="mask0_1742_1984" style="mask-type:alpha" maskUnits="userSpaceOnUse" x="0" y="0" width="16" height="16">
<rect width="16" height="16" fill="#7295A3"/>
</mask>
<g mask="url(#mask0_1742_1984)">
<path d="M8.64691 11.9389H9.77893V1.80297H0.543945V14.36H8.64691V11.9389Z" fill="#E8F0F5"/>
<path d="M9.81702 2.107V11.98H10.755V1.635C10.755 1.375 10.543 1.164 10.276 1.164H8.50201V0.472C8.50201 0.212 8.28503 0 8.02301 0C7.75702 0 7.54401 0.211 7.54401 0.472V1.164H5.85602V0.472C5.85602 0.212 5.64404 0 5.37701 0C5.112 0 4.89801 0.211 4.89801 0.472V1.164H3.21002V0.472C3.21002 0.212 2.99805 0 2.73102 0C2.46899 0 2.25403 0.211 2.25403 0.472V1.164H0.479004C0.213013 1.164 0 1.375 0 1.636V13.889C0 14.149 0.213013 14.36 0.479004 14.36H8.659L8.64691 13.419H0.942932V2.107" fill="#ACC1D7"/>
<path d="M7.38715 5.58099H2.86713C2.55115 5.58099 2.28711 5.84099 2.28711 6.15999C2.28711 6.47999 2.55109 6.73899 2.86713 6.73899H7.38715C7.70312 6.73899 7.96716 6.47999 7.96716 6.15999C7.96912 5.83999 7.70813 5.58099 7.38715 5.58099Z" fill="#ACC1D7"/>
<path d="M6.40015 8.14899H2.87915C2.56018 8.14899 2.30017 8.40899 2.30017 8.72699C2.30017 9.03899 2.56018 9.30899 2.87915 9.30899H6.40015C6.71216 9.30899 6.97113 9.03799 6.97113 8.72699C6.97113 8.40899 6.72015 8.14899 6.40015 8.14899Z" fill="#ACC1D7"/>
<path d="M13.5674 9.12508C12.0691 7.62497 9.63525 7.62497 8.125 9.12508C6.625 10.6243 6.625 13.0656 8.125 14.5675C9.62329 16.0712 12.05 16.0712 13.5674 14.5675C15.0703 13.0656 15.0703 10.6279 13.5674 9.12508Z" fill="#FF6400"/>
<path d="M8.92993 12.4109V11.2828H12.7644V12.4109H8.92993Z" fill="#E8F0F5"/>
</g>
</svg>
