<svg width="16" height="16" viewBox="0 0 16 16" fill="none" xmlns="http://www.w3.org/2000/svg">
<mask id="mask0_1742_2218" style="mask-type:alpha" maskUnits="userSpaceOnUse" x="0" y="0" width="16" height="16">
<rect width="16" height="16" fill="#D9D9D9"/>
</mask>
<g mask="url(#mask0_1742_2218)">
<path d="M13.7825 7.71249L10.4015 4.36149C10.2135 4.19949 10.0515 4.27149 10.0515 4.51949V5.91849C10.0515 6.16649 9.85553 6.36749 9.61053 6.36749L6.63153 6.37549H5.44653V6.37949C5.21155 6.37949 5.00854 6.58249 5.00854 6.82849V9.1935C5.00854 9.4395 5.20953 9.6385 5.45654 9.6385L9.55554 9.6175H9.61456C9.85858 9.6195 10.0555 9.8125 10.0555 10.0555V11.4515C10.0555 11.6995 10.2095 11.7655 10.4055 11.6065L13.7865 8.2545C13.9725 8.1355 13.9725 7.87649 13.7825 7.71249Z" fill="#ACC1D7"/>
<path d="M9.46844 12.3095V12.1215C9.46844 12.1215 9.43146 11.9335 9.36444 11.8875C9.30243 11.8285 9.13544 11.8165 9.13544 11.8165H8.57343H3.96942C3.61444 11.8165 3.3194 11.5725 3.3194 11.2695V8.0405V7.96149V4.91549C3.3194 4.61249 3.61438 4.36849 3.96942 4.36849H8.57343H9.13544C9.13544 4.36849 9.31744 4.35249 9.36444 4.29549C9.42645 4.24049 9.46844 4.06149 9.46844 4.06149V3.6915C9.46844 3.2955 9.07245 2.9715 8.61047 2.9715H2.93347C2.45447 2.9715 2.07446 3.2925 2.07446 3.6915V7.9615V8.0395V12.3095C2.07446 12.7075 2.47046 13.0285 2.93347 13.0285H8.61047C9.08447 13.0285 9.46844 12.7065 9.46844 12.3095Z" fill="#ACC1D7"/>
</g>
</svg>
