<svg width="16" height="16" viewBox="0 0 16 16" fill="none" xmlns="http://www.w3.org/2000/svg">
<mask id="mask0_1742_2544" style="mask-type:alpha" maskUnits="userSpaceOnUse" x="0" y="0" width="16" height="16">
<rect width="16" height="16" fill="#D9D9D9"/>
</mask>
<g mask="url(#mask0_1742_2544)">
<path d="M11.0642 1.37196H1.82837V13.717H11.0642V1.37196Z" fill="#E8F0F5"/>
<path d="M11.5393 0.520958L1.74341 0.519958C1.47241 0.519958 1.2644 0.730959 1.2644 0.991959V13.246C1.2644 13.506 1.47925 13.717 1.74341 13.717H11.5144C11.7854 13.717 11.9934 13.506 11.9934 13.246V0.991959C12.0083 0.731959 11.7993 0.520958 11.5393 0.520958ZM11.0623 12.776H2.20825V1.46396L11.0845 1.46396V12.776H11.0623Z" fill="#486A7F"/>
<path d="M9.39771 8.57439H3.73462C3.4729 8.57439 3.25537 8.78957 3.25537 9.05357C3.25537 9.31841 3.4729 9.53276 3.73462 9.53276H9.39771C9.65918 9.53276 9.87671 9.31841 9.87671 9.05357C9.8811 8.78957 9.66748 8.57439 9.39771 8.57439Z" fill="#486A7F"/>
<path d="M9.39771 6.57309H3.73462C3.4729 6.57309 3.25537 6.78827 3.25537 7.05228C3.25537 7.31711 3.4729 7.53146 3.73462 7.53146H9.39771C9.65918 7.53146 9.87671 7.31711 9.87671 7.05228C9.8811 6.78827 9.66748 6.57309 9.39771 6.57309Z" fill="#486A7F"/>
<path d="M9.20801 2.81351H7.11987C6.86157 2.81351 6.64624 3.02869 6.64624 3.29269C6.64624 3.55753 6.86572 3.77436 7.11987 3.77436H9.20801C9.46606 3.77436 9.68872 3.55753 9.68872 3.29269C9.68774 3.02869 9.46851 2.81351 9.20801 2.81351Z" fill="#486A7F"/>
<path d="M13.6014 9.05097C12.084 7.53973 9.63202 7.5414 8.1225 9.05097C6.60956 10.5644 6.60956 13.0147 8.1225 14.5271C9.63544 16.04 12.0873 16.04 13.6014 14.5282C15.1137 13.0159 15.1137 10.5633 13.6014 9.05097Z" fill="#08B848"/>
<path d="M10.1628 12.736V13.8983C10.1628 13.9726 10.2129 14.0389 10.2792 14.0704C10.3455 14.102 10.4247 14.0931 10.4813 14.0527L12.8519 11.9463C12.9021 11.9091 12.9247 11.8534 12.9247 11.7944C12.9247 11.7354 12.9037 11.6804 12.8519 11.6424L10.4773 9.53282C10.4191 9.48513 10.3358 9.47786 10.2727 9.511C10.2073 9.54171 10.1571 9.6088 10.1571 9.68316V10.8155C10.1685 11.6796 10.1685 11.7879 10.1628 12.736Z" fill="white"/>
</g>
</svg>
