<svg width="16" height="16" viewBox="0 0 16 16" fill="none" xmlns="http://www.w3.org/2000/svg">
<path d="M12.9505 3.048C10.2087 0.315825 5.778 0.31884 3.05035 3.048C0.31655 5.7842 0.31655 10.2142 3.05035 12.9484C5.78415 15.6835 10.2147 15.6835 12.9505 12.9504C15.6832 10.2162 15.6832 5.78219 12.9505 3.048Z" fill="#4B96CD"/>
<path d="M7 10.7683C7 10.9228 6.9 11 6.7 11H5.3C5.1 11 5 10.9228 5 10.7683V5.23165C5 5.07722 5.1 5 5.3 5H6.7C6.8 5 7 5.07722 7 5.23165V10.7683Z" fill="white"/>
<path d="M11 10.7683C11 10.9228 10.9 11 10.7 11H9.3C9.1 11 9 10.9228 9 10.7683V5.23165C9 5.07722 9.1 5 9.3 5H10.7C10.8 5 11 5.07722 11 5.23165V10.7683Z" fill="white"/>
</svg>
