<svg width="16" height="16" viewBox="0 0 16 16" fill="none" xmlns="http://www.w3.org/2000/svg">
<mask id="mask0_1742_3041" style="mask-type:alpha" maskUnits="userSpaceOnUse" x="0" y="0" width="16" height="16">
<rect width="16" height="16" fill="#D9D9D9"/>
</mask>
<g mask="url(#mask0_1742_3041)">
<path d="M12.9088 3.09222C10.1901 0.384433 5.79666 0.387422 3.09195 3.09222C0.381134 5.80398 0.381134 10.1944 3.09195 12.9042C5.80276 15.6149 10.1961 15.6149 12.9088 12.9062C15.6186 10.1964 15.6186 5.80199 12.9088 3.09222Z" fill="#08B848"/>
<path d="M6.61304 9.37079V11.0101C6.61304 11.115 6.66895 11.2085 6.76355 11.2529C6.85584 11.2974 6.97668 11.2848 7.04736 11.2278L10.3967 8.25701C10.4662 8.20457 10.4982 8.12591 10.4982 8.04269C10.4982 7.95947 10.4651 7.88195 10.3967 7.82837L7.04736 4.85298C6.97327 4.78572 6.85706 4.77546 6.76355 4.8222C6.66895 4.86438 6.61304 4.959 6.61304 5.06274V6.65987C6.61987 7.88081 6.61987 8.03357 6.61304 9.37079Z" fill="white"/>
</g>
</svg>
