<svg width="16" height="16" viewBox="0 0 16 16" fill="none" xmlns="http://www.w3.org/2000/svg">
<path d="M8 5.5C9.38071 5.5 10.5 6.61929 10.5 8C10.5 9.38071 9.38071 10.5 8 10.5C6.61929 10.5 5.5 9.38071 5.5 8C5.5 6.61929 6.61929 5.5 8 5.5Z" fill="#404952"/>
<path fill-rule="evenodd" clip-rule="evenodd" d="M9.58105 2.1582C10.0898 2.27893 10.5435 2.48 10.9668 2.71875L12.0801 2.23828L13.7578 3.87695L13.2773 4.99609C13.5174 5.4355 13.7036 5.91604 13.8379 6.39746L14.999 6.83496V9.19531L13.8408 9.61816C13.7091 10.1335 13.5352 10.5798 13.2803 11.0098L13.7607 12.1123L12.0869 13.7627L10.9854 13.2822C10.5581 13.5304 10.0807 13.7224 9.60059 13.8418L9.16016 15H6.83789L6.41504 13.8418C5.88998 13.7224 5.45305 13.5359 5.01367 13.2822L3.90625 13.7627L2.23926 12.1123L2.71973 11.0098C2.47423 10.5798 2.30019 10.0983 2.15918 9.61816L1.00098 9.19531V6.83496L2.15918 6.39746C2.2962 5.87538 2.47562 5.43612 2.71973 4.99805L2.23926 3.87891L3.87891 2.23828L4.98047 2.71875C5.41599 2.47868 5.89779 2.27759 6.37793 2.1582L6.8125 1H9.1582L9.58105 2.1582ZM8 3.5C5.51472 3.5 3.5 5.51472 3.5 8C3.5 10.4853 5.51472 12.5 8 12.5C10.4853 12.5 12.5 10.4853 12.5 8C12.5 5.51472 10.4853 3.5 8 3.5Z" fill="#404952"/>
</svg>
