<svg width="16" height="16" viewBox="0 0 16 16" fill="none" xmlns="http://www.w3.org/2000/svg">
<path opacity="0.3" fill-rule="evenodd" clip-rule="evenodd" d="M3.29887 12.2874C2.9413 12.7352 2.456 13 1.875 13C1.39175 13 1 12.5523 1 12C1 11.4477 1.39175 11 1.875 11C1.95025 11 1.97081 10.9836 2.0063 10.9392C2.07059 10.8586 2.16307 10.6785 2.24872 10.3261C2.42288 9.60956 2.47605 8.6078 2.5326 7.44453C2.53379 7.42002 2.53498 7.39542 2.53618 7.37075C2.58805 6.30163 2.64695 5.08766 2.87762 4.13861C2.99706 3.64722 3.18485 3.12427 3.51363 2.71259C3.8712 2.26484 4.3565 2 4.9375 2C5.55623 2 6.05029 2.31799 6.38876 2.81712C6.69399 3.26722 6.85341 3.83208 6.94938 4.35855C7.1244 5.31863 7.1497 6.54313 7.1729 7.66587C7.17505 7.76988 7.17718 7.87303 7.17941 7.97501C7.20741 9.25462 7.25046 10.375 7.44231 11.1723C7.53657 11.5641 7.64502 11.7775 7.73231 11.8829C7.7919 11.9549 7.85529 12 8 12C8.13878 12 8.31899 11.954 8.542 11.3572C8.77179 10.7423 8.90947 9.87021 9.04955 8.84562C9.06227 8.75263 9.07502 8.6581 9.08794 8.56244C9.20727 7.67836 9.33974 6.69692 9.57194 5.92492C9.70237 5.49129 9.89032 5.02795 10.1895 4.66155C10.5139 4.2641 10.9567 4 11.5 4C12.0056 4 12.4418 4.21494 12.773 4.59731C13.0779 4.9494 13.2518 5.39396 13.3613 5.79807C13.5691 6.56562 13.6297 7.53653 13.6808 8.35672C13.6823 8.38087 13.6838 8.40488 13.6853 8.42875C13.7425 9.34386 13.794 10.0882 13.9355 10.6106C14.0038 10.8627 14.0692 10.965 14.0958 10.9957C14.0958 10.9958 14.0956 10.9959 14.0954 10.9961C14.0937 10.9972 14.0894 11 14.125 11C14.6082 11 15 11.4477 15 12C15 12.5523 14.6082 13 14.125 13C13.6194 13 13.1832 12.7851 12.852 12.4027C12.5471 12.0506 12.3732 11.606 12.2637 11.2019C12.0559 10.4344 11.9953 9.46347 11.9442 8.64328C11.9427 8.61913 11.9412 8.59512 11.9397 8.57125C11.8825 7.65614 11.831 6.91179 11.6895 6.38943C11.6212 6.13729 11.5558 6.03498 11.5292 6.00425C11.5292 6.00419 11.5294 6.00407 11.5296 6.0039C11.5313 6.00283 11.5356 6 11.5 6C11.4993 6 11.4989 5.99945 11.4986 5.99888C11.497 5.99655 11.4952 5.99379 11.469 6.02595C11.4109 6.09705 11.322 6.25871 11.2269 6.57508C11.0487 7.16739 10.9403 7.96476 10.8128 8.9032C10.8015 8.98585 10.7902 9.06959 10.7786 9.15438C10.6452 10.1298 10.4821 11.2577 10.1514 12.1428C9.81382 13.046 9.17372 14 8 14C7.37909 14 6.85458 13.7326 6.4613 13.2577C6.0957 12.8162 5.88628 12.2484 5.75495 11.7027C5.49563 10.625 5.45666 9.24538 5.42996 8.02499C5.42809 7.93929 5.42627 7.8543 5.42447 7.77006C5.39903 6.57906 5.37679 5.53786 5.23617 4.76645C5.16124 4.35542 5.07115 4.13903 5.00553 4.04226C4.97647 3.99941 4.97499 3.99943 4.94789 3.99989C4.94479 3.99994 4.94135 4 4.9375 4C4.86225 4 4.84169 4.01641 4.8062 4.06085C4.74191 4.14135 4.64943 4.32153 4.56378 4.67389C4.38962 5.39044 4.33645 6.3922 4.2799 7.55547C4.27871 7.57998 4.27752 7.60458 4.27632 7.62925C4.22445 8.69837 4.16555 9.91234 3.93488 10.8614C3.81544 11.3528 3.62765 11.8757 3.29887 12.2874Z" fill="#294F69"/>
<path fill-rule="evenodd" clip-rule="evenodd" d="M3.86033 10.9642C3.4278 11.6421 2.75853 12 1.875 12C1.39175 12 1 11.5523 1 11C1 10.4477 1.39175 10 1.875 10C2.30397 10 2.40032 9.85792 2.44631 9.78583C2.55222 9.61984 2.62386 9.34258 2.7103 8.81571C2.71741 8.77235 2.72476 8.72586 2.73253 8.67673C2.79957 8.25269 2.89761 7.63259 3.14264 7.13474C3.296 6.82316 3.5204 6.5209 3.84973 6.30473C4.17636 6.09032 4.54618 6 4.9375 6C5.68139 6 6.27793 6.27173 6.66973 6.86875C6.95376 7.30157 7.06765 7.84723 7.13285 8.15962C7.14033 8.19549 7.14718 8.22827 7.15356 8.25746C7.23827 8.64471 7.29263 8.76785 7.34905 8.83417L7.34922 8.83437C7.36986 8.85864 7.49009 9 8 9C8.56163 9 8.84942 8.89277 9.00346 8.80092C9.14922 8.714 9.24655 8.60049 9.37813 8.4C9.39442 8.37516 9.41404 8.34382 9.43677 8.30751C9.55821 8.11349 9.76856 7.77741 10.0374 7.53163C10.4218 7.18018 10.8971 7 11.5 7C12.1976 7 12.7279 7.31798 13.1089 7.79303C13.4498 8.21805 13.6493 8.74535 13.7843 9.11538C13.8074 9.17885 13.8288 9.23804 13.8489 9.2934C13.9682 9.62314 14.0381 9.81639 14.1259 9.96085C14.1364 9.97805 14.1451 9.99097 14.152 10.0005C14.6228 10.0168 15 10.458 15 11C15 11.5523 14.6082 12 14.125 12C13.4264 12 12.9685 11.5624 12.6885 11.1016C12.4819 10.7616 12.3285 10.3314 12.2181 10.0217C12.2006 9.97271 12.1842 9.92674 12.1689 9.88462C12.0303 9.50465 11.9291 9.28195 11.8189 9.14447C11.7487 9.05702 11.6774 9 11.5 9C11.2324 9 11.1588 9.0675 11.1319 9.09215L11.1306 9.09337C11.0654 9.15296 11.0281 9.21139 10.9296 9.36549C10.8906 9.4266 10.8419 9.50276 10.7781 9.6C10.5816 9.89951 10.2961 10.286 9.81295 10.5741C9.33808 10.8572 8.75087 11 8 11C7.19882 11 6.55267 10.7671 6.09431 10.2283C5.67232 9.73227 5.53523 9.10561 5.45587 8.74281L5.45581 8.74254C5.35376 8.276 5.32222 8.14875 5.26973 8.06875C5.26938 8.06822 5.26905 8.06771 5.26873 8.06721C5.26432 8.06041 5.26172 8.05638 5.24331 8.04732C5.21378 8.03278 5.1264 8 4.9375 8C4.78194 8 4.72793 8.03468 4.72132 8.03902C4.72119 8.03911 4.72104 8.0392 4.72087 8.03931C4.71615 8.04235 4.69807 8.05397 4.6679 8.11526C4.57453 8.30497 4.52816 8.58773 4.43727 9.14195C4.43498 9.15589 4.43267 9.17 4.43033 9.18429C4.3527 9.65742 4.23294 10.3802 3.86033 10.9642Z" fill="#294F69"/>
</svg>
