<svg width="16" height="16" viewBox="0 0 16 16" fill="none" xmlns="http://www.w3.org/2000/svg">
<mask id="mask0_1742_2621" style="mask-type:alpha" maskUnits="userSpaceOnUse" x="0" y="0" width="16" height="16">
<rect width="16" height="16" fill="#D9D9D9"/>
</mask>
<g mask="url(#mask0_1742_2621)">
<path d="M8.05669 15C7.07852 15 6.16147 14.8137 5.30555 14.4411C4.44975 14.0685 3.70448 13.5649 3.06974 12.9303C2.43512 12.2955 1.93151 11.5503 1.55891 10.6945C1.1863 9.83853 1 8.92148 1 7.94331C1 6.24326 1.53472 4.74002 2.60417 3.43359C3.67361 2.12717 5.05903 1.31597 6.76042 1C6.55382 2.20312 6.6237 3.34549 6.97005 4.42708C7.31641 5.50868 7.90885 6.46875 8.7474 7.30729C9.56163 8.12153 10.5217 8.69878 11.6276 9.03906C12.7335 9.37934 13.8576 9.44618 15 9.23958C14.7083 10.9167 13.9032 12.296 12.5846 13.3776C11.2661 14.4592 9.75675 15 8.05669 15Z" fill="#447DB8"/>
</g>
</svg>
