<svg width="16" height="16" viewBox="0 0 16 16" fill="none" xmlns="http://www.w3.org/2000/svg">
<mask id="mask0_1742_2259" style="mask-type:alpha" maskUnits="userSpaceOnUse" x="0" y="0" width="16" height="16">
<rect width="16" height="16" fill="#D9D9D9"/>
</mask>
<g mask="url(#mask0_1742_2259)">
<path d="M9.87494 9.69199C9.56293 9.64499 9.22894 8.83799 9.22894 8.83799C9.22894 8.83799 10.4579 7.98399 10.6389 6.83799C11.1599 6.83799 11.4929 5.62299 10.9509 5.19299C10.9719 4.74399 11.3049 1.66199 8.01294 1.66199H8.01093C4.7179 1.66199 5.03992 4.74399 5.06494 5.19499C4.54395 5.62299 4.87494 6.83799 5.38391 6.83799C5.5769 7.98399 6.78992 8.83799 6.78992 8.83799C6.78992 8.83799 6.46191 9.64599 6.14594 9.69199C5.16693 9.83799 3.03796 11.395 3.03796 13.088C3.03796 13.088 4.38397 14.338 7.99994 14.338H8.00592C11.6099 14.338 12.9619 13.088 12.9619 13.088C12.986 11.393 10.8489 9.83999 9.87494 9.69199Z" fill="#486A7F"/>
</g>
</svg>
