<svg width="16" height="16" viewBox="0 0 16 16" fill="none" xmlns="http://www.w3.org/2000/svg">
<mask id="mask0_1742_2610" style="mask-type:alpha" maskUnits="userSpaceOnUse" x="0" y="0" width="16" height="16">
<rect width="16" height="16" fill="#D9D9D9"/>
</mask>
<g mask="url(#mask0_1742_2610)">
<path d="M10.1714 14.1248H13.1694C13.4712 14.1248 13.7173 13.8943 13.7173 13.6111V11.1843C13.7173 10.8943 13.4712 10.6589 13.1694 10.6589H12.2759L12.2808 10.3171C12.2817 10.2644 12.2817 10.2644 12.2817 10.1003C12.2739 8.1853 11.2163 7.2605 8.85205 7.10229L8.80127 7.09887L8.76709 7.06079C8.70459 6.98999 8.67334 6.90747 8.67334 6.81421L8.66064 5.35327L9.45654 5.34204C9.75049 5.34204 10.0063 5.09985 10.0063 4.82348V2.39477C10.0063 2.11304 9.75537 1.87524 9.4585 1.87524H6.45752H6.45361C6.30615 1.87524 6.16943 1.93042 6.06787 2.03149C5.97314 2.12524 5.92139 2.24878 5.92139 2.37915V4.80639C5.92139 5.09741 6.1665 5.33374 6.46826 5.33374L7.31299 5.33471L7.31592 6.80249C7.3042 6.88061 7.2749 7.02075 7.20557 7.09009L7.17236 7.1228L7.12646 7.12622C4.83936 7.31323 3.72705 8.28589 3.72607 10.1003C3.72412 10.2576 3.72412 10.2732 3.7251 10.3181C3.72607 10.3513 3.72705 10.4011 3.72803 10.533L3.729 10.6589H2.83057C2.52881 10.6589 2.28271 10.8943 2.28271 11.1843V13.6111C2.28271 13.8992 2.52295 14.1248 2.83057 14.1248H5.82764C6.12939 14.1248 6.37451 13.8943 6.37451 13.6111V11.1843C6.37451 10.8943 6.12939 10.6589 5.82764 10.6589H4.94287V10.0603C4.94287 8.83765 5.36572 8.64185 6.06104 8.4646C6.88525 8.198 9.12256 8.15308 9.95654 8.469L9.99561 8.48267C10.4946 8.65943 11.0591 8.85962 11.062 10.0603V10.6589H10.1714C9.87061 10.6589 9.62549 10.8943 9.62549 11.1843V13.6111C9.62549 13.8992 9.86572 14.1248 10.1714 14.1248Z" fill="#486A7F"/>
</g>
</svg>
