<svg width="16" height="16" viewBox="0 0 16 16" fill="none" xmlns="http://www.w3.org/2000/svg">
<mask id="mask0_1742_1845" style="mask-type:alpha" maskUnits="userSpaceOnUse" x="0" y="0" width="16" height="16">
<path d="M16 0H0V16H16V0Z" fill="#DCD2D4"/>
</mask>
<g mask="url(#mask0_1742_1845)">
<path d="M2.959 8.2225H13.04L14.535 14.0455H1.465L2.959 8.2225Z" fill="#E8F0F5"/>
<path d="M14.044 12.7365C14.044 12.8995 13.91 13.0375 13.745 13.0375H11.773C11.6 13.0375 11.461 12.8995 11.461 12.7365V3.71251C11.461 3.55651 11.606 3.42151 11.773 3.42151H13.745C13.91 3.42151 14.044 3.55651 14.044 3.71251V12.7365Z" fill="#486A7F"/>
<path d="M14.044 4.03851C14.044 4.19851 13.91 4.32651 13.745 4.32651H11.773C11.6 4.32651 11.461 4.19951 11.461 4.03851V3.71251C11.461 3.55651 11.606 3.42151 11.773 3.42151H13.745C13.91 3.42151 14.044 3.55651 14.044 3.71251V4.03851Z" fill="#62859B"/>
<path d="M7.641 12.7365C7.641 12.8995 7.508 13.0375 7.353 13.0375H5.368C5.205 13.0375 5.075 12.8995 5.075 12.7365V4.2815C5.075 4.1205 5.205 3.9895 5.368 3.9895H7.353C7.508 3.9895 7.641 4.1205 7.641 4.2815V12.7365Z" fill="#08B848"/>
<path d="M7.641 4.6035C7.641 4.7775 7.508 4.8975 7.353 4.8975H5.368C5.205 4.8975 5.075 4.7795 5.075 4.6035V4.2815C5.075 4.1205 5.205 3.9895 5.368 3.9895H7.353C7.508 3.9895 7.641 4.1205 7.641 4.2815V4.6035Z" fill="#7ABB80"/>
<path d="M4.42899 12.7365C4.42899 12.8995 4.30499 13.0375 4.14899 13.0375H2.17199C1.99899 13.0375 1.86399 12.8995 1.86399 12.7365V6.9855C1.86399 6.8215 1.99199 6.6985 2.17199 6.6985H4.14899C4.30499 6.6985 4.42899 6.8215 4.42899 6.9855V12.7365Z" fill="#009AD5"/>
<path d="M4.42899 7.3145C4.42899 7.4685 4.30499 7.5945 4.14899 7.5945H2.17199C1.99899 7.5945 1.86399 7.4685 1.86399 7.3145V6.9855C1.86399 6.8215 1.99199 6.6985 2.17199 6.6985H4.14899C4.30499 6.6985 4.42899 6.8215 4.42899 6.9855V7.3145Z" fill="#7CB4DB"/>
<path d="M10.831 12.7365C10.831 12.8995 10.725 13.0375 10.554 13.0375H8.571C8.411 13.0375 8.28699 12.8995 8.28699 12.7365V2.2475C8.28699 2.0895 8.411 1.9615 8.571 1.9615H10.554C10.725 1.9615 10.831 2.0905 10.831 2.2475V12.7365Z" fill="#FF9C00"/>
<path d="M10.831 2.5735C10.831 2.7285 10.725 2.8615 10.554 2.8615H8.571C8.411 2.8615 8.28699 2.7295 8.28699 2.5735V2.2455C8.28699 2.0865 8.411 1.9595 8.571 1.9595H10.554C10.725 1.9595 10.831 2.0885 10.831 2.2455V2.5735Z" fill="#FFC600"/>
<path d="M14.529 12.3355H1.47099V14.0405H14.529V12.3355Z" fill="#7295A3"/>
</g>
</svg>
