<svg width="16" height="16" viewBox="0 0 16 16" fill="none" xmlns="http://www.w3.org/2000/svg">
<mask id="mask0_1742_1767" style="mask-type:alpha" maskUnits="userSpaceOnUse" x="0" y="0" width="16" height="16">
<path d="M16 0H0V16H16V0Z" fill="#DCD2D4"/>
</mask>
<g mask="url(#mask0_1742_1767)">
<path d="M14.0855 3.285H1.83549V13.168H14.0855V3.285Z" fill="#E8F0F5"/>
<path d="M2.57249 9.39951C2.71149 9.25551 4.86549 7.64151 4.86549 7.64151L6.8185 9.86651L8.39149 6.13451L10.7035 8.46651L12.9055 6.25551" stroke="#7295A3" stroke-width="0.4569" stroke-miterlimit="10" stroke-linecap="round"/>
<path d="M1.83549 13.8685V2.9245" stroke="#7295A3" stroke-width="0.3686" stroke-miterlimit="10"/>
<path d="M2.3875 3.0855L1.83549 2.1315L1.28349 3.0855H2.3875Z" fill="#7295A3"/>
<path d="M1.0345 13.0515H14.1715" stroke="#7295A3" stroke-width="0.3686" stroke-miterlimit="10"/>
<path d="M14.0105 13.6035L14.9655 13.0515L14.0105 12.4995V13.6035Z" fill="#7295A3"/>
<path d="M6.7835 10.5695C7.16016 10.5695 7.46551 10.2642 7.46551 9.88751C7.46551 9.51085 7.16016 9.20551 6.7835 9.20551C6.40684 9.20551 6.1015 9.51085 6.1015 9.88751C6.1015 10.2642 6.40684 10.5695 6.7835 10.5695Z" fill="#FF9C00"/>
<path d="M8.42049 6.99249C8.79715 6.99249 9.10249 6.68715 9.10249 6.31049C9.10249 5.93384 8.79715 5.62849 8.42049 5.62849C8.04384 5.62849 7.73849 5.93384 7.73849 6.31049C7.73849 6.68715 8.04384 6.99249 8.42049 6.99249Z" fill="#08B848"/>
<path d="M4.79749 8.35649C5.17415 8.35649 5.4795 8.05115 5.4795 7.67449C5.4795 7.29783 5.17415 6.99249 4.79749 6.99249C4.42083 6.99249 4.11549 7.29783 4.11549 7.67449C4.11549 8.05115 4.42083 8.35649 4.79749 8.35649Z" fill="#7CB4DB"/>
<path d="M10.6665 9.03749C11.0432 9.03749 11.3485 8.73215 11.3485 8.35549C11.3485 7.97883 11.0432 7.67349 10.6665 7.67349C10.2898 7.67349 9.9845 7.97883 9.9845 8.35549C9.9845 8.73215 10.2898 9.03749 10.6665 9.03749Z" fill="#009AD5"/>
</g>
</svg>
