<svg width="16" height="16" viewBox="0 0 16 16" fill="none" xmlns="http://www.w3.org/2000/svg">
<mask id="mask0_1742_3198" style="mask-type:alpha" maskUnits="userSpaceOnUse" x="0" y="0" width="16" height="16">
<path d="M16 0H0V16H16V0Z" fill="#DCD2D4"/>
</mask>
<g mask="url(#mask0_1742_3198)">
<path d="M7.99899 1.79199C9.81199 1.79199 11.446 2.57699 12.587 3.82199C13.59 4.92499 14.208 6.38999 14.208 7.99999C14.208 11.423 11.423 14.207 7.99899 14.207C4.57599 14.207 1.79199 11.423 1.79199 7.99999C1.79199 4.57799 4.57599 1.79199 7.99899 1.79199Z" fill="#009AD5"/>
<path d="M8 1.79199V14.208C9.609 14.208 11.074 13.59 12.178 12.587C13.423 11.446 14.208 9.81299 14.208 7.99899C14.208 4.57699 11.423 1.79199 8 1.79199Z" fill="#7CB4DB"/>
<path d="M1.79199 7.99999H14.208C14.208 6.39099 13.59 4.92499 12.587 3.82199C11.446 2.57599 9.81299 1.79199 7.99899 1.79199C4.57599 1.79199 1.79199 4.57799 1.79199 7.99999Z" fill="#FF9C00"/>
<path d="M7.99899 1.79199C9.81199 1.79199 11.446 2.57699 12.587 3.82199L7.99899 7.99999H1.79199C1.79199 4.57799 4.57599 1.79199 7.99899 1.79199Z" fill="#08B848"/>
</g>
</svg>
