<svg width="16" height="16" viewBox="0 0 16 16" fill="none" xmlns="http://www.w3.org/2000/svg">
<mask id="mask0_1742_2438" style="mask-type:alpha" maskUnits="userSpaceOnUse" x="0" y="0" width="16" height="16">
<rect width="16" height="16" fill="#D9D9D9"/>
</mask>
<g mask="url(#mask0_1742_2438)">
<path d="M5.84998 4.19999H2.04993C1.54993 4.19999 1.1499 3.79999 1.1499 3.29999V2.69999C1.1499 2.19999 1.54993 1.79999 2.04993 1.79999H5.84998C6.34998 1.79999 6.75 2.19999 6.75 2.69999V3.39999C6.74988 3.79999 6.34998 4.19999 5.84998 4.19999Z" fill="#95CBE7"/>
<path d="M13.95 4.19999H10.1499C9.6499 4.19999 9.24988 3.79999 9.24988 3.29999V2.69999C9.24988 2.19999 9.6499 1.79999 10.1499 1.79999H13.95C14.45 1.79999 14.85 2.19999 14.85 2.69999V3.39999C14.85 3.79999 14.45 4.19999 13.95 4.19999Z" fill="#95CBE7"/>
<path d="M5.84998 9.19999H2.04993C1.54993 9.19999 1.1499 8.79999 1.1499 8.29999V7.69999C1.1499 7.19999 1.54993 6.79999 2.04993 6.79999H5.84998C6.34998 6.79999 6.75 7.19999 6.75 7.69999V8.39999C6.74988 8.79999 6.34998 9.19999 5.84998 9.19999Z" fill="#95CBE7"/>
<path d="M13.95 9.19999H10.1499C9.6499 9.19999 9.24988 8.79999 9.24988 8.29999V7.69999C9.24988 7.19999 9.6499 6.79999 10.1499 6.79999H13.95C14.45 6.79999 14.85 7.19999 14.85 7.69999V8.39999C14.85 8.79999 14.45 9.19999 13.95 9.19999Z" fill="#95CBE7"/>
<path d="M5.84998 14.2H2.04993C1.54993 14.2 1.1499 13.8 1.1499 13.3V12.6C1.1499 12.1 1.54993 11.7 2.04993 11.7H5.84998C6.34998 11.7 6.75 12.1 6.75 12.6V13.3C6.74988 13.8 6.34998 14.2 5.84998 14.2Z" fill="#95CBE7"/>
<path d="M13.95 14.2H10.1499C9.6499 14.2 9.24988 13.8 9.24988 13.3V12.6C9.24988 12.1 9.6499 11.7 10.1499 11.7H13.95C14.45 11.7 14.85 12.1 14.85 12.6V13.3C14.85 13.8 14.45 14.2 13.95 14.2Z" fill="#95CBE7"/>
</g>
</svg>
