<svg width="16" height="16" viewBox="0 0 16 16" fill="none" xmlns="http://www.w3.org/2000/svg">
<mask id="mask0_1742_2450" style="mask-type:alpha" maskUnits="userSpaceOnUse" x="0" y="0" width="16" height="16">
<rect width="16" height="16" fill="#D9D9D9"/>
</mask>
<g mask="url(#mask0_1742_2450)">
<path d="M3.89966 4.22501H2.00024C1.53259 4.22501 1.1499 3.84234 1.1499 3.37462V2.67541C1.1499 2.20769 1.53259 1.82501 2.00024 1.82501H3.89966C4.36731 1.82501 4.75 2.20769 4.75 2.67541V3.37462C4.75 3.84234 4.36731 4.22501 3.89966 4.22501Z" fill="#95CBE7"/>
<path d="M8.99707 4.22501H7.10278C6.63367 4.22501 6.24988 3.8412 6.24988 3.37209V2.67793C6.24988 2.20883 6.63367 1.82501 7.10278 1.82501H8.99707C9.46619 1.82501 9.84998 2.20883 9.84998 2.67793V3.37209C9.84998 3.8412 9.46619 4.22501 8.99707 4.22501Z" fill="#95CBE7"/>
<path d="M13.9971 4.22501H12.1028C11.6337 4.22501 11.2499 3.8412 11.2499 3.37209V2.67793C11.2499 2.20883 11.6337 1.82501 12.1028 1.82501H13.9971C14.4662 1.82501 14.85 2.20883 14.85 2.67793V3.37209C14.85 3.8412 14.4662 4.22501 13.9971 4.22501Z" fill="#95CBE7"/>
<path d="M3.89966 14.175H2.00024C1.53259 14.175 1.1499 13.7923 1.1499 13.3246V12.6254C1.1499 12.1577 1.53259 11.775 2.00024 11.775H3.89966C4.36731 11.775 4.75 12.1577 4.75 12.6254V13.3246C4.75 13.7923 4.36731 14.175 3.89966 14.175Z" fill="#95CBE7"/>
<path d="M8.99707 14.175H7.10278C6.63367 14.175 6.24988 13.7912 6.24988 13.3221V12.6279C6.24988 12.1588 6.63367 11.775 7.10278 11.775H8.99707C9.46619 11.775 9.84998 12.1588 9.84998 12.6279V13.3221C9.84998 13.7912 9.46619 14.175 8.99707 14.175Z" fill="#95CBE7"/>
<path d="M13.9971 14.175H12.1028C11.6337 14.175 11.2499 13.7912 11.2499 13.3221V12.6279C11.2499 12.1588 11.6337 11.775 12.1028 11.775H13.9971C14.4662 11.775 14.85 12.1588 14.85 12.6279V13.3221C14.85 13.7912 14.4662 14.175 13.9971 14.175Z" fill="#95CBE7"/>
<path d="M3.89966 9.22021H2.00024C1.53259 9.22021 1.1499 8.83753 1.1499 8.36982V7.6706C1.1499 7.20288 1.53259 6.82021 2.00024 6.82021H3.89966C4.36731 6.82021 4.75 7.20288 4.75 7.6706V8.36982C4.75 8.83753 4.36731 9.22021 3.89966 9.22021Z" fill="#95CBE7"/>
<path d="M8.99707 9.22021H7.10278C6.63367 9.22021 6.24988 8.8364 6.24988 8.36729V7.67313C6.24988 7.20402 6.63367 6.82021 7.10278 6.82021H8.99707C9.46619 6.82021 9.84998 7.20402 9.84998 7.67313V8.36729C9.84998 8.8364 9.46619 9.22021 8.99707 9.22021Z" fill="#95CBE7"/>
<path d="M13.9971 9.22021H12.1028C11.6337 9.22021 11.2499 8.8364 11.2499 8.36729V7.67313C11.2499 7.20402 11.6337 6.82021 12.1028 6.82021H13.9971C14.4662 6.82021 14.85 7.20402 14.85 7.67313V8.36729C14.85 8.8364 14.4662 9.22021 13.9971 9.22021Z" fill="#95CBE7"/>
</g>
</svg>
