<svg width="16" height="16" viewBox="0 0 16 16" fill="none" xmlns="http://www.w3.org/2000/svg">
<mask id="mask0_1742_3187" style="mask-type:alpha" maskUnits="userSpaceOnUse" x="0" y="0" width="16" height="16">
<path d="M16 0H0V16H16V0Z" fill="#DCD2D4"/>
</mask>
<g mask="url(#mask0_1742_3187)">
<path d="M4.5135 4.468C4.5135 4.65 4.3745 4.802 4.2015 4.802H2.0075C1.8155 4.802 1.6655 4.65 1.6655 4.468V2.788C1.6655 2.605 1.8085 2.47 2.0075 2.47H4.2015C4.3745 2.47 4.5135 2.606 4.5135 2.788V4.468Z" fill="#7CB4DB"/>
<path d="M4.5135 7.377C4.5135 7.559 4.3745 7.711 4.2015 7.711H2.0075C1.8155 7.711 1.6655 7.559 1.6655 7.377V5.697C1.6655 5.514 1.8085 5.379 2.0075 5.379H4.2015C4.3745 5.379 4.5135 5.515 4.5135 5.697V7.377Z" fill="#7CB4DB"/>
<path d="M4.5135 10.285C4.5135 10.467 4.3745 10.619 4.2015 10.619H2.0075C1.8155 10.619 1.6655 10.467 1.6655 10.285V8.605C1.6655 8.422 1.8085 8.287 2.0075 8.287H4.2015C4.3745 8.287 4.5135 8.423 4.5135 8.605V10.285Z" fill="#7CB4DB"/>
<path d="M4.5135 13.195C4.5135 13.377 4.3745 13.529 4.2015 13.529H2.0075C1.8155 13.529 1.6655 13.377 1.6655 13.195V11.515C1.6655 11.332 1.8085 11.197 2.0075 11.197H4.2015C4.3745 11.197 4.5135 11.333 4.5135 11.515V13.195Z" fill="#7CB4DB"/>
<path d="M14.3345 4.468C14.3345 4.65 14.1955 4.802 14.0225 4.802H5.21749C5.02549 4.802 4.8755 4.65 4.8755 4.468V2.788C4.8755 2.605 5.01849 2.47 5.21749 2.47H14.0225C14.1955 2.47 14.3345 2.606 14.3345 2.788V4.468Z" fill="#7CB4DB"/>
<path d="M14.3345 7.377C14.3345 7.559 14.1955 7.711 14.0225 7.711H5.21749C5.02549 7.711 4.8755 7.559 4.8755 7.377V5.697C4.8755 5.514 5.01849 5.379 5.21749 5.379H14.0225C14.1955 5.379 14.3345 5.515 14.3345 5.697V7.377Z" fill="#C8E6FF"/>
<path d="M14.3345 10.285C14.3345 10.467 14.1955 10.619 14.0225 10.619H5.21749C5.02549 10.619 4.8755 10.467 4.8755 10.285V8.605C4.8755 8.422 5.01849 8.287 5.21749 8.287H14.0225C14.1955 8.287 14.3345 8.423 14.3345 8.605V10.285Z" fill="#C8E6FF"/>
<path d="M14.3345 13.196C14.3345 13.378 14.1955 13.53 14.0225 13.53H5.21749C5.02549 13.53 4.8755 13.378 4.8755 13.196V11.515C4.8755 11.332 5.01849 11.197 5.21749 11.197H14.0225C14.1955 11.197 14.3345 11.333 14.3345 11.515V13.196Z" fill="#C8E6FF"/>
</g>
</svg>
