<svg width="16" height="16" viewBox="0 0 16 16" fill="none" xmlns="http://www.w3.org/2000/svg">
<mask id="mask0_1742_1942" style="mask-type:alpha" maskUnits="userSpaceOnUse" x="0" y="0" width="16" height="16">
<rect width="16" height="16" fill="#D9D9D9"/>
</mask>
<g mask="url(#mask0_1742_1942)">
<path d="M9.03851 9.0495H11.5465V2.5625C11.5445 1.6875 10.8375 0.980499 9.96649 0.980499H2.64447C1.76947 0.980499 1.06049 1.6875 1.06049 2.5625V12.6045C1.06049 13.4775 1.76947 14.1865 2.64447 14.1865H9.04047L9.03851 9.0495ZM4.06049 3.4745H8.49646C8.91449 3.4745 9.25049 3.8125 9.25049 4.2285C9.25049 4.6465 8.91449 4.9845 8.49646 4.9845H4.06049C3.64447 4.9845 3.30847 4.6465 3.30847 4.2285C3.30853 3.8125 3.64453 3.4745 4.06049 3.4745ZM6.62152 8.0865H4.05951C3.64349 8.0865 3.3075 7.7505 3.3075 7.3345C3.3075 6.9185 3.64349 6.5805 4.05951 6.5805H6.62152C7.03754 6.5805 7.37354 6.9185 7.37354 7.3345C7.37354 7.7505 7.03851 8.0865 6.62152 8.0865Z" fill="#ACC1C6"/>
<path d="M14.3285 10.3975C14.2665 10.1395 14.1505 9.88351 14.0235 9.64951L14.2825 9.04951L13.3865 8.15851L12.7825 8.42851C12.5535 8.30151 12.3055 8.19451 12.0345 8.11651L11.8135 7.49551H10.5515L10.3174 8.11651C10.0594 8.17851 9.80145 8.30451 9.57245 8.42851L8.96844 8.15851L8.08844 9.04951L8.35443 9.64951C8.21844 9.88351 8.12445 10.1205 8.04242 10.3975L7.4314 10.6265V11.8975L8.04242 12.1265C8.10443 12.3945 8.21539 12.6475 8.35443 12.8725L8.08844 13.4765L8.98444 14.3555L9.58844 14.0975C9.81946 14.2265 10.0674 14.3285 10.3384 14.4095L10.5674 15.0195H11.8085L12.0375 14.4095C12.3005 14.3475 12.5585 14.2265 12.7825 14.0975L13.3865 14.3555L14.2825 13.4765L14.0215 12.8725C14.1485 12.6435 14.2505 12.4035 14.3255 12.1265L14.9395 11.8975V10.6265L14.3285 10.3975ZM11.1795 12.7935C10.3255 12.7935 9.63849 12.1055 9.63849 11.2525C9.63849 10.3975 10.3265 9.71151 11.1795 9.71151C12.0325 9.71151 12.7185 10.3975 12.7185 11.2525C12.7185 12.1105 12.0385 12.7935 11.1795 12.7935Z" fill="#47687C"/>
<path d="M12.2055 12.2765C11.6435 12.8385 10.7415 12.8385 10.1845 12.2765L9.66351 12.7975C10.5175 13.6405 11.8925 13.6405 12.7255 12.7975C13.5715 11.9535 13.5715 10.5935 12.7255 9.73051L12.2045 10.2515C12.7745 10.8135 12.7745 11.7155 12.2055 12.2765Z" fill="#294F69"/>
<path d="M9.66353 9.72952C8.82155 10.5735 8.82155 11.9365 9.66353 12.7915L10.1845 12.2705C9.62251 11.7085 9.62251 10.8055 10.1845 10.2495C10.7465 9.68752 11.6475 9.68752 12.2055 10.2495L12.7265 9.72852C11.8925 8.89152 10.5095 8.89152 9.66353 9.72952Z" fill="#294F69"/>
</g>
</svg>
