<svg width="16" height="16" viewBox="0 0 16 16" fill="none" xmlns="http://www.w3.org/2000/svg">
<mask id="mask0_1742_1713" style="mask-type:alpha" maskUnits="userSpaceOnUse" x="0" y="0" width="16" height="16">
<rect width="16" height="16" fill="#D9D9D9"/>
</mask>
<g mask="url(#mask0_1742_1713)">
<path d="M8.49994 9.05H10.9999V2.55C10.9999 1.65 10.2999 0.949997 9.39996 0.949997H2.09998C1.19995 0.949997 0.5 1.65 0.5 2.55V12.55C0.5 13.45 1.20001 14.15 2.09998 14.15H8.5L8.49994 9.05ZM3.49994 3.45H7.89996C8.29999 3.45 8.69995 3.74999 8.69995 4.24999C8.69995 4.64999 8.39996 5.04999 7.89996 5.04999H3.49994C3.09991 5.04999 2.69995 4.74999 2.69995 4.24999C2.79993 3.74999 3.09991 3.45 3.49994 3.45ZM6.09991 8.05H3.49994C3.09991 8.05 2.69995 7.75 2.69995 7.24999C2.69995 6.74999 2.99994 6.44999 3.49994 6.44999H6.09991C6.49994 6.44999 6.8999 6.74999 6.8999 7.24999C6.89996 7.75 6.49994 8.05 6.09991 8.05Z" fill="#ACC1C6"/>
<path d="M10.9 5.84999C13.4 5.84999 15.4999 7.94999 15.4999 10.45C15.4999 12.95 13.4 15.05 10.9 15.05C8.39996 15.05 6.29999 12.95 6.29999 10.45C6.29993 7.94999 8.39996 5.84999 10.9 5.84999Z" fill="#08B848"/>
<path d="M10.9 5.84999C12.7 5.84999 14.3 6.94999 14.9999 8.44999C15.0999 8.84999 15.2 9.34999 15.2 9.74999C15.2 12.55 12.9999 14.75 10.2 14.75C9.79993 14.75 9.39996 14.65 8.99994 14.65C7.39996 13.95 6.29993 12.35 6.29993 10.45C6.29993 7.94999 8.39996 5.84999 10.9 5.84999Z" fill="#08B848"/>
<path d="M13.7 6.84999C14.6 7.55 15.2 8.55 15.2999 9.65V9.55C15.2 9.55 15.2 9.55 15.0999 9.65C15.0999 9.75 15.0999 9.65 14.9999 9.75C14.9 9.85 14.9 9.95 14.7999 9.95C14.7999 10.05 14.7999 10.05 14.7999 10.25L14.7 10.45C14.7 10.45 14.6 10.25 14.6 10.15C14.6 10.05 14.5 9.95 14.5 9.85C14.5 9.75 14.5 9.65 14.5 9.65C14.4 9.65 14.4 9.75 14.4 9.65V9.55C14.3 9.55 14.3 9.45 14.3 9.45C14.3 9.45 14.1 9.45 14.0001 9.45C13.9001 9.45 13.9001 9.45 13.8 9.35C13.7001 9.35 13.7001 9.45 13.6 9.25C13.5001 9.15 13.5001 9.05 13.4 9.15C13.4 9.25 13.4 9.25 13.5 9.35L13.6 9.45V9.55C13.7 9.55 13.7 9.55 13.8 9.45C13.9 9.55 13.8 9.55 13.9 9.55C13.9999 9.55 13.9999 9.55 13.9999 9.65C13.9999 9.75 13.9 9.95 13.7999 9.95C13.7999 9.95 13.7 9.95 13.7 10.05C13.6 10.15 13.7 10.05 13.6 10.15C13.5 10.15 13.4 10.25 13.3 10.25C13.3 10.15 13.2 10.15 13.2 10.05C13.1 9.85 13.1 9.95 13.1 9.75C13.1 9.65 13.1 9.65 13.0001 9.65C13.0001 9.65 13.0001 9.55 12.9001 9.55C12.9001 9.45 12.8001 9.35 12.8001 9.35C12.8001 9.45 12.9001 9.55 12.9001 9.65L13.0001 9.75C13.0001 9.85 13.0001 9.85 13.0001 9.85C13.1 9.95 13.0001 9.95 13.1 10.05C13.2 10.15 13.2 10.15 13.2 10.25C13.3 10.25 13.5 10.15 13.5 10.15C13.5 10.25 13.4 10.35 13.4 10.45C13.3 10.65 13.2 10.65 13.1 10.85C13.0001 10.95 13.0001 10.95 13.0001 11.05C12.9001 11.15 13.1 11.55 13.0001 11.65C13.0001 11.65 12.9001 11.75 12.8 11.85C12.7001 11.95 12.8 11.95 12.8 12.15C12.8 12.15 12.7001 12.15 12.7001 12.25V12.35C12.7001 12.45 12.7001 12.35 12.6001 12.45C12.6001 12.55 12.6001 12.55 12.5001 12.55C12.5001 12.55 12.5001 12.65 12.4001 12.65C12.3002 12.75 12.0001 12.75 12.0001 12.75C11.9001 12.65 12.0001 12.65 12.0001 12.65C12.0001 12.55 11.9001 12.55 11.9001 12.45V12.35C11.8002 12.15 11.9001 12.05 11.8002 11.85C11.7002 11.65 11.9001 11.55 11.9001 11.35V11.25C11.9001 11.15 11.9001 10.95 11.8002 10.85C11.7002 10.75 11.7002 10.75 11.7002 10.55C11.7002 10.35 11.6002 10.35 11.5002 10.35C11.4002 10.15 11.3002 10.25 11.2002 10.35C11.1002 10.35 11.1002 10.35 11.0002 10.35C10.8002 10.35 11.0002 10.45 10.7002 10.25C10.6002 10.15 10.7002 10.25 10.6002 10.15L10.5002 10.05C10.4003 9.95 10.5002 9.75 10.5002 9.65C10.5002 9.35 10.4003 9.65 10.6002 9.25C10.7002 9.05 10.8002 9.05 10.8002 8.95C10.8002 8.85 10.8002 8.85 10.9002 8.75C10.9002 8.65 11.0002 8.75 11.0002 8.65C11.0002 8.55 11.0002 8.55 10.9002 8.55C10.9002 8.45 10.9002 8.45 10.9002 8.35C10.9002 8.25 10.9002 8.25 10.9002 8.25C10.9002 8.15 11.2002 8.25 11.2002 8.15C11.2002 8.05 11.2002 8.05 11.2002 7.95C11.2002 7.85 11.1002 7.85 11.1002 7.85C11.2002 7.85 11.1002 7.85 11.2002 7.85C11.3002 7.85 11.3002 7.85 11.3002 7.85C11.4001 7.85 11.4001 7.75 11.5002 7.75C11.6002 7.65 11.5002 7.65 11.6002 7.65C11.8002 7.65 11.7001 7.65 11.7001 7.44999H11.8001C11.9001 7.55 11.8001 7.44999 11.9001 7.55C11.9001 7.55 11.9001 7.55 12.0001 7.55C12.0001 7.45 12.0001 7.45 11.9001 7.45C11.8001 7.45 11.7999 7.55 11.7 7.55C11.6 7.55 11.6 7.44999 11.6 7.34999C11.6 7.24999 11.7 7.24999 11.8 7.24999C11.9 7.24999 11.9 7.14999 11.9 7.14999C11.9999 7.04999 11.9 7.14999 11.9999 7.04999C12.0999 7.04999 12.0999 7.04999 12.0999 7.04999H12.1999C12.3999 6.94999 12.3999 7.04999 12.5999 7.04999C12.6999 7.04999 12.9999 7.04999 12.9999 7.24999C12.9 7.34999 12.9 7.24999 12.7999 7.24999C12.7999 7.34999 12.7999 7.34999 12.8999 7.34999C12.8999 7.34999 12.8999 7.34999 12.8999 7.24999H12.9999C12.9999 7.14999 13.0999 7.14999 13.0999 7.14999C13.0999 7.04999 13.0999 7.14999 13.0999 7.04999C13.1998 7.04999 13.0999 7.04999 13.1998 7.14999C13.2998 7.14999 13.2998 7.04999 13.3998 7.04999C13.4998 7.04999 13.4998 7.04999 13.4998 7.04999C13.5998 7.04999 13.5998 7.04999 13.5998 7.04999C13.5998 7.04999 13.5999 7.04999 13.7 6.84999C13.7999 6.94999 13.9 6.94999 13.9 7.04999C13.8 6.94999 13.8 6.94999 13.9 6.84999C13.7 6.74999 13.7 6.74999 13.7 6.84999C13.7999 6.84999 13.7999 6.84999 13.7 6.84999ZM6.39996 9.45C6.59998 8.55 7.09998 7.65 7.79999 7.04999C7.89996 7.04999 7.89996 7.04999 8 7.04999C8 7.04999 8 6.94999 8.09998 6.94999C8.09998 6.94999 8.09998 6.94999 8.19995 6.94999C8.19995 6.94999 8.19995 6.94999 8.19995 7.04999C8.29993 6.94999 8.19995 6.94999 8.29993 6.84999C8.19995 6.84999 8.19995 6.84999 8.19995 6.74999C8.29993 6.64999 8.29993 6.64999 8.39996 6.64999C8.39996 6.64999 8.39996 6.64999 8.39996 6.74999C8.49994 6.74999 8.49994 6.64999 8.59998 6.64999C8.59998 6.64999 8.59998 6.64999 8.69995 6.64999C8.69995 6.64999 8.59998 6.64999 8.49994 6.74999C8.49994 7.04999 8.59991 6.74999 8.49994 6.94999C8.59991 6.94999 8.59991 6.84999 8.59991 6.84999C8.59991 6.84999 8.49994 6.84999 8.49994 6.74999C8.49994 6.74999 8.5 6.64999 8.59998 6.64999H8.69995C9.19995 6.64999 8.8999 6.64999 9.09991 6.74999C9.09991 6.74999 9.19989 6.74999 9.19989 6.84999C9.19989 6.84999 9.19989 6.94999 9.29987 6.94999C9.29987 6.94999 9.29987 6.94999 9.39984 7.04999C9.39984 7.04999 9.39984 7.14999 9.29987 7.14999C9.19989 7.14999 9.29987 7.04999 9.19989 7.14999C9.19989 7.24999 9.29987 7.24999 9.19989 7.34999C9.09991 7.34999 9.19989 7.34999 9.09991 7.34999C8.99994 7.34999 8.99994 7.34999 8.8999 7.24999C8.8999 7.24999 8.8999 7.24999 8.79993 7.24999H8.69995C8.79993 7.14999 8.79987 7.24999 8.8999 7.24999L8.99994 7.14999C8.89996 7.04999 8.89996 7.04999 8.79993 7.04999C8.69995 7.14999 8.69995 7.14999 8.69995 7.24999H8.59998C8.59998 7.34999 8.69995 7.24999 8.69995 7.34999H8.59998C8.5 7.34999 8.59998 7.34999 8.59998 7.44999C8.5 7.44999 8.59998 7.44999 8.5 7.34999C8.5 7.34999 8.5 7.34999 8.5 7.24999C8.40002 7.24999 8.29999 7.34999 8.20001 7.34999C8.10004 7.44999 8 7.44999 7.90002 7.55C7.90002 7.65 7.90002 7.55 7.90002 7.65C8 7.65 8 7.75 8.10004 7.75H8.20001C8.20001 7.85 8.10004 7.85 8.20001 7.95C8.29999 8.05 8.29999 7.85 8.29999 7.85C8.59998 7.75 8.5 7.65 8.5 7.55C8.5 7.55 8.5 7.44999 8.59998 7.44999H8.69995C8.79993 7.44999 8.69995 7.44999 8.79993 7.55C8.79993 7.65 8.79993 7.65 8.8999 7.65C8.99988 7.65 8.99994 7.55 8.99994 7.55C8.99994 7.65 8.99994 7.65 9.09991 7.75C9.29993 7.85 9.19989 7.85 9.19989 8.05H9.29987V8.15C9.29987 8.15 9.09985 8.15 9.09985 8.05C9.09985 7.95 9.19983 7.95 9.19983 7.85C9.09985 7.85 9.09985 7.85 9.09985 7.95C8.99988 7.95 8.99988 7.95 8.99988 7.95C8.99988 7.85 8.99988 8.05 8.99988 7.95C8.8999 7.95 8.99988 7.85 8.79987 7.95H8.89984C8.89984 8.05 8.89984 7.95 8.89984 8.05C8.89984 8.15 8.99982 8.15 9.09985 8.15C9.09985 8.25 8.99988 8.25 8.99988 8.25C8.8999 8.25 8.8999 8.35 8.79987 8.35C8.79987 8.25 8.79987 8.35 8.79987 8.25C8.69989 8.25 8.69989 8.25 8.59985 8.35C8.49988 8.35 8.49988 8.35 8.49988 8.45C8.3999 8.45 8.3999 8.45 8.29987 8.55L8.19989 8.65C8.19989 8.75 8.19989 8.75 8.09991 8.85C7.99994 8.85 7.99994 8.85 7.99994 8.95C7.79993 9.15 7.89996 9.05 7.89996 9.35H7.79999C7.79999 9.15 7.79999 9.25 7.70001 9.15C7.5 9.05 7.60004 9.15 7.5 9.15C7.40002 9.15 7.40002 9.05 7.29999 9.15C7.20001 9.15 7.20001 9.25 7.20001 9.25C7.20001 9.35 7.10004 9.35 7.10004 9.55C7.10004 9.85 7.30005 9.85 7.40002 9.75C7.40002 9.65 7.40002 9.65 7.60004 9.65C7.60004 9.75 7.60004 9.75 7.60004 9.85V9.95C7.70001 9.95 7.70001 9.95 7.80005 9.95C7.80005 10.05 7.70007 10.25 7.80005 10.25C7.90002 10.35 7.90002 10.25 7.90002 10.25C8 10.25 8 10.25 8 10.25C8 10.25 8 10.25 8.09998 10.15C8.09998 10.05 8.19995 10.05 8.29999 10.05V10.15C8.39996 10.05 8.39996 10.15 8.5 10.15H8.59998C8.69995 10.15 8.69995 10.15 8.79999 10.15C8.79999 10.15 8.79999 10.15 8.79999 10.25C8.89996 10.35 8.89996 10.35 9 10.45C9.09998 10.45 9.09998 10.45 9.20001 10.55C9.29999 10.65 9.20001 10.65 9.29999 10.65V10.75C9.39996 10.85 9.39996 10.75 9.5 10.85C9.59998 10.85 9.5 10.85 9.59998 10.95C9.79999 10.95 9.69995 10.95 9.79999 11.05C9.79999 11.05 9.89996 11.05 9.89996 11.15C9.99994 11.25 9.99994 11.35 9.89996 11.45C9.69995 11.65 9.79999 11.65 9.79999 11.85C9.79999 11.95 9.79999 12.15 9.70001 12.25C9.29999 12.35 9.60004 12.45 9.5 12.65C9.5 12.75 9.5 12.75 9.40002 12.75C9.30005 12.95 9.40002 12.95 9.20001 12.95C9.29999 13.05 9.29999 13.15 9.10004 13.15C9.00006 13.15 9.00006 13.15 9.00006 13.25H8.90009C8.90009 13.35 8.90009 13.25 9.00006 13.35V13.45C9.00006 13.55 9.00006 13.45 9.00006 13.55C9.00006 13.55 9.10004 13.55 9.10004 13.65C9.10004 13.65 9.10004 13.75 9.00006 13.85C9.10004 13.95 9.10004 14.05 9.20007 14.05C9.20007 14.15 9.20007 14.15 9.20007 14.15C9.1001 14.15 9.1001 14.15 9.00006 14.05C8.90009 14.05 8.90009 13.95 8.80005 13.85C8.80005 13.85 8.80005 13.85 8.70007 13.75C8.6001 13.65 8.70007 13.65 8.6001 13.65C8.6001 13.65 8.50012 13.55 8.6001 13.55V13.45C8.6001 13.45 8.6001 13.35 8.6001 13.25C8.6001 13.15 8.6001 13.15 8.50012 13.15C8.50012 13.05 8.50012 13.05 8.50012 12.75C8.50012 12.65 8.50012 12.25 8.40015 12.05V11.95C8.40015 11.85 8.30017 11.85 8.20013 11.85C8.10016 11.75 8.00012 11.45 7.90015 11.35C7.90015 11.25 7.80017 11.35 7.80017 11.25C7.80017 11.15 7.80017 11.15 7.80017 11.15C7.7002 10.95 8.00018 10.95 7.90015 10.65C7.90015 10.55 7.80017 10.55 7.80017 10.55C7.7002 10.55 7.80017 10.55 7.7002 10.65C7.60022 10.65 7.60022 10.55 7.60022 10.55C7.50024 10.45 7.50024 10.55 7.50024 10.45C7.40027 10.25 7.30023 10.35 7.20026 10.25C7.10028 10.25 7.10028 10.15 7.10028 10.15C7.00031 10.15 7.00031 10.15 6.90027 10.15C6.80029 10.05 6.70026 10.05 6.60028 9.95C6.49994 9.55 6.49994 9.55 6.39996 9.45ZM7.79999 7.04999C7.90002 6.94999 7.90002 7.04999 7.79999 7.04999V7.04999ZM11.7999 8.35C11.7999 8.35 11.8999 8.35 11.8999 8.45C11.8999 8.55 11.8999 8.55 11.9999 8.65C11.9999 8.75 11.9999 8.75 12.0999 8.75C12.1998 8.75 12.0999 8.75 12.1998 8.75C12.1998 8.75 12.1998 8.75 12.1998 8.65C12.1998 8.65 12.1998 8.65 12.0999 8.55C12.1998 8.45 12.1998 8.45 12.1998 8.55C12.2998 8.75 12.2998 8.75 12.3998 8.65C12.4998 8.65 12.3998 8.65 12.4998 8.65C12.5998 8.65 12.4998 8.65 12.5998 8.65C12.6998 8.65 12.5998 8.95 12.5998 8.95C12.4998 8.95 12.4998 8.95 12.4998 8.95C12.3998 8.95 12.4998 9.05 12.1998 8.95C11.8998 8.85 11.9998 8.85 11.8998 9.05C11.7999 9.05 11.7999 9.05 11.7999 9.05C11.7999 9.05 11.7999 9.05 11.6999 9.05C11.6999 9.05 11.5999 8.95 11.4999 8.95C11.4999 8.85 11.5999 8.85 11.4999 8.75C11.4999 8.75 11.1999 8.75 11.0999 8.75C10.9999 8.75 10.9999 8.85 10.7999 8.85C10.6999 8.85 10.6999 8.85 10.6999 8.85C10.8999 8.85 10.8002 8.75 10.9002 8.55C11.0002 8.45 10.8999 8.55 10.9999 8.45C11.0999 8.45 11.0999 8.45 11.0999 8.45C11.1998 8.45 11.0999 8.35 11.1998 8.35C11.2998 8.45 11.2998 8.45 11.3998 8.55C11.3998 8.55 11.4998 8.55 11.4998 8.65C11.5998 8.75 11.4999 8.75 11.4999 8.75C11.5999 8.75 11.4998 8.75 11.5998 8.65C11.7999 8.45 11.7999 8.45 11.7999 8.35C11.7 8.35 11.7 8.45 11.5999 8.25C11.5999 8.25 11.5999 8.25 11.5999 8.15C11.5999 8.15 11.7 8.25 11.7999 8.35C11.7 8.35 11.7 8.35 11.7999 8.35ZM13.2999 11.55C13.2 11.55 13.2 11.65 13.2 11.65C13.1 11.75 13.1 11.65 13.1 11.75C13.1 11.85 13.1 11.85 13.1 11.95C13.1 12.05 13.1 12.15 13.1 12.15C13.2 12.25 13.3 11.95 13.3 11.85C13.3 11.75 13.3 11.75 13.4 11.65C13.4 11.65 13.4 11.65 13.2999 11.55ZM13.0999 8.25C13.0999 8.35 13.1999 8.45 13.2999 8.55C13.2999 8.65 13.2999 8.65 13.2999 8.65C13.3999 8.75 13.3999 8.75 13.4999 8.75C13.4999 8.65 13.4999 8.65 13.4 8.55C13.4 8.55 13.4 8.55 13.4 8.45C13.3 8.45 13.2 8.35 13.2 8.25C13.2 8.25 13.2 8.25 13.2999 8.25C13.2999 8.15 13.2 8.15 13.2 8.25C13.2 8.15 13.0999 8.25 13.0999 8.25ZM12.4999 8.25C12.4 8.15 12.4999 8.15 12.4 8.15L12.3 8.25C12.3 8.35 12.3 8.25 12.3 8.35C12.4 8.35 12.3 8.35 12.4 8.35C12.4999 8.35 12.6 8.25 12.6 8.25C12.7 8.25 12.8 8.35 12.9 8.25C12.9 8.15 12.8 8.15 12.7 8.05C12.7 7.95 12.7 8.05 12.7 7.95H12.6C12.4999 8.25 12.5999 8.25 12.4999 8.25C12.5999 8.25 12.5999 8.25 12.4999 8.25C12.4999 8.35 12.4999 8.35 12.4999 8.25ZM10.7999 7.55C10.7999 7.75 10.8999 7.65 10.8999 7.75C10.8999 7.85 10.8999 7.75 10.7999 7.85C10.7999 7.95 10.7999 7.85 10.7999 7.95C10.7999 7.95 10.8999 7.95 10.9999 7.95C11.0999 7.95 11.1002 7.95 11.1002 7.85C11.1002 7.75 10.9999 7.75 10.9999 7.65C10.9 7.55 10.9999 7.65 10.9999 7.55C10.9 7.55 10.9 7.55 10.7999 7.55C10.9 7.55 10.9 7.55 10.7999 7.55Z" fill="white"/>
</g>
</svg>
