<svg width="16" height="16" viewBox="0 0 16 16" fill="none" xmlns="http://www.w3.org/2000/svg">
<mask id="mask0_1742_1869" style="mask-type:alpha" maskUnits="userSpaceOnUse" x="0" y="0" width="16" height="16">
<rect width="16" height="16" fill="#D9D9D9"/>
</mask>
<g mask="url(#mask0_1742_1869)">
<path d="M8 2C11.3 2 14 4.7 14 8C14 11.3 11.3 14 8 14C4.70001 14 2 11.3 2 8C2 4.6 4.70001 2 8 2Z" fill="#009AD5"/>
<path d="M8 2C10.4 2 12.4 3.4 13.4 5.4C13.5 5.9 13.6 6.5 13.6 7.1C13.6 10.7 10.7 13.6 7.10001 13.6C6.60001 13.6 6 13.5 5.5 13.4C3.39999 12.5 2 10.4 2 8C2 4.6 4.70001 2 8 2Z" fill="#009AD5"/>
<path d="M11.7 3.3C12.8 4.2 13.6 5.5 13.8 6.9C13.8 6.9 13.8 6.8 13.7 6.8C13.6 6.8 13.6 6.8 13.4 6.9C13.3 7 13.4 6.9 13.3 7C13.2 7.1 13.1 7.2 13 7.3C13 7.4 13 7.5 13 7.6C13 7.7 12.9 7.8 12.8 7.8C12.8 7.8 12.7 7.5 12.6 7.5C12.6 7.4 12.5 7.3 12.5 7.1C12.5 7 12.5 6.9 12.5 6.8C12.4 6.8 12.4 6.9 12.3 6.8C12.2 6.8 12.3 6.7 12.2 6.7C12.1 6.6 12.1 6.6 12 6.5C11.9 6.5 11.8 6.5 11.7 6.5C11.6 6.5 11.5 6.5 11.4 6.4C11.2 6.4 11.3 6.5 11.1 6.3C11 6.2 11 6.1 10.9 6.2C10.9 6.3 11 6.4 11 6.4L11.1 6.5V6.6C11.2 6.6 11.3 6.5 11.4 6.5C11.5 6.6 11.4 6.6 11.5 6.6C11.6 6.6 11.6 6.6 11.6 6.7C11.6 6.8 11.4 7.1 11.3 7.1C11.2 7.1 11.2 7.1 11.2 7.2C11.1 7.3 11.2 7.3 11.1 7.3C11 7.4 10.8 7.5 10.7 7.5C10.7 7.4 10.6 7.3 10.6 7.2C10.5 6.89999 10.5 7 10.4 6.8C10.4 6.7 10.4 6.7 10.3 6.6L10.2 6.5C10.2 6.4 10.1 6.3 9.99997 6.3C9.99997 6.4 10.1 6.6 10.1 6.7C10.1 6.8 10.2 6.8 10.2 6.9C10.2 7 10.2 7 10.3 7.1C10.4 7.29999 10.3 7.2 10.5 7.4C10.6 7.5 10.6 7.5 10.7 7.7C10.8 7.7 11.1 7.6 11.1 7.6C11.2 7.7 11 7.9 11 8C10.9 8.3 10.7 8.3 10.6 8.5C10.5 8.6 10.5 8.6 10.4 8.8C10.3 9 10.6 9.4 10.4 9.7C10.4 9.7 10.3 9.8 10.1 9.9C10 10 10.1 10 10 10.3C10 10.4 9.89999 10.4 9.89999 10.4C9.89999 10.5 9.89999 10.5 9.89999 10.6C9.89999 10.7 9.89999 10.6 9.79999 10.7C9.79999 10.8 9.79999 10.8 9.69998 10.8C9.69998 10.9 9.59998 10.9 9.59998 10.9C9.39996 11 9.09998 11.1 8.99997 11C8.89996 10.9 8.99997 10.9 8.99997 10.8C8.99997 10.7 8.89996 10.6 8.89996 10.6V10.5C8.79996 10.3 8.89996 10.1 8.69995 9.9C8.59995 9.6 8.79996 9.5 8.79996 9.3C8.79996 9.2 8.79996 9.2 8.79996 9.2C8.79996 9 8.79996 8.9 8.59995 8.7C8.49994 8.6 8.49994 8.6 8.49994 8.4C8.59995 8.1 8.39993 8.2 8.29993 8.2C8.19992 7.9 8.09991 8.1 7.89993 8.1C7.79993 8.1 7.79993 8.1 7.59995 8.1C7.29996 8.1 7.49994 8.2 7.19995 8C7.10001 7.9 7.10001 7.9 7.10001 7.8C7.10001 7.7 7 7.7 6.89999 7.6C6.79999 7.4 6.89999 7.3 6.89999 7.1C6.89999 6.7 6.79999 7.1 7 6.6C7.10001 6.4 7.29999 6.4 7.29999 6.3C7.29999 6.2 7.29999 6.1 7.39999 6.1C7.5 6 7.5 6 7.60001 5.9C7.60001 5.8 7.60001 5.8 7.5 5.7C7.5 5.6 7.5 5.6 7.5 5.5C7.5 5.4 7.5 5.4 7.5 5.3C7.5 5.1 7.79999 5.3 7.89999 5.2C7.89999 5.1 7.89999 5 7.89999 5C7.79999 4.9 7.79999 4.9 7.79999 4.9C7.89999 4.9 7.79999 4.9 7.89999 4.9C8 4.9 8 4.9 8 4.8C8.10001 4.8 8.10001 4.7 8.20001 4.7C8.30002 4.6 8.30002 4.6 8.40002 4.5C8.60004 4.5 8.50003 4.5 8.50003 4.3H8.60004C8.70004 4.4 8.60004 4.4 8.70004 4.4C8.70004 4.4 8.70004 4.4 8.80005 4.4C8.80005 4.3 8.70004 4.3 8.70004 4.2C8.60004 4.2 8.60004 4.3 8.50003 4.3C8.40002 4.3 8.40002 4.2 8.40002 4.1C8.40002 4 8.60004 4 8.60004 4C8.70004 4 8.70004 3.9 8.80005 3.8C8.90005 3.7 8.80005 3.8 8.90005 3.7C9.00006 3.7 9.00006 3.7 9.00006 3.7H9.10007C9.30008 3.6 9.40005 3.7 9.50006 3.7C9.60007 3.7 10.0001 3.7 10.0001 3.9C9.90005 4 9.80005 3.9 9.70007 3.9C9.70007 4 9.70007 4 9.80008 4C9.80008 3.9 9.80008 4 9.80008 3.9H9.90009C9.90009 3.8 10.0001 3.8 10.1001 3.8C10.1001 3.7 10.1001 3.7 10.1001 3.7C10.2001 3.7 10.1001 3.7 10.2001 3.8C10.3001 3.8 10.4001 3.7 10.5001 3.7C10.6001 3.7 10.6001 3.7 10.7001 3.7C10.8001 3.7 10.8001 3.7 10.9001 3.7C10.9001 3.6 10.9001 3.6 11.0001 3.6C11.1001 3.6 11.2001 3.7 11.3001 3.7C11.2001 3.6 11.1001 3.6 11.2001 3.5C11.3001 3.5 11.3001 3.5 11.4001 3.6C11.7 3.3 11.7 3.3 11.7 3.3ZM2.10001 6.6C2.39999 5.4 3 4.3 3.89999 3.5C4 3.5 4 3.5 4.10001 3.5C4.10001 3.5 4.10001 3.4 4.20001 3.4C4.20001 3.4 4.20001 3.4 4.30002 3.4C4.30002 3.4 4.30002 3.4 4.30002 3.5C4.40002 3.4 4.30002 3.4 4.40002 3.3C4.30002 3.3 4.30002 3.3 4.30002 3.2C4.40002 3.1 4.50003 3.1 4.60001 3.1C4.60001 3.2 4.60001 3.2 4.60001 3.2C4.70001 3.2 4.70001 3 4.80002 3.1C4.80002 3.1 4.80002 3.1 4.90002 3.1C4.80002 3.2 4.80002 3.2 4.70001 3.2C4.70001 3.5 4.80002 3.3 4.80002 3.5C4.90002 3.5 5.00003 3.4 5.00003 3.4C5.00003 3.4 4.90002 3.4 4.90002 3.3C4.90002 3.2 5.00003 3.2 5.00003 3.2H5.10004C5.70004 3.2 5.40002 3.2 5.60004 3.3C5.60004 3.3 5.70004 3.3 5.70004 3.4C5.70004 3.5 5.70004 3.5 5.80005 3.6C5.90005 3.6 5.90005 3.6 5.90005 3.7L5.80002 3.8C5.70001 3.8 5.80002 3.7 5.70001 3.7C5.70001 3.8 5.80002 3.8 5.70001 3.9C5.60001 3.9 5.70001 3.9 5.60001 3.9C5.5 3.9 5.5 3.9 5.39999 3.8C5.39999 3.8 5.39999 3.8 5.29999 3.8H5.19998C5.29999 3.7 5.29999 3.8 5.39999 3.7C5.39999 3.7 5.5 3.6 5.60001 3.6C5.60001 3.5 5.60001 3.6 5.5 3.5C5.39999 3.4 5.39999 3.4 5.20001 3.4C5.10001 3.5 5.10001 3.6 5 3.6C5 3.6 4.89999 3.6 4.79999 3.6C4.79999 3.7 4.89999 3.6 4.89999 3.8C4.79999 3.8 4.79999 3.8 4.79999 3.8C4.69998 3.8 4.79999 3.8 4.79999 3.9C4.69998 3.9 4.79999 3.9 4.69998 3.8C4.69998 3.8 4.69998 3.7 4.79999 3.7C4.69998 3.7 4.59998 3.8 4.5 3.8C4.39999 3.9 4.20001 3.9 4.20001 4C4.20001 4.1 4.20001 4 4.20001 4.2C4.40002 4.2 4.30002 4.3 4.5 4.3H4.60001C4.60001 4.4 4.5 4.5 4.60001 4.5C4.70001 4.6 4.70001 4.4 4.80002 4.3C5.20001 4.2 5.00003 4.1 5.10001 3.9C5.10001 3.9 5.09998 3.8 5.19998 3.8H5.39999C5.5 3.8 5.40002 3.8 5.50003 3.9C5.50003 4 5.50003 4.1 5.60004 4.1C5.70004 4.1 5.70004 4 5.80005 4C5.90005 4.1 5.80005 4.2 5.90005 4.3C6.20004 4.4 6.00006 4.5 6.00006 4.7H6.10007C6.10007 4.8 6.10007 4.8 6.10007 4.9L5.80002 4.8C5.90002 4.7 5.90002 4.7 6.00003 4.5C5.90002 4.5 5.90002 4.5 5.80002 4.6C5.70001 4.6 5.70001 4.6 5.60001 4.6C5.60001 4.5 5.60001 4.7 5.60001 4.6C5.5 4.6 5.5 4.5 5.39999 4.5C5.39999 4.5 5.5 4.5 5.5 4.6C5.5 4.7 5.5 4.6 5.5 4.7C5.39999 4.9 5.70001 4.8 5.70001 4.8C5.70001 4.9 5.60001 4.9 5.5 4.9C5.39999 4.9 5.39999 5 5.29999 5C5.29999 4.9 5.29999 5 5.29999 4.9C5.19998 4.9 5.19998 4.9 5.09998 5C4.99997 5 4.99997 5 4.99997 5.2C4.89996 5.2 4.79996 5.3 4.79996 5.3C4.69995 5.4 4.69995 5.4 4.59995 5.49999C4.59995 5.69999 4.59995 5.69999 4.49994 5.69999C4.39999 5.8 4.39999 5.8 4.30002 5.8C4.10001 6 4.20001 5.9 4.20001 6.3C4.10001 6.3 4.10001 6.3 4.10001 6.2C4.10001 6 4.10001 6 3.89999 6C3.69998 5.9 3.69998 6 3.60001 6.1C3.5 6.1 3.5 6 3.30002 6.1C3.20001 6.2 3.20001 6.2 3.10001 6.3C3.10001 6.4 3 6.5 3 6.6C3 6.9 3.29999 7 3.39999 6.8C3.5 6.7 3.39999 6.6 3.60001 6.7C3.60001 6.8 3.60001 6.9 3.60001 6.9C3.60001 6.9 3.5 7 3.60001 7.1C3.70001 7.1 3.70001 7.1 3.89999 7.2C3.89999 7.4 3.79999 7.5 4 7.6C4.10001 7.7 4.10001 7.6 4.20001 7.6C4.30002 7.6 4.30002 7.6 4.40002 7.7C4.50003 7.6 4.40002 7.7 4.50003 7.6C4.60004 7.5 4.60004 7.5 4.70004 7.5V7.6C4.80005 7.5 4.80005 7.6 4.90005 7.6H5.00006C5.10007 7.6 5.10007 7.6 5.20007 7.6C5.20007 7.6 5.20007 7.6 5.20007 7.7C5.30008 7.8 5.30008 7.9 5.40009 7.9C5.50009 8 5.50009 7.9 5.70007 8C5.80008 8.1 5.70007 8.1 5.80008 8.2C5.80008 8.2 5.80008 8.3 5.90009 8.3C6.00009 8.4 6.1001 8.3 6.20007 8.4C6.30008 8.5 6.20007 8.4 6.30008 8.5C6.50009 8.5 6.40009 8.5 6.60007 8.6C6.70007 8.6 6.70007 8.6 6.70007 8.7C6.80008 8.8 6.80008 8.9 6.70007 9C6.50006 9.3 6.60007 9.3 6.60007 9.5C6.60007 9.6 6.60007 9.9 6.40005 10C5.90005 10.1 6.20004 10.2 6.10007 10.5C6.10007 10.6 6.00006 10.6 6.00006 10.6C5.90005 10.8 6.00006 10.9 5.70007 10.8C5.70007 10.8 5.70007 10.8 5.70007 10.9C5.80008 11 5.80008 11.1 5.60007 11.2C5.50006 11.2 5.50006 11.2 5.50006 11.4C5.40005 11.4 5.40005 11.4 5.40005 11.4C5.50006 11.5 5.40005 11.4 5.50006 11.5C5.50006 11.6 5.50006 11.6 5.50006 11.6C5.50006 11.7 5.50006 11.6 5.40005 11.7C5.50006 11.7 5.50006 11.7 5.50006 11.8C5.50006 11.9 5.40005 12 5.40005 12C5.50006 12.1 5.50006 12.2 5.70004 12.2C5.70004 12.3 5.70004 12.3 5.60004 12.3C5.50003 12.3 5.40002 12.2 5.30005 12.2C5.20004 12.1 5.10004 12.1 5.00006 12C5.00006 11.9 5.00006 12 4.90005 11.9C4.80005 11.8 4.80005 11.8 4.80005 11.7C4.80005 11.7 4.70004 11.6 4.80005 11.5C4.80005 11.5 4.90005 11.3 4.80005 11.3C4.70004 11.3 4.80005 11.3 4.80005 11.4C4.80005 11.3 4.80005 11.3 4.70004 11.2C4.70004 11.1 4.60004 11.1 4.60004 11C4.60004 10.8 4.60004 10.8 4.60004 10.5C4.50003 10.3 4.60004 9.9 4.50003 9.60001V9.5C4.40002 9.4 4.30002 9.4 4.20004 9.3C4.10004 9.2 3.90005 8.8 3.80005 8.7C3.70004 8.6 3.70004 8.7 3.70004 8.6C3.70004 8.5 3.70004 8.5 3.70004 8.4C3.50003 8.1 3.90005 8.1 3.80005 7.7C3.80005 7.6 3.70004 7.5 3.70004 7.5C3.60004 7.5 3.70004 7.6 3.60004 7.6C3.50003 7.6 3.50003 7.5 3.40002 7.5C3.20001 7.3 3.30002 7.4 3.30002 7.3C3.20001 7 3.10001 7.2 2.90002 7.1C2.80002 7 2.80002 7 2.70001 7C2.5 7 2.60001 7 2.5 7C2.39999 6.9 2.20001 6.9 2.10001 6.8C2.20001 6.8 2.30002 6.8 2.10001 6.6ZM4 3.5L4.10001 3.4C4 3.4 4 3.5 4 3.5ZM9.10001 5.2C9.20001 5.2 9.20001 5.3 9.20001 5.3C9.30002 5.4 9.20001 5.4 9.30002 5.5C9.40002 5.6 9.30002 5.6 9.40002 5.7C9.50003 5.7 9.40002 5.7 9.50003 5.7C9.50003 5.7 9.50003 5.6 9.60004 5.6C9.60004 5.5 9.50003 5.5 9.50003 5.5C9.60004 5.3 9.70004 5.4 9.70004 5.5C9.80005 5.8 9.90005 5.7 10 5.7C10.1 5.7 10 5.7 10.1 5.7C10.2 5.7 10.1 5.7 10.2 5.7C10.4001 5.6 10.2 6 10.2 6.1C10.1 6.1 10.1 6.1 10 6.1C9.90002 6.1 10 6.2 9.60004 6.1C9.20004 6 9.30005 6 9.20004 6.2C9.10004 6.2 9.10004 6.2 9.10004 6.2C9.10004 6.2 9.10004 6.2 9.00003 6.2C9.00003 6.2 9.00003 6.2 8.90002 6.1C8.80002 6 8.70001 6 8.60004 6C8.60004 5.9 8.70004 5.9 8.60004 5.8C8.60004 5.8 8.20004 5.8 8.10004 5.8C8.10004 5.7 8.10004 5.8 7.90002 5.8C7.80002 5.8 7.80002 5.8 7.80002 5.7C7.80002 5.7 7.80002 5.7 7.90002 5.7C7.90002 5.7 7.90002 5.7 8.00003 5.7C8.30002 5.7 8.10004 5.5 8.30002 5.4C8.40002 5.3 8.30002 5.4 8.40002 5.3C8.50003 5.3 8.50003 5.3 8.60004 5.3C8.70004 5.3 8.60004 5.2 8.70004 5.2C8.80005 5.3 8.80005 5.3 8.90005 5.4C9.00006 5.4 9.00006 5.4 9.00006 5.5C9.10007 5.6 9.00006 5.6 9.00006 5.6C9.10007 5.6 9.00006 5.5 9.10007 5.4C9.10001 5.4 9 5.4 9.10001 5.2C8.89999 5.2 8.89999 5.3 8.80002 5.1V5C9 5.1 9 5.1 9.10001 5.2ZM11.1 9.4C11 9.4 11 9.5 10.9 9.6C10.8 9.7 10.7 9.6 10.7 9.7C10.7 9.8 10.8 9.8 10.7 10C10.7 10.1 10.7 10.2 10.7 10.3C10.9 10.5 11 10.1 11 9.9C11 9.8 11.1 9.7 11.1 9.6C11.2 9.5 11.2 9.5 11.1 9.4ZM10.9 5.1C10.9 5.3 11 5.4 11.1 5.4C11.1 5.5 11.1 5.5 11.1 5.6C11.2 5.7 11.3 5.7 11.4 5.7C11.4 5.6 11.4 5.6 11.3 5.5C11.3 5.5 11.3 5.5 11.3 5.4C11.2 5.4 11.1 5.3 11.1 5.2C11.1 5.2 11.1 5.2 11.2 5.2C11.3 5.2 11.2 5.2 11.3 5.1C11.3 5 11.2 5 11.1 5.1C11 5 10.9 5.1 10.9 5.1ZM10.1 5.1C10 5 10 5 9.89999 5C9.79999 5 9.79999 5.1 9.79999 5.2C9.79999 5.3 9.79999 5.2 9.79999 5.4C9.79999 5.5 9.79999 5.4 9.79999 5.5C9.89999 5.5 9.79999 5.5 9.89999 5.5C10 5.5 10.2 5.4 10.2 5.4C10.3 5.4 10.4 5.5 10.6 5.4C10.6 5.3 10.4 5.2 10.3 5.2C10.3 5.1 10.3 5.2 10.3 5.1H10.1C10.2 5 10.1 5 10.1 5.1C10.3 5 10.2 5.1 10.1 5.1ZM7.89999 4.2C7.89999 4.4 8 4.3 8 4.4C8 4.5 8 4.4 7.89999 4.5C7.89999 4.6 7.89999 4.5 7.89999 4.6C8 4.6 8 4.6 8.10001 4.6C8.20001 4.6 8.20001 4.6 8.20001 4.5C8.10001 4.4 8.10001 4.4 8 4.3C7.89999 4.2 8 4.3 8 4.2V4.1C7.89999 4.2 7.89999 4.2 7.89999 4.2Z" fill="white"/>
</g>
</svg>
