<svg width="16" height="16" viewBox="0 0 16 16" fill="none" xmlns="http://www.w3.org/2000/svg">
<mask id="mask0_1742_2085" style="mask-type:alpha" maskUnits="userSpaceOnUse" x="0" y="0" width="16" height="16">
<rect width="16" height="16" fill="#D9D9D9"/>
</mask>
<g mask="url(#mask0_1742_2085)">
<path d="M13.0647 11.876H13.8297C14.5587 11.876 15.1418 11.29 15.1418 10.567V6.22601C15.1397 5.50401 14.5488 4.91801 13.8297 4.91801H4.58774C4.56973 4.91801 4.56674 4.91801 4.56674 4.91801C4.38974 4.01901 4.01773 3.33701 3.44275 2.90001C2.33875 2.05701 0.921753 2.44001 0.857758 2.45601L1.03674 3.08601C1.05774 3.08101 2.21173 2.77501 3.05774 3.42301C3.70374 3.91701 4.03674 4.84401 4.03674 6.17501V13.3H4.68375V11.874H8.53775M14.4807 10.57C14.4807 10.927 14.1877 11.22 13.8347 11.22H4.75174C4.75174 11.22 4.75174 10.927 4.75174 10.57V6.22601C4.75174 5.86501 4.75174 5.57201 4.75174 5.57201H13.8337C14.1877 5.57201 14.4797 5.86501 14.4797 6.22601L14.4807 10.57Z" fill="#294F69"/>
<path d="M14.4807 10.57C14.4807 10.927 14.1877 11.22 13.8347 11.22H4.75174C4.75174 11.22 4.75174 10.927 4.75174 10.57V6.22601C4.75174 5.86501 4.75174 5.57201 4.75174 5.57201H13.8337C14.1877 5.57201 14.4797 5.86501 14.4797 6.22601L14.4807 10.57Z" fill="#FF9C00"/>
<path d="M7.29276 6.22601H4.74374V7.82901H7.29276V6.22601Z" fill="white"/>
<path d="M7.28873 7.53201H4.62973V8.15901H7.28873V7.53201Z" fill="#294F69"/>
</g>
</svg>
