<svg width="16" height="16" viewBox="0 0 16 16" fill="none" xmlns="http://www.w3.org/2000/svg">
<mask id="mask0_1742_2409" style="mask-type:alpha" maskUnits="userSpaceOnUse" x="0" y="0" width="16" height="16">
<rect width="16" height="16" fill="#D9D9D9"/>
</mask>
<g mask="url(#mask0_1742_2409)">
<path d="M12.4065 11.8986H13.2065C13.9065 11.8986 14.5066 11.2986 14.5066 10.5986V6.19857C14.5066 5.49857 13.9066 4.89857 13.2065 4.89857H4.00659C3.80664 3.99857 3.50659 3.29857 2.90662 2.89857C1.80664 2.09857 0.406616 2.39857 0.306641 2.49857L0.506592 3.09857C0.506592 3.09857 1.70654 2.79857 2.50659 3.39857C3.10657 3.89857 3.50659 4.79857 3.50659 6.19857V13.2986H4.10657V11.8986H8.00659M13.8065 10.5986C13.8065 10.9986 13.5065 11.1986 13.2065 11.1986H4.10657C4.10657 11.1986 4.10657 10.8986 4.10657 10.5986V6.19857C4.10657 5.79857 4.10657 5.49857 4.10657 5.49857H13.2065C13.6066 5.49857 13.8065 5.79857 13.8065 6.19857V10.5986Z" fill="#294F69"/>
<path d="M13.8065 10.5986C13.8065 10.9986 13.5065 11.1986 13.2065 11.1986H4.10657C4.10657 11.1986 4.10657 10.8986 4.10657 10.5986V6.19857C4.10657 5.79857 4.10657 5.49857 4.10657 5.49857H13.2065C13.6066 5.49857 13.8065 5.79857 13.8065 6.19857V10.5986Z" fill="#08B848"/>
<path d="M6.70642 6.19856H4.10645V7.79857H6.70642V6.19856Z" fill="white"/>
<path d="M6.70642 7.49857H4.00647V8.09857H6.70642V7.49857Z" fill="#294F69"/>
<path d="M15.6064 13.2459L11.9904 6.58387C11.8696 6.35397 11.6294 6.19856 11.3616 6.19856C11.0945 6.19856 10.8665 6.35397 10.7343 6.58387L7.11426 13.2459C7.04749 13.3602 7.02051 13.4905 7.02051 13.6299C7.02051 14.0537 7.34351 14.3986 7.74292 14.3986H14.981C15.3688 14.3986 15.6912 14.0537 15.6912 13.6299C15.7028 13.4905 15.6667 13.3602 15.6064 13.2459Z" fill="#FF9C00"/>
<path d="M11.3351 11.9844C11.0111 11.9844 10.7694 12.2442 10.7694 12.5657C10.7694 12.8914 11.026 13.1438 11.3351 13.1438C11.6608 13.1438 11.9165 12.8872 11.9165 12.5657C11.9174 12.2442 11.6649 11.9844 11.3351 11.9844Z" fill="white"/>
<path d="M10.7653 9.37355C10.7653 9.40644 10.767 9.43933 10.7727 9.47222L11.0637 11.1637C11.0811 11.301 11.2052 11.4046 11.3549 11.4046C11.5021 11.4046 11.6115 11.3018 11.6443 11.1637L11.9354 9.47222C11.9445 9.43933 11.9486 9.40644 11.9486 9.37355C11.9486 9.05367 11.692 8.79382 11.368 8.79382C11.0219 8.79465 10.7653 9.05449 10.7653 9.37355Z" fill="white"/>
</g>
</svg>
