<svg width="16" height="16" viewBox="0 0 16 16" fill="none" xmlns="http://www.w3.org/2000/svg">
<mask id="mask0_1742_1816" style="mask-type:alpha" maskUnits="userSpaceOnUse" x="0" y="0" width="16" height="16">
<rect width="16" height="16" fill="#D9D9D9"/>
</mask>
<g mask="url(#mask0_1742_1816)">
<path d="M13.7535 10.0778H14.4695C15.1575 10.0778 15.6995 9.52483 15.6995 8.84783V4.74682C15.6975 4.06682 15.1375 3.51383 14.4695 3.51383H5.74048C5.73248 3.51383 5.71948 3.51383 5.71948 3.51383C5.55548 2.66483 5.19949 2.02183 4.65747 1.60982C3.60846 0.814825 2.27448 1.17582 2.21948 1.19082L2.38547 1.78582C2.40646 1.78082 3.48947 1.49282 4.28348 2.10383C4.88748 2.56983 5.20349 3.44483 5.20349 4.69982V11.4238H5.8205V10.0778H9.4635M15.0835 8.84583C15.0835 9.18383 14.8125 9.46083 14.4725 9.46083H5.91049C5.91049 9.46083 5.91049 9.18383 5.91049 8.84583V4.74682C5.91049 4.40682 5.91049 4.13082 5.91049 4.13082H14.4725C14.8125 4.13082 15.0835 4.40682 15.0835 4.74682V8.84583Z" fill="#294F69"/>
<path d="M15.0835 8.84583C15.0835 9.18383 14.8125 9.46083 14.4725 9.46083H5.91049C5.91049 9.46083 5.91049 9.18383 5.91049 8.84583V4.74683C5.91049 4.40683 5.91049 4.13083 5.91049 4.13083H14.4725C14.8125 4.13083 15.0835 4.40683 15.0835 4.74683V8.84583Z" fill="#08B848"/>
<path d="M8.29349 4.74682H5.89749V6.25982H8.29349V4.74682Z" fill="white"/>
<path d="M8.30447 5.98082H5.78848V6.57182H8.30447V5.98082Z" fill="#294F69"/>
<path d="M11.8335 13.5578H12.5495C13.2375 13.5578 13.7825 13.0048 13.7825 12.3278V8.22783C13.7805 7.54782 13.2205 6.99482 12.5495 6.99482H3.8215C3.80051 6.99482 3.80051 6.99482 3.80051 6.99482C3.63651 6.14582 3.27951 5.50282 2.73849 5.09082C1.67749 4.29582 0.342499 4.65682 0.300507 4.67182L0.466492 5.26682C0.478485 5.26182 1.5705 4.97382 2.3645 5.58482C2.96851 6.04982 3.28452 6.92582 3.28452 8.18083V14.9038H3.90152V13.5578H7.54352M13.1635 12.3258C13.1635 12.6638 12.8925 12.9298 12.5525 12.9298H3.98749C3.98749 12.9298 3.98749 12.6588 3.98749 12.3258V8.22783C3.98749 7.88782 3.98749 7.61182 3.98749 7.61182H12.5525C12.8925 7.61182 13.1635 7.88782 13.1635 8.22783V12.3258Z" fill="#294F69"/>
<path d="M13.1635 12.3258C13.1635 12.6638 12.8925 12.9298 12.5525 12.9298H3.98749C3.98749 12.9298 3.98749 12.6588 3.98749 12.3258V8.22783C3.98749 7.88782 3.98749 7.61182 3.98749 7.61182H12.5525C12.8925 7.61182 13.1635 7.88782 13.1635 8.22783V12.3258Z" fill="#08B848"/>
<path d="M6.36649 8.22783H3.97049V9.74183H6.36649V8.22783Z" fill="white"/>
<path d="M6.38547 9.46283H3.86948V10.0548H6.38547V9.46283Z" fill="#294F69"/>
</g>
</svg>
