<svg width="16" height="16" viewBox="0 0 16 16" fill="none" xmlns="http://www.w3.org/2000/svg">
<mask id="mask0_1742_3183" style="mask-type:alpha" maskUnits="userSpaceOnUse" x="0" y="0" width="16" height="16">
<rect width="16" height="16" fill="#D9D9D9"/>
</mask>
<g mask="url(#mask0_1742_3183)">
<path fill-rule="evenodd" clip-rule="evenodd" d="M5.80267 7.5728L6.18814 7.18733L5.51746 6.51595L6.5157 5.51771L7.18779 6.1905L7.57255 5.81351L5.17012 3.40754L3.40659 5.16683L5.80267 7.5728ZM8.42466 10.1849L10.8207 12.5909L12.5906 10.8316L10.1882 8.42562L9.80555 8.80826L10.4932 9.49517L9.49492 10.4934L8.8066 9.8058L8.42466 10.1849V10.1849ZM2.40834 4.17212L4.17751 2.40295C4.731 1.86358 5.62264 1.86569 6.16484 2.4093L8.5708 4.81526C9.11794 5.36309 9.11794 6.25333 8.5708 6.80117L8.18534 7.18733L8.80731 7.8093L9.18429 7.43302C9.44762 7.16333 9.7992 7.01367 10.1755 7.01155H10.184C10.5602 7.01155 10.9146 7.1591 11.1829 7.42667L13.5889 9.83333C14.1367 10.3812 14.1367 11.2714 13.5889 11.8192L11.819 13.5891C11.5451 13.863 11.1857 14 10.8257 14C10.4664 14 10.1063 13.863 9.83239 13.5891L7.42642 11.1832C7.15603 10.9128 7.00848 10.5548 7.0106 10.1757C7.01343 9.79944 7.1631 9.44786 7.42642 9.19019L7.80906 8.80825L7.18639 8.18558L6.80093 8.57176C6.52701 8.84496 6.16766 8.98192 5.80762 8.98192C5.44827 8.98192 5.08823 8.84497 4.81502 8.57104L2.40835 6.16508C1.86545 5.62218 1.86262 4.73053 2.40835 4.17211L2.40834 4.17212Z" fill="#447DB8"/>
</g>
</svg>
