<svg width="16" height="16" viewBox="0 0 16 16" fill="none" xmlns="http://www.w3.org/2000/svg">
<path d="M12.6668 9.26465H7.51926H6.49597H1.34681C1.15949 9.26465 1 9.41933 1 9.61147C1 10.1097 1.40571 10.5145 1.90467 10.5145H6.48861H12.0967C12.5907 10.5145 12.9997 10.1138 12.9997 9.61147C13.0079 9.42088 12.8574 9.26465 12.6668 9.26465Z" fill="#009AD5"/>
<path d="M2.95453 9H6.49033H7.51706H11.0471C11.5773 9 12 8.56884 12 8.03837V1.96081C12 1.43196 11.5724 1 11.0471 1H8.29924H2.95453C2.42596 1 2 1.43115 2 1.96081V8.03589C2 8.56636 2.42678 9 2.95453 9Z" fill="#009AD5"/>
<rect x="3" y="2" width="8" height="6" fill="#E8F0F5"/>
<path d="M14.8151 10.5108C15.0616 10.2287 15.0616 9.77129 14.8151 9.48917L11.0778 5.21304C10.6801 4.75794 10 5.08026 10 5.72387V7.5C10 7.77614 9.77614 8 9.5 8L5 8L5 12L9.5 12C9.77614 12 10 12.2239 10 12.5L10 14.2761C10 14.9197 10.6801 15.2421 11.0778 14.787L14.8151 10.5108Z" fill="#294F69"/>
</svg>
