<svg width="16" height="16" viewBox="0 0 16 16" fill="none" xmlns="http://www.w3.org/2000/svg">
<path d="M7.44837 4.04259C6.64872 3.69959 6.21423 3.24737 6.01063 2.97812C5.38655 3.7999 5.04279 4.78837 5 5.83366H7.17912C7.19387 5.17567 7.29419 4.57887 7.44837 4.04259Z" fill="#009AD5"/>
<path d="M7.17912 6.16641H5C5.04574 7.2117 5.38508 8.19942 6.01063 9.02127C6.21349 8.75349 6.64798 8.29908 7.44837 7.95827C7.29419 7.42341 7.19387 6.82517 7.17912 6.16641Z" fill="#009AD5"/>
<path d="M6.9368 3.38405C7.10573 3.49396 7.30269 3.61124 7.55129 3.71971C7.99906 2.41179 8.74117 1.51553 9.19558 1.0611C8.16578 1.22854 7.21269 1.71026 6.46689 2.46195C6.39018 2.54236 6.30977 2.62646 6.23674 2.71129C6.33043 2.85442 6.54509 3.11921 6.9368 3.38405Z" fill="#009AD5"/>
<path d="M7.8683 3.84439C8.36697 4.01994 9.01466 4.15271 9.83496 4.16897V0.999878C9.80472 1.00059 9.77373 1.00059 9.74275 1.00284C9.55243 1.16363 8.44959 2.15363 7.8683 3.84439Z" fill="#009AD5"/>
<path d="M7.51012 5.83365H9.83235V4.50137C8.98475 4.48588 8.3046 4.35238 7.75798 4.16428C7.62077 4.66666 7.52635 5.22433 7.51012 5.83365Z" fill="#009AD5"/>
<path d="M6.23047 9.28907C6.30719 9.36653 6.38244 9.458 6.46063 9.53841C7.21381 10.2908 8.16173 10.7718 9.19005 10.9363C8.74154 10.4908 7.99943 9.58783 7.54576 8.27771C6.76087 8.62811 6.37284 9.08326 6.23047 9.28907Z" fill="#009AD5"/>
<path d="M7.76708 7.83654C8.30633 7.64769 8.98499 7.51343 9.84144 7.49941V6.16641H7.51848C7.52659 6.77501 7.62102 7.33269 7.76708 7.83654Z" fill="#009AD5"/>
<path d="M9.74278 10.9989C9.77376 11.0004 9.80401 11.0004 9.83426 11.0004V7.8306C9.01986 7.84609 8.37439 7.96928 7.8676 8.1537C8.44963 9.84668 9.55246 10.8367 9.74278 10.9989Z" fill="#009AD5"/>
<path d="M13.0637 8.6165C12.8948 8.50577 12.7 8.38634 12.4499 8.28085C12.0022 9.58721 11.2608 10.4836 10.8057 10.9395C11.9889 10.7461 13.0128 10.156 13.7719 9.29517C13.6686 9.14387 13.4539 8.88133 13.0637 8.6165Z" fill="#009AD5"/>
<path d="M10.1667 7.8306V11.0004C10.1977 11.0004 10.2161 11.0004 10.2589 10.9989C10.4485 10.8374 11.5521 9.84668 12.1216 8.15591C11.6347 7.98108 10.9878 7.84683 10.1667 7.8306Z" fill="#009AD5"/>
<path d="M12.5516 7.95747C13.3491 8.30049 13.7835 8.74974 13.9871 9.01826C14.5861 8.21861 14.9638 7.23311 14.9985 6.16345H12.8209C12.8069 6.82514 12.7058 7.42342 12.5516 7.95747Z" fill="#009AD5"/>
<path d="M10.2582 1.00284C10.2398 1.00059 10.2088 1.00059 10.1786 0.999878V4.16969C10.993 4.15348 11.6385 4.02435 12.1475 3.84511C11.5521 2.15363 10.4486 1.16363 10.2582 1.00284Z" fill="#009AD5"/>
<path d="M12.2352 4.16428C11.6959 4.35238 11.0165 4.48737 10.1667 4.50137V5.83365H12.4875C12.4742 5.22433 12.3798 4.66666 12.2352 4.16428Z" fill="#009AD5"/>
<path d="M12.4896 6.16641H10.1688V7.49941C11.0142 7.51491 11.6899 7.64769 12.2373 7.83654C12.3796 7.33269 12.4741 6.77501 12.4896 6.16641Z" fill="#009AD5"/>
<path d="M13.7708 2.71199C13.6941 2.62717 13.6211 2.54234 13.5399 2.46116C12.7882 1.71024 11.8396 1.22852 10.8112 1.0618C11.259 1.51546 12.0019 2.41177 12.4555 3.71969C13.239 3.37223 13.6284 2.91707 13.7708 2.71199Z" fill="#009AD5"/>
<path d="M12.8223 5.83366H14.9999C14.9652 4.78837 14.6156 3.80063 13.9893 2.97812C13.7864 3.24737 13.3534 3.69959 12.553 4.04259C12.7057 4.57887 12.8068 5.17567 12.8223 5.83366Z" fill="#009AD5"/>
<path d="M1.18493 9.48917C0.938358 9.77129 0.938357 10.2287 1.18493 10.5108L4.92216 14.787C5.31991 15.2421 6 14.9197 6 14.2761V12.5C6 12.2239 6.22386 12 6.5 12H11V8H6.5C6.22386 8 6 7.77614 6 7.5L6 5.72388C6 5.08026 5.31991 4.75794 4.92216 5.21304L1.18493 9.48917Z" fill="#294F69"/>
</svg>
