<svg width="16" height="16" viewBox="0 0 16 16" fill="none" xmlns="http://www.w3.org/2000/svg">
<mask id="mask0_1742_1952" style="mask-type:alpha" maskUnits="userSpaceOnUse" x="0" y="0" width="16" height="16">
<rect width="16" height="16" fill="#D9D9D9"/>
</mask>
<g mask="url(#mask0_1742_1952)">
<path d="M12.897 3.03912C10.168 0.319125 5.757 0.321125 3.043 3.04012C0.319 5.75812 0.319 10.1661 3.043 12.8861C5.762 15.6071 10.171 15.6071 12.897 12.8881C15.615 10.1681 15.615 5.75612 12.897 3.03912Z" fill="#08B848"/>
<path d="M3.36 7.36012L6.079 4.94012C6.141 4.88712 6.235 4.87812 6.308 4.91612C6.38199 4.95212 6.43 5.02812 6.43 5.11212V6.44412C6.787 6.44412 7.866 6.43812 8.45099 6.44112C11.467 6.44612 12.464 7.37512 12.664 9.94013V11.0861H10.485L10.473 9.94013C10.377 9.27013 9.99399 8.65113 8.49299 8.65113C7.76399 8.64913 7.38899 8.64913 6.43099 8.64913V9.95813C6.43099 10.0441 6.38299 10.1101 6.31799 10.1471C6.24099 10.1841 6.15199 10.1701 6.08499 10.1261L3.36599 7.70912C3.30399 7.66812 3.28299 7.60512 3.28299 7.53812C3.277 7.46312 3.31 7.40012 3.36 7.36012Z" fill="white"/>
</g>
</svg>
