<svg width="16" height="16" viewBox="0 0 16 16" fill="none" xmlns="http://www.w3.org/2000/svg">
<mask id="mask0_1742_1924" style="mask-type:alpha" maskUnits="userSpaceOnUse" x="0" y="0" width="16" height="16">
<rect width="16" height="16" fill="#D9D9D9"/>
</mask>
<g mask="url(#mask0_1742_1924)">
<path d="M12.8955 3.03912C10.1665 0.319125 5.7565 0.321125 3.0415 3.04012C0.3195 5.75812 0.3195 10.1661 3.0415 12.8861C5.7615 15.6071 10.1715 15.6071 12.8955 12.8881C15.6145 10.1681 15.6145 5.75612 12.8955 3.03912Z" fill="#FFC600"/>
<path d="M3.35951 7.36012L6.07851 4.94012C6.14551 4.88712 6.23551 4.87812 6.30751 4.91612C6.38051 4.95212 6.43051 5.02812 6.43051 5.11212V6.44412C6.78851 6.44412 7.86551 6.43812 8.45151 6.44112C11.4685 6.44612 12.4655 7.37512 12.6645 9.94013V11.0861H10.4845L10.4805 9.94013C10.3765 9.27013 10.0015 8.65113 8.49351 8.65113C7.76451 8.64913 7.38951 8.64913 6.43151 8.64913V9.95813C6.43151 10.0441 6.38151 10.1101 6.30851 10.1471C6.24251 10.1841 6.15251 10.1701 6.07951 10.1261L3.36051 7.70912C3.29851 7.66812 3.27651 7.60512 3.27651 7.53812C3.27551 7.46312 3.30851 7.40012 3.35951 7.36012Z" fill="white"/>
</g>
</svg>
