<svg width="16" height="16" viewBox="0 0 16 16" fill="none" xmlns="http://www.w3.org/2000/svg">
<mask id="mask0_1742_2655" style="mask-type:alpha" maskUnits="userSpaceOnUse" x="0" y="0" width="16" height="16">
<rect width="16" height="16" fill="#D9D9D9"/>
</mask>
<g mask="url(#mask0_1742_2655)">
<path d="M11.5013 8.02695C11.0963 8.0276 10.7168 8.11881 10.3662 8.26649L8.9165 5.74088C9.06885 5.55139 9.17297 5.32039 9.17261 5.05827C9.17163 4.44901 8.677 3.95574 8.06763 3.95665C7.45838 3.95751 6.96521 4.45225 6.96607 5.06162C6.9668 5.67095 7.46167 6.16416 8.07105 6.16324C8.12671 6.16316 8.17444 6.1393 8.22791 6.13131L9.85608 8.96792L10.0553 9.31491C10.4524 8.98038 10.9581 8.77069 11.5178 8.7699C12.7813 8.76801 13.8071 9.79057 13.8088 11.0541C13.8109 12.3174 12.7881 13.3432 11.5247 13.3451C11.0212 13.3458 10.5597 13.1793 10.1825 12.9032L9.61096 13.3724C10.1296 13.8009 10.7842 14.0677 11.5104 14.0665C13.178 14.0641 14.5281 12.71 14.5255 11.0422C14.5231 9.3744 13.1689 8.02452 11.5013 8.02695Z" fill="#486A7F" stroke="#486A7F" stroke-width="0.25" stroke-miterlimit="10"/>
<path d="M7.14578 12.5255C7.33963 12.17 7.4418 11.7933 7.48062 11.4149L10.3921 11.356C10.4853 11.5806 10.6378 11.7829 10.868 11.9084C11.4029 12.2001 12.073 12.003 12.3649 11.4681C12.6566 10.9333 12.4595 10.263 11.9246 9.97119C11.3897 9.67934 10.7195 9.87653 10.4276 10.4115C10.401 10.4604 10.399 10.5138 10.3804 10.5644L7.11038 10.6306L6.71036 10.6387C6.81302 11.1477 6.75418 11.6919 6.48612 12.1833C5.88101 13.2924 4.49149 13.7012 3.38236 13.0961C2.27335 12.4912 1.86466 11.1015 2.46964 9.99235C2.71073 9.55037 3.0784 9.22549 3.50174 9.02719L3.36453 8.30057C2.73966 8.54983 2.19132 8.99582 1.84366 9.63335C1.04508 11.0973 1.5845 12.9317 3.04862 13.7304C4.51285 14.5291 6.34708 13.9895 7.14578 12.5255Z" fill="#486A7F" stroke="#486A7F" stroke-width="0.25" stroke-miterlimit="10"/>
<path d="M5.35173 6.41906C5.55278 6.77064 5.81975 7.05523 6.12163 7.28676L4.64458 9.79649C4.40459 9.75791 4.15227 9.78175 3.92473 9.91185C3.3958 10.2142 3.21196 10.8882 3.51445 11.4172C3.81669 11.9462 4.49077 12.1299 5.01982 11.8276C5.54887 11.5252 5.73247 10.8512 5.4301 10.3222C5.40251 10.2738 5.35808 10.2441 5.32475 10.2016L6.98356 7.38287L7.18657 7.03806C6.69926 6.85853 6.26677 6.5229 5.98906 6.03694C5.3621 4.94005 5.74284 3.54259 6.83989 2.91568C7.93669 2.28871 9.33415 2.66971 9.96123 3.76654C10.211 4.2037 10.2947 4.68707 10.2415 5.15155L10.9322 5.41591C11.0477 4.75313 10.9556 4.05233 10.5951 3.42194C9.76762 1.97411 7.9229 1.47119 6.4749 2.29882C5.0269 3.12645 4.52421 4.97123 5.35173 6.41906Z" fill="#FF6400" stroke="#FF6400" stroke-width="0.25" stroke-miterlimit="10"/>
</g>
</svg>
