<svg width="16" height="16" viewBox="0 0 16 16" fill="none" xmlns="http://www.w3.org/2000/svg">
<mask id="mask0_1742_2492" style="mask-type:alpha" maskUnits="userSpaceOnUse" x="0" y="0" width="16" height="16">
<rect width="16" height="16" fill="#D9D9D9"/>
</mask>
<g mask="url(#mask0_1742_2492)">
<path d="M15.5 0.5H0.5V15.5H15.5V0.5Z" fill="#F80000"/>
<path d="M7.04858 8.27274H7.96912L7.48242 7.48959L6.58911 8.90549H6.1825L7.26904 7.20474C7.31628 7.13602 7.39514 7.09451 7.48242 7.09451C7.56689 7.09451 7.64563 7.13455 7.69141 7.20187L8.78235 8.90549H8.37573L8.18396 8.58914H7.25195L7.04858 8.27274ZM11.272 8.58914V7.11166H10.9269V8.73373C10.9269 8.77811 10.9441 8.82108 10.9771 8.85397C11.01 8.88693 11.0543 8.90549 11.103 8.90549H12.6764L12.8796 8.58914H11.272ZM5.56396 8.32425C5.89905 8.32425 6.17102 8.05368 6.17102 7.71866C6.17102 7.3837 5.89905 7.11166 5.56396 7.11166H4.05469V8.90549H4.39954V7.42807H5.54114C5.70142 7.42807 5.83032 7.55832 5.83032 7.71866C5.83032 7.879 5.70142 8.00931 5.54114 8.00931L4.56848 8.0079L5.59839 8.90549H6.09949L5.40649 8.32425H5.56396ZM1.93152 8.90549C1.43628 8.90549 1.03442 8.50467 1.03442 8.00931C1.03442 7.51395 1.43628 7.11166 1.93152 7.11166H2.97424C3.46948 7.11166 3.87109 7.51395 3.87109 8.00931C3.87109 8.50467 3.46948 8.90549 2.97424 8.90549H1.93152ZM2.95105 8.58914C3.27185 8.58914 3.53162 8.32999 3.53162 8.00931C3.53162 7.68863 3.27185 7.42807 2.95105 7.42807H1.95459C1.63391 7.42807 1.3739 7.68863 1.3739 8.00931C1.3739 8.32999 1.63391 8.58914 1.95459 8.58914H2.95105ZM9.50244 8.90549C9.00708 8.90549 8.60486 8.50467 8.60486 8.00931C8.60486 7.51395 9.00708 7.11166 9.50244 7.11166H10.7408L10.5389 7.42807H9.52539C9.20471 7.42807 8.94409 7.68863 8.94409 8.00931C8.94409 8.32999 9.20471 8.58914 9.52539 8.58914H10.7694L10.5662 8.90549H9.50244ZM13.7214 8.58914C13.4567 8.58914 13.2318 8.41159 13.1631 8.16678H14.6377L14.8411 7.85037H13.1631C13.2318 7.60703 13.4567 7.42807 13.7214 7.42807H14.7336L14.9384 7.11166H13.6986C13.2032 7.11166 12.8009 7.51395 12.8009 8.00931C12.8009 8.50467 13.2032 8.90549 13.6986 8.90549H14.7623L14.9656 8.58914H13.7214Z" fill="white"/>
</g>
</svg>
