<svg width="16" height="16" viewBox="0 0 16 16" fill="none" xmlns="http://www.w3.org/2000/svg">
<mask id="mask0_1742_2170" style="mask-type:alpha" maskUnits="userSpaceOnUse" x="0" y="0" width="16" height="16">
<rect width="16" height="16" fill="#D9D9D9"/>
</mask>
<g mask="url(#mask0_1742_2170)">
<path d="M9.55908 15.4853C10.0589 15.4853 10.4979 15.0496 10.4979 14.5487V12.3614H11.1306C11.5065 12.3614 11.7632 12.1104 11.7632 11.7344V5.48222H4.25696V11.7344C4.25696 12.1104 4.51477 12.3637 4.88965 12.3637H5.52234V14.5509C5.52234 15.0496 5.96808 15.4875 6.45776 15.4875C6.95081 15.4875 7.39325 15.0496 7.39325 14.5509V12.3637H8.63599V14.5509C8.6214 15.0496 9.06488 15.4853 9.55908 15.4853Z" fill="#08B848"/>
<path d="M13.3111 11.7344C13.8053 11.7344 14.2499 11.2965 14.2499 10.7956V6.41992C14.2499 5.92236 13.8075 5.48221 13.3111 5.48221C12.8181 5.48221 12.3756 5.92236 12.3756 6.41992V10.7956C12.3734 11.2965 12.8181 11.7344 13.3111 11.7344Z" fill="#08B848"/>
<path d="M2.68884 11.7344C3.18195 11.7344 3.62543 11.2965 3.62543 10.7956V6.41992C3.62543 5.92236 3.17963 5.48221 2.68884 5.48221C2.19464 5.48221 1.75006 5.92236 1.75006 6.41992V10.7956C1.75006 11.2965 2.18909 11.7344 2.68884 11.7344Z" fill="#08B848"/>
<path d="M11.0056 0.607901C10.8818 0.480696 10.6949 0.480696 10.5643 0.607901L9.72455 1.44318L9.69073 1.48258C9.19653 1.23154 8.63483 1.10884 8.01453 1.10659C8.01227 1.10659 8.00781 1.10659 8.00555 1.10659C8.0022 1.10659 7.99426 1.10659 7.98981 1.10659C7.36841 1.10884 6.81122 1.23154 6.31927 1.48258L6.27991 1.44318L5.45361 0.607901C5.33545 0.480696 5.14856 0.480696 5.00781 0.607901C4.88177 0.731729 4.88177 0.917471 5.00781 1.04355L5.82056 1.85518C5.56281 2.0308 5.32751 2.24468 5.11365 2.48896C4.62061 3.07433 4.30652 3.83643 4.26263 4.66157C4.26263 4.6717 4.26263 4.67958 4.26038 4.68634C4.25812 4.74375 4.2558 4.80116 4.2558 4.85519H11.7621C11.7621 4.80003 11.7598 4.74262 11.7553 4.68634C11.7553 4.67846 11.7508 4.67058 11.7486 4.66157C11.7092 3.83756 11.3973 3.07433 10.8976 2.48896C10.686 2.24356 10.4518 2.0308 10.1918 1.85519L11.0101 1.04355C11.1295 0.916345 11.1295 0.730603 11.0056 0.607901ZM6.43976 3.76101C6.18195 3.76101 5.97144 3.55163 5.97144 3.29271C5.97144 3.03493 6.18304 2.82442 6.43976 2.82442C6.69647 2.82442 6.90808 3.03493 6.90808 3.29271C6.90808 3.55275 6.69757 3.76101 6.43976 3.76101ZM9.55908 3.76101C9.30133 3.76101 9.09418 3.55163 9.09418 3.29271C9.09418 3.03493 9.30579 2.82442 9.55908 2.82442C9.81689 2.82442 10.0308 3.03493 10.0308 3.29271C10.0285 3.55275 9.82477 3.76101 9.55908 3.76101Z" fill="#08B848"/>
</g>
</svg>
