<svg width="16" height="16" viewBox="0 0 16 16" fill="none" xmlns="http://www.w3.org/2000/svg">
<mask id="mask0_1742_2100" style="mask-type:alpha" maskUnits="userSpaceOnUse" x="0" y="0" width="16" height="16">
<rect width="16" height="16" fill="#D9D9D9"/>
</mask>
<g mask="url(#mask0_1742_2100)">
<path d="M4.59998 0.500001C2.29999 0.500001 0.5 2.3 0.5 4.6V11.4C0.5 13.7 2.29999 15.5 4.59998 15.5H11.4C13.7 15.5 15.4999 13.7 15.4999 11.4V4.6C15.4999 2.3 13.7 0.5 11.4 0.5L4.59998 0.500001Z" fill="#7295A3"/>
<path d="M10.9 8.10001C10.9 6.70001 12 6.00001 12.1 6.00001C11.4 5.00001 10.4 4.90001 10.1 4.90001C9.19998 4.80001 8.39999 5.40001 8.00003 5.40001C7.60006 5.40001 6.90005 4.90001 6.1 4.90001C5.1 4.90001 4.30002 5.50001 3.80002 6.30001C2.80002 8.00001 3.6 10.6 4.50003 11.9C5.00003 12.6 5.6 13.4 6.30002 13.3C7.00003 13.3 7.30001 12.8 8.20004 12.8C9.10006 12.8 9.30001 13.3 10.1001 13.3C10.8001 13.3 11.3001 12.6 11.8001 11.9C12.4001 11.1 12.5001 10.3 12.5001 10.3C12.4 10.3 10.9 9.80001 10.9 8.10001Z" fill="white"/>
<path d="M9.49999 3.90001C9.90001 3.40001 10.2 2.80001 10.1 2.10001C9.49999 2.10001 8.89995 2.50001 8.49999 2.90001C8.2 3.30001 7.79997 4 7.90001 4.6C8.49999 4.7 9.09996 4.4 9.49999 3.90001Z" fill="white"/>
</g>
</svg>
