<svg width="16" height="16" viewBox="0 0 16 16" fill="none" xmlns="http://www.w3.org/2000/svg">
<mask id="mask0_1742_1752" style="mask-type:alpha" maskUnits="userSpaceOnUse" x="0" y="0" width="16" height="16">
<rect width="16" height="16" fill="#D9D9D9"/>
</mask>
<g mask="url(#mask0_1742_1752)">
<path d="M6.20001 1.64999L2 2.55C1.70001 2.65 1.5 2.85 1.5 3.15V6.94999C1.5 7.24999 1.79999 7.54999 2.20001 7.54999H6.40002C6.80005 7.54999 7.10004 7.24999 7.10004 6.94999V2.35C7.09998 1.95 6.79999 1.54999 6.20001 1.64999Z" fill="#009AD5"/>
<path d="M13.7 0.549994L8.5 1.64999C8.20001 1.74999 8 1.94999 8 2.24999V7.04999C8 7.35 8.29999 7.64999 8.70001 7.64999H13.9C14.3 7.64999 14.6 7.34999 14.6 7.04999V1.14999C14.6 0.649994 14.1 0.449994 13.7 0.549994Z" fill="#009AD5"/>
<path d="M6.29999 8.35H2.09998C1.69995 8.35 1.39996 8.65 1.39996 8.95V12.65C1.39996 12.95 1.59998 13.15 1.89996 13.25L6.09998 14.15C6.5 14.25 6.89996 13.95 6.89996 13.55V8.95C6.89996 8.55 6.70001 8.35 6.29999 8.35Z" fill="#009AD5"/>
<path d="M13.9 8.35H8.69995C8.29993 8.35 7.99994 8.65 7.99994 8.95V13.75C7.99994 14.05 8.19995 14.25 8.49994 14.35L13.7 15.45C14.1 15.55 14.4999 15.35 14.4999 14.85V8.95C14.5 8.65 14.2 8.35 13.9 8.35Z" fill="#009AD5"/>
</g>
</svg>
