<svg width="16" height="16" viewBox="0 0 16 16" fill="none" xmlns="http://www.w3.org/2000/svg">
<mask id="mask0_1742_2746" style="mask-type:alpha" maskUnits="userSpaceOnUse" x="0" y="0" width="16" height="16">
<rect width="16" height="16" fill="#D9D9D9"/>
</mask>
<g mask="url(#mask0_1742_2746)">
<path d="M5.26794 12.8501C5.47888 12.4279 5.69006 12.0057 5.69006 11.5835C5.69006 10.9501 5.47888 10.4224 5.05652 10.0001C4.6344 9.57794 4.40662 9.66672 3.77307 9.66672C3.3512 9.66672 2.92883 9.77228 2.50671 10.0889L1.57336 9.15572L9.91199 0.817001L10.8036 1.70852C10.5924 2.13074 10.3815 2.55295 10.3815 2.97517C10.3815 3.60849 10.3344 3.87805 10.7567 4.30026C11.1788 4.72248 11.7064 4.93358 12.34 4.93358C12.7621 4.93358 13.1844 4.82803 13.6066 4.51137L14.2399 5.14469L5.90125 13.4834L5.26794 12.8501Z" fill="#E8F0F5"/>
<path d="M13.2899 3.63333L12.9898 3.93333C12.7899 4.13332 12.3897 4.33332 12.0899 4.33332C11.7899 4.33332 11.39 4.23332 11.19 3.93332C10.9901 3.63333 10.7901 3.33333 10.7901 3.03333C10.7901 2.73333 10.8902 2.33333 11.19 2.13333L11.4901 1.83333L10.0901 0.433325C9.8902 0.233325 9.59015 0.233325 9.3902 0.433325L1.19025 8.63333C0.990295 8.83333 0.990295 9.13333 1.19025 9.33333L2.59015 10.7333L2.8902 10.4333C3.09015 10.2333 3.4903 10.0333 3.7901 10.0333C4.09015 10.0333 4.49005 10.1333 4.69 10.4333C4.88995 10.6333 5.0899 11.0333 5.0899 11.3333C5.0899 11.6333 4.98981 12.0333 4.69 12.2333L4.38995 12.5333L5.78986 13.9333C5.98981 14.1333 6.28986 14.1333 6.48981 13.9333L14.6898 5.73333C14.8897 5.53333 14.8897 5.23333 14.6898 5.03333L13.2899 3.63333ZM5.48981 12.6333C5.68976 12.2333 5.88971 11.8333 5.88971 11.4333C5.88971 10.8333 5.68976 10.3333 5.28961 9.93333C4.88971 9.53333 4.38971 9.33333 3.78961 9.33333C3.38971 9.33333 2.98956 9.43333 2.58966 9.73333L1.86481 8.90829L9.76471 1.00829L10.4896 1.83332C10.2896 2.23332 10.0897 2.63332 10.0897 3.03332C10.0897 3.63332 10.2896 4.13332 10.6898 4.53332C11.0897 4.93332 11.5897 5.13332 12.1898 5.13332C12.5897 5.13332 12.9898 5.03332 13.3897 4.73332L13.9898 5.33332L6.0899 13.2333L5.48981 12.6333Z" fill="#486A7F"/>
<path d="M9.06035 5.39462L8.49463 5.96034L9.06031 6.52602L9.62603 5.9603L9.06035 5.39462Z" fill="#486A7F"/>
<path d="M7.85283 4.21416L7.28711 4.77988L7.85279 5.34556L8.41851 4.77984L7.85283 4.21416Z" fill="#486A7F"/>
<path d="M10.2688 6.575L9.70312 7.14072L10.2688 7.7064L10.8345 7.14068L10.2688 6.575Z" fill="#486A7F"/>
<path d="M13.8326 9.09169C12.3344 7.59159 9.90051 7.59159 8.39026 9.09169C6.89026 10.5909 6.89026 13.0322 8.39026 14.5341C9.88855 16.0378 12.3153 16.0378 13.8326 14.5341C15.3356 13.0322 15.3356 10.5945 13.8326 9.09169Z" fill="#4B96CD"/>
<path d="M9.19519 12.3775V11.2494H13.0297V12.3775H9.19519Z" fill="#E8F0F5"/>
<path d="M10.5465 9.89827H11.6779V13.7302H10.5465V9.89827Z" fill="#E8F0F5"/>
</g>
</svg>
