<svg width="16" height="16" viewBox="0 0 16 16" fill="none" xmlns="http://www.w3.org/2000/svg">
<mask id="mask0_1742_2925" style="mask-type:alpha" maskUnits="userSpaceOnUse" x="0" y="0" width="16" height="16">
<rect width="16" height="16" fill="#D9D9D9"/>
</mask>
<g mask="url(#mask0_1742_2925)">
<path d="M7.82975 13.4632L5.10075 11.6252C4.95475 11.5212 4.91276 11.3872 4.91276 11.2272V6.66122L1.31779 1.72022C1.00578 1.36122 1.14481 0.839218 1.71378 0.839218H12.0328C12.6368 0.839218 12.6667 1.43122 12.4297 1.72022L8.72575 6.79522V13.0652C8.73869 13.5692 8.1508 13.6982 7.82975 13.4632Z" fill="#486A7F"/>
<path d="M13.9139 9.05097C12.3965 7.53973 9.94452 7.5414 8.435 9.05097C6.92206 10.5644 6.92206 13.0147 8.435 14.5271C9.94794 16.04 12.3998 16.04 13.9139 14.5282C15.4262 13.0159 15.4262 10.5633 13.9139 9.05097Z" fill="#08B848"/>
<path d="M11.7468 14.0236C11.7468 14.1381 11.6896 14.1954 11.575 14.1954H10.7732C10.6587 14.1954 10.6014 14.1381 10.6014 14.0236V9.55646C10.6014 9.44191 10.6587 9.38464 10.7732 9.38464H11.575C11.6323 9.38464 11.7468 9.44191 11.7468 9.55646V14.0236Z" fill="white"/>
<path d="M8.94055 12.3627C8.82593 12.3627 8.76868 12.3055 8.76868 12.1909V11.3891C8.76868 11.2746 8.82593 11.2173 8.94055 11.2173H13.4077C13.5222 11.2173 13.5795 11.2746 13.5795 11.3891V12.1909C13.5795 12.2482 13.5222 12.3627 13.4077 12.3627H8.94055Z" fill="white"/>
</g>
</svg>
