<svg width="16" height="16" viewBox="0 0 16 16" fill="none" xmlns="http://www.w3.org/2000/svg">
<mask id="mask0_1742_1833" style="mask-type:alpha" maskUnits="userSpaceOnUse" x="0" y="0" width="16" height="16">
<rect width="16" height="16" fill="#D9D9D9"/>
</mask>
<g mask="url(#mask0_1742_1833)">
<path d="M12.85 3.02972C10.1313 0.321933 5.73782 0.324922 3.03311 3.02972C0.322296 5.74148 0.322296 10.1319 3.03311 12.8417C5.74393 15.5524 10.1372 15.5524 12.85 12.8437C15.5597 10.1339 15.5597 5.73949 12.85 3.02972Z" fill="#08B848"/>
<path d="M8.85897 11.2281C8.85897 11.4116 8.76719 11.5034 8.58362 11.5034H7.29867C7.1151 11.5034 7.02332 11.4116 7.02332 11.2281V4.64696C7.02332 4.4634 7.1151 4.37161 7.29867 4.37161H8.58362C8.67541 4.37161 8.85897 4.4634 8.85897 4.64696V11.2281Z" fill="white"/>
<path d="M4.6506 8.85533C4.46703 8.85533 4.37525 8.76355 4.37525 8.57999V7.29503C4.37525 7.11146 4.46703 7.01968 4.6506 7.01968H11.2317C11.4153 7.01968 11.507 7.11146 11.507 7.29503V8.57999C11.507 8.67177 11.4153 8.85533 11.2317 8.85533H4.6506Z" fill="white"/>
</g>
</svg>
