<svg width="16" height="16" viewBox="0 0 16 16" fill="none" xmlns="http://www.w3.org/2000/svg">
<mask id="mask0_1742_2515" style="mask-type:alpha" maskUnits="userSpaceOnUse" x="0" y="0" width="16" height="16">
<rect width="16" height="16" fill="#D9D9D9"/>
</mask>
<g mask="url(#mask0_1742_2515)">
<path d="M8.33895 14.4791L12.1013 10.6681C12.2843 10.4773 12.2039 10.2839 11.925 10.2839H10.3485C10.0734 10.2839 9.8431 10.0575 9.8431 9.77457L9.83516 6.93735V5.61875H9.82857C9.82857 5.34108 9.60225 5.11342 9.3232 5.11342H6.66365C6.38204 5.11342 6.14254 5.34108 6.14254 5.62007L6.16622 9.72062V9.78247C6.16622 10.0601 5.92134 10.2865 5.6451 10.2865H4.08175C3.78817 10.2865 3.72506 10.4799 3.88961 10.6707L7.64534 14.4818C7.85604 14.691 8.15596 14.691 8.33895 14.4791Z" fill="#7295A3"/>
<path d="M9.86682 1.84325C9.86682 2.10776 9.68262 2.32357 9.4563 2.32357H6.55188C6.323 2.32357 6.14136 2.10775 6.14136 1.84325C6.14136 1.57742 6.32556 1.3616 6.55188 1.3616H9.4563C9.68262 1.3616 9.86682 1.57742 9.86682 1.84325Z" fill="#7295A3"/>
<path d="M9.84607 3.66762C9.84607 3.93212 9.66174 4.14794 9.43542 4.14794H6.53101C6.30212 4.14794 6.12048 3.93212 6.12048 3.66762C6.12048 3.40179 6.30469 3.18597 6.53101 3.18597H9.43542C9.66174 3.18597 9.84607 3.40179 9.84607 3.66762Z" fill="#7295A3"/>
</g>
</svg>
