<svg width="16" height="16" viewBox="0 0 16 16" fill="none" xmlns="http://www.w3.org/2000/svg">
<mask id="mask0_1742_2637" style="mask-type:alpha" maskUnits="userSpaceOnUse" x="0" y="0" width="16" height="16">
<rect width="16" height="16" fill="#D9D9D9"/>
</mask>
<g mask="url(#mask0_1742_2637)">
<path d="M8 0.583328C5.88782 0.583328 4.16968 2.13771 4.16968 4.0487V12.5104C4.16968 14.1126 5.60999 15.4167 7.38062 15.4167C8.90088 15.4167 10.0687 14.4007 10.2795 12.9144C10.3035 12.8536 10.3154 12.7938 10.3154 12.7312V5.36933C10.3154 4.09104 9.44385 3.19835 8.1969 3.19835C6.95178 3.19835 6.04797 4.11128 6.04797 5.36933V11.5717C6.04797 11.8551 6.29834 12.0852 6.60571 12.0852C6.91309 12.0852 7.16345 11.8551 7.16345 11.5717V5.36933C7.16345 4.81715 7.43494 4.22678 8.1969 4.22678C8.82544 4.22678 9.20007 4.6538 9.20007 5.36933V12.5104C9.20007 13.6341 8.46936 14.3896 7.38147 14.3896C6.22559 14.3896 5.28601 13.5466 5.28601 12.5104V4.0487C5.28601 2.70507 6.50354 1.61176 8 1.61176C9.49731 1.61176 10.7148 2.70507 10.7148 4.0487V11.0287C10.7148 11.3121 10.9651 11.5431 11.2726 11.5431C11.58 11.5431 11.8302 11.3121 11.8302 11.0287V4.0487C11.8302 2.13771 10.1121 0.583328 8 0.583328Z" fill="#A0A0A0"/>
</g>
</svg>
