<svg width="24" height="24" viewBox="0 0 24 24" fill="none" xmlns="http://www.w3.org/2000/svg">
<mask id="mask0_1742_2029" style="mask-type:alpha" maskUnits="userSpaceOnUse" x="0" y="0" width="24" height="24">
<path d="M24 0H0V24H24V0Z" fill="#F0C4CC"/>
</mask>
<g mask="url(#mask0_1742_2029)">
<path fill-rule="evenodd" clip-rule="evenodd" d="M17.9999 15H16.9999V9.00005C16.9999 6.23869 14.7614 4.00012 12 4.00012C9.23863 4.00012 7.00006 6.23869 7.00006 9.00005V15H6.00008C5.44781 15 5.00009 15.4477 5.00009 16C5.00009 16.5523 5.44781 16.9999 6.00008 16.9999H17.9999C18.5522 16.9999 18.9999 16.5523 18.9999 16C18.9999 15.4477 18.5522 15 17.9999 15ZM9.00004 15V9.00005C9.00004 7.34328 10.3431 6.00009 12 6.00009C13.6569 6.00009 15 7.34328 15 9.00005V15H9.00004Z" fill="#447DB8"/>
<path d="M12 19.9999C10.8954 19.9999 10 19.1045 10 17.9999H14C14 19.1045 13.1046 19.9999 12 19.9999Z" fill="#447DB8"/>
</g>
</svg>
