<svg width="24" height="24" viewBox="0 0 24 24" fill="none" xmlns="http://www.w3.org/2000/svg">
<mask id="mask0_1742_3206" style="mask-type:alpha" maskUnits="userSpaceOnUse" x="0" y="0" width="24" height="24">
<path d="M24 0H0V24H24V0Z" fill="#F0C4CC"/>
</mask>
<g mask="url(#mask0_1742_3206)">
<path fill-rule="evenodd" clip-rule="evenodd" d="M17.9999 15H16.9999V9.00005C16.9999 6.23869 14.7614 4.00012 12 4.00012C9.23863 4.00012 7.00006 6.23869 7.00006 9.00005V15H6.00008C5.44781 15 5.00009 15.4477 5.00009 16C5.00009 16.5523 5.44781 16.9999 6.00008 16.9999H17.9999C18.5522 16.9999 18.9999 16.5523 18.9999 16C18.9999 15.4477 18.5522 15 17.9999 15ZM9.00004 15V9.00005C9.00004 7.34328 10.3431 6.00009 12 6.00009C13.6569 6.00009 15 7.34328 15 9.00005V15H9.00004Z" fill="#447DB8"/>
<path d="M12 19.9999C10.8954 19.9999 10 19.1045 10 17.9999H14C14 19.1045 13.1046 19.9999 12 19.9999Z" fill="#447DB8"/>
<path d="M11.9488 5.5191C10.7249 5.51925 9.55102 6.24007 8.96063 7.30568C8.68874 7.78432 8.52685 8.32747 8.53539 8.88056C8.50299 10.8507 8.52638 12.8214 8.51928 14.7918C8.48788 15.052 8.58018 15.3697 8.85964 15.4469C9.12291 15.5204 9.40694 15.4625 9.67846 15.481C11.4522 15.4782 13.2271 15.4866 15.0003 15.4768C15.3105 15.4691 15.5212 15.1528 15.4762 14.8589C15.4692 12.8614 15.4916 10.8636 15.4618 8.86623C15.4744 7.98481 15.0636 7.12985 14.4342 6.52476C13.7961 5.86058 12.8637 5.5082 11.9488 5.5191Z" fill="#447DB8"/>
</g>
</svg>
