<svg width="16" height="16" viewBox="0 0 16 16" fill="none" xmlns="http://www.w3.org/2000/svg">
<mask id="mask0_1742_3125" style="mask-type:alpha" maskUnits="userSpaceOnUse" x="0" y="0" width="16" height="16">
<rect width="16" height="16" fill="#D9D9D9"/>
</mask>
<g mask="url(#mask0_1742_3125)">
<path d="M7.99756 14.9548C4.16357 14.9548 1.04517 11.8344 1.04517 7.99906C1.04517 4.16464 4.16357 1.0452 7.99756 1.0452C9.85229 1.0452 11.5994 1.76913 12.915 3.08393C14.2314 4.39919 14.9558 6.14485 14.9548 7.99906C14.9548 11.8344 11.8337 14.9548 7.99756 14.9548ZM5.21753 12.3365C6.03613 12.8651 7.01172 13.1539 7.99756 13.1539C9.37744 13.1539 10.6741 12.614 11.6504 11.6353C12.6174 10.664 13.1472 9.38228 13.1416 8.02454C13.1416 6.99527 12.8716 6.06179 12.3398 5.24394L5.21753 12.3365ZM7.99756 2.84702C5.15234 2.84702 2.83765 5.15852 2.83765 7.99906C2.83765 9.12744 3.20972 10.2148 3.89062 11.0925L11.1104 3.89187C10.2122 3.21607 9.11865 2.84702 7.99756 2.84702Z" fill="#FF6400"/>
</g>
</svg>
