<svg width="16" height="16" viewBox="0 0 16 16" fill="none" xmlns="http://www.w3.org/2000/svg">
<mask id="mask0_1742_2504" style="mask-type:alpha" maskUnits="userSpaceOnUse" x="0" y="0" width="16" height="16">
<rect width="16" height="16" fill="#D9D9D9"/>
</mask>
<g mask="url(#mask0_1742_2504)">
<path d="M14.911 1.42687C15.6109 2.12688 13.6109 5.42687 13.211 5.82687C12.811 6.22687 12.0111 5.82687 11.211 5.12687C10.5111 4.42687 10.111 3.52688 10.5111 3.12688C10.811 2.72688 14.1109 0.626874 14.911 1.42687ZM4.41097 2.22688C3.311 1.62688 1.61092 0.826874 1.11092 1.32688C0.610924 1.82688 1.31088 3.52688 2.01095 4.62687C2.51095 3.72688 3.41097 2.82688 4.41097 2.22688Z" fill="#B5010F"/>
<path d="M13.7109 5.52687C13.8109 5.92687 13.8109 6.22687 13.611 6.32687C13.2109 6.72687 12.111 6.32687 11.2109 5.32687C11.111 5.22687 11.111 5.22687 11.011 5.12687C10.611 4.72687 10.411 4.42687 10.2109 4.02687C9.91089 3.42687 9.81091 2.92687 10.011 2.62687C10.111 2.52687 10.411 2.42687 10.611 2.52687C10.8109 2.42687 11.011 2.32687 11.2109 2.12687C10.3109 1.62687 9.21094 1.32687 8.11096 1.32687C4.31091 1.32687 1.31091 4.32687 1.31091 8.12687C1.31091 11.9269 4.31091 14.9269 8.11096 14.9269C11.911 14.9269 14.911 11.9269 14.911 8.12687C14.911 6.92687 14.611 5.82687 14.011 4.82687C13.911 5.22687 13.811 5.42687 13.7109 5.52687Z" fill="#B5010F"/>
</g>
</svg>
