<svg width="16" height="16" viewBox="0 0 16 16" fill="none" xmlns="http://www.w3.org/2000/svg">
<mask id="mask0_1742_3180" style="mask-type:alpha" maskUnits="userSpaceOnUse" x="0" y="0" width="16" height="16">
<rect width="16" height="16" fill="#D9D9D9"/>
</mask>
<g mask="url(#mask0_1742_3180)">
<path d="M11.8221 5.49894L11.0961 4.7437L11.241 3.70839C11.2703 3.51329 11.1379 3.33495 10.9428 3.2987L9.91304 3.11892L9.42394 2.1923C9.35706 2.07109 9.22049 2 9.10205 2C9.0491 2 8.99476 2.01113 8.9432 2.03623L7.99983 2.4961L7.05646 2.03623C7.00769 2.00978 6.95334 2 6.89899 2C6.76801 2 6.64121 2.06966 6.5799 2.1923L6.08661 3.11892L5.05545 3.29727C4.86176 3.33213 4.73635 3.51329 4.75865 3.70694L4.90356 4.74235L4.17758 5.49759C4.03684 5.64251 4.03684 5.87521 4.17758 6.00619L4.90356 6.75446L4.75865 7.79404C4.72938 7.99052 4.86037 8.16748 5.05406 8.20511L5.8553 8.35003L6.08661 8.38486L6.23153 8.63569L6.59383 9.31012C6.66211 9.42717 6.7903 9.50381 6.91432 9.50381C6.96867 9.50381 7.02301 9.49266 7.07317 9.47455L8.01376 9.01471L8.97247 9.47455C9.01009 9.50381 9.06164 9.50381 9.11738 9.50381C9.25673 9.50381 9.37936 9.43832 9.43649 9.32127L9.94092 8.38486L10.1708 8.35003L10.9707 8.20511C11.1741 8.17013 11.2967 7.9933 11.2689 7.79404L11.1212 6.75726L11.8472 6.00619C11.9586 5.86687 11.9586 5.64106 11.8221 5.49894Z" fill="#447DB8"/>
<path d="M10.7069 9.16567L10.4139 9.21556L10.2451 9.53282L9.7922 10.395C9.70521 10.5422 9.54531 10.6483 9.38668 10.6483C9.30736 10.6483 9.24979 10.6304 9.18199 10.601L7.98205 10.0407L6.78466 10.601C6.71941 10.6304 6.65162 10.6483 6.58382 10.6483C6.42263 10.6483 6.26783 10.569 6.18468 10.4078L5.72031 9.53282L5.55145 9.213L5.2585 9.16567L4.08669 12.9037C4.04704 13.0367 4.08925 13.1813 4.19543 13.2708C4.30161 13.3604 4.45129 13.3834 4.57793 13.3207L5.77916 12.7489L6.53776 13.8503C6.60556 13.9424 6.72454 14 6.83071 14C6.96376 13.9731 7.13389 13.8618 7.17739 13.7403L7.991 10.6995L8.81741 13.7403C8.84427 13.8708 8.95045 13.9757 9.10396 13.9949C9.22293 13.9949 9.39819 13.945 9.46087 13.8503L10.222 12.7566L11.4284 13.3233C11.5576 13.3834 11.7021 13.3604 11.8096 13.2708C11.9158 13.1787 11.9426 13.0354 11.9209 12.9037L10.7069 9.16567Z" fill="#447DB8"/>
</g>
</svg>
