<svg width="16" height="16" viewBox="0 0 16 16" fill="none" xmlns="http://www.w3.org/2000/svg">
<mask id="mask0_1742_3128" style="mask-type:alpha" maskUnits="userSpaceOnUse" x="0" y="0" width="16" height="16">
<rect width="16" height="16" fill="#D9D9D9"/>
</mask>
<g mask="url(#mask0_1742_3128)">
<path d="M3.03993 3.03995C5.75487 0.321102 10.1644 0.319255 12.8934 3.03898C15.6114 5.75598 15.6124 10.1676 12.8934 12.8876C10.2574 15.5217 6.03569 15.6043 3.2997 13.1327L3.03993 12.8857C0.405106 10.2507 0.322614 6.03185 2.79286 3.29972L3.03993 3.03995ZM11.9647 3.53605C9.61414 1.4183 5.99916 1.49249 3.74794 3.74699H3.74696C1.41804 6.0742 1.41752 9.84899 3.74696 12.1786L3.96962 12.3905C6.31313 14.5072 9.92881 14.4362 12.1864 12.1806C14.5146 9.85138 14.5145 6.07343 12.1884 3.74699L11.9647 3.53605Z" fill="#5B646F"/>
<path d="M11.86 6.14714L11.153 5.43814C11.049 5.34014 10.937 5.29114 10.799 5.29114C10.659 5.29114 10.54 5.34114 10.445 5.43814L7.02597 8.86414L5.49097 7.32514C5.38896 7.22614 5.27797 7.17814 5.13696 7.17814C4.99396 7.17814 4.87996 7.22714 4.78296 7.32514L4.07596 8.03314C3.97195 8.13114 3.92996 8.25014 3.92996 8.38714C3.92996 8.52514 3.97696 8.64414 4.07596 8.74114L5.96196 10.6301L6.67096 11.3391C6.77496 11.4421 6.88795 11.4851 7.02596 11.4851C7.16396 11.4851 7.28296 11.4361 7.37996 11.3391L8.08997 10.6301L11.861 6.85914C11.96 6.76014 12.007 6.64214 12.007 6.50414C12.009 6.36114 11.959 6.24414 11.86 6.14714Z" fill="#5B646F"/>
</g>
</svg>
