<svg width="16" height="16" viewBox="0 0 16 16" fill="none" xmlns="http://www.w3.org/2000/svg">
<path d="M7.58753 3.21207C7.29297 3.50329 7.29025 3.97815 7.58147 4.27271C8.7765 5.48147 10.446 7.15003 11.2916 7.99392C10.0427 9.23512 8.84766 10.4297 7.54269 11.7592C7.25254 12.0549 7.30585 12.5461 7.61907 12.8171C7.93229 13.0882 8.40594 13.054 8.67698 12.7408C8.67514 12.7429 8.67571 12.7423 8.6797 12.7381C10.043 11.375 11.3493 10.0344 12.7031 8.70226C13.0981 8.31348 13.0988 7.67757 12.7062 7.2862C11.3494 5.93332 9.99635 4.5818 8.64817 3.21813C8.35695 2.92357 7.88209 2.92086 7.58753 3.21207Z" fill="#404952"/>
</svg>
