<svg width="16" height="16" viewBox="0 0 16 16" fill="none" xmlns="http://www.w3.org/2000/svg">
<path d="M8.41247 3.21207C8.70703 3.50329 8.70975 3.97815 8.41853 4.27271C7.2235 5.48147 5.55396 7.15003 4.70844 7.99392C5.95732 9.23512 7.15234 10.4297 8.45731 11.7592C8.74746 12.0549 8.69415 12.5461 8.38093 12.8171C8.06771 13.0882 7.59406 13.054 7.32302 12.7408C7.32486 12.7429 7.32429 12.7423 7.3203 12.7381C5.95703 11.375 4.65075 10.0344 3.29695 8.70226C2.90186 8.31348 2.90124 7.67757 3.29376 7.2862C4.65058 5.93332 6.00365 4.5818 7.35183 3.21813C7.64305 2.92357 8.11791 2.92086 8.41247 3.21207Z" fill="#404952"/>
</svg>
