<svg width="16" height="16" viewBox="0 0 16 16" fill="none" xmlns="http://www.w3.org/2000/svg">
<mask id="mask0_1742_2473" style="mask-type:alpha" maskUnits="userSpaceOnUse" x="0" y="0" width="16" height="16">
<rect width="16" height="16" fill="#D9D9D9"/>
</mask>
<g mask="url(#mask0_1742_2473)">
<path d="M14.65 15.5H1.34998C0.849976 15.5 0.449951 15.1 0.449951 14.6V1.4C0.449951 0.9 0.849976 0.5 1.34998 0.5H14.65C15.15 0.5 15.55 0.9 15.55 1.4V14.7C15.55 15.1 15.15 15.5 14.65 15.5Z" fill="#068DB7"/>
<path d="M12.5667 9.19987C11.7996 9.19987 11.2494 9.77842 11.2494 10.4907C11.2494 11.2042 11.7996 11.7823 12.5667 11.7823C13.3336 11.7823 13.8845 11.2042 13.8845 10.4907C13.8845 9.77842 13.3336 9.19987 12.5667 9.19987ZM12.5667 11.1472C12.1932 11.1472 11.916 10.8536 11.916 10.4907C11.916 10.1286 12.1932 9.8349 12.5667 9.8349C12.9396 9.8349 13.2175 10.1286 13.2175 10.4907C13.2175 10.8536 12.9396 11.1472 12.5667 11.1472Z" fill="white"/>
<path d="M7.47986 10.232L7.30627 10.1767C7.20264 10.144 7.0177 10.091 7.0177 9.93921C7.0177 9.81928 7.15479 9.73483 7.4071 9.73483C7.62476 9.73483 7.88965 9.80798 7.89905 9.8109V9.27853C7.88037 9.27342 7.59204 9.19907 7.28564 9.19907C6.70557 9.19907 6.35632 9.51229 6.35632 9.97875C6.35632 10.3917 6.64844 10.5976 6.99915 10.7083C7.03796 10.7212 7.09521 10.7391 7.13342 10.7517C7.28943 10.8008 7.41406 10.8738 7.41406 11.0002C7.41406 11.1415 7.27002 11.233 6.95703 11.233C6.68188 11.233 6.41821 11.1543 6.36267 11.1403V11.7142C6.39355 11.7208 6.70703 11.7823 7.04187 11.7823C7.52344 11.7823 8.07434 11.5719 8.07434 10.9454C8.07434 10.6416 7.88831 10.3618 7.47986 10.232Z" fill="white"/>
<path d="M5.51233 9.24405H4.88293V11.7379H5.51233V9.24405Z" fill="white"/>
<path d="M2.11597 10.4907C2.11597 11.2943 2.73657 11.7823 3.44409 11.7823C3.7251 11.7823 3.9397 11.7158 4.01782 11.6936V11.0241C3.99084 11.0391 3.78516 11.1565 3.48914 11.1565C3.06982 11.1565 2.79944 10.8614 2.79944 10.4907C2.79944 10.1088 3.08154 9.82554 3.48914 9.82554C3.79016 9.82554 3.99255 9.94547 4.01782 9.9587V9.28924C3.95874 9.2717 3.74011 9.19987 3.44409 9.19987C2.67822 9.19987 2.11597 9.74593 2.11597 10.4907Z" fill="white"/>
<path d="M8.68494 10.4907C8.68494 11.2943 9.30554 11.7823 10.0129 11.7823C10.2941 11.7823 10.5085 11.7158 10.5868 11.6936V11.0241C10.5598 11.0391 10.354 11.1565 10.0581 11.1565C9.63879 11.1565 9.36841 10.8614 9.36841 10.4907C9.36841 10.1088 9.65051 9.82554 10.0581 9.82554C10.3591 9.82554 10.5615 9.94547 10.5868 9.9587V9.28924C10.5277 9.2717 10.3091 9.19987 10.0129 9.19987C9.24707 9.19987 8.68494 9.74593 8.68494 10.4907Z" fill="white"/>
<path d="M1.13623 6.25261C0.964355 6.25261 0.82373 6.39195 0.82373 6.56385V7.21855C0.82373 7.39138 0.964355 7.53079 1.13623 7.53079C1.30835 7.53079 1.44861 7.39138 1.44861 7.21855V6.56385C1.44861 6.39195 1.30835 6.25261 1.13623 6.25261Z" fill="white"/>
<path d="M2.85242 7.53079C3.02454 7.53079 3.16479 7.39138 3.16479 7.21855V5.70456C3.16479 5.53273 3.02454 5.39313 2.85242 5.39313C2.6803 5.39313 2.53992 5.53273 2.53992 5.70456V7.21855C2.53992 7.39138 2.6803 7.53079 2.85242 7.53079Z" fill="white"/>
<path d="M4.5686 4.21768C4.43958 4.21768 4.32837 4.2961 4.28076 4.40783C4.26489 4.44508 4.2561 4.48601 4.2561 4.52899V7.8407C4.2561 7.88392 4.26489 7.92504 4.28076 7.96242C4.32837 8.07456 4.43958 8.15294 4.5686 8.15294C4.71924 8.15294 4.84546 8.04626 4.87476 7.90376C4.87891 7.8834 4.8811 7.86231 4.8811 7.8407V4.52899C4.8811 4.5075 4.87891 4.48651 4.87476 4.46625C4.84546 4.32441 4.71924 4.21768 4.5686 4.21768Z" fill="white"/>
<path d="M6.59729 7.21855V5.70456C6.59729 5.53273 6.45691 5.39313 6.28479 5.39313C6.11279 5.39313 5.97241 5.53273 5.97241 5.70456V7.21855C5.97241 7.39138 6.11279 7.53079 6.28479 7.53079C6.45691 7.53079 6.59729 7.39138 6.59729 7.21855Z" fill="white"/>
<path d="M8.0011 6.25261C8.00073 6.25261 8.00037 6.25271 8 6.25271C7.99963 6.25271 8.00037 6.25271 8 6.25271C7.82812 6.25271 7.68665 6.39195 7.68665 6.56385V7.21855C7.68665 7.39138 7.82715 7.53079 7.99902 7.53079C7.99866 7.53079 7.99939 7.53079 7.99902 7.53079C7.99939 7.53079 8.00073 7.53079 8.0011 7.53079C8.17297 7.53079 8.31348 7.39138 8.31348 7.21855V6.56385C8.31348 6.39195 8.17297 6.25261 8.0011 6.25261Z" fill="white"/>
<path d="M13.1477 7.53079C13.3198 7.53079 13.4601 7.39138 13.4601 7.21855V5.70456C13.4601 5.53273 13.3198 5.39313 13.1477 5.39313C12.9756 5.39313 12.8352 5.53273 12.8352 5.70456V7.21855C12.8352 7.39138 12.9756 7.53079 13.1477 7.53079Z" fill="white"/>
<path d="M14.8639 6.25261C14.6918 6.25261 14.5514 6.39195 14.5514 6.56385V7.21855C14.5514 7.39138 14.6918 7.53079 14.8639 7.53079C15.0358 7.53079 15.1763 7.39138 15.1763 7.21855V6.56385C15.1763 6.39195 15.0358 6.25261 14.8639 6.25261Z" fill="white"/>
<path d="M11.4314 8.15294C11.5389 8.15294 11.6342 8.09851 11.6904 8.01547C11.7241 7.96566 11.7439 7.90554 11.7439 7.8407V4.52899C11.7439 4.46452 11.7241 4.40463 11.6904 4.35494C11.6342 4.27213 11.5391 4.21768 11.4315 4.21768C11.324 4.21768 11.2288 4.27213 11.1725 4.35494C11.1387 4.40463 11.119 4.46452 11.119 4.52899V7.8407C11.119 7.90554 11.1387 7.96566 11.1725 8.01547C11.2288 8.09851 11.3239 8.15294 11.4314 8.15294Z" fill="white"/>
<path d="M9.71521 7.53079C9.88733 7.53079 10.0277 7.39138 10.0277 7.21855V5.70456C10.0277 5.53273 9.88733 5.39313 9.71521 5.39313C9.54309 5.39313 9.40283 5.53273 9.40283 5.70456V7.21855C9.40283 7.39138 9.54309 7.53079 9.71521 7.53079Z" fill="white"/>
</g>
</svg>
