<svg width="8" height="8" viewBox="0 0 8 8" fill="none" xmlns="http://www.w3.org/2000/svg">
<path d="M7.14453 0.146489C7.3398 -0.0487357 7.65631 -0.0487608 7.85156 0.146489C8.04677 0.341741 8.04677 0.658267 7.85156 0.85352L4.70606 3.99903L7.85156 7.14454C8.04679 7.3398 8.04681 7.65632 7.85156 7.85157C7.65631 8.04678 7.33978 8.04678 7.14453 7.85157L3.99902 4.70606L0.853516 7.85157C0.658264 8.04678 0.341738 8.04678 0.146485 7.85157C-0.0487646 7.65632 -0.0487394 7.3398 0.146485 7.14454L3.29199 3.99903L0.146485 0.85352C-0.0487268 0.658268 -0.0487267 0.341741 0.146485 0.146489C0.341734 -0.0487607 0.658251 -0.0487355 0.853516 0.146489L3.99902 3.292L7.14453 0.146489Z" fill="#404952"/>
</svg>
