<svg width="16" height="16" viewBox="0 0 16 16" fill="none" xmlns="http://www.w3.org/2000/svg">
<path d="M13.7208 1.21882C14.0137 0.925922 14.4884 0.925922 14.7813 1.21882C15.0742 1.51171 15.0742 1.98648 14.7813 2.27936L9.06062 8.00007L14.7813 13.7208C15.0742 14.0137 15.0742 14.4884 14.7813 14.7813C14.4884 15.0742 14.0137 15.0742 13.7208 14.7813L8.00007 9.06061L2.27937 14.7813C1.98649 15.0742 1.51172 15.0742 1.21882 14.7813C0.925926 14.4884 0.925926 14.0137 1.21882 13.7208L6.93952 8.00007L1.21882 2.27936C0.925936 1.98648 0.925955 1.51171 1.21882 1.21882C1.51171 0.925922 1.98647 0.925922 2.27937 1.21882L8.00007 6.93952L13.7208 1.21882Z" fill="#404952"/>
</svg>
