<svg width="16" height="16" viewBox="0 0 16 16" fill="none" xmlns="http://www.w3.org/2000/svg">
<mask id="mask0_1742_2372" style="mask-type:alpha" maskUnits="userSpaceOnUse" x="0" y="0" width="16" height="16">
<rect width="16" height="16" fill="#D9D9D9"/>
</mask>
<g mask="url(#mask0_1742_2372)">
<path d="M13.1499 1H6.6499C5.84985 1 5.24988 1.6 5.24988 2.4V11.3C5.24988 12.1 5.84985 12.7 6.6499 12.7H10.8499H12.3499H13.1499C13.95 12.7 14.5499 12.1 14.5499 11.3V8.1V7.7V2.4C14.5499 1.6 13.85 1 13.1499 1Z" fill="#486A7F"/>
<path d="M6.34998 9.6H4.04993C3.6499 9.6 3.34998 9.3 3.34998 8.9C3.34998 8.5 3.65002 8.2 4.04993 8.2H6.34998C6.75 8.2 7.04993 8.5 7.04993 8.9C6.94995 9.3 6.75 9.6 6.34998 9.6Z" fill="white"/>
<path d="M4.04993 6.8C3.6499 6.8 3.34998 6.5 3.34998 6.1C3.34998 5.7 3.65002 5.4 4.04993 5.4H7.94995C8.34998 5.4 8.6499 5.7 8.6499 6.1C8.6499 6.5 8.34985 6.8 7.94995 6.8H4.04993Z" fill="white"/>
<path d="M9.34998 3.3H2.84998C2.04993 3.3 1.44995 3.9 1.44995 4.7V13.6C1.44995 14.4 2.04993 15 2.84998 15H7.04993H8.54993H9.34998C10.15 15 10.75 14.4 10.75 13.6V10.4V9.90001V4.7C10.75 3.9 10.0499 3.3 9.34998 3.3Z" fill="#ACC1C6"/>
</g>
</svg>
