<svg width="16" height="16" viewBox="0 0 16 16" fill="none" xmlns="http://www.w3.org/2000/svg">
<mask id="mask0_1742_2688" style="mask-type:alpha" maskUnits="userSpaceOnUse" x="0" y="0" width="16" height="16">
<rect width="16" height="16" fill="#D9D9D9"/>
</mask>
<g mask="url(#mask0_1742_2688)">
<path d="M5.4657 12.4349C5.6958 12.09 5.81946 11.6848 5.81946 11.2607C5.81946 10.6941 5.59888 10.1615 5.19824 9.76092C4.79773 9.36029 4.26501 9.13967 3.69836 9.13967C3.27441 9.13967 2.86914 9.26334 2.52429 9.49354L1.91125 8.88062L9.68152 1.11041L10.2944 1.72336C10.0642 2.06832 9.94055 2.47345 9.94055 2.89758C9.94055 3.46414 10.1611 3.99676 10.5619 4.39736C10.9624 4.79799 11.4951 5.01861 12.0615 5.01861C12.4857 5.01861 12.8907 4.89494 13.2358 4.66474L13.8488 5.27766L6.07849 13.0479L5.4657 12.4349Z" fill="#E8F0F5"/>
<path d="M13.1355 3.58957L12.8459 3.87906C12.6095 4.11557 12.295 4.24582 11.9604 4.24582C11.626 4.24582 11.3115 4.11557 11.0751 3.87906C10.8385 3.64254 10.7083 3.32806 10.7083 2.99358C10.7083 2.6591 10.8385 2.34463 11.0751 2.10809L11.3645 1.8186L9.96545 0.419592C9.78381 0.237902 9.48914 0.237903 9.3075 0.419595L1.22046 8.50661C1.03882 8.68831 1.03882 8.98289 1.22046 9.16459L2.61951 10.5636L2.90894 10.2741C3.14551 10.0376 3.45996 9.90735 3.79443 9.90735C4.12903 9.90735 4.44336 10.0376 4.67993 10.2741C4.9165 10.5106 5.04675 10.8251 5.04675 11.1596C5.04675 11.4941 4.9165 11.8085 4.67993 12.0451L4.3905 12.3346L5.78943 13.7335C5.97107 13.9152 6.26575 13.9153 6.44739 13.7336L14.5344 5.64654C14.7161 5.46485 14.7161 5.17028 14.5344 4.98858L13.1355 3.58957ZM5.4657 12.4349C5.6958 12.0899 5.81946 11.6848 5.81946 11.2607C5.81946 10.6941 5.59888 10.1615 5.19824 9.7609C4.79773 9.36027 4.26501 9.13965 3.69836 9.13965C3.27441 9.13965 2.86914 9.26332 2.52429 9.49352L1.91125 8.8806L9.68152 1.11039L10.2944 1.72334C10.0642 2.0683 9.94055 2.47343 9.94055 2.89756C9.94055 3.46412 10.1611 3.99674 10.5619 4.39734C10.9624 4.79797 11.4951 5.01859 12.0615 5.01859C12.4857 5.01859 12.8907 4.89492 13.2358 4.66472L13.8488 5.27764L6.07849 13.0479L5.4657 12.4349Z" fill="#486A7F"/>
<path d="M9.05122 5.32178L8.47229 5.90071L9.05356 6.48198L9.63249 5.90306L9.05122 5.32178Z" fill="#486A7F"/>
<path d="M7.88862 4.15882L7.30969 4.73775L7.89097 5.31902L8.46989 4.74009L7.88862 4.15882Z" fill="#486A7F"/>
<path d="M10.2137 6.48437L9.63477 7.06329L10.216 7.64457L10.795 7.06564L10.2137 6.48437Z" fill="#486A7F"/>
<path d="M13.8326 9.09169C12.3344 7.59159 9.90051 7.59159 8.39026 9.09169C6.89026 10.5909 6.89026 13.0322 8.39026 14.5341C9.88855 16.0378 12.3153 16.0378 13.8326 14.5341C15.3356 13.0322 15.3356 10.5945 13.8326 9.09169Z" fill="#08B848"/>
<path d="M9.19519 12.3775V11.2494H13.0297V12.3775H9.19519Z" fill="#E8F0F5"/>
<path d="M10.5465 9.89827H11.6779V13.7302H10.5465V9.89827Z" fill="#E8F0F5"/>
</g>
</svg>
