<svg width="16" height="16" viewBox="0 0 16 16" fill="none" xmlns="http://www.w3.org/2000/svg">
<path d="M7.33333 2.66667V0H8.66667V2.66667H7.33333ZM12.2407 4.74074L11.2407 3.77778L13.1667 1.88889L14.1296 2.81481L12.2407 4.74074ZM13.3333 8.66667V7.33333H16V8.66667H13.3333ZM7.33333 16V13.3333H8.66667V16H7.33333ZM3.75926 4.7037L1.83333 2.81481L2.83333 1.88889L4.7037 3.75926L3.75926 4.7037ZM13.1852 14.1667L11.3148 12.2222L12.2407 11.2963L14.1667 13.1481L13.1852 14.1667ZM0 8.66667V7.33333H2.66667V8.66667H0ZM2.81481 14.1667L1.87037 13.1852L3.75926 11.3333L4.22222 11.7778L4.66667 12.2407L2.81481 14.1667ZM8 12.4444C6.76543 12.4444 5.71605 12.0123 4.85185 11.1481C3.98765 10.284 3.55556 9.23457 3.55556 8C3.55556 6.76543 3.98765 5.71605 4.85185 4.85185C5.71605 3.98765 6.76543 3.55556 8 3.55556C9.23457 3.55556 10.284 3.98765 11.1481 4.85185C12.0123 5.71605 12.4444 6.76543 12.4444 8C12.4444 9.23457 12.0123 10.284 11.1481 11.1481C10.284 12.0123 9.23457 12.4444 8 12.4444Z" fill="#447DB8"/>
</svg>
