<svg width="16" height="16" viewBox="0 0 16 16" fill="none" xmlns="http://www.w3.org/2000/svg">
<mask id="mask0_1742_1733" style="mask-type:alpha" maskUnits="userSpaceOnUse" x="0" y="0" width="16" height="16">
<rect width="16" height="16" fill="#D9D9D9"/>
</mask>
<g mask="url(#mask0_1742_1733)">
<path d="M12.8725 3.0355C10.1545 0.3215 5.7635 0.3215 3.0385 3.0355C0.3205 5.7515 0.3205 10.1545 3.0385 12.8675C5.7635 15.5915 10.1575 15.5915 12.8725 12.8715C15.5865 10.1575 15.5865 5.7545 12.8725 3.0355Z" fill="#FF6400"/>
<path d="M5.9095 11.4195C5.8055 11.5285 5.6195 11.5285 5.5135 11.4195L4.4925 10.3985C4.3885 10.2875 4.3885 10.1075 4.4925 9.9985L10.0125 4.4925C10.1165 4.3825 10.2995 4.3825 10.4085 4.4925L11.4295 5.5135C11.5335 5.6245 11.5335 5.8045 11.4305 5.9145L5.9095 11.4195Z" fill="white"/>
<path d="M4.4875 5.9075C4.3835 5.7965 4.3835 5.6175 4.4875 5.5065L5.5085 4.4855C5.6125 4.3755 5.7985 4.3755 5.9045 4.4855L11.4255 9.9955C11.5295 10.1015 11.5295 10.2865 11.4255 10.3915L10.4045 11.4125C10.3005 11.5165 10.1145 11.5165 10.0085 11.4065L4.4875 5.9075Z" fill="white"/>
</g>
</svg>
