<svg width="16" height="16" viewBox="0 0 16 16" fill="none" xmlns="http://www.w3.org/2000/svg">
<mask id="mask0_1742_2267" style="mask-type:alpha" maskUnits="userSpaceOnUse" x="0" y="0" width="16" height="16">
<rect width="16" height="16" fill="#D9D9D9"/>
</mask>
<g mask="url(#mask0_1742_2267)">
<path d="M11.4419 12.194C10.5149 13.438 9.36985 14.483 7.98985 15.321C6.60588 14.483 5.45183 13.442 4.54985 12.194C2.78386 9.768 1.91887 6.66 1.95884 2.88C2.93187 2.725 3.89683 2.465 4.85887 2.117C5.83287 1.764 6.87187 1.285 8.00987 0.679001C9.13286 1.285 10.1899 1.765 11.1529 2.117C12.1189 2.465 13.0919 2.722 14.0559 2.88C14.0629 6.688 13.1949 9.79 11.4419 12.194Z" fill="#08B848" stroke="#E8F0F5" stroke-width="0.5" stroke-miterlimit="10"/>
<path d="M13.1619 5.01199H2.83392C1.60992 5.01199 0.608948 6.00699 0.608948 7.23799V8.299C0.608948 9.524 1.59393 10.526 2.83392 10.526H13.1619C14.3909 10.526 15.3909 9.532 15.3909 8.299V7.24199C15.4009 6.00999 14.4019 5.01199 13.1619 5.01199Z" fill="#294F69"/>
<path d="M3.84192 5.856C4.11292 5.804 4.47095 5.776 4.84595 5.776C5.46893 5.776 5.86694 5.909 6.18994 6.191C6.53296 6.491 6.74896 6.969 6.74896 7.656C6.74896 8.40001 6.51996 8.91301 6.20197 9.23201C5.85498 9.57201 5.33197 9.73401 4.68597 9.73401C4.29895 9.73401 4.03094 9.70501 3.84198 9.67401L3.84192 5.856ZM4.58295 9.02801C4.64496 9.04901 4.74695 9.04901 4.84595 9.04901C5.51892 9.055 5.94995 8.61101 5.94995 7.686C5.95496 6.879 5.55396 6.452 4.91895 6.452C4.75897 6.452 4.64795 6.47 4.58496 6.487L4.58295 9.02801Z" fill="#E8F0F5"/>
<path d="M9.5589 8.25101C9.5589 9.28201 8.94092 9.75401 8.30292 9.75401C7.60791 9.75401 7.07391 9.21301 7.07391 8.29601C7.07391 7.386 7.58191 6.803 8.34491 6.803C9.06995 6.807 9.5589 7.402 9.5589 8.25101ZM7.82892 8.27901C7.82892 8.76201 7.9989 9.12601 8.31293 9.12601C8.59991 9.12601 8.7879 8.78601 8.7879 8.27901C8.7879 7.858 8.6499 7.431 8.31293 7.431C7.96692 7.43 7.82892 7.863 7.82892 8.27901Z" fill="#E8F0F5"/>
<path d="M10.0669 8.786C10.2649 8.907 10.5749 9.028 10.8879 9.028C11.2299 9.028 11.4089 8.862 11.4089 8.608C11.4089 8.361 11.2538 8.223 10.8559 8.055C10.3109 7.83 9.95892 7.473 9.95892 6.908C9.95892 6.245 10.4319 5.737 11.1989 5.737C11.5669 5.737 11.8449 5.829 12.0379 5.933L11.8719 6.643C11.7399 6.567 11.5069 6.457 11.1839 6.457C10.8609 6.457 10.7049 6.633 10.7049 6.834C10.7049 7.082 10.8929 7.191 11.3099 7.383C11.8879 7.637 12.1639 7.994 12.1639 8.542C12.1639 9.192 11.7399 9.752 10.8409 9.752C10.4719 9.752 10.1029 9.631 9.90887 9.51L10.0669 8.786Z" fill="#E8F0F5"/>
</g>
</svg>
