<svg width="16" height="16" viewBox="0 0 16 16" fill="none" xmlns="http://www.w3.org/2000/svg">
<mask id="mask0_1742_2576" style="mask-type:alpha" maskUnits="userSpaceOnUse" x="0" y="0" width="16" height="16">
<rect width="16" height="16" fill="#D9D9D9"/>
</mask>
<g mask="url(#mask0_1742_2576)">
<path d="M11.228 5.76585C11.4198 5.86171 11.4198 6.14932 11.3239 6.34105L6.24292 13.5311C6.14697 13.7229 5.85938 13.9146 5.66772 14.0105L3.271 14.7774C3.07922 14.8733 2.88757 14.6815 2.88757 14.4898L2.79163 11.9972C2.79163 11.8055 2.88757 11.422 2.9834 11.3262L8.06433 4.04023C8.16028 3.8485 8.44788 3.8485 8.63965 3.94436L11.228 5.76585Z" fill="#486A7F"/>
<path d="M13.0495 3.08155C13.2412 3.17742 13.2412 3.46502 13.1454 3.65676L12.3784 4.7113C12.2826 4.90304 11.995 4.90304 11.8032 4.80717L9.21486 2.98569C9.11891 2.79395 9.02309 2.60222 9.11891 2.41048L9.88588 1.35594C9.98171 1.1642 10.2693 1.1642 10.4611 1.26007L13.0495 3.08155Z" fill="#486A7F"/>
</g>
</svg>
