<svg width="16" height="16" viewBox="0 0 16 16" fill="none" xmlns="http://www.w3.org/2000/svg">
<mask id="mask0_1742_1708" style="mask-type:alpha" maskUnits="userSpaceOnUse" x="0" y="0" width="16" height="16">
<rect width="16" height="16" fill="#D9D9D9"/>
</mask>
<g mask="url(#mask0_1742_1708)">
<path d="M11.3672 5.76568C11.5672 5.86568 11.5672 6.16568 11.4672 6.36568L6.16715 13.8657C6.06715 14.0657 5.76715 14.2657 5.56715 14.3657L3.06715 15.1657C2.86715 15.2657 2.66715 15.0657 2.66715 14.8657L2.56715 12.2657C2.56715 12.0657 2.66715 11.6657 2.76715 11.5657L8.06715 3.96569C8.16715 3.76569 8.46716 3.76569 8.66715 3.86569L11.3672 5.76568Z" fill="#4B96CD"/>
<path d="M13.2672 2.96569C13.4672 3.06569 13.4672 3.36569 13.3672 3.56569L12.5672 4.66568C12.4672 4.86568 12.1671 4.86568 11.9672 4.76568L9.26715 2.86569C9.16715 2.66569 9.06715 2.46569 9.16715 2.26569L9.96715 1.16569C10.0672 0.965685 10.3672 0.965685 10.5672 1.06569L13.2672 2.96569Z" fill="#4B96CD"/>
</g>
</svg>
