<svg width="16" height="16" viewBox="0 0 16 16" fill="none" xmlns="http://www.w3.org/2000/svg">
<mask id="mask0_1742_2866" style="mask-type:alpha" maskUnits="userSpaceOnUse" x="0" y="0" width="16" height="16">
<rect width="16" height="16" fill="#D9D9D9"/>
</mask>
<g mask="url(#mask0_1742_2866)">
<path d="M8.78418 2.21372V3.65272C5.37207 3.63872 2.61206 5.56271 2.73803 9.38172C2.76513 10.3547 3.21704 10.4867 3.55005 9.71772C4.59009 7.34672 6.40405 6.35072 8.82104 6.52272L8.81006 7.88172C8.76904 8.25472 9.19702 8.51272 9.52612 8.31772L13.0571 5.53171C13.301 5.37271 13.3391 5.02372 13.1301 4.81171L9.55713 1.92771C9.30005 1.63772 8.83105 1.81872 8.78418 2.21372Z" fill="#4B96CD"/>
<path d="M6.23584 14.0478C6.07471 14.1318 5.71924 14.2148 5.26904 14.2148C4.08057 14.2148 3.35889 13.4707 3.35889 12.332C3.35889 11.0986 4.21436 10.3545 5.35791 10.3545C5.80811 10.3545 6.13037 10.4492 6.26904 10.5215L6.11865 11.0654C5.94092 10.9873 5.69678 10.9209 5.38623 10.9209C4.62451 10.9209 4.07471 11.3984 4.07471 12.2988C4.07471 13.1201 4.55811 13.6484 5.38037 13.6484C5.65771 13.6484 5.94678 13.5928 6.12451 13.5098L6.23584 14.0478Z" fill="#486A7F"/>
<path d="M6.80615 13.415C7.02783 13.543 7.36084 13.6533 7.71143 13.6533C8.1499 13.6533 8.39404 13.4482 8.39404 13.1426C8.39404 12.8594 8.20557 12.6933 7.72803 12.5205C7.11182 12.2988 6.71729 11.9707 6.71729 11.4316C6.71729 10.8213 7.22803 10.3545 8.03857 10.3545C8.44482 10.3545 8.74463 10.4433 8.93896 10.543L8.77197 11.0937C8.63916 11.0215 8.37744 10.916 8.02783 10.916C7.59424 10.916 7.40576 11.1484 7.40576 11.3652C7.40576 11.6543 7.62256 11.7871 8.12256 11.9824C8.77197 12.2265 9.08838 12.5537 9.08838 13.0928C9.08838 13.6924 8.6333 14.2148 7.6665 14.2148C7.27295 14.2148 6.86182 14.1035 6.65576 13.9814L6.80615 13.415Z" fill="#486A7F"/>
<path d="M10.564 14.1592L9.35303 10.416H10.0972L10.6079 12.1152C10.7524 12.5869 10.8745 13.0264 10.9751 13.4814H10.9858C11.0854 13.0371 11.2192 12.582 11.3687 12.126L11.9136 10.416H12.6411L11.3472 14.1592H10.564Z" fill="#486A7F"/>
</g>
</svg>
