<svg width="16" height="16" viewBox="0 0 16 16" fill="none" xmlns="http://www.w3.org/2000/svg">
<mask id="mask0_1742_2069" style="mask-type:alpha" maskUnits="userSpaceOnUse" x="0" y="0" width="16" height="16">
<rect width="16" height="16" fill="#D9D9D9"/>
</mask>
<g mask="url(#mask0_1742_2069)">
<path d="M7.53149 3.04356H2.0195C1.36551 3.04356 0.831512 3.57456 0.831512 4.23256V11.7766C0.831512 12.4226 1.36151 12.9646 2.0195 12.9646H7.53149C8.1835 12.9646 8.71948 12.4336 8.71948 11.7766V4.23256C8.71948 3.57356 8.1875 3.04356 7.53149 3.04356ZM5.02249 8.38456H3.09351C2.78149 8.38456 2.53149 8.13056 2.53149 7.81956C2.53149 7.50656 2.78549 7.25456 3.09351 7.25456H5.02249C5.3345 7.25456 5.5845 7.50656 5.5845 7.81956C5.58051 8.13156 5.3295 8.38456 5.02249 8.38456ZM6.42551 6.05156H3.10049C2.78848 6.05156 2.53848 5.79756 2.53848 5.48356C2.53848 5.17156 2.79449 4.91756 3.10049 4.91756H6.42551C6.73752 4.91756 6.98752 5.17156 6.98752 5.48356C6.99249 5.79956 6.73849 6.05156 6.42551 6.05156Z" fill="#ACC1C6"/>
<path d="M5.02249 8.38456H3.09351C2.78149 8.38456 2.53149 8.13056 2.53149 7.81956C2.53149 7.50656 2.78549 7.25456 3.09351 7.25456H5.02249C5.3345 7.25456 5.5845 7.50656 5.5845 7.81956C5.58051 8.13156 5.3295 8.38456 5.02249 8.38456Z" fill="white"/>
<path d="M6.42551 6.05156H3.10049C2.78848 6.05156 2.53848 5.79756 2.53848 5.48356C2.53848 5.17156 2.79449 4.91756 3.10049 4.91756H6.42551C6.73752 4.91756 6.98752 5.17156 6.98752 5.48356C6.99249 5.79956 6.73849 6.05156 6.42551 6.05156Z" fill="white"/>
<path d="M14.8295 4.05356H13.5635V1.24356C13.5635 1.07556 13.4175 0.941559 13.2515 0.941559H9.7955C9.61551 0.941559 9.48349 1.07556 9.48349 1.24356V4.05656H8.21249C8.03351 4.05656 7.90048 4.19056 7.90048 4.35856V11.2646C7.90048 12.2026 8.71249 12.9656 9.71249 12.9656H13.3585C14.3495 12.9656 15.1685 12.1956 15.1685 11.2646V4.35556C15.1485 4.18956 14.9975 4.05356 14.8295 4.05356ZM10.1095 1.54356H12.9285V4.05456H10.1095V1.54356Z" fill="#486A7F"/>
<path d="M10.9855 2.19356C10.8195 2.19356 10.6825 2.31956 10.6825 2.47656V3.12456C10.6825 3.28156 10.8195 3.40756 10.9855 3.40756C11.1485 3.40756 11.2875 3.28256 11.2875 3.12456V2.47556C11.2845 2.32056 11.1485 2.19356 10.9855 2.19356Z" fill="#486A7F"/>
<path d="M12.0495 2.19356C11.8835 2.19356 11.7395 2.31956 11.7395 2.47656V3.12456C11.7395 3.28156 11.8855 3.40756 12.0495 3.40756C12.2065 3.40756 12.3545 3.28256 12.3545 3.12456V2.47556C12.3495 2.32056 12.2085 2.19356 12.0495 2.19356Z" fill="#486A7F"/>
<path d="M13.0365 11.6516L9.6535 8.30056C9.46552 8.13856 9.30652 8.21056 9.30652 8.45856V9.85756C9.30652 10.1056 9.10553 10.2956 8.86252 10.2956L5.88351 10.3156H4.7005V10.3196C4.45551 10.3196 4.26251 10.5226 4.26251 10.7576V13.1216C4.26251 13.3636 4.45853 13.5596 4.7005 13.5596L8.8045 13.5496H8.86252C9.10751 13.5516 9.3045 13.7526 9.3045 13.9926V15.3906C9.3045 15.6366 9.4505 15.7026 9.6535 15.5406L13.0355 12.1866C13.2225 12.0736 13.2225 11.8156 13.0365 11.6516Z" fill="#08B848"/>
</g>
</svg>
