<svg width="16" height="16" viewBox="0 0 16 16" fill="none" xmlns="http://www.w3.org/2000/svg">
<path fill-rule="evenodd" clip-rule="evenodd" d="M10.4874 4.44831L11.7865 3.14921C11.8868 3.05239 12.0211 2.99881 12.1605 3.00002C12.2998 3.00123 12.4332 3.05713 12.5316 3.15568C12.6302 3.25424 12.6862 3.38756 12.6873 3.52692C12.6886 3.66629 12.6349 3.80057 12.5382 3.90082L11.5649 4.87461C13.6751 5.88241 14.7287 7.46536 14.7287 7.46536L14.7303 7.46801C14.7886 7.55521 14.8198 7.6577 14.82 7.7626C14.8202 7.86749 14.7894 7.97011 14.7313 8.05751L14.7297 8.06015C14.7297 8.06015 12.46 11.4981 7.91 11.4981C6.94897 11.4981 6.08999 11.3461 5.33254 11.1065L4.03343 12.4055C3.93318 12.5024 3.79892 12.556 3.65954 12.5547C3.52018 12.5535 3.38685 12.4977 3.2883 12.3991C3.18976 12.3005 3.13385 12.1671 3.13263 12.0278C3.13142 11.8884 3.185 11.7542 3.28183 11.654L4.25509 10.6801C2.14485 9.67234 1.09133 8.0894 1.09133 8.0894L1.08974 8.08674C1.03142 7.99955 1.0002 7.89706 1 7.79215C0.999817 7.68726 1.03067 7.58465 1.08867 7.49725L1.09027 7.49459C1.09027 7.49459 3.35997 4.05656 7.91 4.05656C8.87103 4.05656 9.73001 4.20858 10.4874 4.44831ZM10.1271 6.3119L9.34889 7.09008C9.49066 7.38766 9.53677 7.72184 9.48088 8.04668C9.42499 8.37152 9.26984 8.67108 9.03677 8.90415C8.80369 9.13723 8.50414 9.29237 8.1793 9.34826C7.85445 9.40415 7.52028 9.35805 7.22271 9.21627L6.44453 9.99441C6.95569 10.3308 7.56722 10.4805 8.17594 10.4183C8.78466 10.3563 9.35332 10.0861 9.78599 9.65337C10.2186 9.2207 10.4888 8.65204 10.551 8.04332C10.6131 7.43459 10.4634 6.82307 10.1271 6.3119ZM9.37547 5.5603C8.8643 5.22398 8.25278 5.07425 7.64406 5.13638C7.03533 5.19853 6.46667 5.46872 6.034 5.90139C5.60135 6.33406 5.33115 6.90272 5.26901 7.51144C5.20688 8.12016 5.35659 8.73168 5.69293 9.24285L6.47111 8.46467C6.32934 8.1671 6.28322 7.83292 6.33911 7.50807C6.39501 7.18323 6.55016 6.88368 6.78323 6.65061C7.01631 6.41753 7.31585 6.26238 7.64069 6.20649C7.96554 6.1506 8.29972 6.19671 8.59729 6.33848L9.37547 5.5603Z" fill="#486A7F"/>
</svg>
