<svg width="16" height="16" viewBox="0 0 16 16" fill="none" xmlns="http://www.w3.org/2000/svg">
<path fill-rule="evenodd" clip-rule="evenodd" d="M7.71938 5C9.37603 5.00025 10.7194 6.3433 10.7194 8C10.7194 9.6567 9.37603 10.9998 7.71938 11C6.06253 11 4.71938 9.65685 4.71938 8C4.71938 6.34315 6.06253 5 7.71938 5ZM7.71938 6C6.61481 6 5.71938 6.89543 5.71938 8C5.71938 9.10457 6.61481 10 7.71938 10C8.82374 9.99975 9.71938 9.10442 9.71938 8C9.71938 6.89558 8.82374 6.00025 7.71938 6Z" fill="#404952"/>
<path fill-rule="evenodd" clip-rule="evenodd" d="M7.71938 3C10.797 3.00024 13.4694 5.42627 14.8073 6.89844C15.3831 7.53228 15.3831 8.46772 14.8073 9.10156L14.5407 9.3877C13.1335 10.8673 10.6047 12.9998 7.71938 13C4.83405 13 2.30536 10.8673 0.898093 9.3877L0.631491 9.10156C0.0554128 8.46764 0.0554128 7.53236 0.631491 6.89844C1.96948 5.42617 4.64168 3 7.71938 3ZM7.71938 4C6.44206 4 5.19392 4.50609 4.06704 5.23633C2.94471 5.9637 2.00716 6.87208 1.37173 7.57129C1.14226 7.82382 1.14226 8.17618 1.37173 8.42871C2.00716 9.12792 2.94471 10.0363 4.06704 10.7637C5.19392 11.4939 6.44206 12 7.71938 12C8.99667 11.9999 10.2449 11.4939 11.3717 10.7637C12.494 10.0363 13.4317 9.12789 14.067 8.42871C14.2962 8.17627 14.2962 7.82373 14.067 7.57129C13.4317 6.87211 12.494 5.96375 11.3717 5.23633C10.2449 4.50606 8.99667 4.00012 7.71938 4Z" fill="#404952"/>
</svg>
