<svg width="16" height="16" viewBox="0 0 16 16" fill="none" xmlns="http://www.w3.org/2000/svg">
<mask id="mask0_1742_2380" style="mask-type:alpha" maskUnits="userSpaceOnUse" x="0" y="0" width="16" height="16">
<rect width="16" height="16" fill="#D9D9D9"/>
</mask>
<g mask="url(#mask0_1742_2380)">
<path d="M10.4436 0.649994H2.84363C2.64368 0.649994 2.4436 0.849994 2.4436 1.14999V15.05C2.4436 15.15 2.64355 15.35 2.84363 15.35H13.3436C13.5436 15.35 13.7437 15.15 13.7437 15.05V4.05C13.7437 3.85 13.7437 3.85 13.6437 3.75L10.5437 0.649999C10.5436 0.749994 10.4436 0.649994 10.4436 0.649994Z" fill="#E8F0F5"/>
<path d="M10.5436 0.749992V3.84999H13.6436L10.5436 0.749992Z" fill="#ACC1C6"/>
<path d="M14.5436 7.05H1.4436C0.943604 7.05 0.543579 7.45 0.543579 7.95V11.15C0.543579 11.65 0.943604 12.05 1.4436 12.05H14.5436C15.0436 12.05 15.4436 11.65 15.4436 11.15V7.95C15.5436 7.45 15.0436 7.05 14.5436 7.05Z" fill="#009AD5"/>
<path d="M4.58936 8.25571V9.3353H5.729V8.25571H6.22021V10.9505H5.729V9.76303H4.58936V10.9505H4.09814V8.25571H4.58936Z" fill="white"/>
<path d="M7.30225 8.66684H6.53467V8.25571H8.56885V8.66684H7.79346V10.9505H7.30225V8.66684Z" fill="white"/>
<path d="M11.1489 9.85092C11.1333 9.50327 11.1128 9.08334 11.1167 8.71957H11.105C11.0171 9.04721 10.9048 9.41147 10.7847 9.75131L10.3931 10.9183H10.0132L9.65381 9.76694C9.54932 9.42319 9.45361 9.056 9.38232 8.71957H9.37354C9.36182 9.07162 9.34619 9.49936 9.32568 9.86752L9.26611 10.9505H8.80615L8.98584 8.25571H9.6333L9.98584 9.3392C10.0815 9.65561 10.1655 9.97495 10.2339 10.2747H10.2456C10.3169 9.98276 10.4097 9.6517 10.5132 9.3353L10.8853 8.25571H11.5249L11.6802 10.9505H11.2007L11.1489 9.85092Z" fill="white"/>
<path d="M12.1821 8.25571H12.6733V10.5384H13.7808V10.9505H12.1821V8.25571Z" fill="white"/>
</g>
</svg>
