<svg width="16" height="16" viewBox="0 0 16 16" fill="none" xmlns="http://www.w3.org/2000/svg">
<mask id="mask0_1742_2311" style="mask-type:alpha" maskUnits="userSpaceOnUse" x="0" y="0" width="16" height="16">
<rect width="16" height="16" fill="#D9D9D9"/>
</mask>
<g mask="url(#mask0_1742_2311)">
<path d="M10.3258 0.70874H2.77124C2.58691 0.70874 2.3938 0.882988 2.3938 1.21128V15.0299C2.3938 15.1233 2.57813 15.2912 2.77124 15.2912H13.2147C13.4256 15.2912 13.6063 15.1233 13.6063 15.0299V4.09142C13.6063 3.90959 13.5797 3.84646 13.5355 3.80732L10.5102 0.774401C10.4547 0.73273 10.3903 0.70874 10.3258 0.70874Z" fill="#E8F0F5"/>
<path d="M10.4673 0.747879V3.83636H13.5457L10.4673 0.747879Z" fill="#ACC1C6"/>
<path d="M5.17933 10.1345C5.07697 10.1345 4.97846 10.1042 4.89521 10.0411C4.58973 9.80749 4.54798 9.55243 4.56324 9.3744C4.61872 8.8908 5.21863 8.38447 6.32587 7.87183C6.77289 6.89074 7.19459 5.68363 7.45722 4.67981C7.1681 4.03333 6.87891 3.19745 7.081 2.70248C7.15931 2.53581 7.26026 2.40071 7.42316 2.34641C7.50147 2.31737 7.66053 2.29086 7.72498 2.29086C7.86768 2.29086 8.0066 2.48657 8.09998 2.60778C8.19092 2.71637 8.38917 2.95375 7.98255 4.62173C8.37647 5.4513 8.95606 6.29476 9.48255 6.86927C9.87653 6.80361 10.2111 6.76447 10.4775 6.76447C10.9486 6.76447 11.2401 6.87432 11.3462 7.09529C11.4269 7.27964 11.4005 7.49555 11.2288 7.73546C11.0457 7.96779 10.8348 8.09153 10.5709 8.09153C10.2199 8.09153 9.7981 7.85794 9.32459 7.41348C8.48871 7.58899 7.50007 7.90087 6.69953 8.25063C6.46216 8.77716 6.21973 9.20394 5.98987 9.51203C5.70704 9.93881 5.44562 10.1345 5.17933 10.1345ZM5.97095 8.61806C5.34205 8.97414 5.07575 9.2595 5.06556 9.43248C5.0517 9.459 5.04535 9.53223 5.19684 9.64082C5.23231 9.62062 5.49622 9.50824 5.97095 8.61806ZM10.0216 7.29731C10.2614 7.48166 10.3258 7.57763 10.4836 7.57763C10.5469 7.57763 10.7476 7.5751 10.836 7.44378C10.8839 7.38191 10.9029 7.3453 10.9092 7.32004C10.8815 7.30489 10.8309 7.26575 10.567 7.26575C10.4129 7.26575 10.2198 7.27711 10.0216 7.29731ZM7.80311 5.34145C7.59229 6.07632 7.30433 6.86801 7.01148 7.58899C7.63526 7.35034 8.30701 7.13948 8.9383 6.98922C8.54175 6.5233 8.12879 5.93743 7.80311 5.34145ZM7.62635 2.82875C7.59473 2.83885 7.23237 3.34897 7.65284 3.78459C7.93183 3.15704 7.63636 2.82623 7.62635 2.82875Z" fill="#FF6400"/>
<path d="M13.2391 15.2912H2.78839C2.58862 15.2912 2.3938 15.123 2.3938 14.8966V10.8494H13.6047V14.9068C13.6248 15.1243 13.4503 15.2912 13.2391 15.2912Z" fill="#FF6400"/>
<path d="M5.22968 14.5097H4.8017V11.8884H5.55414C5.66406 11.8884 5.7738 11.906 5.89124 11.9389C6.02258 11.9742 6.10089 12.0285 6.18042 12.0954C6.26874 12.1712 6.33826 12.2533 6.37982 12.3568C6.448 12.4578 6.45935 12.5702 6.45935 12.6952C6.45935 12.8303 6.43286 12.949 6.3811 13.0563C6.34314 13.1674 6.28381 13.2571 6.19672 13.3341C6.11841 13.3985 6.01239 13.4604 5.90759 13.5046C5.78888 13.5399 5.67023 13.5614 5.51996 13.5614H5.20935L5.22968 14.5097ZM5.22968 12.2078V13.247H5.62366C5.6767 13.247 5.72845 13.2394 5.77008 13.2205C5.8219 13.2015 5.8598 13.1738 5.90143 13.1296C5.9444 13.1031 5.97974 13.0387 6.01257 12.9692C6.03906 12.8934 6.04663 12.8025 6.04663 12.6939C6.04663 12.6561 6.03906 12.6068 6.02521 12.55C5.99866 12.4881 5.99109 12.4439 5.9469 12.3896C5.92035 12.3379 5.86859 12.2962 5.79535 12.2609C5.72974 12.2293 5.65265 12.2066 5.54028 12.2066L5.22968 12.2078Z" fill="white"/>
<path d="M9.09088 13.1245C9.09088 13.3417 9.06439 13.5235 9.01257 13.6788C8.96716 13.8316 8.909 13.9604 8.83209 14.0614C8.75378 14.1624 8.68939 14.2458 8.59473 14.3102C8.51642 14.3682 8.41425 14.4112 8.34351 14.4415C8.2652 14.4693 8.17059 14.4869 8.10614 14.4983C8.03802 14.5059 7.9787 14.5248 7.95465 14.5248H6.95587V11.8985H7.75641C7.98621 11.8985 8.17566 11.925 8.33856 11.9982C8.52295 12.074 8.63525 12.1674 8.75024 12.2861C8.86139 12.4073 8.94604 12.526 9.00024 12.6801C9.06195 12.8139 9.09088 12.9692 9.09088 13.1245ZM7.82574 14.199C8.11493 14.199 8.3219 14.1056 8.43304 13.9149C8.56439 13.7306 8.61987 13.4642 8.61987 13.0993C8.61987 12.9907 8.59967 12.877 8.57947 12.7634C8.55298 12.6573 8.50116 12.5689 8.44061 12.4742C8.3623 12.396 8.25629 12.324 8.1225 12.2583C7.995 12.2066 7.83331 12.18 7.63 12.18H7.37878V14.1675L7.82574 14.199Z" fill="white"/>
<path d="M10.139 12.2078V13.0374H11.2212V13.3265H10.139V14.5109H9.69202V11.8884H11.3486V12.2078H10.139Z" fill="white"/>
</g>
</svg>
