<svg width="16" height="16" viewBox="0 0 16 16" fill="none" xmlns="http://www.w3.org/2000/svg">
<mask id="mask0_1742_2331" style="mask-type:alpha" maskUnits="userSpaceOnUse" x="0" y="0" width="16" height="16">
<rect width="16" height="16" fill="#D9D9D9"/>
</mask>
<g mask="url(#mask0_1742_2331)">
<path d="M10.3381 0.643005H2.71118C2.50012 0.643005 2.32812 0.814005 2.32812 1.14801V15.093C2.32812 15.186 2.50012 15.357 2.71118 15.357H13.2391C13.4531 15.357 13.6251 15.186 13.6251 15.093V4.05301C13.6251 3.86901 13.6011 3.81001 13.5631 3.76801L10.5031 0.709007C10.4591 0.668005 10.4031 0.643005 10.3381 0.643005Z" fill="#E8F0F5"/>
<path d="M10.4751 0.683006V3.79701H13.5811L10.4751 0.683006Z" fill="#ACC1C6"/>
<path d="M14.55 6.96451H1.45007C0.950073 6.96451 0.550049 7.36451 0.550049 7.86451V11.1645C0.550049 11.6645 0.950073 12.0645 1.45007 12.0645H14.55C15.05 12.0645 15.4501 11.6645 15.4501 11.1645V7.96451C15.4501 7.46451 15.05 6.96451 14.55 6.96451Z" fill="#0066CC"/>
<path d="M6.57253 7.94337L7.32253 9.1536H7.34526L8.09526 7.94337H8.51003L7.59526 9.39792L8.51003 10.8525H8.09526L7.34526 9.66496H7.32253L6.57253 10.8525H6.15776L7.09526 9.39792L6.15776 7.94337H6.57253ZM8.96848 7.94337H9.38894L10.3776 10.3581H10.4117L11.4003 7.94337H11.8208V10.8525H11.4912V8.64224H11.4628L10.5537 10.8525H10.2355L9.32644 8.64224H9.29803V10.8525H8.96848V7.94337ZM12.5271 10.8525V7.94337H12.8794V10.54H14.2316V10.8525H12.5271Z" fill="white"/>
</g>
</svg>
