<svg width="16" height="16" viewBox="0 0 16 16" fill="none" xmlns="http://www.w3.org/2000/svg">
<mask id="mask0_1742_1875" style="mask-type:alpha" maskUnits="userSpaceOnUse" x="0" y="0" width="16" height="16">
<rect width="16" height="16" fill="#D9D9D9"/>
</mask>
<g mask="url(#mask0_1742_1875)">
<mask id="mask1_1742_1875" style="mask-type:luminance" maskUnits="userSpaceOnUse" x="0" y="2" width="16" height="12">
<path d="M15.35 13.05H0.649994C0.449982 13.05 0.350006 12.95 0.350006 12.75V3.25C0.350006 3.05 0.450012 2.95 0.649994 2.95H15.35C15.55 2.95 15.65 3.05 15.65 3.25V12.75C15.65 12.85 15.55 13.05 15.35 13.05Z" fill="white"/>
</mask>
<g mask="url(#mask1_1742_1875)">
<path d="M15.65 2.85H0.350006V13.05H15.65V2.85Z" fill="#E8F0F5"/>
<path d="M8.95001 2.85H7.05002V7.05H0.350006V8.95H7.05002V13.05H8.95001V8.95H15.65V7.05H8.95001V2.85Z" fill="#CC3030"/>
<path d="M12.15 9.75L15.65 11.75V9.75H12.15Z" fill="#005096"/>
<path d="M9.65002 9.75L15.65 13.05V12.15L11.35 9.75H9.65002Z" fill="#005096"/>
<path d="M14.05 13.05L9.65002 10.65V13.05H14.05Z" fill="#005096"/>
<path d="M9.65002 9.75L15.65 13.05V12.15L11.35 9.75H9.65002Z" fill="#F0F0F0"/>
<path d="M9.65002 9.75L15.65 13.05V12.15L11.35 9.75H9.65002Z" fill="#CC3030"/>
<path d="M3.05002 9.75L0.350006 11.25V9.75H3.05002Z" fill="#0052B4"/>
<path d="M6.35001 10.15V13.05H1.15002L6.35001 10.15Z" fill="#0052B4"/>
<path d="M4.65002 9.75L0.350006 12.15V13.05L6.35001 9.75H4.65002Z" fill="#CC3030"/>
<path d="M3.85001 6.25L0.350006 4.25V6.25H3.85001Z" fill="#005096"/>
<path d="M6.35001 6.25L0.350006 2.85V3.85L4.65002 6.25H6.35001Z" fill="#005096"/>
<path d="M1.95001 2.85L6.35001 5.35V2.85H1.95001Z" fill="#005096"/>
<path d="M6.35001 6.25L0.350006 2.85V3.85L4.65002 6.25H6.35001Z" fill="#F0F0F0"/>
<path d="M6.35001 6.25L0.350006 2.85V3.85L4.65002 6.25H6.35001Z" fill="#CC3030"/>
<path d="M12.95 6.25L15.65 4.75V6.25H12.95Z" fill="#005096"/>
<path d="M9.65002 5.75V2.85H14.85L9.65002 5.75Z" fill="#005096"/>
<path d="M11.35 6.25L15.65 3.85V2.85L9.65002 6.25H11.35Z" fill="#CC3030"/>
</g>
</g>
</svg>
