<svg width="16" height="16" viewBox="0 0 16 16" fill="none" xmlns="http://www.w3.org/2000/svg">
<mask id="mask0_1742_2303" style="mask-type:alpha" maskUnits="userSpaceOnUse" x="0" y="0" width="16" height="16">
<rect width="16" height="16" fill="#D9D9D9"/>
</mask>
<g mask="url(#mask0_1742_2303)">
<path d="M13.803 5.03113L11.504 2.98713C11.452 2.94313 11.366 2.93513 11.306 2.96613C11.244 2.99713 11.202 3.06213 11.202 3.13413V4.25813C10.21 4.36013 8.72601 4.94713 7.99402 5.87313V5.81713C7.263 4.89013 5.77802 4.30213 4.78503 4.20013V3.07513C4.78503 3.00313 4.74402 2.93813 4.68103 2.90713C4.61902 2.87713 4.53503 2.88413 4.48901 2.92813L2.18799 4.97213C2.14001 5.00913 2.11798 5.06113 2.11798 5.11913C2.11798 5.17613 2.13898 5.22913 2.18799 5.26413L4.48901 7.30913C4.53503 7.35213 4.62103 7.36113 4.68201 7.33013L4.78601 6.06413C5.68201 6.21613 7.01501 7.12913 7.06403 8.10713V8.11213V8.21913V12.9231C7.06403 13.0271 7.146 13.1111 7.24902 13.1111H8.73602C8.84399 13.1111 8.92401 13.0271 8.92401 12.9231V8.21713C8.92401 7.22213 10.299 6.27813 11.205 6.12313V7.22213C11.205 7.29313 11.244 7.35813 11.309 7.38913C11.371 7.42013 11.453 7.41013 11.505 7.36813L13.807 5.32313C13.855 5.28813 13.882 5.23513 13.882 5.17713C13.868 5.12213 13.8481 5.06813 13.803 5.03113Z" fill="#486A7F"/>
</g>
</svg>
