<svg width="16" height="16" viewBox="0 0 16 16" fill="none" xmlns="http://www.w3.org/2000/svg">
<mask id="mask0_1742_1918" style="mask-type:alpha" maskUnits="userSpaceOnUse" x="0" y="0" width="16" height="16">
<rect width="16" height="16" fill="#D9D9D9"/>
</mask>
<g mask="url(#mask0_1742_1918)">
<path d="M13.277 6.535C13.173 6.101 12.988 5.666 12.769 5.27L13.207 4.255L11.686 2.773L10.665 3.208C10.269 2.992 9.87006 2.81 9.39502 2.702L9.03802 1.653H6.89703L6.50104 2.702C6.06305 2.811 5.64203 2.992 5.23004 3.209L4.21301 2.775L2.73401 4.256L3.17804 5.271C2.95105 5.669 2.78204 6.067 2.66205 6.536L1.61902 6.934V9.068L2.67004 9.464C2.77405 9.903 2.95905 10.331 3.18604 10.735L2.74805 11.745L4.26904 13.224L5.28204 12.789C5.67804 13.011 6.08002 13.185 6.55304 13.297L6.94904 14.347H9.05304L9.44904 13.297C9.88702 13.189 10.316 13.011 10.72 12.789L11.741 13.224L13.262 11.745L12.824 10.737C13.0421 10.341 13.22 9.937 13.33 9.466L14.381 9.07V6.934L13.277 6.535ZM7.95905 10.586C6.52106 10.586 5.35504 9.43 5.35504 7.982C5.35504 6.53399 6.51007 5.376 7.95905 5.376C9.40002 5.376 10.563 6.534 10.563 7.982C10.564 9.43 9.40302 10.586 7.95905 10.586Z" fill="#ACC1D7"/>
</g>
</svg>
