<svg width="16" height="16" viewBox="0 0 16 16" fill="none" xmlns="http://www.w3.org/2000/svg">
<mask id="mask0_1742_2963" style="mask-type:alpha" maskUnits="userSpaceOnUse" x="0" y="0" width="16" height="16">
<rect width="16" height="16" fill="#D9D9D9"/>
</mask>
<g mask="url(#mask0_1742_2963)">
<path d="M8 1.06592C11.8137 1.06592 14.9341 4.18625 14.9341 8C14.9341 11.8138 11.8137 14.9341 8 14.9341C4.18628 14.9341 1.06592 11.8138 1.06592 8C1.06592 4.07069 4.18628 1.06592 8 1.06592Z" fill="#486A7F"/>
<path d="M12.276 2.5683C13.5472 3.60842 14.4718 5.1108 14.703 6.72875C14.703 6.72875 14.703 6.61318 14.5874 6.61318C14.4718 6.61318 14.4718 6.61318 14.2407 6.72875C14.1251 6.84432 14.2407 6.72875 14.1251 6.84432C14.0095 6.95989 13.8939 7.07546 13.7784 7.19103C13.7784 7.30659 13.7784 7.42216 13.7784 7.53773C13.7784 7.6533 13.6628 7.76887 13.5472 7.76887C13.5472 7.76887 13.4318 7.42216 13.3162 7.42216C13.3162 7.30659 13.2006 7.19103 13.2006 6.95989C13.2006 6.84432 13.2006 6.72875 13.2006 6.61318C13.085 6.61318 13.085 6.72875 12.9694 6.61318C12.8539 6.61318 12.9694 6.49762 12.8539 6.49762C12.7383 6.38205 12.7383 6.38205 12.6227 6.26648C12.5071 6.26648 12.3915 6.26648 12.276 6.26648C12.1604 6.26648 12.0448 6.26648 11.9293 6.15091C11.6981 6.15091 11.8137 6.26648 11.5826 6.03534C11.467 5.91978 11.467 5.80421 11.3514 5.91978C11.3514 6.03534 11.467 6.15091 11.467 6.15091L11.5826 6.26648V6.38205C11.6982 6.38205 11.8137 6.26648 11.9293 6.26648C12.0449 6.38205 11.9293 6.38205 12.0449 6.38205C12.1604 6.38205 12.1604 6.38205 12.1604 6.49762C12.1604 6.61318 11.9293 6.95989 11.8137 6.95989C11.6982 6.95989 11.6982 6.95989 11.6982 7.07546C11.5826 7.19102 11.6982 7.19102 11.5826 7.19102C11.467 7.30659 11.236 7.42216 11.1204 7.42216C11.1204 7.30659 11.0048 7.19102 11.0048 7.07546C10.8892 6.72875 10.8892 6.84432 10.7737 6.61318C10.7737 6.49762 10.7737 6.49762 10.6581 6.38205L10.5425 6.26648C10.5425 6.15091 10.4269 6.03534 10.3113 6.03534C10.3113 6.15091 10.4269 6.38205 10.4269 6.49762C10.4269 6.61318 10.5425 6.61318 10.5425 6.72875C10.5425 6.84432 10.5425 6.84432 10.6581 6.95989C10.7737 7.19102 10.6581 7.07546 10.8892 7.30659C11.0048 7.42216 11.0048 7.42216 11.1204 7.6533C11.236 7.6533 11.5826 7.53773 11.5826 7.53773C11.6982 7.6533 11.467 7.88443 11.467 8.00001C11.3514 8.34671 11.1204 8.34671 11.0048 8.57785C10.8892 8.69341 10.8892 8.69341 10.7737 8.92455C10.6581 9.15569 11.0048 9.61796 10.7737 9.96466C10.7737 9.96466 10.6581 10.0802 10.4269 10.1958C10.3114 10.3114 10.4269 10.3114 10.3114 10.6581C10.3114 10.7736 10.1958 10.7736 10.1958 10.7736C10.1958 10.8892 10.1958 10.8892 10.1958 11.0048C10.1958 11.1203 10.1958 11.0048 10.0802 11.1203C10.0802 11.2359 10.0802 11.2359 9.9646 11.2359C9.9646 11.3515 9.849 11.3515 9.849 11.3515C9.61792 11.467 9.27124 11.5826 9.15564 11.467C9.04004 11.3515 9.15564 11.3515 9.15564 11.2359C9.15564 11.1203 9.04004 11.0048 9.04004 11.0048V10.8892C8.92444 10.6581 9.04004 10.4269 8.80896 10.1958C8.69336 9.84909 8.92444 9.73353 8.92444 9.50239C8.92444 9.38682 8.92444 9.38682 8.92444 9.38682C8.92444 9.15569 8.92444 9.04012 8.69336 8.80898C8.57776 8.69341 8.57776 8.69341 8.57776 8.46228C8.69336 8.11557 8.46216 8.23114 8.34656 8.23114C8.23108 7.88443 8.11548 8.11557 7.8844 8.11557C7.7688 8.11557 7.7688 8.11557 7.53772 8.11557C7.19092 8.11557 7.42212 8.23114 7.07544 8C6.95984 7.88444 6.95984 7.88444 6.95984 7.76887C6.95984 7.6533 6.84436 7.6533 6.72876 7.53773C6.61316 7.30659 6.72876 7.19103 6.72876 6.95989C6.72876 6.49762 6.61316 6.95989 6.84436 6.38205C6.95984 6.15091 7.19104 6.15091 7.19104 6.03534C7.19104 5.91978 7.19104 5.80421 7.30664 5.80421C7.42212 5.68864 7.42212 5.68864 7.53772 5.57307C7.53772 5.4575 7.53772 5.4575 7.42212 5.34194C7.42212 5.22637 7.42212 5.22637 7.42212 5.1108C7.42212 4.99523 7.42212 4.99523 7.42212 4.87967C7.42212 4.64853 7.7688 4.87967 7.8844 4.7641C7.8844 4.64853 7.8844 4.53296 7.8844 4.53296C7.7688 4.41739 7.7688 4.41739 7.7688 4.41739C7.8844 4.41739 7.7688 4.41739 7.8844 4.41739C8 4.41739 8 4.41739 8 4.30182C8.1156 4.30182 8.1156 4.18626 8.2312 4.18626C8.34668 4.07069 8.34668 4.07069 8.46228 3.95512C8.69348 3.95512 8.57788 3.95512 8.57788 3.72399H8.69348C8.80908 3.83955 8.69348 3.83955 8.80908 3.83955C8.80908 3.83955 8.80908 3.83955 8.92456 3.83955C8.92456 3.72399 8.80908 3.72399 8.80908 3.60842C8.69348 3.60842 8.69348 3.72399 8.57788 3.72399C8.46228 3.72399 8.46228 3.60842 8.46228 3.49285C8.46228 3.37728 8.69348 3.37728 8.69348 3.37728C8.80908 3.37728 8.80908 3.26171 8.92456 3.14615C9.04016 3.03058 8.92456 3.14615 9.04016 3.03058C9.15576 3.03058 9.15576 3.03058 9.15576 3.03058H9.27136C9.50244 2.91501 9.61804 3.03058 9.73364 3.03058C9.84912 3.03058 10.3114 3.03058 10.3114 3.26171C10.1958 3.37728 10.0803 3.26171 9.96472 3.26171C9.96472 3.37728 9.96472 3.37728 10.0803 3.37728C10.0803 3.26171 10.0803 3.37728 10.0803 3.26171H10.1959C10.1959 3.14615 10.3115 3.14615 10.427 3.14615C10.427 3.03058 10.427 3.03058 10.427 3.03058C10.5426 3.03058 10.427 3.03058 10.5426 3.14615C10.6582 3.14615 10.7738 3.03058 10.8893 3.03058C11.0049 3.03058 11.0049 3.03058 11.1205 3.03058C11.2361 3.03058 11.2361 3.03058 11.3516 3.03058C11.3516 2.91501 11.3516 2.91501 11.4672 2.91501C11.5828 2.91501 11.6984 3.03058 11.8138 3.03058C11.6982 2.91501 11.5828 2.91501 11.6982 2.79944C11.8138 2.79944 11.8138 2.79944 11.9294 2.91501C12.276 2.5683 12.276 2.5683 12.276 2.5683ZM1.18152 6.38205C1.5282 4.99523 2.22156 3.72398 3.26172 2.79944C3.37732 2.79944 3.37732 2.79944 3.4928 2.79944C3.4928 2.79944 3.4928 2.68387 3.6084 2.68387C3.6084 2.68387 3.6084 2.68387 3.724 2.68387C3.724 2.68387 3.724 2.68387 3.724 2.79944C3.8396 2.68387 3.724 2.68387 3.8396 2.5683C3.724 2.5683 3.724 2.5683 3.724 2.45274C3.8396 2.33717 3.9552 2.33717 4.07068 2.33717C4.07068 2.45274 4.07068 2.45274 4.07068 2.45274C4.18628 2.45274 4.18628 2.2216 4.30188 2.33717C4.30188 2.33717 4.30188 2.33717 4.41736 2.33717C4.30188 2.45274 4.30188 2.45274 4.18628 2.45274C4.18628 2.79944 4.30188 2.5683 4.30188 2.79944C4.41736 2.79944 4.53296 2.68387 4.53296 2.68387C4.53296 2.68387 4.41736 2.68387 4.41736 2.5683C4.41736 2.45274 4.53296 2.45274 4.53296 2.45274H4.64856C5.34204 2.45274 4.99524 2.45274 5.22644 2.5683C5.22644 2.5683 5.34204 2.5683 5.34204 2.68387C5.34204 2.79944 5.34204 2.79944 5.45752 2.91501C5.57312 2.91501 5.57312 2.91501 5.57312 3.03058L5.45752 3.14614C5.34192 3.14614 5.45752 3.03058 5.34192 3.03058C5.34192 3.14614 5.45752 3.14614 5.34192 3.26171C5.22632 3.26171 5.34192 3.26171 5.22632 3.26171C5.11084 3.26171 5.11084 3.26171 4.99524 3.14614C4.99524 3.14614 4.99524 3.14614 4.87964 3.14614H4.76404C4.87964 3.03058 4.87964 3.14614 4.99524 3.03058C4.99524 3.03058 5.11084 2.91501 5.22632 2.91501C5.22632 2.79944 5.22632 2.91501 5.11084 2.79944C4.99524 2.68387 4.99524 2.68387 4.76416 2.68387C4.64856 2.79944 4.64856 2.91501 4.53296 2.91501C4.53296 2.91501 4.41736 2.91501 4.30176 2.91501C4.30176 3.03058 4.41736 2.91501 4.41736 3.14615C4.30176 3.14615 4.30176 3.14615 4.30176 3.14615C4.18628 3.14615 4.30176 3.14615 4.30176 3.26171C4.18628 3.26171 4.30176 3.26171 4.18628 3.14615C4.18628 3.14615 4.18628 3.03058 4.30176 3.03058C4.18628 3.03058 4.07068 3.14615 3.95508 3.14615C3.8396 3.26171 3.6084 3.26171 3.6084 3.37728C3.6084 3.49285 3.6084 3.37728 3.6084 3.60842C3.8396 3.60842 3.724 3.72398 3.95508 3.72398H4.07068C4.07068 3.83955 3.95508 3.95512 4.07068 3.95512C4.18628 4.07069 4.18628 3.83955 4.30188 3.72398C4.76416 3.60842 4.53296 3.49285 4.64856 3.26171C4.64856 3.26171 4.64844 3.14614 4.76404 3.14614H4.99524C5.11084 3.14614 4.99524 3.14614 5.11084 3.26171C5.11084 3.37728 5.11084 3.49285 5.22644 3.49285C5.34204 3.49285 5.34204 3.37728 5.45752 3.37728C5.57312 3.49285 5.45752 3.60842 5.57312 3.72398C5.9198 3.83955 5.68872 3.95512 5.68872 4.18626H5.80432C5.80432 4.30182 5.80432 4.30182 5.80432 4.41739L5.45752 4.30182C5.57312 4.18626 5.57312 4.18626 5.68872 3.95512C5.57312 3.95512 5.57312 3.95512 5.45752 4.07069C5.34192 4.07069 5.34192 4.07069 5.22632 4.07069C5.22632 3.95512 5.22632 4.18625 5.22632 4.07069C5.11084 4.07069 5.11084 3.95512 4.99524 3.95512C4.99524 3.95512 5.11084 3.95512 5.11084 4.07069C5.11084 4.18625 5.11084 4.07069 5.11084 4.18625C4.99524 4.41739 5.34192 4.30182 5.34192 4.30182C5.34192 4.41739 5.22632 4.41739 5.11084 4.41739C4.99524 4.41739 4.99524 4.53296 4.87964 4.53296C4.87964 4.41739 4.87964 4.53296 4.87964 4.41739C4.76404 4.41739 4.76404 4.41739 4.64844 4.53296C4.53296 4.53296 4.53296 4.53296 4.53296 4.76409C4.41736 4.76409 4.30176 4.87966 4.30176 4.87966C4.18616 4.99523 4.18616 4.99523 4.07068 5.1108C4.07068 5.34193 4.07068 5.34193 3.95508 5.34193C3.8396 5.4575 3.8396 5.4575 3.724 5.4575C3.4928 5.68864 3.6084 5.57307 3.6084 6.03534C3.4928 6.03534 3.4928 6.03534 3.4928 5.91978C3.4928 5.68864 3.4928 5.68864 3.26172 5.68864C3.03052 5.57307 3.03052 5.68864 2.91504 5.80421C2.79944 5.80421 2.79944 5.68864 2.56836 5.80421C2.45276 5.91978 2.45276 5.91978 2.33716 6.03534C2.33716 6.15091 2.22156 6.26648 2.22156 6.38205C2.22156 6.72875 2.56824 6.84432 2.68384 6.61318C2.79944 6.49762 2.68384 6.38205 2.91504 6.49762C2.91504 6.61318 2.91504 6.72875 2.91504 6.72875C2.91504 6.72875 2.79944 6.84432 2.91504 6.95989C3.03064 6.95989 3.03064 6.95989 3.26172 7.07546C3.26172 7.30659 3.14612 7.42216 3.37732 7.53773C3.4928 7.6533 3.4928 7.53773 3.6084 7.53773C3.724 7.53773 3.724 7.53773 3.8396 7.6533C3.9552 7.53773 3.8396 7.6533 3.9552 7.53773C4.07068 7.42216 4.07068 7.42216 4.18628 7.42216V7.53773C4.30188 7.42216 4.30188 7.53773 4.41748 7.53773H4.53308C4.64856 7.53773 4.64856 7.53773 4.76416 7.53773C4.76416 7.53773 4.76416 7.53773 4.76416 7.6533C4.87976 7.76887 4.87976 7.88443 4.99536 7.88443C5.11096 8.00001 5.11096 7.88443 5.34204 8.00001C5.45764 8.11557 5.34204 8.11557 5.45764 8.23114C5.45764 8.23114 5.45764 8.34671 5.57312 8.34671C5.68872 8.46228 5.80432 8.34671 5.9198 8.46228C6.0354 8.57785 5.9198 8.46228 6.0354 8.57785C6.2666 8.57785 6.151 8.57785 6.38208 8.69342C6.49768 8.69342 6.49768 8.69342 6.49768 8.80898C6.61328 8.92455 6.61328 9.04012 6.49768 9.15569C6.2666 9.50239 6.38208 9.50239 6.38208 9.73353C6.38208 9.8491 6.38208 10.1958 6.151 10.3114C5.57312 10.4269 5.9198 10.5425 5.80432 10.8892C5.80432 11.0048 5.68872 11.0048 5.68872 11.0048C5.57312 11.2359 5.68872 11.3515 5.34204 11.2359C5.34204 11.2359 5.34204 11.2359 5.34204 11.3515C5.45764 11.4671 5.45764 11.5826 5.22644 11.6982C5.11084 11.6982 5.11084 11.6982 5.11084 11.9293C4.99524 11.9293 4.99524 11.9293 4.99524 11.9293C5.11084 12.0449 4.99524 11.9293 5.11084 12.0449C5.11084 12.1605 5.11084 12.1605 5.11084 12.1605C5.11084 12.276 5.11084 12.1605 4.99524 12.276C5.11084 12.276 5.11084 12.276 5.11084 12.3916C5.11084 12.5072 4.99524 12.6227 4.99524 12.6227C5.11084 12.7383 5.11084 12.8539 5.34204 12.8539C5.34204 12.9694 5.34204 12.9694 5.22644 12.9694C5.11084 12.9694 4.99524 12.8539 4.87976 12.8539C4.76416 12.7383 4.64856 12.7383 4.53308 12.6227C4.53308 12.5072 4.53308 12.6227 4.41748 12.5072C4.30188 12.3916 4.30188 12.3916 4.30188 12.276C4.30188 12.276 4.18628 12.1605 4.30188 12.0449C4.30188 12.0449 4.41748 11.8138 4.30188 11.8138C4.18628 11.8138 4.30188 11.8138 4.30188 11.9293C4.30188 11.8138 4.30188 11.8138 4.18628 11.6982C4.18628 11.5826 4.07068 11.5826 4.07068 11.4671C4.07068 11.2359 4.07068 11.2359 4.07068 10.8892C3.9552 10.6581 4.07068 10.1958 3.9552 9.8491V9.73353C3.8396 9.61796 3.724 9.61796 3.60852 9.50239C3.49292 9.38682 3.26172 8.92455 3.14624 8.80898C3.03064 8.69341 3.03064 8.80898 3.03064 8.69341C3.03064 8.57785 3.03064 8.57785 3.03064 8.46228C2.79944 8.11557 3.26172 8.11557 3.14624 7.6533C3.14624 7.53773 3.03064 7.42216 3.03064 7.42216C2.91504 7.42216 3.03064 7.53773 2.91504 7.53773C2.79944 7.53773 2.79944 7.42216 2.68384 7.42216C2.45276 7.19103 2.56836 7.30659 2.56836 7.19103C2.45276 6.84432 2.33716 7.07546 2.10608 6.95989C1.99048 6.84432 1.99048 6.84432 1.87488 6.84432C1.6438 6.84432 1.75928 6.84432 1.6438 6.84432C1.5282 6.72875 1.29712 6.72875 1.18152 6.61319C1.29712 6.61318 1.4126 6.61318 1.18152 6.38205ZM3.37732 2.79944L3.4928 2.68387C3.37732 2.68387 3.37732 2.79944 3.37732 2.79944ZM9.27124 4.7641C9.38684 4.7641 9.38684 4.87966 9.38684 4.87966C9.50244 4.99523 9.38684 4.99523 9.50244 5.1108C9.61792 5.22637 9.50244 5.22637 9.61792 5.34194C9.73352 5.34194 9.61792 5.34194 9.73352 5.34194C9.73352 5.34194 9.73352 5.22637 9.84912 5.22637C9.84912 5.1108 9.73352 5.1108 9.73352 5.1108C9.84912 4.87966 9.96472 4.99523 9.96472 5.1108C10.0803 5.4575 10.1958 5.34194 10.3114 5.34194C10.427 5.34194 10.3114 5.34194 10.427 5.34194C10.5426 5.34194 10.427 5.34194 10.5426 5.34194C10.7737 5.22637 10.5426 5.68864 10.5426 5.80421C10.427 5.80421 10.427 5.80421 10.3114 5.80421C10.1958 5.80421 10.3114 5.91978 9.84912 5.80421C9.38684 5.68864 9.50244 5.68864 9.38684 5.91978C9.27124 5.91978 9.27124 5.91978 9.27124 5.91978C9.27124 5.91978 9.27124 5.91978 9.15576 5.91978C9.15576 5.91978 9.15576 5.91978 9.04016 5.80421C8.92456 5.68864 8.80896 5.68864 8.69348 5.68864C8.69348 5.57307 8.80908 5.57307 8.69348 5.4575C8.69348 5.4575 8.2312 5.4575 8.1156 5.4575C8.1156 5.34194 8.1156 5.4575 7.8844 5.4575C7.76892 5.4575 7.76892 5.4575 7.76892 5.34194C7.76892 5.34194 7.76892 5.34194 7.8844 5.34194C7.8844 5.34194 7.8844 5.34194 8 5.34194C8.34668 5.34194 8.1156 5.1108 8.34668 4.99523C8.46228 4.87966 8.34668 4.99523 8.46228 4.87966C8.57788 4.87966 8.57788 4.87966 8.69348 4.87966C8.80908 4.87966 8.69348 4.7641 8.80908 4.7641C8.92456 4.87966 8.92456 4.87966 9.04016 4.99523C9.15576 4.99523 9.15576 4.99523 9.15576 5.1108C9.27136 5.22637 9.15576 5.22637 9.15576 5.22637C9.27136 5.22637 9.15576 5.1108 9.27136 4.99523C9.27124 4.99523 9.15564 4.99523 9.27124 4.7641C9.04016 4.7641 9.04016 4.87966 8.92456 4.64853V4.53296C9.15564 4.64853 9.15564 4.64853 9.27124 4.7641ZM11.5826 9.61796C11.467 9.61796 11.467 9.73353 11.3514 9.84909C11.2358 9.96466 11.1204 9.84909 11.1204 9.96466C11.1204 10.0802 11.2358 10.0802 11.1204 10.3114C11.1204 10.4269 11.1204 10.5425 11.1204 10.6581C11.3514 10.8892 11.467 10.4269 11.467 10.1958C11.467 10.0802 11.5825 9.96466 11.5825 9.8491C11.6982 9.73353 11.6982 9.73353 11.5826 9.61796ZM11.3514 4.64853C11.3514 4.87966 11.467 4.99523 11.5826 4.99523C11.5826 5.1108 11.5826 5.1108 11.5826 5.22637C11.6982 5.34194 11.8137 5.34194 11.9293 5.34194C11.9293 5.22637 11.9293 5.22637 11.8137 5.1108C11.8137 5.1108 11.8137 5.1108 11.8137 4.99523C11.6981 4.99523 11.5825 4.87966 11.5825 4.7641C11.5825 4.7641 11.5825 4.7641 11.6981 4.7641C11.8137 4.7641 11.6981 4.7641 11.8137 4.64853C11.8137 4.53296 11.6981 4.53296 11.5825 4.64853C11.467 4.53296 11.3514 4.64853 11.3514 4.64853ZM10.4269 4.64853C10.3114 4.53296 10.3114 4.53296 10.1958 4.53296C10.0802 4.53296 10.0802 4.64853 10.0802 4.7641C10.0802 4.87966 10.0802 4.7641 10.0802 4.99523C10.0802 5.1108 10.0802 4.99523 10.0802 5.1108C10.1958 5.1108 10.0802 5.1108 10.1958 5.1108C10.3114 5.1108 10.5425 4.99523 10.5425 4.99523C10.6581 4.99523 10.7737 5.1108 11.0048 4.99523C11.0048 4.87966 10.7736 4.7641 10.6581 4.7641C10.6581 4.64853 10.6581 4.7641 10.6581 4.64853H10.4269C10.5425 4.53296 10.4269 4.53296 10.4269 4.64853C10.6581 4.53296 10.5425 4.64853 10.4269 4.64853ZM7.8844 3.60842C7.8844 3.83955 8 3.72398 8 3.83955C8 3.95512 8 3.83955 7.8844 3.95512C7.8844 4.07069 7.8844 3.95512 7.8844 4.07069C8 4.07069 8 4.07069 8.1156 4.07069C8.2312 4.07069 8.2312 4.07069 8.2312 3.95512C8.1156 3.83955 8.1156 3.83955 8 3.72398C7.8844 3.60842 8 3.72398 8 3.60842V3.49285C7.8844 3.60842 7.8844 3.60842 7.8844 3.60842Z" fill="white"/>
</g>
</svg>
