<svg width="16" height="16" viewBox="0 0 16 16" fill="none" xmlns="http://www.w3.org/2000/svg">
<mask id="mask0_1742_2003" style="mask-type:alpha" maskUnits="userSpaceOnUse" x="0" y="0" width="16" height="16">
<path d="M16 0H0V16H16V0Z" fill="#F0C4CC"/>
</mask>
<g mask="url(#mask0_1742_2003)">
<path d="M7.9999 14.9998C11.8659 14.9998 14.9998 11.8659 14.9998 7.9999C14.9998 4.13396 11.8659 1 7.9999 1C4.13396 1 1 4.13396 1 7.9999C1 11.8659 4.13396 14.9998 7.9999 14.9998Z" fill="#447DB8"/>
<path d="M7.03292 9.52588L7.01192 9.22689C6.94991 8.58989 7.15792 7.9319 7.73292 7.25991C8.18794 6.70692 8.48694 6.28693 8.48694 5.82093C8.48694 5.31694 8.17494 4.98094 7.50795 4.96894C7.07894 4.96894 6.61197 5.09994 6.31097 5.32794L5.95496 4.27295C6.39294 3.99596 7.08594 3.78096 7.84993 3.78096C9.32891 3.78096 10.0199 4.64395 10.0199 5.60294C10.0199 6.46592 9.49893 7.06592 8.97691 7.65391C8.49993 8.2079 8.3239 8.69889 8.3319 9.27389L8.3529 9.52588H7.03292ZM7.62489 12.1408C7.1039 12.1408 6.72891 11.7329 6.72891 11.2029C6.72891 10.6409 7.12093 10.2649 7.64088 10.2649C8.17988 10.2649 8.53687 10.6549 8.54187 11.2029C8.54187 11.7239 8.18788 12.1408 7.64088 12.1408H7.62489Z" fill="white"/>
</g>
</svg>
