<svg width="16" height="16" viewBox="0 0 16 16" fill="none" xmlns="http://www.w3.org/2000/svg">
<mask id="mask0_1742_2615" style="mask-type:alpha" maskUnits="userSpaceOnUse" x="0" y="0" width="16" height="16">
<rect width="16" height="16" fill="#D9D9D9"/>
</mask>
<g mask="url(#mask0_1742_2615)">
<path d="M8.23218 5.19969V8.6997L11.2322 10.4997L11.7322 9.5997L9.23218 8.1997V5.19969H8.23218Z" fill="#486A7F"/>
<path d="M15.3325 7.99976C15.3325 4.58472 12.4009 1.69995 8.93213 1.69995C5.4585 1.69995 2.63135 4.52612 2.63135 7.99976V8.09986H0.66748L3.23291 10.7571L5.89111 8.09986H3.93213V7.99976C3.93213 5.18774 6.21924 2.89966 9.03174 2.89966C11.8911 2.89966 14.1313 5.1399 14.1313 7.99976C14.1313 10.8596 11.8911 13.0989 9.03174 13.0989C7.72803 13.0989 6.52002 12.595 5.53271 11.6399L4.67334 12.4993C5.90088 13.6936 7.3667 14.3001 9.03174 14.3001C12.5054 14.3001 15.3325 11.4739 15.3325 7.99976Z" fill="#486A7F"/>
</g>
</svg>
