<svg width="16" height="16" viewBox="0 0 16 16" fill="none" xmlns="http://www.w3.org/2000/svg">
<mask id="mask0_1742_1678" style="mask-type:alpha" maskUnits="userSpaceOnUse" x="0" y="0" width="16" height="16">
<rect width="16" height="16" fill="#D9D9D9"/>
</mask>
<g mask="url(#mask0_1742_1678)">
<path d="M14.8295 4.05356H13.5635V1.24356C13.5635 1.07556 13.4175 0.941559 13.2515 0.941559H9.7955C9.61551 0.941559 9.48349 1.07556 9.48349 1.24356V4.05656H8.21249C8.03351 4.05656 7.90048 4.19056 7.90048 4.35756V11.2656C7.90048 12.2036 8.71249 12.9666 9.71249 12.9666H13.3585C14.3495 12.9666 15.1685 12.1966 15.1685 11.2656V4.35556C15.1485 4.19056 14.9975 4.05356 14.8295 4.05356ZM10.1095 1.54456H12.9285V4.05456H10.1095V1.54456Z" fill="#486A7F"/>
<path d="M10.9855 2.19456C10.8195 2.19456 10.6825 2.32056 10.6825 2.47656V3.12456C10.6825 3.28156 10.8195 3.40756 10.9855 3.40756C11.1485 3.40756 11.2875 3.28156 11.2875 3.12456V2.47556C11.2845 2.32056 11.1485 2.19456 10.9855 2.19456Z" fill="#486A7F"/>
<path d="M12.0495 2.19456C11.8835 2.19456 11.7395 2.32056 11.7395 2.47656V3.12456C11.7395 3.28156 11.8855 3.40756 12.0495 3.40756C12.2065 3.40756 12.3545 3.28156 12.3545 3.12456V2.47556C12.3495 2.32056 12.2085 2.19456 12.0495 2.19456Z" fill="#486A7F"/>
<path d="M7.53149 3.04456H2.0195C1.36551 3.04456 0.831512 3.57556 0.831512 4.23356V11.7796C0.831512 12.4256 1.36151 12.9676 2.0195 12.9676H7.53149C8.1835 12.9676 8.71948 12.4416 8.71948 11.7796V4.23456C8.71948 3.57456 8.1875 3.04456 7.53149 3.04456ZM5.02249 8.38556H3.09351C2.78149 8.38556 2.53149 8.13156 2.53149 7.82056C2.53149 7.50756 2.78549 7.25556 3.09351 7.25556H5.02249C5.3345 7.25556 5.5845 7.50756 5.5845 7.82056C5.58051 8.13256 5.3295 8.38556 5.02249 8.38556ZM6.42551 6.05356H3.10049C2.78848 6.05356 2.53848 5.79956 2.53848 5.48556C2.53848 5.17356 2.79449 4.91956 3.10049 4.91956H6.42551C6.73752 4.91956 6.98752 5.17356 6.98752 5.48556C6.99249 5.80056 6.73849 6.05356 6.42551 6.05356Z" fill="#ACC1C6"/>
<path d="M5.02249 8.38556H3.09351C2.78149 8.38556 2.53149 8.13156 2.53149 7.82056C2.53149 7.50756 2.78549 7.25556 3.09351 7.25556H5.02249C5.3345 7.25556 5.5845 7.50756 5.5845 7.82056C5.58051 8.13256 5.3295 8.38556 5.02249 8.38556Z" fill="white"/>
<path d="M6.42551 6.05356H3.10049C2.78848 6.05356 2.53848 5.79956 2.53848 5.48556C2.53848 5.17356 2.79449 4.91956 3.10049 4.91956H6.42551C6.73752 4.91956 6.98752 5.17356 6.98752 5.48556C6.99249 5.80056 6.73849 6.05356 6.42551 6.05356Z" fill="white"/>
<path d="M4.4035 12.2286L7.7865 15.5836C7.97448 15.7406 8.1325 15.6736 8.1325 15.4256V14.0286C8.1325 13.7826 8.33252 13.5816 8.57751 13.5796H8.6325L12.7365 13.6006C12.9825 13.6006 13.1845 13.4026 13.1845 13.1586V10.7916C13.1845 10.5466 12.9865 10.3476 12.7405 10.3476V10.3256H11.5645L8.58551 10.3106C8.34552 10.3106 8.14651 10.1166 8.14651 9.86856V8.46056C8.14651 8.21256 7.99951 8.14056 7.79452 8.30256L4.41153 11.6536C4.2175 11.8166 4.2175 12.0746 4.4035 12.2286Z" fill="#FF9C00"/>
</g>
</svg>
