<svg width="16" height="16" viewBox="0 0 16 16" fill="none" xmlns="http://www.w3.org/2000/svg">
<path d="M12.9505 3.048C10.2087 0.315825 5.778 0.31884 3.05035 3.048C0.31655 5.7842 0.31655 10.2142 3.05035 12.9484C5.78415 15.6835 10.2147 15.6835 12.9505 12.9504C15.6832 10.2162 15.6832 5.78219 12.9505 3.048Z" fill="#95A0AB"/>
<path d="M6 8.92278C6 8.97426 5.9 9 5.7 9H4.3C4.1 9 4 8.97426 4 8.92278V7.07722C4 7.02574 4.1 7 4.3 7H5.7C5.8 7 6 7.02574 6 7.07722V8.92278Z" fill="white"/>
<path d="M9 8.92278C9 8.97426 8.9 9 8.7 9H7.3C7.1 9 7 8.97426 7 8.92278V7.07722C7 7.02574 7.1 7 7.3 7H8.7C8.8 7 9 7.02574 9 7.07722V8.92278Z" fill="white"/>
<path d="M12 8.92278C12 8.97426 11.9 9 11.7 9H10.3C10.1 9 10 8.97426 10 8.92278V7.07722C10 7.02574 10.1 7 10.3 7H11.7C11.8 7 12 7.02574 12 7.07722V8.92278Z" fill="white"/>
</svg>
