<svg width="16" height="16" viewBox="0 0 16 16" fill="none" xmlns="http://www.w3.org/2000/svg">
<mask id="mask0_1742_2229" style="mask-type:alpha" maskUnits="userSpaceOnUse" x="0" y="0" width="16" height="16">
<rect width="16" height="16" fill="#D9D9D9"/>
</mask>
<g mask="url(#mask0_1742_2229)">
<path d="M13.675 11.4225L8.04797 1.04749C7.85999 0.689487 7.48596 0.446487 7.06897 0.446487C6.65198 0.446487 6.29199 0.688487 6.09094 1.04749L0.444946 11.4225C0.345947 11.6025 0.29895 11.8055 0.29895 12.0225C0.29895 12.6825 0.804932 13.2175 1.42395 13.2175H12.686C13.305 13.2175 13.809 12.6825 13.809 12.0225C13.825 11.8035 13.772 11.6005 13.675 11.4225Z" fill="#FF9C00"/>
<path d="M7.07098 8.78949C6.677 8.78949 6.36798 9.10349 6.36798 9.49649C6.36798 9.89249 6.67999 10.1975 7.07098 10.1975C7.46198 10.1975 7.77795 9.88349 7.77795 9.49649C7.77802 9.10449 7.453 8.78949 7.07098 8.78949Z" fill="white"/>
<path d="M6.36798 5.61348C6.36798 5.65348 6.37 5.69348 6.37799 5.73348L6.73199 7.79048C6.74799 7.95849 6.90503 8.08449 7.078 8.08449C7.26599 8.08449 7.39301 7.95949 7.43201 7.79148L7.78601 5.73448C7.80499 5.69448 7.80701 5.65448 7.80701 5.61448C7.80701 5.22548 7.495 4.90948 7.10101 4.90948C6.68201 4.91049 6.36798 5.22548 6.36798 5.61348Z" fill="white"/>
<path d="M11.725 15.5535C13.9209 15.5535 15.701 13.7734 15.701 11.5775C15.701 9.38161 13.9209 7.60149 11.725 7.60149C9.52908 7.60149 7.74896 9.38161 7.74896 11.5775C7.74896 13.7734 9.52908 15.5535 11.725 15.5535Z" fill="#E8F0F5" stroke="#294F69" stroke-width="0.1901" stroke-miterlimit="10"/>
<path d="M11.735 7.6095V11.5865H15.667C15.661 9.4005 13.911 7.6325 11.735 7.6095Z" fill="#08B848" stroke="#294F69" stroke-width="0.1901" stroke-miterlimit="10"/>
<path d="M11.77 14.1885H11.621C11.433 14.1885 11.267 14.3155 11.267 14.4715C11.267 14.6245 11.428 14.7475 11.621 14.7475H11.77C11.958 14.7475 12.124 14.6245 12.124 14.4715C12.12 14.3145 11.953 14.1885 11.77 14.1885Z" fill="#294F69"/>
<path d="M15.62 11.6745H11.642L14.685 14.1905C14.693 14.1885 15.703 12.9005 15.62 11.6745Z" fill="#FF7700"/>
<path d="M11.725 12.1335C12.0315 12.1335 12.28 11.885 12.28 11.5785C12.28 11.272 12.0315 11.0235 11.725 11.0235C11.4185 11.0235 11.17 11.272 11.17 11.5785C11.17 11.885 11.4185 12.1335 11.725 12.1335Z" fill="#62859B"/>
<path d="M11.828 11.2995L10.155 9.3485C10.052 9.2115 9.86402 9.3625 9.96705 9.4945L11.407 11.6175C11.5111 11.7505 11.679 11.7875 11.803 11.6995C11.923 11.6095 11.934 11.4325 11.828 11.2995Z" fill="#62859B"/>
<path d="M9.01001 11.5435H8.86304C8.66803 11.5435 8.50903 11.6685 8.50903 11.8265C8.50903 11.9725 8.66205 12.0975 8.86304 12.0975H9.01001C9.198 12.0975 9.36401 11.9655 9.36401 11.8265C9.36603 11.6685 9.203 11.5435 9.01001 11.5435Z" fill="#294F69"/>
<path d="M11.725 15.5535C13.9209 15.5535 15.701 13.7734 15.701 11.5775C15.701 9.38161 13.9209 7.60149 11.725 7.60149C9.52908 7.60149 7.74896 9.38161 7.74896 11.5775C7.74896 13.7734 9.52908 15.5535 11.725 15.5535Z" stroke="#294F69" stroke-width="0.3085" stroke-miterlimit="10"/>
</g>
</svg>
