<svg width="16" height="16" viewBox="0 0 16 16" fill="none" xmlns="http://www.w3.org/2000/svg">
<path d="M5.5 9C5.74171 9 5.94371 9.17145 5.99023 9.39941L6.00977 9.60059C6.04966 9.79608 6.20392 9.95034 6.39941 9.99023L6.60059 10.0098C6.82855 10.0563 7 10.2583 7 10.5V14C7 14.5523 6.55228 15 6 15H2C1.44772 15 1 14.5523 1 14V10.5C1 10.2583 1.17145 10.0563 1.39941 10.0098L1.60059 9.99023C1.79608 9.95034 1.95034 9.79608 1.99023 9.60059L2.00977 9.39941C2.05629 9.17145 2.25829 9 2.5 9H5.5ZM13.5 9C13.7417 9 13.9437 9.17145 13.9902 9.39941L14.0098 9.60059C14.0497 9.79608 14.2039 9.95034 14.3994 9.99023L14.6006 10.0098C14.8286 10.0563 15 10.2583 15 10.5V14C15 14.5523 14.5523 15 14 15H10C9.44772 15 9 14.5523 9 14V10.5C9 10.2583 9.17145 10.0563 9.39941 10.0098L9.60059 9.99023C9.79608 9.95034 9.95034 9.79608 9.99023 9.60059L10.0098 9.39941C10.0563 9.17145 10.2583 9 10.5 9H13.5ZM6 1C6.55228 1 7 1.44772 7 2V5.5C7 5.74171 6.82855 5.94371 6.60059 5.99023L6.39941 6.00977C6.20392 6.04966 6.04966 6.20392 6.00977 6.39941L5.99023 6.60059C5.94371 6.82855 5.74171 7 5.5 7H2.5C2.25829 7 2.05629 6.82855 2.00977 6.60059L1.99023 6.39941C1.95034 6.20392 1.79608 6.04966 1.60059 6.00977L1.39941 5.99023C1.17145 5.94371 1 5.74171 1 5.5V2C1 1.44772 1.44772 1 2 1H6ZM14 1C14.5523 1 15 1.44772 15 2V5.5C15 5.74171 14.8286 5.94371 14.6006 5.99023L14.3994 6.00977C14.2039 6.04966 14.0497 6.20392 14.0098 6.39941L13.9902 6.60059C13.9437 6.82855 13.7417 7 13.5 7H10.5C10.2583 7 10.0563 6.82855 10.0098 6.60059L9.99023 6.39941C9.95034 6.20392 9.79608 6.04966 9.60059 6.00977L9.39941 5.99023C9.17145 5.94371 9 5.74171 9 5.5V2C9 1.44772 9.44772 1 10 1H14Z" fill="#08B848"/>
<path d="M5.99023 9.39941L6.28883 9.37042L6.28731 9.3548L6.28417 9.33942L5.99023 9.39941ZM6.00977 9.60059L5.71117 9.62958L5.71269 9.6452L5.71583 9.66058L6.00977 9.60059ZM6.39941 9.99023L6.33942 10.2842L6.3548 10.2873L6.37042 10.2888L6.39941 9.99023ZM6.60059 10.0098L6.66058 9.71583L6.6452 9.71269L6.62958 9.71117L6.60059 10.0098ZM7 10.5H7.3V10.5H7ZM6 15V15.3V15.3V15ZM2 15L2 15.3H2V15ZM1 14H0.7H1ZM1 10.5H0.7V10.5H1ZM1.39941 10.0098L1.37042 9.71117L1.3548 9.71269L1.33942 9.71583L1.39941 10.0098ZM1.60059 9.99023L1.62958 10.2888L1.6452 10.2873L1.66058 10.2842L1.60059 9.99023ZM1.99023 9.60059L2.28417 9.66058L2.28731 9.6452L2.28883 9.62958L1.99023 9.60059ZM2.00977 9.39941L1.71583 9.33942L1.71269 9.3548L1.71117 9.37042L2.00977 9.39941ZM13.9902 9.39941L14.2888 9.37042L14.2873 9.3548L14.2842 9.33942L13.9902 9.39941ZM14.0098 9.60059L13.7112 9.62958L13.7127 9.6452L13.7158 9.66058L14.0098 9.60059ZM14.3994 9.99023L14.3394 10.2842L14.3548 10.2873L14.3704 10.2888L14.3994 9.99023ZM14.6006 10.0098L14.6606 9.71583L14.6452 9.71269L14.6296 9.71117L14.6006 10.0098ZM15 10.5H15.3V10.5H15ZM14 15V15.3V15.3V15ZM10 15V15.3V15.3V15ZM9 14H8.7H9ZM9 10.5H8.7V10.5H9ZM9.39941 10.0098L9.37042 9.71117L9.3548 9.71269L9.33942 9.71583L9.39941 10.0098ZM9.60059 9.99023L9.62958 10.2888L9.6452 10.2873L9.66058 10.2842L9.60059 9.99023ZM9.99023 9.60059L10.2842 9.66058L10.2873 9.6452L10.2888 9.62958L9.99023 9.60059ZM10.0098 9.39941L9.71583 9.33942L9.71269 9.3548L9.71117 9.37042L10.0098 9.39941ZM6 1V0.7V0.7V1ZM7 2H6.7V2H7ZM7 5.5H7.3V5.5H7ZM6.60059 5.99023L6.62958 6.28883L6.6452 6.28731L6.66058 6.28417L6.60059 5.99023ZM6.39941 6.00977L6.37042 5.71117L6.3548 5.71269L6.33942 5.71583L6.39941 6.00977ZM6.00977 6.39941L5.71583 6.33942L5.71269 6.3548L5.71117 6.37042L6.00977 6.39941ZM5.99023 6.60059L6.28417 6.66058L6.28731 6.6452L6.28883 6.62958L5.99023 6.60059ZM5.5 7V6.7V6.7V7ZM2.5 7V7.3V7.3V7ZM2.00977 6.60059L1.71117 6.62958L1.71269 6.6452L1.71583 6.66058L2.00977 6.60059ZM1.99023 6.39941L2.28883 6.37042L2.28731 6.3548L2.28417 6.33942L1.99023 6.39941ZM1.60059 6.00977L1.66058 5.71583L1.6452 5.71269L1.62958 5.71117L1.60059 6.00977ZM1.39941 5.99023L1.33942 6.28417L1.3548 6.28731L1.37042 6.28883L1.39941 5.99023ZM1 5.5H0.7V5.5L1 5.5ZM1 2H0.7V2H1ZM2 1V0.7H2L2 1ZM14 1V0.7V0.7V1ZM15 2H14.7V2H15ZM15 5.5H15.3V5.5H15ZM14.6006 5.99023L14.6296 6.28883L14.6452 6.28731L14.6606 6.28417L14.6006 5.99023ZM14.3994 6.00977L14.3704 5.71117L14.3548 5.71269L14.3394 5.71583L14.3994 6.00977ZM14.0098 6.39941L13.7158 6.33942L13.7127 6.3548L13.7112 6.37042L14.0098 6.39941ZM13.9902 6.60059L14.2842 6.66058L14.2873 6.6452L14.2888 6.62958L13.9902 6.60059ZM13.5 7V6.7V6.7V7ZM10.5 7V7.3V7.3V7ZM10.0098 6.60059L9.71117 6.62958L9.71269 6.6452L9.71583 6.66058L10.0098 6.60059ZM9.99023 6.39941L10.2888 6.37042L10.2873 6.3548L10.2842 6.33942L9.99023 6.39941ZM9.60059 6.00977L9.66058 5.71583L9.6452 5.71269L9.62958 5.71117L9.60059 6.00977ZM9.39941 5.99023L9.33942 6.28417L9.3548 6.28731L9.37042 6.28883L9.39941 5.99023ZM9 5.5H8.7V5.5L9 5.5ZM9 2H8.7V2H9ZM10 1V0.7V0.7V1ZM5.5 9V9.3C5.59664 9.3 5.67777 9.36865 5.69629 9.4594L5.99023 9.39941L6.28417 9.33942C6.20965 8.97425 5.88678 8.7 5.5 8.7V9ZM5.99023 9.39941L5.69164 9.4284L5.71117 9.62958L6.00977 9.60059L6.30836 9.5716L6.28883 9.37042L5.99023 9.39941ZM6.00977 9.60059L5.71583 9.66058C5.77977 9.9739 6.0261 10.2202 6.33942 10.2842L6.39941 9.99023L6.4594 9.69629C6.38173 9.68044 6.31956 9.61827 6.30371 9.5406L6.00977 9.60059ZM6.39941 9.99023L6.37042 10.2888L6.5716 10.3084L6.60059 10.0098L6.62958 9.71117L6.4284 9.69164L6.39941 9.99023ZM6.60059 10.0098L6.5406 10.3037C6.63135 10.3222 6.7 10.4034 6.7 10.5H7H7.3C7.3 10.1132 7.02575 9.79035 6.66058 9.71583L6.60059 10.0098ZM7 10.5H6.7V14H7H7.3V10.5H7ZM7 14H6.7C6.7 14.3866 6.3866 14.7 6 14.7V15V15.3C6.71797 15.3 7.3 14.718 7.3 14H7ZM6 15V14.7H2V15V15.3H6V15ZM2 15V14.7C1.6134 14.7 1.3 14.3866 1.3 14H1H0.7C0.7 14.718 1.28203 15.3 2 15.3L2 15ZM1 14H1.3V10.5H1H0.7V14H1ZM1 10.5H1.3C1.3 10.4034 1.36865 10.3222 1.45941 10.3037L1.39941 10.0098L1.33942 9.71583C0.974246 9.79035 0.7 10.1132 0.7 10.5H1ZM1.39941 10.0098L1.4284 10.3084L1.62958 10.2888L1.60059 9.99023L1.5716 9.69164L1.37042 9.71117L1.39941 10.0098ZM1.60059 9.99023L1.66058 10.2842C1.9739 10.2202 2.22023 9.9739 2.28417 9.66058L1.99023 9.60059L1.69629 9.5406C1.68044 9.61827 1.61827 9.68044 1.54059 9.69629L1.60059 9.99023ZM1.99023 9.60059L2.28883 9.62958L2.30836 9.4284L2.00977 9.39941L1.71117 9.37042L1.69164 9.5716L1.99023 9.60059ZM2.00977 9.39941L2.30371 9.4594C2.32223 9.36865 2.40336 9.3 2.5 9.3V9V8.7C2.11322 8.7 1.79035 8.97425 1.71583 9.33942L2.00977 9.39941ZM2.5 9V9.3H5.5V9V8.7H2.5V9ZM13.5 9V9.3C13.5966 9.3 13.6778 9.36865 13.6963 9.4594L13.9902 9.39941L14.2842 9.33942C14.2096 8.97425 13.8868 8.7 13.5 8.7V9ZM13.9902 9.39941L13.6916 9.4284L13.7112 9.62958L14.0098 9.60059L14.3084 9.5716L14.2888 9.37042L13.9902 9.39941ZM14.0098 9.60059L13.7158 9.66058C13.7798 9.9739 14.0261 10.2202 14.3394 10.2842L14.3994 9.99023L14.4594 9.69629C14.3817 9.68044 14.3196 9.61827 14.3037 9.5406L14.0098 9.60059ZM14.3994 9.99023L14.3704 10.2888L14.5716 10.3084L14.6006 10.0098L14.6296 9.71117L14.4284 9.69164L14.3994 9.99023ZM14.6006 10.0098L14.5406 10.3037C14.6314 10.3222 14.7 10.4034 14.7 10.5H15H15.3C15.3 10.1132 15.0258 9.79035 14.6606 9.71583L14.6006 10.0098ZM15 10.5H14.7V14H15H15.3V10.5H15ZM15 14H14.7C14.7 14.3866 14.3866 14.7 14 14.7V15V15.3C14.718 15.3 15.3 14.718 15.3 14H15ZM14 15V14.7H10V15V15.3H14V15ZM10 15V14.7C9.6134 14.7 9.3 14.3866 9.3 14H9H8.7C8.7 14.718 9.28203 15.3 10 15.3V15ZM9 14H9.3V10.5H9H8.7V14H9ZM9 10.5H9.3C9.3 10.4034 9.36865 10.3222 9.4594 10.3037L9.39941 10.0098L9.33942 9.71583C8.97425 9.79035 8.7 10.1132 8.7 10.5H9ZM9.39941 10.0098L9.4284 10.3084L9.62958 10.2888L9.60059 9.99023L9.5716 9.69164L9.37042 9.71117L9.39941 10.0098ZM9.60059 9.99023L9.66058 10.2842C9.9739 10.2202 10.2202 9.9739 10.2842 9.66058L9.99023 9.60059L9.69629 9.5406C9.68044 9.61827 9.61827 9.68044 9.5406 9.69629L9.60059 9.99023ZM9.99023 9.60059L10.2888 9.62958L10.3084 9.4284L10.0098 9.39941L9.71117 9.37042L9.69164 9.5716L9.99023 9.60059ZM10.0098 9.39941L10.3037 9.4594C10.3222 9.36865 10.4034 9.3 10.5 9.3V9V8.7C10.1132 8.7 9.79035 8.97425 9.71583 9.33942L10.0098 9.39941ZM10.5 9V9.3H13.5V9V8.7H10.5V9ZM6 1V1.3C6.3866 1.3 6.7 1.6134 6.7 2H7H7.3C7.3 1.28203 6.71797 0.7 6 0.7V1ZM7 2H6.7V5.5H7H7.3V2H7ZM7 5.5H6.7C6.7 5.59664 6.63135 5.67777 6.5406 5.69629L6.60059 5.99023L6.66058 6.28417C7.02575 6.20965 7.3 5.88678 7.3 5.5H7ZM6.60059 5.99023L6.5716 5.69164L6.37042 5.71117L6.39941 6.00977L6.4284 6.30836L6.62958 6.28883L6.60059 5.99023ZM6.39941 6.00977L6.33942 5.71583C6.0261 5.77977 5.77977 6.0261 5.71583 6.33942L6.00977 6.39941L6.30371 6.45941C6.31956 6.38173 6.38173 6.31956 6.45941 6.30371L6.39941 6.00977ZM6.00977 6.39941L5.71117 6.37042L5.69164 6.5716L5.99023 6.60059L6.28883 6.62958L6.30836 6.4284L6.00977 6.39941ZM5.99023 6.60059L5.69629 6.54059C5.67777 6.63135 5.59664 6.7 5.5 6.7V7V7.3C5.88678 7.3 6.20964 7.02575 6.28417 6.66058L5.99023 6.60059ZM5.5 7V6.7H2.5V7V7.3H5.5V7ZM2.5 7V6.7C2.40336 6.7 2.32223 6.63135 2.30371 6.54059L2.00977 6.60059L1.71583 6.66058C1.79036 7.02575 2.11322 7.3 2.5 7.3V7ZM2.00977 6.60059L2.30836 6.5716L2.28883 6.37042L1.99023 6.39941L1.69164 6.4284L1.71117 6.62958L2.00977 6.60059ZM1.99023 6.39941L2.28417 6.33942C2.22023 6.0261 1.9739 5.77977 1.66058 5.71583L1.60059 6.00977L1.54059 6.30371C1.61827 6.31956 1.68044 6.38173 1.69629 6.4594L1.99023 6.39941ZM1.60059 6.00977L1.62958 5.71117L1.4284 5.69164L1.39941 5.99023L1.37042 6.28883L1.5716 6.30836L1.60059 6.00977ZM1.39941 5.99023L1.45941 5.69629C1.36865 5.67777 1.3 5.59664 1.3 5.5L1 5.5L0.7 5.5C0.7 5.88678 0.974246 6.20964 1.33942 6.28417L1.39941 5.99023ZM1 5.5H1.3V2H1H0.7V5.5H1ZM1 2H1.3C1.3 1.6134 1.6134 1.3 2 1.3L2 1L2 0.7C1.28203 0.7 0.7 1.28203 0.7 2H1ZM2 1V1.3H6V1V0.7H2V1ZM14 1V1.3C14.3866 1.3 14.7 1.6134 14.7 2H15H15.3C15.3 1.28203 14.718 0.7 14 0.7V1ZM15 2H14.7V5.5H15H15.3V2H15ZM15 5.5H14.7C14.7 5.59664 14.6314 5.67777 14.5406 5.69629L14.6006 5.99023L14.6606 6.28417C15.0258 6.20965 15.3 5.88678 15.3 5.5H15ZM14.6006 5.99023L14.5716 5.69164L14.3704 5.71117L14.3994 6.00977L14.4284 6.30836L14.6296 6.28883L14.6006 5.99023ZM14.3994 6.00977L14.3394 5.71583C14.0261 5.77977 13.7798 6.0261 13.7158 6.33942L14.0098 6.39941L14.3037 6.45941C14.3196 6.38173 14.3817 6.31956 14.4594 6.30371L14.3994 6.00977ZM14.0098 6.39941L13.7112 6.37042L13.6916 6.5716L13.9902 6.60059L14.2888 6.62958L14.3084 6.4284L14.0098 6.39941ZM13.9902 6.60059L13.6963 6.54059C13.6778 6.63135 13.5966 6.7 13.5 6.7V7V7.3C13.8868 7.3 14.2096 7.02575 14.2842 6.66058L13.9902 6.60059ZM13.5 7V6.7H10.5V7V7.3H13.5V7ZM10.5 7V6.7C10.4034 6.7 10.3222 6.63135 10.3037 6.54059L10.0098 6.60059L9.71583 6.66058C9.79035 7.02575 10.1132 7.3 10.5 7.3V7ZM10.0098 6.60059L10.3084 6.5716L10.2888 6.37042L9.99023 6.39941L9.69164 6.4284L9.71117 6.62958L10.0098 6.60059ZM9.99023 6.39941L10.2842 6.33942C10.2202 6.0261 9.9739 5.77977 9.66058 5.71583L9.60059 6.00977L9.5406 6.30371C9.61827 6.31956 9.68044 6.38173 9.69629 6.4594L9.99023 6.39941ZM9.60059 6.00977L9.62958 5.71117L9.4284 5.69164L9.39941 5.99023L9.37042 6.28883L9.5716 6.30836L9.60059 6.00977ZM9.39941 5.99023L9.4594 5.69629C9.36865 5.67777 9.3 5.59664 9.3 5.5L9 5.5L8.7 5.5C8.7 5.88678 8.97425 6.20964 9.33942 6.28417L9.39941 5.99023ZM9 5.5H9.3V2H9H8.7V5.5H9ZM9 2H9.3C9.3 1.6134 9.6134 1.3 10 1.3V1V0.7C9.28203 0.7 8.7 1.28203 8.7 2H9ZM10 1V1.3H14V1V0.7H10V1Z" fill="#294F69"/>
<path d="M5.5 10.4824C5.77604 10.4824 5.99984 10.7064 6 10.9824C6 11.2586 5.77614 11.4824 5.5 11.4824H2.5C2.22386 11.4824 2 11.2586 2 10.9824C2.00016 10.7064 2.22396 10.4824 2.5 10.4824H5.5ZM13.5 10.4824C13.776 10.4824 13.9998 10.7064 14 10.9824C14 11.2586 13.7761 11.4824 13.5 11.4824H10.5C10.2239 11.4824 10 11.2586 10 10.9824C10.0002 10.7064 10.224 10.4824 10.5 10.4824H13.5ZM5.5 4.51758C5.77614 4.51758 6 4.74144 6 5.01758C5.99984 5.29358 5.77604 5.51758 5.5 5.51758H2.5C2.22396 5.51758 2.00017 5.29358 2 5.01758C2 4.74144 2.22386 4.51758 2.5 4.51758H5.5ZM13.5 4.51758C13.7761 4.51758 14 4.74144 14 5.01758C13.9998 5.29358 13.776 5.51758 13.5 5.51758H10.5C10.224 5.51758 10.0002 5.29358 10 5.01758C10 4.74144 10.2239 4.51758 10.5 4.51758H13.5Z" fill="white"/>
</svg>
