<svg width="16" height="16" viewBox="0 0 16 16" fill="none" xmlns="http://www.w3.org/2000/svg">
<mask id="mask0_1742_1694" style="mask-type:alpha" maskUnits="userSpaceOnUse" x="0" y="0" width="16" height="16">
<rect width="16" height="16" fill="#D9D9D9"/>
</mask>
<g mask="url(#mask0_1742_1694)">
<path d="M13.0642 11.876H13.8302C14.5592 11.876 15.1422 11.29 15.1422 10.567V6.22601C15.1393 5.50401 14.5493 4.91801 13.8302 4.91801H4.58722C4.56723 4.91801 4.56622 4.91801 4.56622 4.91801C4.38821 4.01901 4.01822 3.33701 3.44223 2.90001C2.33823 2.05701 0.921234 2.44001 0.857239 2.45601L1.03323 3.08601C1.05423 3.08101 2.21222 2.77501 3.05423 3.42301C3.70023 3.91701 4.03323 4.84401 4.03323 6.17501V13.3H4.68423V11.874H8.53824M14.4803 10.57C14.4803 10.927 14.1873 11.22 13.8343 11.22H4.75125C4.75125 11.22 4.75125 10.927 4.75125 10.57V6.22601C4.75125 5.86501 4.75125 5.57201 4.75125 5.57201H13.8343C14.1883 5.57201 14.4803 5.86501 14.4803 6.22601V10.57Z" fill="#294F69"/>
<path d="M14.4803 10.57C14.4803 10.927 14.1873 11.22 13.8343 11.22H4.75125C4.75125 11.22 4.75125 10.927 4.75125 10.57V6.22601C4.75125 5.86501 4.75125 5.57201 4.75125 5.57201H13.8343C14.1883 5.57201 14.4803 5.86501 14.4803 6.22601V10.57Z" fill="#08B848"/>
<path d="M7.29227 6.22601H4.74326V7.82901H7.29227V6.22601Z" fill="white"/>
<path d="M7.28824 7.53201H4.62924V8.15901H7.28824V7.53201Z" fill="#294F69"/>
</g>
</svg>
