<svg width="16" height="16" viewBox="0 0 16 16" fill="none" xmlns="http://www.w3.org/2000/svg">
<mask id="mask0_1742_1795" style="mask-type:alpha" maskUnits="userSpaceOnUse" x="0" y="0" width="16" height="16">
<rect width="16" height="16" fill="#D9D9D9"/>
</mask>
<g mask="url(#mask0_1742_1795)">
<path d="M13.0633 11.8775H13.8293C14.5583 11.8775 15.1413 11.2915 15.1413 10.5685V6.22651C15.1373 5.50551 14.5483 4.91851 13.8293 4.91851H4.58826C4.56726 4.91851 4.56726 4.91851 4.56726 4.91851C4.39227 4.01951 4.02026 3.33751 3.44327 2.90051C2.33926 2.05751 0.922272 2.44051 0.858276 2.45651L1.03827 3.08651C1.05927 3.08151 2.21326 2.77551 3.05927 3.42351C3.70526 3.91751 4.03827 4.84451 4.03827 6.17451V13.2995H4.68628V11.8755H8.54028M14.4793 10.5715C14.4793 10.9285 14.1863 11.2215 13.8333 11.2215H4.75027C4.75027 11.2215 4.75027 10.9285 4.75027 10.5715V6.22651C4.75027 5.86651 4.75027 5.57351 4.75027 5.57351H13.8323C14.1863 5.57351 14.4783 5.86651 14.4783 6.22651L14.4793 10.5715Z" fill="#71919E"/>
<path d="M14.4793 10.5715C14.4793 10.9285 14.1863 11.2215 13.8333 11.2215H4.75027C4.75027 11.2215 4.75027 10.9285 4.75027 10.5715V6.22651C4.75027 5.86651 4.75027 5.57351 4.75027 5.57351H13.8323C14.1863 5.57351 14.4783 5.86651 14.4783 6.22651L14.4793 10.5715Z" fill="#ACC1C6"/>
<path d="M7.29129 6.22651H4.74228V7.83051H7.29129V6.22651Z" fill="white"/>
<path d="M7.28726 7.53351H4.62726V8.16051H7.28726V7.53351Z" fill="#71919E"/>
</g>
</svg>
