<svg width="16" height="16" viewBox="0 0 16 16" fill="none" xmlns="http://www.w3.org/2000/svg">
<mask id="mask0_1742_1804" style="mask-type:alpha" maskUnits="userSpaceOnUse" x="0" y="0" width="16" height="16">
<rect width="16" height="16" fill="#D9D9D9"/>
</mask>
<g mask="url(#mask0_1742_1804)">
<path d="M14.7444 12.5639L8.94446 1.86386C8.74445 1.46385 8.34445 1.26385 7.94446 1.26385C7.54446 1.26385 7.14447 1.46385 6.94446 1.86386L1.04446 12.6639C0.944458 12.8639 0.944458 13.0639 0.944458 13.2639C0.944458 13.9639 1.44446 14.4639 2.14447 14.4639H13.8445C14.4445 14.4639 15.0445 13.8639 15.0445 13.2639C14.9445 12.9639 14.8445 12.7639 14.7444 12.5639Z" fill="white" stroke="#FF9C00" stroke-width="0.9579" stroke-miterlimit="10"/>
<path d="M14.1445 7.24243C13.9444 7.14243 13.6445 7.24243 13.5445 7.44243C13.5445 7.44243 13.4444 7.64243 13.3444 7.84243L10.8444 4.24243C11.1444 4.14243 11.3444 4.14243 11.3444 4.14243C11.9444 4.14243 11.8444 3.24243 11.2444 3.24243C11.2444 3.24243 7.64443 3.54243 7.44445 8.54243C7.24443 8.44243 7.04445 8.44243 6.74443 8.44243C2.74443 7.74243 0.84444 10.0424 0.744434 10.1424C0.34444 10.5424 1.04442 11.1424 1.44445 10.7424C1.44445 10.7424 1.64446 10.5424 1.94445 10.3424L4.84444 14.4424C4.54445 14.6424 4.34444 14.7424 4.34444 14.7424C3.84444 14.9424 4.14443 15.7424 4.64443 15.5424C4.74443 15.4424 7.84444 14.2424 8.24443 9.74243C11.7444 10.7424 13.8444 9.24243 14.4444 7.84243C14.5445 7.54243 14.4444 7.24243 14.1445 7.24243ZM6.94445 11.3424L5.44445 9.14243C6.04445 9.14243 6.74443 9.24243 7.34444 9.44243C7.24443 10.1424 7.14446 10.7424 6.94445 11.3424ZM4.34444 9.24243L6.54445 12.3424C6.14446 13.0424 5.74446 13.5424 5.44445 13.7424L2.64446 9.74243C3.24443 9.34243 4.04445 9.24243 4.34444 9.24243ZM8.44445 6.94243L9.94445 9.04243C9.44445 9.04243 8.84444 8.84243 8.14446 8.64243C8.24443 8.14243 8.34444 7.54243 8.44445 6.94243ZM11.0445 9.04243L8.84444 5.94243C9.14443 5.34243 9.44445 4.94243 9.94445 4.64243L12.6445 8.44243C12.0445 8.94243 11.3444 9.04243 11.0445 9.04243Z" fill="#294F69"/>
</g>
</svg>
