<svg width="16" height="16" viewBox="0 0 16 16" fill="none" xmlns="http://www.w3.org/2000/svg">
<path d="M8 1C10.1 1 11.9725 1.93625 13.25 3.3975C13.25 3.3975 13.6875 4.0625 13.25 4.5C12.8125 4.9375 11.9025 4.5 11.9025 4.5C10.94 3.4325 9.54875 2.75 8 2.75C5.10375 2.75 2.75 5.10375 2.75 8C2.75 10.2837 4.21125 12.2087 6.25 12.9263V12.9175C6.80125 13.1187 7.37875 13.25 8 13.25C10.8962 13.25 13.25 10.8962 13.25 8C13.25 7.51875 13.6438 7.125 14.125 7.125C14.6062 7.125 15 7.51875 15 8C15 11.8675 11.8675 15 8 15C7.7025 15 7.41375 14.9738 7.125 14.9388C7.1075 14.9388 7.09 14.93 7.0725 14.93C3.6425 14.475 1 11.5525 1 8C1 4.1325 4.1325 1 8 1Z" fill="#0083E0"/>
</svg>
