<svg width="16" height="16" viewBox="0 0 16 16" fill="none" xmlns="http://www.w3.org/2000/svg">
<mask id="mask0_1742_2009" style="mask-type:alpha" maskUnits="userSpaceOnUse" x="0" y="0" width="16" height="16">
<rect width="16" height="16" fill="#D9D9D9"/>
</mask>
<g mask="url(#mask0_1742_2009)">
<path d="M9.83911 12.248H10.9711V2.11205H1.73615V14.6691H9.83911V12.248Z" fill="#E8F0F5"/>
<path d="M11.0092 2.41608V12.2891H11.9472V1.94408C11.9472 1.68408 11.7352 1.47308 11.4682 1.47308H9.69421V0.781082C9.69421 0.521082 9.47723 0.309082 9.21521 0.309082C8.94922 0.309082 8.73621 0.520082 8.73621 0.781082V1.47308H7.04822V0.781082C7.04822 0.521082 6.83624 0.309082 6.56921 0.309082C6.3042 0.309082 6.09021 0.520082 6.09021 0.781082V1.47308H4.40222V0.781082C4.40222 0.521082 4.19025 0.309082 3.92322 0.309082C3.66119 0.309082 3.44623 0.520082 3.44623 0.781082V1.47308H1.6712C1.40521 1.47308 1.1922 1.68408 1.1922 1.94508V14.1981C1.1922 14.4581 1.40521 14.6691 1.6712 14.6691H9.8512L9.83911 13.7281H2.13513V2.41608" fill="#486A7F"/>
<path d="M8.38715 5.58099H3.86713C3.55115 5.58099 3.28711 5.84099 3.28711 6.15999C3.28711 6.47999 3.55109 6.73899 3.86713 6.73899H8.38715C8.70312 6.73899 8.96716 6.47999 8.96716 6.15999C8.96912 5.83999 8.70813 5.58099 8.38715 5.58099Z" fill="#486A7F"/>
<path d="M7.40015 8.149H3.87915C3.56018 8.149 3.30017 8.409 3.30017 8.727C3.30017 9.039 3.56018 9.309 3.87915 9.309H7.40015C7.71216 9.309 7.97113 9.038 7.97113 8.727C7.97113 8.409 7.72015 8.149 7.40015 8.149Z" fill="#486A7F"/>
<path d="M13.6014 9.05095C12.084 7.53972 9.63202 7.54139 8.1225 9.05095C6.60956 10.5644 6.60956 13.0147 8.1225 14.5271C9.63544 16.04 12.0873 16.04 13.6014 14.5282C15.1137 13.0158 15.1137 10.5633 13.6014 9.05095Z" fill="#08B848"/>
<path d="M10.1628 12.736V13.8983C10.1628 13.9726 10.2129 14.0389 10.2792 14.0704C10.3455 14.102 10.4247 14.0931 10.4813 14.0526L12.8519 11.9463C12.9021 11.9091 12.9247 11.8533 12.9247 11.7943C12.9247 11.7353 12.9037 11.6804 12.8519 11.6424L10.4773 9.5328C10.4191 9.48512 10.3358 9.47784 10.2727 9.51098C10.2073 9.5417 10.1571 9.60878 10.1571 9.68314V10.8155C10.1685 11.6796 10.1685 11.7879 10.1628 12.736Z" fill="white"/>
</g>
</svg>
