<svg width="16" height="16" viewBox="0 0 16 16" fill="none" xmlns="http://www.w3.org/2000/svg">
<mask id="mask0_1742_2941" style="mask-type:alpha" maskUnits="userSpaceOnUse" x="0" y="0" width="16" height="16">
<rect width="16" height="16" fill="#D9D9D9"/>
</mask>
<g mask="url(#mask0_1742_2941)">
<path d="M9.97937 12.248H11.1115V2.11206H1.87646V14.6691H9.97937V12.248Z" fill="#E8F0F5"/>
<path d="M11.1495 2.41608V12.2891H12.0875V1.94408C12.0875 1.68408 11.8756 1.47308 11.6085 1.47308H9.83459V0.781082C9.83459 0.521082 9.61755 0.309082 9.35559 0.309082C9.08948 0.309082 8.87659 0.520082 8.87659 0.781082V1.47308H7.1886V0.781082C7.1886 0.521082 6.97656 0.309082 6.70959 0.309082C6.44446 0.309082 6.23059 0.520082 6.23059 0.781082V1.47308H4.5426V0.781082C4.5426 0.521082 4.33057 0.309082 4.0636 0.309082C3.80151 0.309082 3.58655 0.520082 3.58655 0.781082V1.47308H1.81152C1.54553 1.47308 1.33252 1.68408 1.33252 1.94508V14.1981C1.33252 14.4581 1.54553 14.6691 1.81152 14.6691H9.99158L9.97937 13.7281H2.27551V2.41608" fill="#486A7F"/>
<path d="M8.52747 5.58008H4.00745C3.69153 5.58008 3.42737 5.84008 3.42737 6.15908C3.42737 6.47908 3.69141 6.73808 4.00745 6.73808H8.52747C8.84338 6.73808 9.10754 6.47908 9.10754 6.15908C9.1095 5.83908 8.84851 5.58008 8.52747 5.58008Z" fill="#486A7F"/>
<path d="M6.78809 8.14809H4.01941C3.70056 8.14809 3.44055 8.40809 3.44055 8.72609C3.44055 9.03809 3.70056 9.30809 4.01941 9.30809H6.78809C7.1001 9.30809 7.35913 9.03709 7.35913 8.72609C7.35913 8.40809 7.10815 8.14809 6.78809 8.14809Z" fill="#486A7F"/>
<path d="M13.9727 9.05097C12.4554 7.53973 10.0034 7.5414 8.49384 9.05097C6.9809 10.5644 6.9809 13.0147 8.49384 14.5271C10.0068 16.04 12.4587 16.04 13.9727 14.5282C15.485 13.0159 15.485 10.5633 13.9727 9.05097Z" fill="#08B848"/>
<path d="M13.5555 10.563L13.1293 10.158C13.0665 10.102 12.999 10.074 12.9159 10.074C12.8314 10.074 12.7598 10.1026 12.7024 10.158L10.6412 12.1149L9.71594 11.2358C9.65442 11.1793 9.58752 11.1519 9.50256 11.1519C9.41626 11.1519 9.34753 11.1799 9.28906 11.2358L8.86292 11.6402C8.80017 11.6962 8.7749 11.7642 8.7749 11.8424C8.7749 11.9213 8.80322 11.9892 8.86292 12.0446L9.99988 13.1236L10.4272 13.5286C10.49 13.5874 10.5581 13.612 10.6412 13.612C10.7245 13.612 10.7963 13.584 10.8547 13.5286L11.2827 13.1236L13.556 10.9697C13.6157 10.9131 13.644 10.8457 13.644 10.7669C13.6453 10.6852 13.6151 10.6184 13.5555 10.563Z" fill="white"/>
</g>
</svg>
