<svg width="16" height="16" viewBox="0 0 16 16" fill="none" xmlns="http://www.w3.org/2000/svg">
<mask id="mask0_1742_2131" style="mask-type:alpha" maskUnits="userSpaceOnUse" x="0" y="0" width="16" height="16">
<rect width="16" height="16" fill="#D9D9D9"/>
</mask>
<g mask="url(#mask0_1742_2131)">
<path d="M12.4556 4.179H3.54462C2.92361 4.179 2.41962 4.68399 2.41962 5.30399V10.582C2.41962 11.205 2.92262 11.707 3.54462 11.707H12.4556C13.0736 11.707 13.5806 11.205 13.5806 10.582V5.30399C13.5796 4.68399 13.0736 4.179 12.4556 4.179Z" fill="#E8F0F5"/>
<path d="M12.4556 4.179H3.54462C2.92361 4.179 2.41962 4.68399 2.41962 5.30399V10.582C2.41962 11.205 2.92262 11.707 3.54462 11.707H12.4556C13.0736 11.707 13.5806 11.205 13.5806 10.582V5.30399C13.5796 4.68399 13.0736 4.179 12.4556 4.179Z" fill="#ACC1C6"/>
<path d="M6.37862 9.227H4.56662C4.26962 9.227 4.03162 8.998 4.03162 8.694C4.03162 8.402 4.26962 8.17099 4.56662 8.17099H6.37862C6.68661 8.17099 6.91461 8.411 6.91461 8.694C6.91461 8.991 6.67561 9.227 6.37862 9.227Z" fill="white"/>
<path d="M7.7056 7.02199H4.5596C4.2626 7.02199 4.0246 6.78299 4.0246 6.48599C4.0246 6.19099 4.2626 5.95199 4.5596 5.95199H7.7056C8.0006 5.95199 8.23759 6.19099 8.23759 6.48599C8.23759 6.78399 8.0006 7.02199 7.7056 7.02199Z" fill="white"/>
<path d="M10.0636 1.96799L7.6256 4.41799C7.5176 4.55499 7.56361 4.66599 7.7396 4.66599H8.7606C8.9396 4.66599 9.07859 4.81299 9.07859 4.99299L9.08859 6.82599V7.67799H9.09058C9.09258 7.85699 9.23658 8.00299 9.40958 8.00299H11.1326C11.3156 8.00299 11.4526 7.85699 11.4526 7.67699L11.4476 5.03099V4.99299C11.4486 4.81399 11.5936 4.66699 11.7736 4.66699H12.7946C12.9786 4.66699 13.0236 4.55599 12.9036 4.41899L10.4706 1.96899C10.3726 1.83199 10.1806 1.832 10.0636 1.96799Z" fill="#08B848"/>
</g>
</svg>
