<svg width="16" height="16" viewBox="0 0 16 16" fill="none" xmlns="http://www.w3.org/2000/svg">
<mask id="mask0_1742_2157" style="mask-type:alpha" maskUnits="userSpaceOnUse" x="0" y="0" width="16" height="16">
<rect width="16" height="16" fill="#D9D9D9"/>
</mask>
<g mask="url(#mask0_1742_2157)">
<path d="M12.4564 4.17902H3.54436C2.92336 4.17902 2.42136 4.68301 2.42136 5.30401V10.582C2.42136 11.203 2.92236 11.707 3.54436 11.707H12.4564C13.0744 11.707 13.5794 11.203 13.5794 10.582V5.30401C13.5794 4.68301 13.0744 4.17902 12.4564 4.17902Z" fill="#E8F0F5"/>
<path d="M12.4564 4.17902H3.54436C2.92336 4.17902 2.42136 4.68301 2.42136 5.30401V10.582C2.42136 11.203 2.92236 11.707 3.54436 11.707H12.4564C13.0744 11.707 13.5794 11.203 13.5794 10.582V5.30401C13.5794 4.68301 13.0744 4.17902 12.4564 4.17902Z" fill="#ACC1C6"/>
<path d="M6.38037 9.22702H4.56837C4.27237 9.22702 4.03137 8.99802 4.03137 8.69402C4.03137 8.40202 4.27237 8.17101 4.56837 8.17101H6.38037C6.67638 8.17101 6.91637 8.41002 6.91637 8.69402C6.91638 8.98702 6.67638 9.22702 6.38037 9.22702Z" fill="white"/>
<path d="M7.70537 7.02201H4.55937C4.26337 7.02201 4.02237 6.78201 4.02237 6.48601C4.02237 6.19001 4.26337 5.95201 4.55937 5.95201H7.70537C8.00037 5.95201 8.23837 6.19001 8.23837 6.48601C8.23836 6.78301 8.00037 7.02201 7.70537 7.02201Z" fill="white"/>
<path d="M10.0644 14.03L7.62636 11.581C7.51937 11.442 7.56437 11.333 7.74137 11.333H8.76236C8.94136 11.333 9.07836 11.187 9.07836 11.005L9.08635 9.17302V8.31902H9.09235C9.09536 8.14001 9.23835 7.99401 9.41034 7.99401H11.1323C11.3153 7.99401 11.4524 8.14101 11.4524 8.31902L11.4473 10.967V11.004C11.4473 11.184 11.5933 11.33 11.7743 11.33H12.7953C12.9793 11.33 13.0243 11.435 12.9053 11.578L10.4723 14.023C10.3734 14.167 10.1804 14.167 10.0644 14.03Z" fill="#08B848"/>
</g>
</svg>
