<svg width="16" height="16" viewBox="0 0 16 16" fill="none" xmlns="http://www.w3.org/2000/svg">
<mask id="mask0_1742_2177" style="mask-type:alpha" maskUnits="userSpaceOnUse" x="0" y="0" width="16" height="16">
<rect width="16" height="16" fill="#D9D9D9"/>
</mask>
<g mask="url(#mask0_1742_2177)">
<path d="M12.4549 4.17902H3.5439C2.9229 4.17902 2.4209 4.68401 2.4209 5.30401V10.582C2.4209 11.205 2.9229 11.707 3.5439 11.707H12.4549C13.0749 11.707 13.5799 11.205 13.5799 10.582V5.30401C13.5769 4.68401 13.0749 4.17902 12.4549 4.17902Z" fill="#E8F0F5"/>
<path d="M12.4549 4.17902H3.5439C2.9229 4.17902 2.4209 4.68401 2.4209 5.30401V10.582C2.4209 11.205 2.9229 11.707 3.5439 11.707H12.4549C13.0749 11.707 13.5799 11.205 13.5799 10.582V5.30401C13.5769 4.68401 13.0749 4.17902 12.4549 4.17902Z" fill="#ACC1C6"/>
<path d="M6.37987 9.22702H4.56686C4.27187 9.22702 4.03186 8.99802 4.03186 8.69402C4.03186 8.40202 4.27187 8.17101 4.56686 8.17101H6.37987C6.67487 8.17101 6.91487 8.41002 6.91487 8.69402C6.91487 8.98702 6.67487 9.22702 6.37987 9.22702Z" fill="white"/>
<path d="M7.70493 7.02201H4.55893C4.26393 7.02201 4.02393 6.78301 4.02393 6.48601C4.02393 6.19101 4.26393 5.95201 4.55893 5.95201H7.70493C8.00093 5.95201 8.23692 6.19101 8.23692 6.48601C8.23692 6.78401 8.00093 7.02201 7.70493 7.02201Z" fill="white"/>
<path d="M10.5699 14.03L13.0019 11.583C13.1159 11.442 13.0649 11.333 12.8969 11.333H11.8759C11.6959 11.333 11.5509 11.187 11.5509 11.007L11.5479 9.17302V8.32202H11.5459C11.5429 8.14201 11.3999 7.99701 11.2189 7.99701H9.50393C9.32192 7.99701 9.17792 8.14301 9.17792 8.32202L9.18592 10.969V11.006C9.18592 11.187 9.03992 11.33 8.86492 11.33H7.84392C7.66292 11.33 7.61492 11.436 7.73493 11.58L10.1709 14.024C10.2629 14.167 10.4519 14.167 10.5699 14.03Z" fill="#08B848"/>
<path d="M7.13788 14.254C7.13788 14.221 7.15887 14.192 7.19987 14.192H13.5119C13.5389 14.192 13.5739 14.221 13.5739 14.254V15.354C13.5739 15.389 13.5469 15.418 13.5119 15.418H7.19987C7.16588 15.418 7.13788 15.389 7.13788 15.354V14.254Z" fill="#08B848"/>
</g>
</svg>
