<svg width="16" height="16" viewBox="0 0 16 16" fill="none" xmlns="http://www.w3.org/2000/svg">
<mask id="mask0_1742_2341" style="mask-type:alpha" maskUnits="userSpaceOnUse" x="0" y="0" width="16" height="16">
<rect width="16" height="16" fill="#D9D9D9"/>
</mask>
<g mask="url(#mask0_1742_2341)">
<path d="M11.3025 12.6095L14.1615 9.7135C14.3006 9.5685 14.2395 9.4215 14.0275 9.4215H12.8295C12.6205 9.4215 12.4455 9.2495 12.4455 9.0345L12.4395 6.8785V5.8765H12.4345C12.4345 5.6655 12.2625 5.4925 12.0504 5.4925H10.0294C9.81545 5.4925 9.63345 5.6655 9.63345 5.8775L9.65139 8.9935V9.0405C9.65139 9.2515 9.46536 9.4235 9.2554 9.4235H8.06741C7.84438 9.4235 7.79641 9.57051 7.92141 9.7155L10.7754 12.6115C10.9356 12.7705 11.1635 12.7705 11.3025 12.6095Z" fill="#7295A3"/>
<path d="M12.4635 4.8125C12.4635 5.0135 12.3235 5.1775 12.1515 5.1775H9.94446C9.77051 5.1775 9.63245 5.0135 9.63245 4.8125C9.63245 4.6105 9.77246 4.4465 9.94446 4.4465H12.1515C12.3235 4.4465 12.4635 4.6105 12.4635 4.8125Z" fill="#7295A3"/>
<path d="M12.4635 3.7405C12.4635 3.9415 12.3235 4.1055 12.1515 4.1055H9.94446C9.77051 4.1055 9.63245 3.9415 9.63245 3.7405C9.63245 3.5385 9.77246 3.3745 9.94446 3.3745H12.1515C12.3235 3.3745 12.4635 3.5385 12.4635 3.7405Z" fill="#7295A3"/>
<path d="M4.69747 3.3905L1.83846 6.2865C1.69943 6.4325 1.76046 6.5785 1.9725 6.5785H3.17049C3.37948 6.5785 3.55355 6.7515 3.55355 6.9665L3.55758 9.1225V10.1235H3.56356C3.56356 10.3345 3.73751 10.5075 3.94955 10.5075H5.96957C6.18258 10.5075 6.36556 10.3345 6.36556 10.1225L6.34457 7.0075V6.9605C6.34457 6.7495 6.53256 6.5765 6.74056 6.5765H7.92855C8.1545 6.5765 8.19955 6.4305 8.07455 6.2845L5.21957 3.3885C5.05746 3.2295 4.83651 3.2295 4.69747 3.3905Z" fill="#486A7F"/>
<path d="M3.5365 11.1875C3.5365 10.9865 3.67651 10.8225 3.84851 10.8225H6.05652C6.22949 10.8225 6.36853 10.9865 6.36853 11.1875C6.36853 11.3885 6.22559 11.5505 6.05652 11.5505H3.84851C3.67651 11.5555 3.5365 11.3915 3.5365 11.1875Z" fill="#486A7F"/>
<path d="M3.5365 12.2625C3.5365 12.0615 3.67651 11.8975 3.84851 11.8975H6.05652C6.22949 11.8975 6.36853 12.0615 6.36853 12.2625C6.36853 12.4625 6.22559 12.6265 6.05652 12.6265H3.84851C3.67651 12.6265 3.5365 12.4625 3.5365 12.2625Z" fill="#486A7F"/>
</g>
</svg>
