<svg width="16" height="16" viewBox="0 0 16 16" fill="none" xmlns="http://www.w3.org/2000/svg">
<mask id="mask0_1742_1958" style="mask-type:alpha" maskUnits="userSpaceOnUse" x="0" y="0" width="16" height="16">
<path d="M16 0H0V16H16V0Z" fill="#F0C4CC"/>
</mask>
<g mask="url(#mask0_1742_1958)">
<path fill-rule="evenodd" clip-rule="evenodd" d="M14.4468 1H9.94689C9.67075 1 9.4469 1.22386 9.4469 1.49999C9.4469 1.77613 9.67075 1.99999 9.94689 1.99999H13.2397L6.59344 8.6463L7.30054 9.35339L13.9468 2.70708V5.99993C13.9468 6.27607 14.1707 6.49993 14.4468 6.49993C14.7229 6.49993 14.9468 6.27607 14.9468 5.99993V1.49999C14.9468 1.22386 14.7229 1 14.4468 1ZM2 3.99996H9.82579L8.82581 4.99995H2.99999V12.9998H10.9999V7.06842L11.9999 6.06843V13.9998H2V3.99996Z" fill="#447DB8"/>
</g>
</svg>
