<svg width="16" height="16" viewBox="0 0 16 16" fill="none" xmlns="http://www.w3.org/2000/svg">
<mask id="mask0_1742_2788" style="mask-type:alpha" maskUnits="userSpaceOnUse" x="0" y="0" width="16" height="16">
<rect width="16" height="16" fill="#D9D9D9"/>
</mask>
<g mask="url(#mask0_1742_2788)">
<path d="M11.7792 3.79663L9.03217 1.07163C8.88416 0.938631 8.75818 0.996631 8.75818 1.19763V2.33963C8.75818 2.53963 8.58716 2.70463 8.38416 2.70463L6.33514 2.70763H5.37012V2.71263C5.17413 2.71263 5.01111 2.87663 5.01111 3.07863V5.00163C5.01111 5.20463 5.17413 5.36763 5.37213 5.36763L8.34412 5.36263H8.38715C8.58417 5.36263 8.75012 5.52763 8.75012 5.72763V6.87063C8.75012 7.07163 8.88409 7.12863 9.02612 6.99763L11.7791 4.28063C11.9341 4.14163 11.9341 3.92863 11.7792 3.79663Z" fill="#08B848"/>
<path d="M1.11411 7.70262L3.86009 4.97862C4.00608 4.84562 4.13108 4.90462 4.13108 5.11862V6.24962C4.13108 6.45062 4.29411 6.61462 4.4921 6.61462L6.5521 6.62862H7.50608V6.63462C7.70408 6.63462 7.86906 6.79662 7.86906 6.99762V8.92362C7.86906 9.12662 7.70506 9.28862 7.50608 9.28862L4.53709 9.28062H4.49406C4.29508 9.28462 4.13108 9.44862 4.13108 9.64562V10.7806C4.13108 10.9836 4.0051 11.0386 3.86009 10.9156L1.11308 8.19262C0.962136 8.05062 0.962136 7.83162 1.11411 7.70262Z" fill="#08B848"/>
<path d="M13.8749 8.06269C12.2827 6.47685 9.7096 6.4786 8.12555 8.06269C6.53792 9.65086 6.53792 12.2222 8.12555 13.8092C9.71319 15.3967 12.2861 15.3967 13.8749 13.8103C15.4619 12.2233 15.4619 9.64969 13.8749 8.06269Z" fill="#294F69"/>
<path d="M13.4372 9.64937L12.9898 9.2244C12.924 9.16566 12.8532 9.13629 12.7659 9.13629C12.6773 9.13629 12.6021 9.16626 12.5419 9.2244L10.379 11.2779L9.408 10.3554C9.34344 10.2961 9.27324 10.2673 9.18409 10.2673C9.09352 10.2673 9.0214 10.2967 8.96005 10.3554L8.51286 10.7798C8.44702 10.8386 8.4205 10.9099 8.4205 10.992C8.4205 11.0747 8.45022 11.146 8.51286 11.2042L9.70595 12.3364L10.1544 12.7614C10.2203 12.8231 10.2917 12.8489 10.379 12.8489C10.4663 12.8489 10.5417 12.8195 10.603 12.7614L11.0521 12.3364L13.4377 10.0761C13.5003 10.0168 13.53 9.94606 13.53 9.86335C13.5313 9.77763 13.4997 9.70751 13.4372 9.64937Z" fill="white"/>
</g>
</svg>
