<svg width="16" height="16" viewBox="0 0 16 16" fill="none" xmlns="http://www.w3.org/2000/svg">
<path d="M3.19774 1H1.93289L1.91786 1.20541C1.91343 1.26596 1.8976 1.3038 1.87904 1.32949L1.87824 1.3306C1.8593 1.35716 1.82753 1.38578 1.77185 1.4113C1.72667 1.43123 1.65451 1.45059 1.54754 1.4635C1.43736 1.47679 1.32629 1.48344 1.21429 1.48344H1V2.50659H1.82056V3.93637H1V5H4V3.93637H3.19774V1Z" fill="#2865AA"/>
<path d="M5 2V4L15 4V2L5 2Z" fill="#2865AA"/>
<path d="M5 12V14H15V12H5Z" fill="#2865AA"/>
<path d="M5 9V7L15 7V9L5 9Z" fill="#2865AA"/>
<path d="M2.36837 6C2.15653 6 1.93851 6.02721 1.71474 6.08041C1.50175 6.12954 1.32959 6.18111 1.20974 6.23798L1.08462 6.29736V7.42351H1.42982L1.60958 7.30409C1.65349 7.27492 1.71019 7.24393 1.78146 7.21179C1.85445 7.18111 1.92508 7.15638 1.99337 7.1373C2.05394 7.12078 2.11993 7.11199 2.19209 7.11199C2.33271 7.11199 2.41197 7.14711 2.45826 7.18877L2.45971 7.19005C2.49843 7.22428 2.53016 7.27994 2.53016 7.39335C2.53016 7.49378 2.50383 7.5951 2.44441 7.70025C2.38036 7.81356 2.27031 7.95623 2.10563 8.1294C1.97916 8.26141 1.83036 8.4029 1.6602 8.55261C1.49153 8.70235 1.29974 8.86204 1.08458 9.03172L1 9.09842V10H4V8.89738H2.9187C2.99511 8.82869 3.07242 8.7558 3.15062 8.67874L3.15201 8.67734C3.38733 8.44121 3.56659 8.20967 3.67825 7.98354C3.78944 7.75657 3.84722 7.52007 3.84722 7.27624C3.84722 6.88758 3.7195 6.561 3.44786 6.32769C3.18115 6.09724 2.80961 6 2.36837 6Z" fill="#2865AA"/>
<path d="M2.41739 11C2.19099 11 1.96829 11.0254 1.74962 11.0763C1.54243 11.1235 1.36884 11.1748 1.23355 11.2319L1.10006 11.2882V12.3912H1.44252L1.49138 12.3628C1.52209 12.3449 1.57211 12.3173 1.64305 12.2794L1.6461 12.2777C1.70944 12.2424 1.76788 12.2151 1.82155 12.1949C1.89646 12.1676 1.97365 12.145 2.05319 12.1271C2.12761 12.1104 2.19927 12.1024 2.26846 12.1024C2.31007 12.1024 2.36475 12.106 2.43401 12.1146C2.48933 12.1214 2.53076 12.1341 2.56152 12.149C2.57912 12.1582 2.59309 12.1702 2.60532 12.1868L2.60677 12.1887L2.60732 12.1904C2.60839 12.1941 2.61034 12.2031 2.61034 12.2194C2.61034 12.2794 2.59804 12.2992 2.59652 12.3014L2.594 12.3052C2.58492 12.319 2.56995 12.3343 2.54057 12.3484C2.50383 12.3643 2.45165 12.3783 2.37978 12.3857C2.2996 12.394 2.20986 12.3984 2.11021 12.3984H1.75863V13.4434H2.12185C2.19843 13.4434 2.28786 13.4449 2.39037 13.4479C2.47954 13.4506 2.54663 13.4629 2.59572 13.48L2.59937 13.4812C2.64026 13.4946 2.664 13.513 2.6798 13.5323L2.68176 13.5346C2.68176 13.5346 2.68271 13.5358 2.68387 13.538C2.68506 13.5404 2.68686 13.5444 2.68874 13.5509C2.69261 13.5641 2.69644 13.5862 2.69644 13.6201C2.69644 13.7027 2.68252 13.7365 2.6779 13.7445L2.67689 13.7463C2.66223 13.7723 2.64207 13.7955 2.61349 13.8162L2.6125 13.8169C2.57897 13.8415 2.52985 13.8632 2.457 13.8746C2.36774 13.8871 2.28718 13.893 2.21493 13.893C2.10165 13.893 1.96782 13.8696 1.81139 13.8169C1.65309 13.763 1.51948 13.7007 1.40863 13.6315L1.35762 13.5996H1V14.7075L1.12824 14.7658C1.26655 14.8287 1.43821 14.8822 1.63824 14.9283C1.85161 14.9771 2.09983 15 2.38016 15C2.63082 15 2.85353 14.9735 3.04364 14.9152L3.04479 14.9149C3.23206 14.8563 3.39985 14.771 3.5451 14.6569L3.54615 14.6561C3.69297 14.5392 3.80674 14.3949 3.88396 14.2242C3.96238 14.0542 4 13.8692 4 13.6728C4 13.5165 3.9721 13.3689 3.90721 13.238C3.85086 13.1199 3.77621 13.0176 3.68128 12.9362C3.64676 12.9058 3.61108 12.878 3.57425 12.8531C3.61532 12.8155 3.65371 12.774 3.68926 12.7284C3.83587 12.541 3.90924 12.3208 3.90924 12.0773C3.90924 11.9047 3.87238 11.7425 3.79415 11.5963C3.71476 11.4463 3.5976 11.3273 3.45103 11.2377C3.32016 11.1557 3.16861 11.0972 2.9997 11.0582C2.82959 11.0184 2.63461 11 2.41739 11Z" fill="#2865AA"/>
</svg>
