<svg width="16" height="16" viewBox="0 0 16 16" fill="none" xmlns="http://www.w3.org/2000/svg">
<mask id="mask0_1742_2432" style="mask-type:alpha" maskUnits="userSpaceOnUse" x="0" y="0" width="16" height="16">
<rect width="16" height="16" fill="#D9D9D9"/>
</mask>
<g mask="url(#mask0_1742_2432)">
<path d="M13.9 4.25H2.09998C1.59998 4.25 1.19995 3.85001 1.19995 3.35001V2.75001C1.19995 2.25001 1.59998 1.85001 2.09998 1.85001H13.9C14.4 1.85001 14.8 2.25001 14.8 2.75001V3.45001C14.8 3.85001 14.4 4.25 13.9 4.25Z" fill="#95CBE7"/>
<path d="M13.9 9.25001H2.09998C1.59998 9.25001 1.19995 8.85001 1.19995 8.35001V7.75001C1.19995 7.25001 1.59998 6.85001 2.09998 6.85001H13.9C14.4 6.85001 14.8 7.25001 14.8 7.75001V8.45001C14.8 8.85001 14.4 9.25001 13.9 9.25001Z" fill="#95CBE7"/>
<path d="M13.9 14.15H2.09998C1.59998 14.15 1.19995 13.75 1.19995 13.25V12.55C1.19995 12.05 1.59998 11.65 2.09998 11.65H13.9C14.4 11.65 14.8 12.05 14.8 12.55V13.25C14.8 13.85 14.4 14.15 13.9 14.15Z" fill="#95CBE7"/>
</g>
</svg>
