<svg width="16" height="16" viewBox="0 0 16 16" fill="none" xmlns="http://www.w3.org/2000/svg">
<mask id="mask0_1742_2123" style="mask-type:alpha" maskUnits="userSpaceOnUse" x="0" y="0" width="16" height="16">
<rect width="16" height="16" fill="#D9D9D9"/>
</mask>
<g mask="url(#mask0_1742_2123)">
<path d="M4.59998 0.500001C2.29999 0.500001 0.5 2.3 0.5 4.6V11.4C0.5 13.7 2.29999 15.5 4.59998 15.5H11.4C13.7 15.5 15.4999 13.7 15.4999 11.4V4.6C15.4999 2.3 13.7 0.5 11.4 0.5L4.59998 0.500001Z" fill="#7295A3"/>
<path d="M11.4 5.8C12.3 5.8 12.9 6.3 12.9999 7H12.2999C12.2 6.6 11.8999 6.4 11.3999 6.4C10.8999 6.4 10.4999 6.7 10.4999 7C10.4999 7.3 10.6999 7.5 11.2999 7.6L11.7999 7.7C12.7 8.00001 13.1 8.40001 13.1 9.00001C13.1 9.80001 12.5 10.3 11.4 10.3C10.4 10.3 9.79999 9.80001 9.69995 9.00001H10.4C10.4999 9.40001 10.9 9.70001 11.4 9.70001C11.9 9.70001 12.3 9.40001 12.3 9.00001C12.3 8.70001 12.1 8.50001 11.5 8.30001L10.9 8.20001C10.1 8.00001 9.75488 7.61918 9.79999 7C9.82544 6.3486 10.5 5.8 11.4 5.8Z" fill="white"/>
<path d="M7 5.8C5.79999 5.8 5 6.7 5 8.10001C5 9.50001 5.79999 10.4 7 10.4C8.29999 10.4 9 9.50001 9 8.10001C9.09998 6.7 8.29999 5.8 7 5.8ZM7.00415 9.75512C6.20416 9.75512 5.70416 9.13445 5.70416 8.10001C5.70416 7.06556 6.20416 6.44489 7.00415 6.44489C7.80414 6.44489 8.30414 7.06556 8.30414 8.10001C8.31317 9.12725 7.90411 9.75512 7.00415 9.75512Z" fill="white"/>
<path d="M3.79993 7H3.19995V10.3H3.79993V7Z" fill="white"/>
<path d="M3.49994 6.40002C3.72087 6.40002 3.89996 6.22093 3.89996 6C3.89996 5.77907 3.72087 5.59998 3.49994 5.59998C3.27901 5.59998 3.09991 5.77907 3.09991 6C3.09991 6.22093 3.27901 6.40002 3.49994 6.40002Z" fill="white"/>
</g>
</svg>
