<svg width="16" height="16" viewBox="0 0 16 16" fill="none" xmlns="http://www.w3.org/2000/svg">
<mask id="mask0_1742_2144" style="mask-type:alpha" maskUnits="userSpaceOnUse" x="0" y="0" width="16" height="16">
<rect width="16" height="16" fill="#D9D9D9"/>
</mask>
<g mask="url(#mask0_1742_2144)">
<path d="M13.3989 12.0722C13.3987 12.0721 13.3989 12.0724 13.3989 12.0722C13.2992 11.9597 13.2514 11.7505 13.2003 11.5282C13.1493 11.3061 13.0923 11.0665 12.9099 10.9112C12.9095 10.9108 12.9091 10.9106 12.9087 10.9102C12.8726 10.8787 12.8354 10.8521 12.7982 10.8298C12.7607 10.8076 12.7228 10.7896 12.6848 10.7753C12.9383 10.0235 12.839 9.27465 12.5829 8.59821C12.2689 7.76778 11.7206 7.04428 11.3018 6.54942C10.833 5.95804 10.3746 5.39675 10.3836 4.56758C10.3976 3.30226 10.5227 0.955701 8.29602 0.952578C8.2055 0.952474 8.11096 0.956222 8.01257 0.964135C5.52423 1.16435 6.18432 3.79337 6.14734 4.67356C6.10174 5.31741 5.97131 5.82477 5.5285 6.45404C5.00842 7.07249 4.27588 8.07368 3.92907 9.11598C3.76538 9.60772 3.6875 10.109 3.75933 10.5836C3.73687 10.6038 3.71551 10.625 3.69494 10.6467C3.54229 10.8098 3.42944 11.0073 3.30377 11.1403C3.18621 11.2576 3.01898 11.3021 2.8349 11.368C2.65094 11.434 2.44897 11.5314 2.32641 11.7666C2.32617 11.7669 2.32592 11.7676 2.32556 11.7679C2.26788 11.8756 2.24914 11.9918 2.24914 12.1095C2.24914 12.2185 2.26519 12.3289 2.28155 12.4352C2.31536 12.6563 2.34973 12.8655 2.30413 13.0072C2.15869 13.4053 2.13983 13.6805 2.24237 13.8803C2.34527 14.0805 2.55639 14.1687 2.79516 14.2187C3.27264 14.3182 3.91931 14.2935 4.42871 14.5637C4.97424 14.849 5.52789 14.9504 5.96899 14.8496C6.28906 14.7766 6.5487 14.5861 6.68213 14.2929C7.02722 14.2913 7.40588 14.1451 8.01257 14.1117C8.42413 14.0785 8.93829 14.2579 9.52966 14.225C9.54504 14.2892 9.56744 14.3509 9.59808 14.4095C9.59838 14.4101 9.59869 14.4107 9.599 14.4112C9.82824 14.8696 10.2541 15.0793 10.7081 15.0435C11.1626 15.0077 11.6458 14.7397 12.0367 14.2749C12.4091 13.8234 13.0274 13.6355 13.4374 13.3884C13.6422 13.2648 13.8084 13.1101 13.8214 12.8853C13.8341 12.6607 13.7022 12.4089 13.3989 12.0722Z" fill="#202020"/>
<path d="M13.6343 12.8746C13.6265 13.0133 13.5261 13.1163 13.3405 13.2281C12.9699 13.4516 12.3128 13.6462 11.8933 14.1544C11.5288 14.588 11.0845 14.8261 10.6933 14.8571C10.3021 14.8879 9.9646 14.7256 9.76545 14.3262L9.76471 14.3243C9.64112 14.0893 9.69251 13.7188 9.79657 13.3278C9.90058 12.9368 10.0501 12.5353 10.0701 12.2091C10.0911 11.7911 10.1146 11.425 10.1848 11.1432C10.2551 10.8614 10.3657 10.6708 10.5616 10.5635C10.5707 10.5586 10.5798 10.5538 10.5889 10.5494C10.611 10.9114 10.7903 11.2808 11.1071 11.3605C11.4537 11.4519 11.9534 11.1545 12.1644 10.9119C12.2066 10.9102 12.2477 10.908 12.2876 10.9071C12.4728 10.9026 12.6279 10.9134 12.7866 11.052L12.7877 11.0529C12.9096 11.1562 12.9676 11.3514 13.0179 11.5699C13.0682 11.7887 13.1082 12.0267 13.2591 12.1965C13.5491 12.518 13.6425 12.7358 13.6343 12.8746Z" fill="#FFCD00"/>
<path d="M6.58946 13.8996L6.58934 13.9018C6.55583 14.341 6.30803 14.5803 5.92748 14.6672C5.54723 14.7542 5.03148 14.6675 4.51653 14.3983C4.51628 14.3983 4.51671 14.3983 4.51653 14.3983C3.9467 14.0965 3.26836 14.1263 2.83348 14.0354C2.61607 13.99 2.47405 13.9217 2.40898 13.7949C2.34404 13.6679 2.34245 13.4466 2.48082 13.0691L2.48143 13.0675L2.48198 13.0658C2.55046 12.8547 2.4998 12.6236 2.46654 12.4068C2.43334 12.1901 2.4171 11.9927 2.49114 11.8554L2.49187 11.854C2.58659 11.6713 2.72569 11.6059 2.89812 11.5442C3.07085 11.4822 3.27544 11.4336 3.43694 11.2716L3.43797 11.2706L3.43883 11.2699C3.58812 11.1123 3.70036 10.9147 3.83165 10.7745C3.94243 10.6562 4.05327 10.5778 4.22038 10.5766C4.2224 10.5768 4.22417 10.5768 4.22612 10.5766C4.25536 10.5768 4.28642 10.5793 4.31932 10.5844C4.54118 10.6179 4.73454 10.773 4.92088 11.0257L5.45885 12.0061C5.60185 12.305 5.90477 12.6347 6.16087 12.97C6.41716 13.3053 6.61528 13.6419 6.58946 13.8996Z" fill="#FFCD00"/>
<path d="M9.27243 4.75952C9.22921 4.67488 9.1409 4.5944 8.99075 4.53276C8.67837 4.39897 8.54202 4.38918 8.36776 4.2758C8.08389 4.09339 7.84945 4.02946 7.65457 4.0303C7.55252 4.03061 7.46133 4.04873 7.37967 4.07694C7.1423 4.15867 6.98465 4.32901 6.88595 4.4225C6.88595 4.42229 6.88595 4.4226 6.88595 4.4225C6.86648 4.44093 6.84121 4.45821 6.78073 4.50257C6.71981 4.54702 6.62838 4.61407 6.49698 4.71267C6.38015 4.80023 6.34219 4.91434 6.38266 5.04792C6.42288 5.1815 6.55172 5.3356 6.78738 5.46886C6.93356 5.55476 7.03433 5.67116 7.14895 5.7633C7.20633 5.80932 7.26663 5.85045 7.33926 5.88147C7.41183 5.9125 7.49673 5.93353 7.60281 5.93978C7.85183 5.95425 8.03531 5.8795 8.19711 5.78683C8.35928 5.69427 8.49661 5.5811 8.65426 5.52998C8.97732 5.42909 9.20834 5.22554 9.28042 5.03241C9.31656 4.93579 9.31552 4.84417 9.27243 4.75952Z" fill="#FFCD00"/>
<path d="M8.45276 5.23636C8.1958 5.37036 7.89551 5.53278 7.57623 5.53278C7.2569 5.53278 7.0047 5.38525 6.82336 5.24147C6.73254 5.16963 6.65894 5.0982 6.60346 5.04625C6.50714 4.97024 6.51862 4.86353 6.55817 4.86665C6.62457 4.87498 6.63458 4.96233 6.67633 5.00137C6.73285 5.05427 6.80377 5.12277 6.88947 5.19087C7.06104 5.32674 7.2898 5.45896 7.57623 5.45896C7.86212 5.45896 8.1958 5.29113 8.39954 5.17691C8.51489 5.11215 8.6618 4.99607 8.78168 4.90809C8.87341 4.84083 8.87006 4.75972 8.94574 4.76857C9.02142 4.77742 8.96545 4.85832 8.85944 4.95088C8.75336 5.04333 8.58746 5.16609 8.45276 5.23636Z" fill="#202020"/>
<path d="M12.3881 10.7205C12.3523 10.7191 12.3173 10.7193 12.283 10.7202C12.2799 10.7203 12.2768 10.7203 12.2736 10.7203C12.3618 10.4416 12.1666 10.236 11.6464 10.0007C11.1069 9.76354 10.677 9.78696 10.6044 10.2684C10.5998 10.2936 10.5961 10.3193 10.5933 10.3453C10.5529 10.3595 10.5124 10.3772 10.4717 10.3994C10.2185 10.5381 10.0801 10.7895 10.0032 11.0981C9.92644 11.4063 9.90429 11.7788 9.88323 12.1977C9.87023 12.4082 9.7835 12.6934 9.69585 12.9951C8.81212 13.6255 7.58574 13.8986 6.54424 13.1878C6.47375 13.0762 6.39275 12.9656 6.3095 12.8565C6.25628 12.7868 6.20153 12.7177 6.14739 12.6493C6.25408 12.6495 6.34496 12.6319 6.41851 12.5987C6.50982 12.5572 6.57384 12.4907 6.6057 12.4054C6.66918 12.2346 6.6054 11.9937 6.40215 11.7185C6.1989 11.4434 5.85467 11.1331 5.34893 10.8228C4.97722 10.5916 4.76958 10.3082 4.67223 10.0006C4.57488 9.69284 4.58843 9.36009 4.66363 9.03171C4.80749 8.40118 5.17724 7.78794 5.41314 7.40313C5.47655 7.35648 5.43584 7.48996 5.17418 7.97566C4.93993 8.41961 4.5017 9.44421 5.10161 10.2441C5.11767 9.67494 5.25365 9.09449 5.48186 8.55142C5.8142 7.79804 6.50945 6.49128 6.56469 5.44981C6.59331 5.47053 6.69103 5.53654 6.73455 5.56142C6.7343 5.56142 6.73467 5.56153 6.73455 5.56142C6.86205 5.63649 6.95824 5.74644 7.0822 5.84618C7.20666 5.94603 7.36187 6.03234 7.59655 6.04598C7.61901 6.04723 7.6411 6.04796 7.66259 6.04796C7.90453 6.04796 8.09307 5.96904 8.25017 5.87919C8.42095 5.78153 8.5573 5.67345 8.68664 5.63139C8.68651 5.63139 8.68676 5.63118 8.68664 5.63139C8.95995 5.54602 9.17742 5.39463 9.30089 5.21847C9.51324 6.05514 10.0068 7.26372 10.3241 7.85343C10.4928 8.16619 10.8284 8.83108 10.9733 9.63204C11.0652 9.62923 11.1665 9.64255 11.2746 9.67035C11.6537 8.68761 10.9532 7.62927 10.6329 7.33451C10.5036 7.20895 10.4973 7.15273 10.5616 7.15533C10.9089 7.46279 11.3652 8.08072 11.5312 8.77839C11.6069 9.09657 11.623 9.4311 11.5419 9.76125C11.5814 9.77759 11.6219 9.7955 11.6628 9.81497C12.2712 10.1112 12.4961 10.3689 12.3881 10.7205Z" fill="white"/>
<path d="M9.30098 3.79568C9.30233 3.96143 9.2737 4.10261 9.21077 4.2467C9.17501 4.32885 9.13375 4.39788 9.08419 4.45764C9.0674 4.44962 9.05007 4.44192 9.032 4.43453C8.96938 4.40777 8.91408 4.3857 8.8644 4.36696C8.81472 4.34822 8.77602 4.33551 8.73617 4.32167C8.7651 4.28668 8.82204 4.24545 8.84328 4.19371C8.87545 4.11562 8.89113 4.03941 8.89419 3.94852C8.89419 3.94487 8.89535 3.94175 8.89535 3.93748C8.89718 3.85044 8.88564 3.776 8.86025 3.69979C8.83358 3.61972 8.79976 3.56225 8.75069 3.51436C8.70168 3.46657 8.65261 3.44491 8.59383 3.44293C8.59102 3.44272 8.5884 3.44272 8.58559 3.44272C8.53042 3.44293 8.48238 3.46199 8.43282 3.50342C8.3807 3.54694 8.34206 3.60265 8.3099 3.68021C8.27779 3.75778 8.26211 3.83462 8.25899 3.92603C8.25844 3.92957 8.25844 3.93269 8.25844 3.93634C8.25728 3.98662 8.26064 4.03264 8.26833 4.07731C8.15529 4.02098 8.01064 3.97985 7.91073 3.95601C7.90499 3.91281 7.90175 3.86835 7.90072 3.8216V3.809C7.89895 3.64367 7.92598 3.50186 7.98964 3.35797C8.05324 3.21388 8.13186 3.11028 8.24264 3.02605C8.35354 2.94193 8.46254 2.9033 8.59151 2.90195H8.59755C8.72378 2.90195 8.83169 2.93912 8.94259 3.01949C9.05514 3.10133 9.13637 3.20347 9.20174 3.34642C9.26589 3.48583 9.29671 3.62201 9.29982 3.78349C9.29982 3.78776 9.29983 3.79141 9.30098 3.79568Z" fill="white"/>
<path d="M7.3936 3.96081C7.37706 3.9656 7.36089 3.9706 7.34496 3.97611C7.25463 4.00735 7.18285 4.04171 7.11351 4.08762C7.12029 4.03962 7.1212 3.991 7.11589 3.93655C7.11553 3.93364 7.11553 3.93114 7.11553 3.92822C7.1082 3.85607 7.09288 3.79558 7.06749 3.73446C7.04033 3.67095 7.00994 3.62608 6.97008 3.59151C6.93395 3.56028 6.89965 3.54581 6.86199 3.54622C6.85814 3.54622 6.85418 3.54633 6.85033 3.54664C6.80797 3.55028 6.77275 3.571 6.73931 3.61161C6.7061 3.652 6.68438 3.70229 6.66851 3.76903C6.65282 3.83556 6.64867 3.90094 6.6552 3.97601C6.6552 3.97903 6.65593 3.98142 6.65593 3.98444C6.66314 4.05722 6.67778 4.11771 6.70372 4.17883C6.73027 4.24171 6.76122 4.28659 6.8012 4.32105C6.80797 4.32688 6.8145 4.33209 6.82097 4.33667C6.77965 4.36873 6.75182 4.39143 6.71758 4.41642C6.69573 4.43235 6.66979 4.4514 6.63958 4.47379C6.57366 4.41194 6.52227 4.33448 6.47728 4.23203C6.42394 4.11115 6.39556 3.99007 6.38701 3.84712V3.84597C6.37908 3.70302 6.39318 3.58006 6.43242 3.45293C6.47173 3.32571 6.52434 3.23377 6.60076 3.15818C6.67705 3.08239 6.7539 3.04428 6.84667 3.03949C6.85387 3.03918 6.86095 3.03897 6.86803 3.03897C6.95195 3.03918 7.02691 3.06708 7.10448 3.12903C7.18847 3.19629 7.25213 3.28219 7.30541 3.40327C7.35881 3.52436 7.38714 3.64544 7.39507 3.7884V3.78954C7.39891 3.84951 7.39837 3.90605 7.3936 3.96081Z" fill="white"/>
<path d="M7.81518 4.30273C7.8258 4.33688 7.8808 4.33115 7.91253 4.3476C7.94049 4.36197 7.96283 4.39341 7.9942 4.39425C8.02405 4.39518 8.07074 4.38394 8.07458 4.35426C8.07977 4.31501 8.02252 4.29013 7.98565 4.27576C7.93829 4.25733 7.8775 4.24796 7.83301 4.27264C7.82281 4.27836 7.81164 4.29159 7.81518 4.30273Z" fill="#202020"/>
<path d="M7.4905 4.30273C7.47988 4.33688 7.42489 4.33115 7.39303 4.3476C7.3652 4.36197 7.34286 4.39341 7.31143 4.39425C7.28152 4.39518 7.23495 4.38394 7.2311 4.35426C7.22592 4.31501 7.28317 4.29013 7.32003 4.27576C7.36739 4.25733 7.42812 4.24796 7.47268 4.27264C7.48275 4.27836 7.49392 4.29159 7.4905 4.30273Z" fill="#202020"/>
</g>
</svg>
