<svg width="16" height="16" viewBox="0 0 16 16" fill="none" xmlns="http://www.w3.org/2000/svg">
<mask id="mask0_1742_1722" style="mask-type:alpha" maskUnits="userSpaceOnUse" x="0" y="0" width="16" height="16">
<rect width="16" height="16" fill="#D9D9D9"/>
</mask>
<g mask="url(#mask0_1742_1722)">
<path d="M8.43298 2.76025C8.28699 2.65325 8.08801 2.61125 7.91199 2.64725L4.34998 3.33625C4.06097 3.39325 3.84998 3.62725 3.84998 3.89225V7.12324C3.84998 7.43724 4.13495 7.69224 4.49298 7.69224H8.05298C8.40295 7.69224 8.68201 7.43724 8.68201 7.12324V3.20225C8.66602 3.03025 8.58197 2.87025 8.43298 2.76025Z" fill="#009AD5"/>
<path d="M14.474 8.30125H9.97198C9.61798 8.30125 9.33997 8.55725 9.33997 8.86925V12.9732C9.33997 13.2442 9.55096 13.4732 9.83496 13.5352L14.34 14.4062C14.3849 14.4182 14.429 14.4222 14.4739 14.4222C14.6199 14.4222 14.7509 14.3772 14.8699 14.2952C15.0159 14.1912 15.0989 14.0242 15.0989 13.8572V8.87425C15.1 8.55725 14.82 8.30125 14.474 8.30125Z" fill="#009AD5"/>
<path d="M14.867 1.70425C14.721 1.59725 14.513 1.55425 14.343 1.59025L9.84302 2.46425C9.55499 2.51925 9.34601 2.75325 9.34601 3.02125V7.12525C9.34601 7.43925 9.62299 7.69425 9.97699 7.69425H14.479C14.833 7.69425 15.106 7.43925 15.106 7.12525V2.14525C15.1 1.97325 15.016 1.81025 14.867 1.70425Z" fill="#009AD5"/>
<path d="M8.03699 8.30125H4.47498C4.12097 8.30125 3.84198 8.55725 3.84198 8.86925V12.0982C3.84198 12.3692 4.05298 12.6002 4.34198 12.6602L7.89496 13.3482C7.95398 13.3582 7.99896 13.3672 8.04095 13.3672C8.18695 13.3672 8.31195 13.3152 8.43695 13.2402C8.58295 13.1342 8.66595 12.9692 8.66595 12.8002V8.87025C8.66602 8.55725 8.38098 8.30125 8.03699 8.30125Z" fill="#009AD5"/>
<path d="M1.82196 6.64525C1.82196 6.54825 1.88397 6.47025 1.96796 6.47025H6.02997C6.11798 6.47025 6.185 6.54825 6.185 6.64525V12.8143H1.79297L1.82196 6.64525Z" fill="#E8F0F5"/>
<path d="M6.04401 5.73425H1.98199C1.383 5.73425 0.893982 6.22325 0.893982 6.82425V12.8962C0.893982 13.4982 1.383 13.9882 1.98199 13.9882H6.04401C6.64801 13.9882 7.13898 13.4982 7.13898 12.8962V6.82525C7.13599 6.22425 6.64099 5.73425 6.04401 5.73425ZM1.82196 6.82525C1.82196 6.73725 1.88397 6.66725 1.96796 6.66725H6.02997C6.11798 6.66725 6.185 6.73725 6.185 6.82525V12.4673H1.79297L1.82196 6.82525ZM4.01599 13.5703C3.87 13.5703 3.745 13.4842 3.68201 13.3613C3.66101 13.3103 3.63898 13.2543 3.63898 13.1933C3.63898 12.9843 3.80701 12.8143 4.01599 12.8143C4.22498 12.8143 4.39301 12.9843 4.39301 13.1933C4.39301 13.2543 4.37201 13.3102 4.34998 13.3613C4.28296 13.4842 4.16199 13.5703 4.01599 13.5703Z" fill="#294F69"/>
</g>
</svg>
