<svg width="16" height="16" viewBox="0 0 16 16" fill="none" xmlns="http://www.w3.org/2000/svg">
<mask id="mask0_1742_3086" style="mask-type:alpha" maskUnits="userSpaceOnUse" x="0" y="0" width="16" height="16">
<rect width="16" height="16" fill="#D9D9D9"/>
</mask>
<g mask="url(#mask0_1742_3086)">
<path d="M9.625 2.10571H1.62109V12.804H9.625V2.10571Z" fill="#E8F0F5"/>
<path d="M10.0366 1.36824L1.54736 1.36737C1.31274 1.36737 1.13232 1.55022 1.13232 1.77641V12.3958C1.13232 12.6211 1.3186 12.804 1.54736 12.804H10.0151C10.25 12.804 10.4302 12.6211 10.4302 12.3958V1.77641C10.4431 1.55109 10.2622 1.36824 10.0366 1.36824ZM9.62329 11.9885H1.95044V2.18545L9.64258 2.18545V11.9885L9.62329 11.9885Z" fill="#486A7F"/>
<path d="M8.18066 8.3474H3.27319C3.04639 8.3474 2.85791 8.53387 2.85791 8.76266C2.85791 8.99217 3.04639 9.17793 3.27319 9.17793H8.18066C8.40723 9.17793 8.59595 8.99217 8.59595 8.76266C8.59961 8.53387 8.41455 8.3474 8.18066 8.3474Z" fill="#486A7F"/>
<path d="M8.18066 6.61305H3.27319C3.04639 6.61305 2.85791 6.79953 2.85791 7.02832C2.85791 7.25783 3.04639 7.44359 3.27319 7.44359H8.18066C8.40723 7.44359 8.59595 7.25783 8.59595 7.02832C8.59961 6.79953 8.41455 6.61305 8.18066 6.61305Z" fill="#486A7F"/>
<path d="M8.0166 3.35497H6.20679C5.98291 3.35497 5.79639 3.54144 5.79639 3.77023C5.79639 3.99974 5.98657 4.18765 6.20679 4.18765H8.0166C8.24023 4.18765 8.43311 3.99974 8.43311 3.77023C8.43213 3.54144 8.24219 3.35497 8.0166 3.35497Z" fill="#486A7F"/>
<path d="M13.2354 8.19753C13.3594 8.28425 13.388 8.45768 13.3013 8.58335L9.6331 13.6857C9.54643 13.8164 9.35527 13.9483 9.19609 13.9999L7.4771 14.539C7.32329 14.5805 7.19927 14.5076 7.18877 14.3555L7.11919 12.6011C7.10478 12.4465 7.1812 12.2229 7.26641 12.1035L10.9346 7.02374C11.0149 6.89682 11.2049 6.87042 11.3316 6.95462L13.2354 8.19753Z" fill="#009AD5"/>
<path d="M14.5536 6.35515C14.6855 6.43936 14.7152 6.61531 14.6234 6.73721L14.109 7.4636C14.0236 7.5943 13.8376 7.62069 13.7108 7.53272L11.8122 6.24959C11.6776 6.16539 11.6559 5.98945 11.7321 5.8688L12.2504 5.14115C12.3305 5.01045 12.5087 4.98406 12.6459 5.07203L14.5536 6.35515Z" fill="#009AD5"/>
<path fill-rule="evenodd" clip-rule="evenodd" d="M11.1464 7.0987C11.117 7.10349 11.1021 7.11668 11.0962 7.12597L11.0899 7.13587L7.42203 12.2145C7.39415 12.2537 7.36153 12.32 7.33806 12.3957C7.31414 12.4729 7.30556 12.5405 7.30955 12.5834L7.3105 12.5935L7.37967 14.3444C7.38028 14.3513 7.38142 14.3556 7.38225 14.358C7.38748 14.3594 7.40057 14.3612 7.42424 14.3552L9.138 13.8177C9.19564 13.799 9.26562 13.7631 9.3311 13.7166C9.39787 13.6692 9.44765 13.6194 9.47379 13.58L9.47778 13.574L13.1447 8.47367C13.1725 8.43211 13.1606 8.37998 13.1276 8.35543L11.2258 7.11385C11.206 7.10067 11.1763 7.09383 11.1464 7.0987ZM11.4366 6.79488C11.2373 6.66304 10.925 6.68916 10.7767 6.91591L7.11143 11.9915L7.1108 11.9924C7.05353 12.0726 7.00521 12.1781 6.97285 12.2825C6.94139 12.384 6.91919 12.5031 6.92835 12.6133L6.99775 14.3631L6.99806 14.3687C7.00694 14.4974 7.06763 14.6134 7.17826 14.6822C7.28501 14.7486 7.41174 14.7546 7.52688 14.7236L9.25331 14.1823L9.25498 14.1818C9.35637 14.1489 9.46124 14.0932 9.5525 14.0283C9.64169 13.965 9.72977 13.8846 9.79025 13.7946L13.4566 8.69494L13.4587 8.69188C13.6028 8.48298 13.5584 8.19006 13.345 8.04085L11.4366 6.79488Z" fill="white"/>
<path fill-rule="evenodd" clip-rule="evenodd" d="M12.4581 5.21317C12.4358 5.21689 12.4218 5.22733 12.4134 5.24102L12.4065 5.25233L11.8918 5.97409C11.8814 5.99246 11.8771 6.01621 11.8812 6.03847C11.8851 6.05998 11.8958 6.0764 11.9136 6.08754L11.9193 6.09109L13.8199 7.37567C13.84 7.38966 13.8675 7.39592 13.8946 7.39149C13.9209 7.38718 13.939 7.37439 13.949 7.35898L13.9529 7.35304L14.4707 6.62216C14.4959 6.58868 14.4881 6.54015 14.4507 6.51627L14.4469 6.51383L12.5413 5.23207C12.5118 5.21364 12.4813 5.2093 12.4581 5.21317ZM12.0913 5.03494C12.24 4.80061 12.5427 4.77873 12.7491 4.91109L12.7526 4.91336L14.6587 6.19542C14.8822 6.33991 14.9336 6.64012 14.7781 6.84967L14.2669 7.57156C14.1159 7.79811 13.8078 7.83188 13.6029 7.69053L11.7076 6.40963C11.4733 6.26045 11.4468 5.96251 11.5704 5.76673L11.5761 5.75771L12.0913 5.03494Z" fill="white"/>
</g>
</svg>
