<svg width="16" height="16" viewBox="0 0 16 16" fill="none" xmlns="http://www.w3.org/2000/svg">
<mask id="mask0_1742_2647" style="mask-type:alpha" maskUnits="userSpaceOnUse" x="0" y="0" width="16" height="16">
<rect width="16" height="16" fill="#D9D9D9"/>
</mask>
<g mask="url(#mask0_1742_2647)">
<path d="M11.5819 7.01935H11.3613V6.08761C11.3613 4.36505 9.90735 2.92683 8.09692 2.8945C8.04553 2.8945 7.94116 2.8945 7.90137 2.8945C6.08752 2.92683 4.62939 4.36588 4.62939 6.08761V7.01935H4.42053C4.09229 7.01935 3.82617 7.33684 3.82617 7.72727V12.3967C3.82617 12.7872 4.08813 13.1055 4.42053 13.1055H11.5835C11.9117 13.1055 12.1737 12.7814 12.1737 12.3967V7.72561C12.1713 7.33601 11.9067 7.01935 11.5819 7.01935ZM8.67053 10.0575V11.4675C8.67053 11.6233 8.52551 11.7609 8.35474 11.7609H7.64685C7.47522 11.7609 7.3219 11.625 7.3219 11.4675V10.0575C7.16431 9.90161 7.06323 9.69189 7.06323 9.45232C7.06323 9.00386 7.42627 8.62171 7.9071 8.60596C7.9585 8.60265 8.06287 8.60265 8.10278 8.60596C8.5686 8.62337 8.93909 9.00303 8.93909 9.45232C8.9342 9.69106 8.83887 9.90161 8.67053 10.0575ZM10.292 7.01935H8.09937H7.8988H5.70874V6.08761C5.70874 5.06137 6.44153 3.78065 7.99744 3.78065C9.55664 3.78065 10.2903 5.06137 10.2903 6.08761L10.292 7.01935Z" fill="#7295A3"/>
</g>
</svg>
