<svg width="16" height="16" viewBox="0 0 16 16" fill="none" xmlns="http://www.w3.org/2000/svg">
<mask id="mask0_1742_2782" style="mask-type:alpha" maskUnits="userSpaceOnUse" x="0" y="0" width="16" height="16">
<rect width="16" height="16" fill="#D9D9D9"/>
</mask>
<g mask="url(#mask0_1742_2782)">
<path d="M13.024 6.62453H12.7147V5.31765C12.7147 2.90156 10.6753 0.884274 8.13611 0.838928C8.06396 0.838928 7.91748 0.838928 7.86169 0.838928C5.31763 0.884274 3.27246 2.90272 3.27246 5.31765V6.62453H2.97937C2.51904 6.62453 2.14575 7.06984 2.14575 7.61747V14.167C2.14575 14.7146 2.51318 15.1611 2.97937 15.1611H13.0262C13.4867 15.1611 13.8541 14.7065 13.8541 14.167V7.61515C13.8507 7.06868 13.4797 6.62453 13.024 6.62453ZM8.94055 10.8858V12.8636C8.94055 13.0822 8.73718 13.2752 8.49768 13.2752H7.50464C7.26404 13.2752 7.04883 13.0845 7.04883 12.8636V10.8858C6.828 10.6672 6.68604 10.3731 6.68604 10.0371C6.68604 9.40804 7.19531 8.87203 7.86975 8.84994C7.94177 8.84529 8.08826 8.84529 8.14417 8.84994C8.79761 8.87436 9.31726 9.40687 9.31726 10.0371C9.3103 10.3719 9.17664 10.6672 8.94055 10.8858ZM11.2148 6.62453H8.13953H7.85803H4.78625V5.31765C4.78625 3.87823 5.81409 2.08186 7.99646 2.08186C10.1835 2.08186 11.2125 3.87823 11.2125 5.31765L11.2148 6.62453Z" fill="#FF9C00"/>
</g>
</svg>
