<svg width="16" height="16" viewBox="0 0 16 16" fill="none" xmlns="http://www.w3.org/2000/svg">
<mask id="mask0_1742_2212" style="mask-type:alpha" maskUnits="userSpaceOnUse" x="0" y="0" width="16" height="16">
<rect width="16" height="16" fill="#D9D9D9"/>
</mask>
<g mask="url(#mask0_1742_2212)">
<path d="M12.321 6.817H12.0551V5.693C12.0551 3.61501 10.301 1.88 8.11707 1.841C8.05505 1.841 7.92908 1.841 7.88104 1.841C5.69305 1.88 3.93402 3.616 3.93402 5.693V6.817H3.68201C3.28601 6.817 2.96503 7.2 2.96503 7.671V13.304C2.96503 13.775 3.28101 14.159 3.68201 14.159H12.323C12.719 14.159 13.035 13.768 13.035 13.304V7.669C13.032 7.199 12.713 6.817 12.321 6.817ZM8.80902 10.482V12.183C8.80902 12.371 8.63403 12.537 8.42804 12.537H7.57404C7.36707 12.537 7.18201 12.373 7.18201 12.183V10.482C6.992 10.294 6.87 10.041 6.87 9.75201C6.87 9.21101 7.30798 8.75001 7.888 8.73101C7.95001 8.72701 8.07599 8.72701 8.12402 8.73101C8.68604 8.75201 9.133 9.21001 9.133 9.75201C9.12701 10.04 9.01202 10.294 8.80902 10.482ZM10.765 6.817H8.12H7.87799H5.23602V5.693C5.23602 4.455 6.12 2.91001 7.99701 2.91001C9.87799 2.91001 10.763 4.455 10.763 5.693L10.765 6.817Z" fill="#ACC1D7"/>
</g>
</svg>
