<svg width="16" height="16" viewBox="0 0 16 16" fill="none" xmlns="http://www.w3.org/2000/svg">
<rect x="1" y="8" width="14" height="1" fill="#FF0000"/>
<path d="M1.875 13C2.456 13 2.9413 12.7352 3.29887 12.2874C3.62765 11.8757 3.81544 11.3528 3.93488 10.8614C4.07022 10.3045 4.14643 9.65649 4.19678 9H2.43927C2.3967 9.50712 2.33895 9.95489 2.24872 10.3261C2.16307 10.6785 2.07059 10.8586 2.0063 10.9392C1.97081 10.9836 1.95025 11 1.875 11C1.39175 11 1 11.4477 1 12C1 12.5523 1.39175 13 1.875 13Z" fill="#294F69"/>
<path d="M5.45689 9C5.49177 9.94162 5.56298 10.9049 5.75495 11.7027C5.88628 12.2484 6.0957 12.8162 6.4613 13.2577C6.85458 13.7326 7.37909 14 8 14C9.17372 14 9.81382 13.046 10.1514 12.1428C10.4821 11.2577 10.6452 10.1298 10.7786 9.15438L10.7996 9H9.02829C8.8953 9.95782 8.76016 10.7734 8.542 11.3572C8.31899 11.954 8.13878 12 8 12C7.85529 12 7.7919 11.9549 7.73231 11.8829C7.64502 11.7775 7.53657 11.5641 7.44231 11.1723C7.3037 10.5963 7.24276 9.85157 7.20905 9H5.45689Z" fill="#294F69"/>
<path d="M13.7227 9H11.9669C12.0154 9.73454 12.0853 10.5431 12.2637 11.2019C12.3732 11.606 12.5471 12.0506 12.852 12.4027C13.1832 12.7851 13.6194 13 14.125 13C14.6082 13 15 12.5523 15 12C15 11.4477 14.6082 11 14.125 11C14.0894 11 14.0954 10.9961 14.0954 10.9961C14.0688 10.9654 14.0038 10.8627 13.9355 10.6106C13.8247 10.2016 13.7691 9.65654 13.7227 9Z" fill="#294F69"/>
<g opacity="0.3">
<path d="M2.50464 8C2.51422 7.81949 2.52334 7.63416 2.53256 7.44453L2.53614 7.37075C2.58802 6.30163 2.64692 5.08766 2.87759 4.13861C2.99702 3.64722 3.18482 3.12427 3.51359 2.71259C3.87117 2.26484 4.35646 2 4.93746 2C5.5562 2 6.05025 2.31799 6.38872 2.81712C6.69395 3.26722 6.85337 3.83208 6.94935 4.35855C7.12436 5.31863 7.14967 6.54313 7.17287 7.66587L7.17938 7.97501C7.17956 7.98335 7.17974 7.99168 7.17993 8H5.42939L5.42444 7.77006C5.39899 6.57907 5.37675 5.53785 5.23613 4.76645C5.1612 4.35542 5.07112 4.13903 5.0055 4.04226C4.97644 3.99941 4.97496 3.99943 4.94785 3.99989L4.93746 4C4.86222 4 4.84165 4.01641 4.80616 4.06085C4.74187 4.14135 4.64939 4.32153 4.56375 4.67389C4.38959 5.39044 4.33642 6.3922 4.27987 7.55547L4.27629 7.62925C4.27037 7.75115 4.26437 7.87494 4.25802 8H2.50464Z" fill="#294F69"/>
<path d="M9.16498 8H10.9393C11.0218 7.44774 11.1091 6.96661 11.2269 6.57508C11.322 6.25871 11.4109 6.09705 11.469 6.02595C11.4952 5.99379 11.497 5.99655 11.4985 5.99888L11.5 6C11.5356 6 11.5296 6.0039 11.5296 6.0039C11.5562 6.03462 11.6212 6.13729 11.6895 6.38943C11.8002 6.7984 11.8559 7.34346 11.9023 8H13.6581C13.6095 7.26546 13.5397 6.45686 13.3612 5.79807C13.2518 5.39396 13.0779 4.9494 12.773 4.59731C12.4418 4.21494 12.0055 4 11.5 4C10.9566 4 10.5139 4.2641 10.1894 4.66155C9.89029 5.02795 9.70233 5.49129 9.5719 5.92492C9.38807 6.53609 9.26675 7.27852 9.16498 8Z" fill="#294F69"/>
</g>
</svg>
