<svg width="16" height="16" viewBox="0 0 16 16" fill="none" xmlns="http://www.w3.org/2000/svg">
<mask id="mask0_1742_2564" style="mask-type:alpha" maskUnits="userSpaceOnUse" x="0" y="0" width="16" height="16">
<rect width="16" height="16" fill="#D9D9D9"/>
</mask>
<g mask="url(#mask0_1742_2564)">
<path d="M9.67651 2.19664H4.25476C4.11206 2.19664 3.96936 2.33932 3.96936 2.55333V9.633C3.96936 9.70433 4.11206 9.84701 4.25476 9.84701H11.7454C11.8879 9.84701 12.0306 9.70433 12.0306 9.633V4.62215C12.0306 4.47948 12.0306 4.47948 11.9594 4.40814L9.74792 2.19664C9.7478 2.26798 9.67651 2.19664 9.67651 2.19664Z" fill="#E8F0F5" stroke="#294F69" stroke-width="0.75" stroke-miterlimit="10" stroke-linecap="round" stroke-linejoin="round"/>
<path d="M9.57129 2.43268V4.64417H11.7828L9.57129 2.43268Z" fill="#294F69"/>
<path d="M14.5667 11.1839H1.43335C1.09363 11.1839 0.815674 10.9059 0.815674 10.5662V7.41278C0.815674 7.07304 1.09363 6.79507 1.43335 6.79507H14.5667C14.9064 6.79507 15.1843 7.07304 15.1843 7.41278V10.5662C15.1843 10.9059 14.9064 11.1839 14.5667 11.1839Z" fill="#294F69"/>
<path d="M3.85679 9.97202L3.40794 13.5666C3.37706 13.7402 3.57042 13.8034 3.73314 13.8034H12.2666C12.4291 13.8034 12.6245 13.8034 12.5917 13.5666L12.1432 9.97202H3.85679Z" fill="#E8F0F5" stroke="#294F69" stroke-width="0.739128" stroke-miterlimit="10"/>
<path d="M2.31763 8.78905C2.62397 8.78905 2.87231 8.54071 2.87231 8.23436C2.87231 7.92801 2.62397 7.67967 2.31763 7.67967C2.01128 7.67967 1.76294 7.92801 1.76294 8.23436C1.76294 8.54071 2.01128 8.78905 2.31763 8.78905Z" fill="#E8F0F5"/>
</g>
</svg>
