<svg width="16" height="16" viewBox="0 0 16 16" fill="none" xmlns="http://www.w3.org/2000/svg">
<mask id="mask0_1742_2535" style="mask-type:alpha" maskUnits="userSpaceOnUse" x="0" y="0" width="16" height="16">
<rect width="16" height="16" fill="#D9D9D9"/>
</mask>
<g mask="url(#mask0_1742_2535)">
<path d="M12.9262 3.07369C10.2031 0.355675 5.79828 0.358666 3.07513 3.07369C0.355164 5.79568 0.355164 10.2027 3.07513 12.9227C5.79706 15.6437 10.204 15.6437 12.9262 12.9247C15.6442 10.2047 15.6442 5.7947 12.9262 3.07369ZM11.5949 8.64376L8.29706 11.9844C8.13666 12.1701 7.87372 12.1701 7.68903 11.9867L4.39691 8.64608C4.25262 8.47879 4.30804 8.30923 4.56537 8.30923H5.93573C5.95331 8.30923 5.96869 8.30123 5.9859 8.29916L7.68903 10.0274C7.87372 10.2108 8.13666 10.2108 8.29706 10.025L10.0041 8.29586C10.0226 8.2983 10.0392 8.30697 10.0585 8.30697H11.4404C11.6849 8.30697 11.7553 8.47647 11.5949 8.64376ZM11.5949 5.10714L8.29706 8.44778C8.13666 8.63345 7.87372 8.63345 7.68903 8.45004L4.39691 5.10946C4.25262 4.94216 4.30804 4.7726 4.56537 4.7726H5.93573C5.95331 4.7726 5.96869 4.76461 5.9859 4.76253L7.68903 6.49074C7.87372 6.67415 8.13666 6.67415 8.29706 6.48842L10.0041 4.75924C10.0226 4.76168 10.0392 4.77035 10.0585 4.77035H11.4404C11.6849 4.77035 11.7553 4.93984 11.5949 5.10714Z" fill="#294F69"/>
</g>
</svg>
