<svg width="16" height="16" viewBox="0 0 16 16" fill="none" xmlns="http://www.w3.org/2000/svg">
<mask id="mask0_1742_2541" style="mask-type:alpha" maskUnits="userSpaceOnUse" x="0" y="0" width="16" height="16">
<rect width="16" height="16" fill="#D9D9D9"/>
</mask>
<g mask="url(#mask0_1742_2541)">
<path d="M12.9262 3.07369C10.2031 0.355675 5.79828 0.358666 3.07513 3.07369C0.355164 5.79568 0.355164 10.2027 3.07513 12.9227C5.79706 15.6437 10.204 15.6437 12.9262 12.9247C15.6442 10.2047 15.6442 5.7947 12.9262 3.07369ZM11.0353 7.1556H9.82416C9.61029 7.1556 9.42059 7.33095 9.42059 7.54604V7.59395L9.4389 11.8232C9.4389 12.0393 9.25336 12.2157 9.0351 12.2157H6.97504C6.75873 12.2157 6.58344 12.0393 6.58344 11.8242H6.57831V9.75002L6.5722 7.55215C6.5722 7.33303 6.39374 7.15767 6.18073 7.15767H4.95941C4.74335 7.15767 4.68109 7.00783 4.82294 6.86001L7.73749 3.90774C7.87909 3.74361 8.11151 3.74361 8.27472 3.90572L11.1841 6.85793C11.3116 7.00576 11.2626 7.1556 11.0353 7.1556Z" fill="#FF6400"/>
</g>
</svg>
