<svg width="16" height="16" viewBox="0 0 16 16" fill="none" xmlns="http://www.w3.org/2000/svg">
<mask id="mask0_1742_2465" style="mask-type:alpha" maskUnits="userSpaceOnUse" x="0" y="0" width="16" height="16">
<rect width="16" height="16" fill="#D9D9D9"/>
</mask>
<g mask="url(#mask0_1742_2465)">
<path d="M4.59998 0.500001C2.29993 0.500001 0.5 2.3 0.5 4.6V11.4C0.5 13.7 2.30005 15.5 4.59998 15.5H11.4C13.7001 15.5 15.5 13.7 15.5 11.4V4.6C15.5 2.3 13.7 0.5 11.4 0.5L4.59998 0.500001Z" fill="#294F69"/>
<path d="M7 9.60001V9.30001C6.90002 8.70001 7.09998 8.00001 7.69995 7.30001C8.19995 6.70001 8.5 6.30001 8.5 5.90001C8.5 5.40001 8.19995 5.10001 7.5 5.00001C7.09998 5.00001 6.59998 5.10001 6.30005 5.40001L5.90002 4.40001C6.30005 4.10001 7 3.90001 7.80005 3.90001C9.30005 3.90001 10 4.80001 10 5.70001C10 6.60001 9.5 7.20001 9 7.80001C8.5 8.40001 8.30005 8.80001 8.40002 9.40001V9.70001L7 9.60001ZM7.59998 12.2C7.09998 12.2 6.69995 11.8 6.69995 11.3C6.69995 10.7 7.09998 10.4 7.59998 10.4C8.09998 10.4 8.5 10.8 8.5 11.3C8.5 11.8 8.09998 12.2 7.59998 12.2Z" fill="white"/>
</g>
</svg>
