<svg width="16" height="16" viewBox="0 0 16 16" fill="none" xmlns="http://www.w3.org/2000/svg">
<mask id="mask0_1742_2035" style="mask-type:alpha" maskUnits="userSpaceOnUse" x="0" y="0" width="16" height="16">
<rect width="16" height="16" fill="#D9D9D9"/>
</mask>
<g mask="url(#mask0_1742_2035)">
<path d="M8 13.959C11.2911 13.959 13.959 11.2911 13.959 8C13.959 4.70894 11.2911 2.04102 8 2.04102C4.70894 2.04102 2.04102 4.70894 2.04102 8C2.04102 11.2911 4.70894 13.959 8 13.959Z" fill="#71919E"/>
<path d="M7.07404 9.567L7.05304 9.268C6.99103 8.631 7.19904 7.973 7.77405 7.301C8.22906 6.748 8.52808 6.328 8.52808 5.862C8.52808 5.358 8.21606 5.022 7.54907 5.01C7.12006 5.01 6.65308 5.141 6.35205 5.369L5.99603 4.314C6.43402 4.037 7.12701 3.822 7.89105 3.822C9.37006 3.822 10.061 4.685 10.061 5.644C10.061 6.507 9.54004 7.107 9.01801 7.695C8.54102 8.249 8.36499 8.74 8.37299 9.315L8.39398 9.567H7.07404ZM7.66602 12.182C7.14502 12.182 6.77002 11.774 6.77002 11.244C6.77002 10.682 7.16205 10.306 7.68201 10.306C8.22101 10.306 8.578 10.696 8.58301 11.244C8.58301 11.765 8.229 12.182 7.68201 12.182H7.66602Z" fill="white"/>
</g>
</svg>
