<svg width="16" height="16" viewBox="0 0 16 16" fill="none" xmlns="http://www.w3.org/2000/svg">
<mask id="mask0_1742_1675" style="mask-type:alpha" maskUnits="userSpaceOnUse" x="0" y="0" width="16" height="16">
<rect width="16" height="16" fill="#D9D9D9"/>
</mask>
<g mask="url(#mask0_1742_1675)">
<path d="M12.4875 3.54999C9.98749 1.04999 6.08746 1.04999 3.58746 3.54999C1.08746 6.04999 1.08746 9.94999 3.58746 12.45C6.08746 14.95 9.98749 14.95 12.4875 12.45C14.8875 9.94999 14.8875 6.04999 12.4875 3.54999ZM7.6875 12.15C7.1875 12.15 6.78748 11.75 6.78748 11.25C6.78748 10.65 7.1875 10.35 7.6875 10.35C8.1875 10.35 8.58752 10.75 8.58752 11.25C8.58752 11.75 8.1875 12.15 7.6875 12.15ZM8.98749 7.64999C8.48749 8.24999 8.28748 8.64999 8.38751 9.24999V9.54999H7.08752V9.24999C6.98755 8.64999 7.28754 7.94999 7.78754 7.24999C8.28754 6.64999 8.58752 6.24999 8.58752 5.84999C8.58752 5.34999 8.28754 5.04998 7.58752 4.94999C7.1875 4.94999 6.6875 5.04998 6.38751 5.34999L5.98749 4.34999C6.38751 4.04999 7.08746 3.84999 7.88751 3.84999C9.38751 3.84999 10.0875 4.74999 10.0875 5.64998C9.98749 6.54999 9.48749 7.14999 8.98749 7.64999Z" fill="#ACC1D7"/>
</g>
</svg>
