<svg width="16" height="16" viewBox="0 0 16 16" fill="none" xmlns="http://www.w3.org/2000/svg">
<mask id="mask0_1742_2775" style="mask-type:alpha" maskUnits="userSpaceOnUse" x="0" y="0" width="16" height="16">
<rect width="16" height="16" fill="#D9D9D9"/>
</mask>
<g mask="url(#mask0_1742_2775)">
<path d="M14.621 5.26697L11.2014 1.87488C11.0173 1.70935 10.8604 1.78156 10.8604 2.03174V3.45331C10.8604 3.70227 10.6475 3.90766 10.3948 3.90766L7.84424 3.91138H6.14062V7.22247L10.345 7.21631H10.3986C10.6438 7.21631 10.8503 7.42169 10.8503 7.67065V9.09345C10.8503 9.34369 11.0171 9.41462 11.194 9.25153L14.6208 5.86945C14.8138 5.69641 14.8138 5.43128 14.621 5.26697Z" fill="#E8F0F5" stroke="#486A7F" stroke-width="0.65" stroke-miterlimit="10" stroke-linecap="round"/>
<path d="M1.37901 10.733L4.79857 14.1251C4.98265 14.2906 5.13963 14.2184 5.13963 13.9682V12.5467C5.13963 12.2977 5.35252 12.0923 5.60521 12.0923L8.15575 12.0886H9.85936V8.77751L5.65501 8.78367H5.60143C5.35619 8.78367 5.14964 8.57829 5.14964 8.32932V6.90653C5.14964 6.65628 4.98289 6.58536 4.80602 6.74845L1.37914 10.1305C1.18614 10.3036 1.18614 10.5687 1.37901 10.733Z" fill="#E8F0F5" stroke="#486A7F" stroke-width="0.65" stroke-miterlimit="10" stroke-linecap="round"/>
</g>
</svg>
