<svg width="16" height="16" viewBox="0 0 16 16" fill="none" xmlns="http://www.w3.org/2000/svg">
<mask id="mask0_1742_2901" style="mask-type:alpha" maskUnits="userSpaceOnUse" x="0" y="0" width="16" height="16">
<rect width="16" height="16" fill="#D9D9D9"/>
</mask>
<g mask="url(#mask0_1742_2901)">
<path d="M5.26794 13.0089C5.47888 12.5867 5.69006 12.1644 5.69006 11.7422C5.69006 11.1089 5.47888 10.5811 5.05652 10.1589C4.6344 9.73672 4.40662 9.82551 3.77307 9.82551C3.3512 9.82551 2.92883 9.93106 2.50671 10.2477L1.57336 9.3145L9.91199 0.975784L10.8036 1.86731C10.5924 2.28952 10.3815 2.71173 10.3815 3.13395C10.3815 3.76727 10.3344 4.03683 10.7567 4.45905C11.1788 4.88126 11.7064 5.09237 12.34 5.09237C12.7621 5.09237 13.1844 4.98681 13.6066 4.67015L14.2399 5.30347L5.90125 13.6422L5.26794 13.0089Z" fill="#E8F0F5"/>
<path d="M13.2899 3.79211L12.9898 4.09211C12.7899 4.29211 12.3897 4.49211 12.0899 4.49211C11.7899 4.49211 11.39 4.39211 11.19 4.09211C10.9901 3.79211 10.7901 3.49211 10.7901 3.19211C10.7901 2.89211 10.8902 2.49211 11.19 2.29211L11.4901 1.99211L10.0901 0.592108C9.8902 0.392108 9.59015 0.392108 9.3902 0.592108L1.19025 8.79211C0.990295 8.99211 0.990295 9.29211 1.19025 9.49211L2.59015 10.8921L2.8902 10.5921C3.09015 10.3921 3.4903 10.1921 3.7901 10.1921C4.09015 10.1921 4.49005 10.2921 4.69 10.5921C4.88995 10.7921 5.0899 11.1921 5.0899 11.4921C5.0899 11.7921 4.98981 12.1921 4.69 12.3921L4.38995 12.6921L5.78986 14.0921C5.98981 14.2921 6.28986 14.2921 6.48981 14.0921L14.6898 5.89211C14.8897 5.69211 14.8897 5.39211 14.6898 5.19211L13.2899 3.79211ZM5.48981 12.7921C5.68976 12.3921 5.88971 11.9921 5.88971 11.5921C5.88971 10.9921 5.68976 10.4921 5.28961 10.0921C4.88971 9.69211 4.38971 9.49211 3.78961 9.49211C3.38971 9.49211 2.98956 9.59211 2.58966 9.89211L1.86481 9.06707L9.76471 1.16707L10.4896 1.99211C10.2896 2.39211 10.0897 2.79211 10.0897 3.19211C10.0897 3.79211 10.2896 4.2921 10.6898 4.6921C11.0897 5.0921 11.5897 5.2921 12.1898 5.2921C12.5897 5.2921 12.9898 5.1921 13.3897 4.8921L13.9898 5.4921L6.0899 13.3921L5.48981 12.7921Z" fill="#486A7F"/>
<path d="M9.06035 5.55328L8.49463 6.119L9.06031 6.68468L9.62603 6.11896L9.06035 5.55328Z" fill="#486A7F"/>
<path d="M7.85271 4.37283L7.28699 4.93855L7.85267 5.50423L8.41839 4.93851L7.85271 4.37283Z" fill="#486A7F"/>
<path d="M10.2692 6.73381L9.70349 7.29953L10.2692 7.86521L10.8349 7.29949L10.2692 6.73381Z" fill="#486A7F"/>
<path d="M14.5674 9.12508C13.0691 7.62497 10.6353 7.62497 9.125 9.12508C7.625 10.6243 7.625 13.0656 9.125 14.5675C10.6233 16.0712 13.05 16.0712 14.5674 14.5675C16.0703 13.0656 16.0703 10.6279 14.5674 9.12508Z" fill="#FF6400"/>
<path d="M9.92993 12.4109V11.2828H13.7644V12.4109H9.92993Z" fill="#E8F0F5"/>
</g>
</svg>
