<svg width="16" height="16" viewBox="0 0 16 16" fill="none" xmlns="http://www.w3.org/2000/svg">
<path d="M2.67969 4.76589C4.31479 1.90671 7.88286 0.693987 10.958 2.05984C14.2385 3.51718 15.7169 7.35829 14.2598 10.6389C12.8025 13.9195 8.96134 15.3978 5.68066 13.9407C5.05234 13.6616 4.49009 13.2949 4.00195 12.8616C3.65634 12.5548 3.7334 12.015 4.12012 11.762C4.43193 11.5581 4.84185 11.6143 5.12891 11.8518C5.47291 12.1364 5.86103 12.3795 6.28906 12.5696C8.81275 13.6905 11.7678 12.5533 12.8887 10.0296C14.0095 7.50592 12.8722 4.55188 10.3486 3.43093C7.89898 2.3429 5.04408 3.38226 3.85352 5.75222H6.17969C6.5937 5.75245 6.92969 6.08815 6.92969 6.50222C6.92946 6.9161 6.59357 7.25199 6.17969 7.25222H2.12891C1.60447 7.25203 1.17981 6.82648 1.17969 6.30203V2.25222C1.17969 1.83801 1.51547 1.50222 1.92969 1.50222C2.3437 1.50245 2.67969 1.83815 2.67969 2.25222V4.76589Z" fill="#404952"/>
</svg>
