<svg width="16" height="16" viewBox="0 0 16 16" fill="none" xmlns="http://www.w3.org/2000/svg">
<mask id="mask0_1742_3050" style="mask-type:alpha" maskUnits="userSpaceOnUse" x="0" y="0" width="16" height="16">
<rect width="16" height="16" fill="#D9D9D9"/>
</mask>
<g mask="url(#mask0_1742_3050)">
<path d="M14.579 6.19458C14.4276 5.65192 14.2181 5.11078 13.9475 4.61548L14.4888 3.35425L12.5977 1.50763L11.3428 2.04877C10.8657 1.77972 10.3552 1.55347 9.78198 1.41742L9.30493 0.111938H6.66187L6.17261 1.41742C5.63147 1.55194 5.08887 1.7782 4.59802 2.04877L3.35669 1.50763L1.50854 3.35577L2.04968 4.617C1.77454 5.11078 1.57275 5.60608 1.41833 6.19458L0.112793 6.68683V9.34674L1.41833 9.82373C1.57727 10.3649 1.77295 10.9076 2.04968 11.3922L1.50854 12.6335L3.38733 14.4939L4.63477 13.9528C5.12988 14.2386 5.62219 14.448 6.21387 14.5826L6.69092 15.8881H9.30786L9.80322 14.5826C10.3444 14.448 10.8824 14.2325 11.364 13.9528L12.6052 14.4939L14.4917 12.6335L13.9506 11.3922C14.2379 10.9076 14.4336 10.4046 14.582 9.82373L15.8875 9.34674V6.68683L14.579 6.19458Z" fill="#009AD5"/>
<path d="M7.92346 12.8587C5.88049 12.8108 4.31702 11.4182 3.82874 10.0667C3.81506 10.0286 3.82092 9.98659 3.84338 9.95436C3.86682 9.92116 3.90393 9.90163 3.94397 9.90163L4.63245 9.90065C4.8844 9.90065 5.13635 9.9026 5.38733 9.90749C5.47327 9.90944 5.56311 9.96803 5.65393 10.0823C6.23987 10.8274 7.11487 11.2542 8.05334 11.2542C9.29065 11.2542 10.3629 10.5501 10.8531 9.4153C11.485 7.95192 10.8639 6.23317 9.43811 5.50172C9.01526 5.28493 8.56018 5.17506 8.08655 5.17506C7.20276 5.17506 6.34241 5.57741 5.76526 6.25612L6.78967 7.28932C6.87463 7.38795 6.89026 7.50758 6.83655 7.62331C6.74377 7.82594 6.44495 8.00368 6.19788 8.00368H3.46252C3.11584 8.00368 2.83362 7.72194 2.83362 7.37575V4.61305C2.83362 4.32936 3.09729 3.94948 3.36584 3.94948C3.4303 3.94948 3.49084 3.97145 3.54065 4.01247L4.63831 5.1194C5.45667 4.21852 6.41956 3.71901 7.57971 3.59352C7.75452 3.57497 7.92737 3.5652 8.09827 3.5652C8.94104 3.5652 9.74182 3.79518 10.4781 4.24782C12.2643 5.34694 13.1022 7.51247 12.5153 9.51393C11.9303 11.5149 10.1285 12.8596 8.03381 12.8596L7.92346 12.8587Z" fill="white"/>
<path d="M8.0979 3.68797C8.91736 3.68797 9.6936 3.90984 10.4133 4.35242C12.1666 5.43088 12.9727 7.51938 12.3983 9.48004C11.8289 11.4244 10.0729 12.7366 8.03479 12.7366C7.99878 12.7366 7.96277 12.7362 7.92664 12.7354C5.88928 12.6891 4.39172 11.2627 3.9436 10.0243C4.16919 10.0243 4.39331 10.0233 4.61658 10.0233C4.87329 10.0233 5.12903 10.0246 5.38452 10.0302C5.44348 10.0314 5.51294 10.1032 5.55676 10.1587C6.20605 10.9832 7.13354 11.3771 8.05286 11.3771C9.24658 11.3771 10.4268 10.7127 10.9659 9.46416C11.6259 7.93637 10.9821 6.15615 9.4939 5.39284C9.04346 5.16189 8.56238 5.05239 8.08691 5.05239C7.13879 5.05239 6.2135 5.48783 5.60071 6.26391L6.70312 7.37566C6.87866 7.58022 6.47681 7.88115 6.19751 7.88115H3.46228C3.18311 7.88115 2.95667 7.6548 2.95667 7.37566V4.61283C2.95667 4.37806 3.18323 4.07196 3.36548 4.07199C3.3999 4.07199 3.43286 4.08292 3.46228 4.10734L4.64355 5.29859C5.42749 4.39572 6.38904 3.84556 7.59253 3.71553C7.7627 3.69715 7.93115 3.68797 8.0979 3.68797ZM8.0979 3.44275C7.92249 3.44275 7.74524 3.45239 7.56616 3.47172C6.41663 3.59593 5.45544 4.07779 4.63562 4.94236L3.63635 3.93467C3.54639 3.8585 3.45874 3.82677 3.36548 3.82677C3.20117 3.82674 3.03027 3.92895 2.89661 4.1072C2.77893 4.26402 2.71143 4.44832 2.71143 4.61283V7.37566C2.71143 7.7896 3.04822 8.12637 3.46228 8.12637H6.19751C6.49194 8.12637 6.83582 7.91926 6.94849 7.6741C7.02136 7.51545 6.99927 7.34419 6.88928 7.21596L5.93347 6.25129C6.48523 5.65068 7.27515 5.29761 8.08691 5.29761C8.54065 5.29761 8.97644 5.40307 9.38196 5.61105C10.7505 6.31296 11.3473 7.96274 10.7408 9.36692C10.2706 10.4556 9.24072 11.1319 8.05286 11.1319C7.15198 11.1319 6.31238 10.7219 5.74939 10.007C5.63513 9.86225 5.51416 9.78765 5.38965 9.78503C5.13257 9.77939 4.87512 9.77806 4.61658 9.77806L4.28137 9.77855L3.9436 9.77905C3.86365 9.77905 3.78882 9.818 3.74292 9.88343C3.6969 9.94885 3.68579 10.0325 3.71301 10.1077C4.21655 11.4992 5.82361 12.9328 7.92102 12.9805L8.03479 12.9818C10.1842 12.9818 12.0323 11.6023 12.6337 9.54896C13.2356 7.49417 12.3754 5.27138 10.5419 4.14355C9.78552 3.67852 8.96338 3.44275 8.0979 3.44275Z" fill="white"/>
</g>
</svg>
