<svg width="16" height="16" viewBox="0 0 16 16" fill="none" xmlns="http://www.w3.org/2000/svg">
<mask id="mask0_1742_2666" style="mask-type:alpha" maskUnits="userSpaceOnUse" x="0" y="0" width="16" height="16">
<rect width="16" height="16" fill="#D9D9D9"/>
</mask>
<g mask="url(#mask0_1742_2666)">
<path d="M10.4725 2.10571H2.46875V12.804H10.4725V2.10571Z" fill="#E8F0F5"/>
<path d="M10.8843 1.36824L2.39502 1.36737C2.16028 1.36737 1.97998 1.55022 1.97998 1.77641V12.3958C1.97998 12.6211 2.16614 12.804 2.39502 12.804H10.8627C11.0975 12.804 11.2778 12.6211 11.2778 12.3958V1.77641C11.2906 1.55109 11.1096 1.36824 10.8843 1.36824ZM10.4708 11.9885H2.79797V2.18545L10.4901 2.18545V11.9885L10.4708 11.9885Z" fill="#486A7F"/>
<path d="M9.02832 8.3474H4.12073C3.89392 8.3474 3.70532 8.53387 3.70532 8.76266C3.70532 8.99217 3.89392 9.17793 4.12073 9.17793H9.02832C9.25488 9.17793 9.44348 8.99217 9.44348 8.76266C9.44727 8.53387 9.26208 8.3474 9.02832 8.3474Z" fill="#486A7F"/>
<path d="M9.02832 6.61305H4.12073C3.89392 6.61305 3.70532 6.79953 3.70532 7.02832C3.70532 7.25783 3.89392 7.44359 4.12073 7.44359H9.02832C9.25488 7.44359 9.44348 7.25783 9.44348 7.02832C9.44727 6.79953 9.26208 6.61305 9.02832 6.61305Z" fill="#486A7F"/>
<path d="M8.86401 3.35497H7.05432C6.83057 3.35497 6.64392 3.54144 6.64392 3.77023C6.64392 3.99974 6.83411 4.18765 7.05432 4.18765H8.86401C9.08765 4.18765 9.28052 3.99974 9.28052 3.77023C9.27966 3.54144 9.08972 3.35497 8.86401 3.35497Z" fill="#486A7F"/>
<path d="M12.8857 9.05097C11.3683 7.53973 8.91632 7.5414 7.4068 9.05097C5.89386 10.5644 5.89386 13.0147 7.4068 14.5271C8.91974 16.04 11.3716 16.04 12.8857 14.5282C14.398 13.0159 14.398 10.5633 12.8857 9.05097Z" fill="#FF6400"/>
<path d="M9.44714 12.736V13.8983C9.44714 13.9726 9.49719 14.0389 9.56348 14.0704C9.62976 14.102 9.70898 14.0931 9.76562 14.0527L12.1362 11.9463C12.1864 11.9091 12.209 11.8534 12.209 11.7944C12.209 11.7354 12.188 11.6804 12.1362 11.6424L9.7616 9.53282C9.70337 9.48513 9.62012 9.47786 9.55701 9.511C9.49158 9.54171 9.44141 9.6088 9.44141 9.68316V10.8155C9.45276 11.6796 9.45276 11.7879 9.44714 12.736Z" fill="white"/>
</g>
</svg>
