<svg width="16" height="16" viewBox="0 0 16 16" fill="none" xmlns="http://www.w3.org/2000/svg">
<mask id="mask0_1742_2250" style="mask-type:alpha" maskUnits="userSpaceOnUse" x="0" y="0" width="16" height="16">
<rect width="16" height="16" fill="#D9D9D9"/>
</mask>
<g mask="url(#mask0_1742_2250)">
<path d="M3.953 5.79147C4.35174 5.79147 4.67499 5.46823 4.67499 5.06949C4.67499 4.67075 4.35174 4.3475 3.953 4.3475C3.55426 4.3475 3.23102 4.67075 3.23102 5.06949C3.23102 5.46823 3.55426 5.79147 3.953 5.79147Z" fill="#486A7F"/>
<path d="M13.659 2.60449H2.34698C1.72998 2.60449 1.22998 3.10449 1.22998 3.72049V6.41549C1.22998 7.03349 1.72998 7.53349 2.34698 7.53349H13.659C14.27 7.53349 14.77 7.03349 14.77 6.41549V3.72149C14.776 3.10449 14.276 2.60449 13.659 2.60449ZM3.953 6.36949C3.23499 6.36949 2.65002 5.78649 2.65002 5.07049C2.65002 4.35349 3.23401 3.77149 3.953 3.77149C4.67902 3.77149 5.26099 4.35349 5.26099 5.07049C5.26099 5.78549 4.67902 6.36949 3.953 6.36949ZM12.11 5.60149H10.298C10.003 5.60149 9.76697 5.36349 9.76697 5.07049C9.76697 4.77749 10.003 4.53949 10.298 4.53949H12.11C12.405 4.53949 12.638 4.77649 12.638 5.07049C12.642 5.36549 12.405 5.60149 12.11 5.60149Z" fill="#486A7F"/>
<path d="M3.953 11.6615C4.35286 11.6615 4.677 11.3374 4.677 10.9375C4.677 10.5376 4.35286 10.2135 3.953 10.2135C3.55315 10.2135 3.229 10.5376 3.229 10.9375C3.229 11.3374 3.55315 11.6615 3.953 11.6615Z" fill="#486A7F"/>
<path d="M13.659 8.4725H2.34698C1.72998 8.4725 1.22998 8.9725 1.22998 9.5885V12.2835C1.22998 12.8955 1.72998 13.3955 2.34698 13.3955H13.659C14.27 13.3955 14.77 12.8955 14.77 12.2835V9.5885C14.776 8.9715 14.276 8.4725 13.659 8.4725ZM3.953 12.2355C3.23499 12.2355 2.65002 11.6535 2.65002 10.9365C2.65002 10.2115 3.23401 9.6375 3.953 9.6375C4.67902 9.6375 5.26099 10.2115 5.26099 10.9365C5.26099 11.6515 4.67902 12.2355 3.953 12.2355ZM12.11 11.4675H10.298C10.003 11.4675 9.76697 11.2295 9.76697 10.9365C9.76697 10.6435 10.003 10.4155 10.298 10.4155H12.11C12.405 10.4155 12.638 10.6445 12.638 10.9365C12.642 11.2315 12.405 11.4675 12.11 11.4675Z" fill="#486A7F"/>
</g>
</svg>
