<svg width="16" height="16" viewBox="0 0 16 16" fill="none" xmlns="http://www.w3.org/2000/svg">
<mask id="mask0_1742_2997" style="mask-type:alpha" maskUnits="userSpaceOnUse" x="0" y="0" width="16" height="16">
<rect width="16" height="16" fill="#D9D9D9"/>
</mask>
<g mask="url(#mask0_1742_2997)">
<path d="M12.92 3.08069C10.1979 0.36569 5.80191 0.36669 3.08597 3.08069C0.363922 5.79669 0.363922 10.1987 3.08597 12.9117C5.80191 15.6357 10.2 15.6357 12.92 12.9157C15.6339 10.2017 15.6339 5.79969 12.92 3.08069Z" fill="#FF6400"/>
<path d="M7.99701 10.8744C6.98053 10.8744 5.96405 10.8747 4.94757 10.8742C4.72113 10.8741 4.58332 10.7781 4.56793 10.5939C4.56183 10.5201 4.58319 10.4362 4.61603 10.3685C4.80841 9.97152 5.00983 9.5789 5.20307 9.18234C5.2331 9.12075 5.25006 9.04653 5.2508 8.97793C5.25617 8.41408 5.22992 7.84859 5.26386 7.28664C5.32953 6.19543 5.88666 5.41784 6.86212 4.93713C6.94904 4.89431 6.99738 4.84947 7.0224 4.74966C7.13568 4.29778 7.55426 3.98425 8.01435 3.99228C8.4881 4.00055 8.88874 4.33153 8.9953 4.79647C9.00458 4.83726 9.04096 4.88651 9.07794 4.9042C10.1641 5.4235 10.7291 6.27958 10.7465 7.48668C10.7537 7.98584 10.746 8.48521 10.7497 8.98445C10.7502 9.04956 10.7669 9.12004 10.7956 9.17856C10.9877 9.57162 11.1856 9.96185 11.3806 10.3535C11.5247 10.6433 11.3826 10.8736 11.0573 10.874C10.0372 10.8751 9.01715 10.8744 7.99701 10.8744Z" fill="white"/>
<path d="M6.5968 11.5285C7.54163 11.5285 8.46082 11.5285 9.40234 11.5285C9.05542 11.989 8.61426 12.2396 8.05798 12.2568C7.45679 12.2754 6.97778 12.0244 6.5968 11.5285Z" fill="white"/>
</g>
</svg>
