<svg width="16" height="16" viewBox="0 0 16 16" fill="none" xmlns="http://www.w3.org/2000/svg">
<mask id="mask0_1742_3019" style="mask-type:alpha" maskUnits="userSpaceOnUse" x="0" y="0" width="16" height="16">
<rect width="16" height="16" fill="#D9D9D9"/>
</mask>
<g mask="url(#mask0_1742_3019)">
<path d="M12.9088 3.09222C10.1901 0.384433 5.79666 0.387422 3.09195 3.09222C0.381134 5.80398 0.381134 10.1944 3.09195 12.9042C5.80276 15.6149 10.1961 15.6149 12.9088 12.9062C15.6186 10.1964 15.6186 5.80199 12.9088 3.09222Z" fill="#08B848"/>
<path d="M3.79175 8.51672C3.87512 8.31436 4.03015 8.24926 4.24219 8.25528C4.59229 8.26521 4.94287 8.25797 5.30542 8.25797C5.30542 8.22694 5.30542 8.20076 5.30542 8.17458C5.30542 7.71165 5.30688 7.24871 5.3031 6.78581C5.30273 6.74309 5.27966 6.69043 5.24951 6.65967C4.97351 6.37797 4.69251 6.10107 4.41504 5.82073C4.25476 5.6588 4.25916 5.4474 4.42114 5.30996C4.55042 5.20028 4.72473 5.20064 4.85474 5.3186C4.95398 5.40867 5.04639 5.50643 5.14136 5.60125C5.33911 5.79865 5.5354 5.9975 5.73535 6.19255C5.76123 6.21778 5.80566 6.23713 5.84143 6.23719C7.27954 6.2394 8.71765 6.23946 10.1558 6.23701C10.1936 6.23694 10.2405 6.21516 10.2681 6.18809C10.5511 5.90953 10.8302 5.62695 11.1123 5.34727C11.2692 5.19171 11.4742 5.19128 11.6125 5.34216C11.7308 5.4713 11.735 5.65625 11.6128 5.78859C11.496 5.91534 11.3708 6.03457 11.249 6.15675C11.0787 6.32741 10.9073 6.49689 10.7388 6.66924C10.7164 6.69207 10.6957 6.72869 10.6954 6.75903C10.6929 7.2466 10.6938 7.73418 10.6941 8.22176C10.6942 8.22964 10.6968 8.23751 10.7003 8.25797C10.7277 8.25797 10.7565 8.25797 10.7853 8.25797C11.1331 8.25798 11.481 8.25826 11.8289 8.25783C11.9279 8.25771 12.0186 8.27899 12.0941 8.34797C12.1963 8.44118 12.2372 8.58235 12.187 8.70683C12.1339 8.83862 12.0377 8.92667 11.89 8.92848C11.5286 8.93291 11.1669 8.93086 10.8053 8.9314C10.7728 8.93145 10.7402 8.93141 10.6987 8.93141C10.6925 9.033 10.6868 9.1301 10.6804 9.22717C10.6538 9.63848 10.5645 10.0335 10.3689 10.3995C10.3419 10.4498 10.3569 10.476 10.392 10.5109C10.7311 10.8497 11.0681 11.1906 11.4072 11.5294C11.5026 11.6246 11.5575 11.7321 11.5244 11.8687C11.4617 12.1286 11.1555 12.2187 10.9629 12.0304C10.6357 11.7107 10.3131 11.3864 9.98926 11.0633C9.96814 11.0422 9.95276 11.0153 9.93311 10.9889C9.45728 11.3606 8.95068 11.6105 8.33875 11.6263C8.33875 10.055 8.33875 8.49027 8.33875 6.91228C8.29077 6.91228 8.25378 6.91228 8.21667 6.91228C8.05774 6.91229 7.8988 6.91497 7.74011 6.91097C7.67761 6.9094 7.65479 6.9305 7.66248 6.99093C7.66516 7.01249 7.66284 7.0347 7.66284 7.05661C7.66284 8.54127 7.66284 10.0259 7.66284 11.5106C7.66284 11.5457 7.66284 11.5809 7.66284 11.6256C7.01624 11.615 6.49243 11.3384 6.01306 10.937C5.98792 10.9648 5.96045 10.9947 5.93347 11.0251C5.64868 11.3473 5.36377 11.6694 5.07935 11.9919C4.98779 12.0957 4.87744 12.1512 4.73706 12.1229C4.49963 12.0751 4.38818 11.804 4.52588 11.6038C4.57361 11.5343 4.63391 11.4731 4.69031 11.4097C4.97583 11.0882 5.26086 10.7662 5.54907 10.4471C5.59546 10.3958 5.60669 10.3574 5.57495 10.2906C5.39197 9.90588 5.32532 9.49431 5.30859 9.07254C5.30676 9.02922 5.30835 8.98576 5.30835 8.93141C5.2699 8.93141 5.24072 8.93141 5.21155 8.93141C4.88013 8.93141 4.54846 8.92411 4.21729 8.93404C4.00647 8.94037 3.86438 8.86386 3.79175 8.66465C3.79175 8.61534 3.79175 8.56603 3.79175 8.51672Z" fill="white"/>
<path d="M6.31848 5.56152C6.32495 4.94995 6.58484 4.47307 7.08911 4.15296C7.67932 3.77827 8.30066 3.77443 8.89514 4.14395C9.40881 4.46316 9.67273 4.94248 9.68115 5.56152C8.55762 5.56152 7.44202 5.56152 6.31848 5.56152Z" fill="white"/>
</g>
</svg>
