<svg width="16" height="16" viewBox="0 0 16 16" fill="none" xmlns="http://www.w3.org/2000/svg">
<mask id="mask0_1742_3010" style="mask-type:alpha" maskUnits="userSpaceOnUse" x="0" y="0" width="16" height="16">
<rect width="16" height="16" fill="#D9D9D9"/>
</mask>
<g mask="url(#mask0_1742_3010)">
<path d="M8.01259 1.50464C9.35109 1.50463 10.6896 1.50344 12.028 1.50494C13.5716 1.50666 14.8068 2.52887 15.0918 4.04507C15.126 4.22681 15.1375 4.41522 15.1378 4.60058C15.1411 6.36244 15.1415 8.12432 15.1392 9.88618C15.1377 11.0901 14.3756 12.0834 13.2136 12.3962C13.1111 12.4238 13.0819 12.4688 13.0831 12.5712C13.0883 13.0182 13.0923 13.4655 13.0831 13.9125C13.0707 14.5175 12.5561 14.9205 12.0098 14.7536C11.8965 14.719 11.7871 14.652 11.6923 14.5787C11.247 14.2338 10.8053 13.884 10.366 13.5315C9.48745 12.8267 8.48842 12.4774 7.36184 12.4823C6.06057 12.4878 4.75918 12.4909 3.45791 12.4811C2.50576 12.4739 1.76162 12.0626 1.24538 11.2576C0.989888 10.8593 0.864034 10.4161 0.863301 9.94244C0.86086 8.13799 0.855245 6.3335 0.864522 4.52909C0.872945 2.87338 2.23049 1.52333 3.88552 1.50512C3.90151 1.50495 3.91738 1.50468 3.93337 1.50468C5.29311 1.50466 6.65285 1.50466 8.01259 1.50464Z" fill="#08B848"/>
<path d="M7.92932 8.94887C7.34192 8.94887 6.87061 9.43368 6.87061 10.0301C6.87061 10.6265 7.34863 11.1068 7.92932 11.1068C8.52795 11.1068 9.01282 10.622 9.01282 10.0301C9.0094 9.43255 8.53247 8.94887 7.92932 8.94887Z" fill="white"/>
<path d="M6.84799 4.09399C6.83957 4.7631 7.40952 7.42453 7.40952 7.42453C7.44785 7.67934 7.66769 7.87101 7.94162 7.87101C8.21335 7.87101 8.43552 7.67708 8.48166 7.42453C8.48166 7.42453 9.01499 4.75647 9.04208 4.09399C9.06638 3.50031 8.54831 3.01613 7.96091 3.01613C7.33627 3.01726 6.85556 3.49873 6.84799 4.09399Z" fill="white"/>
</g>
</svg>
