<svg width="16" height="16" viewBox="0 0 16 16" fill="none" xmlns="http://www.w3.org/2000/svg">
<path fill-rule="evenodd" clip-rule="evenodd" d="M1.5 4C1.5 3.44772 1.94772 3 2.5 3H13.5C14.0523 3 14.5 3.44772 14.5 4V12C14.5 12.5523 14.0523 13 13.5 13H2.5C1.94772 13 1.5 12.5523 1.5 12V4ZM10.5 4H13.5V6H10.5V4ZM9.5 4H6.5V6H9.5V4ZM5.5 4H2.5V6H5.5V4ZM2.5 7V9H5.5V7H2.5ZM2.5 10V12H5.5V10H2.5ZM6.5 12H9.5V10H6.5V12ZM10.5 12H13.5V10H10.5V12ZM13.5 9V7H10.5V9H13.5ZM9.5 9H6.5V7H9.5V9Z" fill="#404952"/>
</svg>
