<svg width="16" height="16" viewBox="0 0 16 16" fill="none" xmlns="http://www.w3.org/2000/svg">
<mask id="mask0_1742_2624" style="mask-type:alpha" maskUnits="userSpaceOnUse" x="0" y="0" width="16" height="16">
<rect width="16" height="16" fill="#D9D9D9"/>
</mask>
<g mask="url(#mask0_1742_2624)">
<path d="M12.5028 2.85396H10.1442V2.42512C10.1442 1.71459 9.56824 1.13861 8.85767 1.13861H7.14233C6.43176 1.13861 5.85583 1.71459 5.85583 2.42512V2.85396H3.49719C2.90515 2.85396 2.42517 3.33396 2.42517 3.92605V4.78372C2.42517 5.02057 2.61707 5.21255 2.854 5.21255H13.146C13.3829 5.21255 13.5748 5.02057 13.5748 4.78372V3.92605C13.5748 3.33396 13.0948 2.85396 12.5028 2.85396ZM6.7135 2.42512C6.7135 2.18872 6.90588 1.99628 7.14233 1.99628H8.85767C9.09412 1.99628 9.2865 2.18872 9.2865 2.42512V2.85396H6.7135V2.42512Z" fill="#486A7F"/>
<path d="M3.23905 6.07022C3.16251 6.07022 3.10147 6.13417 3.10514 6.21061L3.4589 13.636C3.49161 14.3232 4.05606 14.8614 4.74381 14.8614H11.2563C11.944 14.8614 12.5085 14.3232 12.5412 13.636L12.8949 6.21061C12.8986 6.13417 12.8376 6.07022 12.761 6.07022H3.23905ZM9.71537 7.14231C9.71537 6.90538 9.90726 6.71347 10.1442 6.71347C10.3811 6.71347 10.573 6.90538 10.573 7.14231V12.7172C10.573 12.9541 10.3811 13.146 10.1442 13.146C9.90726 13.146 9.71537 12.9541 9.71537 12.7172V7.14231ZM7.5712 7.14231C7.5712 6.90538 7.7631 6.71347 8.00003 6.71347C8.23697 6.71347 8.42887 6.90538 8.42887 7.14231V12.7172C8.42887 12.9541 8.23697 13.146 8.00003 13.146C7.7631 13.146 7.5712 12.9541 7.5712 12.7172V7.14231ZM5.42704 7.14231C5.42704 6.90538 5.61893 6.71347 5.85587 6.71347C6.09281 6.71347 6.2847 6.90538 6.2847 7.14231V12.7172C6.2847 12.9541 6.09281 13.146 5.85587 13.146C5.61893 13.146 5.42704 12.9541 5.42704 12.7172V7.14231Z" fill="#486A7F"/>
</g>
</svg>
