<svg width="16" height="16" viewBox="0 0 16 16" fill="none" xmlns="http://www.w3.org/2000/svg">
<mask id="mask0_1742_1930" style="mask-type:luminance" maskUnits="userSpaceOnUse" x="0" y="0" width="16" height="16">
<path d="M16 0H0V16H16V0Z" fill="white"/>
</mask>
<g mask="url(#mask0_1742_1930)">
<mask id="mask1_1742_1930" style="mask-type:luminance" maskUnits="userSpaceOnUse" x="4" y="4" width="9" height="10">
<path d="M3.99998 3.99994H12.9999V11.9998C12.9999 13.1044 12.1045 13.9998 10.9999 13.9998H5.99996C4.89537 13.9998 3.99998 13.1044 3.99998 11.9998V3.99994Z" fill="white"/>
</mask>
<g mask="url(#mask1_1742_1930)">
<path d="M13.9998 11.9998C13.9998 13.6567 12.6568 14.9998 10.9999 14.9998H5.99996C4.34318 14.9998 3 13.6567 3 11.9998H4.99997C4.99997 12.5521 5.44769 12.9998 5.99996 12.9998H10.9999C11.5522 12.9998 11.9999 12.5521 11.9999 11.9998H13.9998ZM5.99996 14.9998C4.34318 14.9998 3 13.6567 3 11.9998V3.99994H4.99997V11.9998C4.99997 12.5521 5.44769 12.9998 5.99996 12.9998V14.9998ZM13.9998 3.99994V11.9998C13.9998 13.6567 12.6568 14.9998 10.9999 14.9998V12.9998C11.5522 12.9998 11.9999 12.5521 11.9999 11.9998V3.99994H13.9998Z" fill="#447DB8"/>
</g>
<path d="M6.99994 3.99994H7.99993V11.4998C7.99993 11.7759 7.77607 11.9998 7.49993 11.9998C7.2238 11.9998 6.99994 11.7759 6.99994 11.4998V3.99994Z" fill="#447DB8"/>
<path d="M8.99992 3.99994H9.99991V11.4998C9.99991 11.7759 9.77605 11.9998 9.49992 11.9998C9.22378 11.9998 8.99992 11.7759 8.99992 11.4998V3.99994Z" fill="#447DB8"/>
<path fill-rule="evenodd" clip-rule="evenodd" d="M8.29993 0C7.19534 0 6.29995 0.895418 6.29995 1.99997H3.49999C3.22386 1.99997 3 2.22383 3 2.49997C3 2.7761 3.22386 2.99996 3.49999 2.99996H13.4999C13.776 2.99996 13.9998 2.7761 13.9998 2.49997C13.9998 2.22383 13.776 1.99997 13.4999 1.99997H10.6999C10.6999 0.895388 9.80448 0 8.69992 0H8.29993Z" fill="#447DB8"/>
</g>
</svg>
