<svg width="16" height="16" viewBox="0 0 16 16" fill="none" xmlns="http://www.w3.org/2000/svg">
<mask id="mask0_1742_3155" style="mask-type:alpha" maskUnits="userSpaceOnUse" x="0" y="0" width="16" height="16">
<rect width="16" height="16" fill="#D9D9D9"/>
</mask>
<g mask="url(#mask0_1742_3155)">
<path d="M7.4179 8.86398C7.0792 8.81431 6.71661 7.9243 6.71661 7.9243C6.71661 7.9243 8.05081 6.98125 8.24622 5.71575C8.81507 5.71575 9.17332 4.37511 8.58818 3.90028C8.61098 3.40448 8.97141 0 5.39871 0C1.82274 0 2.17335 3.40448 2.19724 3.9025C1.63164 4.37511 1.99314 5.71575 2.54245 5.71575C2.75631 6.98232 4.071 7.9243 4.071 7.9243C4.071 7.9243 3.7149 8.81431 3.37076 8.86398C2.30796 9.02858 0 10.7446 0 12.6197C0 12.6197 1.45904 14 5.38565 14C6.42257 14 7 14 7.5 14C7.5 13.5 7.4179 11 7.4179 8.86398Z" fill="#486A7F"/>
<path d="M15.8914 11.7713L13.3237 9.10565C13.181 8.9768 13.0579 9.03409 13.0579 9.23135V10.3442C13.0579 10.5415 12.9091 10.7014 12.723 10.7014L10.4606 10.7078H9.5607C9.38223 10.7078 9.22807 10.8724 9.22807 11.0681V12.9494C9.22807 13.145 9.38072 13.3034 9.5683 13.3034L12.6812 13.2867C12.8665 13.2882 13.061 13.4418 13.061 13.6351V14.7455C13.061 14.9428 13.1779 14.9953 13.3267 14.8688L15.8944 12.2024C16.0357 12.1078 16.0357 11.9017 15.8914 11.7713Z" fill="#FF6400"/>
<path d="M12.6153 15.4281V15.2785C12.6153 15.2785 12.5872 15.129 12.5363 15.0924C12.4893 15.0454 12.3624 15.0359 12.3624 15.0359H8.43915C8.16955 15.0359 7.9455 14.8418 7.9455 14.6008V9.54636C7.9455 9.30535 8.16955 9.11124 8.43915 9.11124H12.3624C12.3624 9.11124 12.5007 9.09852 12.5363 9.05317C12.5834 9.00943 12.6153 8.86708 12.6153 8.86708V8.57271C12.6153 8.25771 12.3146 8 11.9637 8H7.65237C7.28859 8 7 8.25533 7 8.57271V15.4281C7 15.7447 7.30074 16 7.65237 16H11.9637C12.3237 16 12.6153 15.7439 12.6153 15.4281Z" fill="#FF6400"/>
</g>
</svg>
