<svg width="16" height="16" viewBox="0 0 16 16" fill="none" xmlns="http://www.w3.org/2000/svg">
<mask id="mask0_1742_2226" style="mask-type:alpha" maskUnits="userSpaceOnUse" x="0" y="0" width="16" height="16">
<rect width="16" height="16" fill="#D9D9D9"/>
</mask>
<g mask="url(#mask0_1742_2226)">
<path d="M9.87292 9.688C9.56091 9.643 9.22693 8.837 9.22693 8.837C9.22693 8.837 10.4559 7.983 10.6359 6.837C11.1599 6.837 11.4899 5.623 10.9509 5.193C10.9719 4.744 11.304 1.661 8.01294 1.661C4.71893 1.661 5.04193 4.744 5.06396 5.195C4.54297 5.623 4.87598 6.837 5.38196 6.837C5.57898 7.984 6.78998 8.837 6.78998 8.837C6.78998 8.837 6.46198 9.643 6.14496 9.688C5.16595 9.837 3.03998 11.391 3.03998 13.089C3.03998 13.089 4.38397 14.339 8.00098 14.339H8.00696C11.611 14.339 12.96 13.089 12.96 13.089C12.9769 11.391 10.8499 9.838 9.87292 9.688Z" fill="#ACC1D7"/>
</g>
</svg>
