<svg width="16" height="16" viewBox="0 0 16 16" fill="none" xmlns="http://www.w3.org/2000/svg">
<mask id="mask0_1742_3147" style="mask-type:alpha" maskUnits="userSpaceOnUse" x="0" y="0" width="16" height="16">
<rect width="16" height="16" fill="#D9D9D9"/>
</mask>
<g mask="url(#mask0_1742_3147)">
<path d="M7.4179 8.86398C7.0792 8.81431 6.71661 7.9243 6.71661 7.9243C6.71661 7.9243 8.05081 6.98125 8.24622 5.71575C8.81507 5.71575 9.17332 4.37511 8.58818 3.90028C8.61098 3.40448 8.97141 0 5.39871 0C1.82274 0 2.17335 3.40448 2.19724 3.9025C1.63164 4.37511 1.99314 5.71575 2.54245 5.71575C2.75631 6.98232 4.071 7.9243 4.071 7.9243C4.071 7.9243 3.7149 8.81431 3.37076 8.86398C2.30796 9.02858 0 10.7446 0 12.6197C0 12.6197 1.45904 14 5.38565 14C6.42257 14 7.288 13.903 8 13.7605C9 13 9 13 9.5 12.5C10 12 10 12 10.5 11.4596C9.86278 10.0858 8.2532 8.99446 7.4179 8.86398Z" fill="#486A7F"/>
<path d="M15.0669 5.94259C13.8158 4.6858 11.7891 4.6858 10.538 5.94259C9.57883 6.9087 9.36205 8.33903 9.87915 9.51639L9.3537 10.0465L8.45287 10.3037L8.20271 11.2092L7.29363 11.4726L7.05172 12.3813L6.15089 12.6405L5.90073 13.546L5 13.8053L5.23346 15.7249L6.85991 16L11.6139 11.2113C12.7566 11.687 14.1411 11.4496 15.0753 10.5086C16.3096 9.23928 16.3096 7.20041 15.0669 5.94259ZM13.8992 8.45198L12.5731 7.11468C12.1978 6.74245 12.5064 6.10362 13.0235 6.15799C13.4739 6.20607 13.9076 6.40477 14.2579 6.75398C14.6082 7.10319 14.8 7.5444 14.8417 8.00135C14.9001 8.52204 14.2745 8.82313 13.8992 8.45198Z" fill="#08B848"/>
</g>
</svg>
