<svg width="16" height="16" viewBox="0 0 16 16" fill="none" xmlns="http://www.w3.org/2000/svg">
<mask id="mask0_1742_3160" style="mask-type:alpha" maskUnits="userSpaceOnUse" x="0" y="0" width="16" height="16">
<rect width="16" height="16" fill="#D9D9D9"/>
</mask>
<g mask="url(#mask0_1742_3160)">
<path d="M7.4179 8.86398C7.0792 8.81431 6.71661 7.9243 6.71661 7.9243C6.71661 7.9243 8.05081 6.98125 8.24622 5.71575C8.81507 5.71575 9.17332 4.37511 8.58818 3.90028C8.61098 3.40448 8.97141 0 5.39871 0C1.82274 0 2.17335 3.40448 2.19724 3.9025C1.63164 4.37511 1.99314 5.71575 2.54245 5.71575C2.75631 6.98232 4.071 7.9243 4.071 7.9243C4.071 7.9243 3.7149 8.81431 3.37076 8.86398C2.30796 9.02858 0 10.7446 0 12.6197C0 12.6197 1.45904 14 5.38565 14C6.42257 14 7.288 13.903 8 13.7605C9 13.5 9.5 13.5 10 13C10.5 12.5 11 12 10.5 11.4596C9.86278 10.0858 8.2532 8.99446 7.4179 8.86398Z" fill="#486A7F"/>
<path d="M15.924 14.8753L12.5815 8.37591C12.4746 8.15164 12.2516 8 12.002 8C11.7614 8 11.5475 8.15164 11.4228 8.37591L8.08922 14.8753C8.02683 14.9869 8 15.1141 8 15.25C8 15.6635 8.30305 16 8.66849 16H15.3445C15.701 16 15.9954 15.6635 15.9954 15.25C16.0132 15.1141 15.9775 14.9869 15.924 14.8753Z" fill="#FF9C00"/>
<path d="M11.9845 13.6443C11.6814 13.6443 11.4585 13.8978 11.4585 14.2115C11.4585 14.5292 11.6992 14.7755 11.9845 14.7755C12.2786 14.7755 12.5191 14.5251 12.5191 14.2115C12.5191 13.8978 12.2875 13.6443 11.9845 13.6443Z" fill="white"/>
<path d="M11.4585 11.0973C11.4585 11.1294 11.4585 11.1614 11.4585 11.1936L11.7349 12.8438C11.7438 12.9778 11.8595 13.0788 12.0021 13.0788C12.1358 13.0788 12.2339 12.9785 12.2695 12.8438L12.537 11.1936C12.5459 11.1614 12.5459 11.1294 12.5459 11.0973C12.5459 10.7852 12.3141 10.5317 12.011 10.5317C11.6901 10.5325 11.4585 10.786 11.4585 11.0973Z" fill="white"/>
</g>
</svg>
