<svg width="16" height="16" viewBox="0 0 16 16" fill="none" xmlns="http://www.w3.org/2000/svg">
<mask id="mask0_1742_1910" style="mask-type:alpha" maskUnits="userSpaceOnUse" x="0" y="0" width="16" height="16">
<rect width="16" height="16" fill="#D9D9D9"/>
</mask>
<g mask="url(#mask0_1742_1910)">
<path d="M12.4875 3.54999C9.98749 1.04999 6.08746 1.04999 3.58746 3.54999C1.08746 6.04999 1.08746 9.94999 3.58746 12.45C6.08746 14.95 9.98749 14.95 12.4875 12.45C14.8875 9.94999 14.8875 6.04999 12.4875 3.54999ZM8.98749 6.44999V9.64999V9.74999C8.98749 9.84999 8.88751 9.94999 8.78748 9.94999H4.1875C4.08752 9.94999 3.98749 9.84999 3.98749 9.74999V6.24999C3.98749 6.14999 4.08746 6.04999 4.1875 6.04999H8.78748C8.88745 6.04999 8.98749 6.14999 8.98749 6.24999V6.44999ZM11.8875 9.94999C11.8875 10.05 11.7875 10.15 11.6875 10.15C11.5875 10.15 11.4875 10.25 11.3875 10.15L9.6875 9.34999V6.54999L11.3875 5.74999C11.4875 5.74999 11.5875 5.74999 11.6875 5.74999C11.7875 5.74999 11.8875 5.84999 11.8875 5.94999V9.94999Z" fill="#ACC1D7"/>
</g>
</svg>
