<svg width="16" height="16" viewBox="0 0 16 16" fill="none" xmlns="http://www.w3.org/2000/svg">
<mask id="mask0_1742_1703" style="mask-type:alpha" maskUnits="userSpaceOnUse" x="0" y="0" width="16" height="16">
<rect width="16" height="16" fill="#D9D9D9"/>
</mask>
<g mask="url(#mask0_1742_1703)">
<path d="M12.85 12C14.15 12 15.25 10.9 15.25 9.5C15.25 8.3 14.45 7.3 13.45 7.1C13.45 4.6 11.55 2.5 9.14999 2.5C7.54999 2.5 6.14999 3.5 5.35001 4.9C5.14999 4.8 4.85001 4.7 4.64999 4.7C3.75 4.7 2.94998 5.4 2.85001 6.4C1.64999 6.7 0.75 7.8 0.75 9.2C0.75 10.8 1.95001 12 3.35001 12C3.74997 12 12.65 12 12.85 12Z" fill="#E8F0F5" stroke="#294F69" stroke-width="0.2395" stroke-miterlimit="10"/>
<path d="M13.65 10.6V9.1H13.25V8.7H12.15V8H12.45V6.2H11.95V5.7H10.95V6.9H8.24997V5.7H7.14996V6.2H6.54996V8H6.84995V8.7H5.64993V9.1H5.24994V10.6H5.94995V9.9H6.74994V12H6.34995V12.5H5.94998V13.5H8.84998V12.4H10.35V13.5H13.25V12.5H12.75V12H12.35V9.9H13.15V10.6H13.65ZM8.84998 10V11.4H7.44998V10H8.84998V8H10.15V10H11.55V11.4H10.15V10H8.84998Z" fill="#294F69"/>
</g>
</svg>
