<svg width="16" height="16" viewBox="0 0 16 16" fill="none" xmlns="http://www.w3.org/2000/svg">
<mask id="mask0_1742_2629" style="mask-type:alpha" maskUnits="userSpaceOnUse" x="0" y="0" width="16" height="16">
<rect width="16" height="16" fill="#447DB8"/>
</mask>
<g mask="url(#mask0_1742_2629)">
<path d="M14 4C14.5523 4 15 4.44772 15 5V6C15 6.55228 14.5523 7 14 7H11V8.5C11 10.9853 8.98528 13 6.5 13C4.01472 13 2 10.9853 2 8.5C2 6.18372 3.75002 4.24872 6 4H14ZM6.5 6C5.11929 6 4 7.11929 4 8.5C4 9.88071 5.11929 11 6.5 11C7.88071 11 9 9.88071 9 8.5C9 7.11929 7.88071 6 6.5 6ZM6.5 7C7.32843 7 8 7.67157 8 8.5C8 9.32843 7.32843 10 6.5 10C5.67157 10 5 9.32843 5 8.5C5 7.67157 5.67157 7 6.5 7Z" fill="#507DB4"/>
</g>
</svg>
