<svg width="16" height="16" viewBox="0 0 16 16" fill="none" xmlns="http://www.w3.org/2000/svg">
<mask id="mask0_3686_24241" style="mask-type:alpha" maskUnits="userSpaceOnUse" x="0" y="0" width="16" height="16">
<rect width="16" height="16" fill="#D9D9D9"/>
</mask>
<g mask="url(#mask0_3686_24241)">
<path d="M9.96667 2.32428H0.716675V14.6693H9.96667V2.32428Z" fill="#E8F0F5"/>
<path d="M10.28 1.47345H8.5V0.780457C8.5 0.520447 8.29002 0.308472 8.02002 0.308472C7.76002 0.308472 7.55005 0.519471 7.55005 0.780457V1.47247H5.86011V0.780457C5.86011 0.520447 5.65 0.308472 5.38 0.308472C5.11 0.308472 4.90002 0.519471 4.90002 0.780457V1.47247H3.22009V0.780457C3.22009 0.520447 2.99999 0.308472 2.73999 0.308472C2.47999 0.308472 2.26001 0.519471 2.26001 0.780457V1.47247H0.480103C0.220103 1.47247 0 1.68347 0 1.94446V14.1984C0 14.4585 0.220103 14.6695 0.480103 14.6695H10.27C10.53 14.6695 10.74 14.4585 10.74 14.1984V1.94446C10.75 1.68445 10.54 1.47345 10.28 1.47345ZM9.84009 2.4165V13.7284H0.970093V2.4165H9.84009Z" fill="#486A7F"/>
<path d="M7.2301 5.57947H2.71008C2.39008 5.57947 2.13 5.83948 2.13 6.15845C2.13 6.47845 2.40008 6.73749 2.71008 6.73749H7.2301C7.5401 6.73749 7.81006 6.47845 7.81006 6.15845C7.81006 5.83948 7.5401 5.57947 7.2301 5.57947Z" fill="#486A7F"/>
<path d="M6.23999 8.14746H2.72009C2.40009 8.14746 2.15002 8.40747 2.15002 8.72644C2.15002 9.04645 2.41009 9.30847 2.72009 9.30847H6.23999C6.55999 9.30847 6.82007 9.04645 6.82007 8.72644C6.82007 8.40747 6.55999 8.14746 6.23999 8.14746Z" fill="#486A7F"/>
<path d="M15.2791 9.38886L12.3891 6.58777C12.2291 6.45161 12.0992 6.51134 12.0992 6.71807V7.89179C12.0992 8.09756 11.9192 8.26798 11.6992 8.26798L9.54913 8.27098H8.54913C8.32913 8.27098 8.15912 8.4444 8.15912 8.65207V10.6312C8.15912 10.8399 8.33913 11.0084 8.54913 11.0084L11.6591 11.0025C11.8691 11.0025 12.0992 11.173 12.0992 11.3797V12.5524C12.0992 12.7592 12.2291 12.8179 12.3891 12.6847L15.2691 9.88853C15.4391 9.74549 15.4391 9.52304 15.2791 9.38886Z" fill="#08B848"/>
<path d="M12.3891 6.58777C12.2291 6.45161 12.0992 6.51134 12.0992 6.71807V7.89179C12.0992 8.09756 11.9192 8.26798 11.6992 8.26798L9.54913 8.27098H8.54913C8.32913 8.27098 8.15912 8.4444 8.15912 8.65207V10.6312C8.15912 10.8399 8.33913 11.0084 8.54913 11.0084L11.6591 11.0025C11.8691 11.0025 12.0992 11.173 12.0992 11.3797V12.5524C12.0992 12.7592 12.2291 12.8179 12.3891 12.6847L15.2691 9.88853C15.4391 9.74549 15.4391 9.52304 15.2791 9.38886L12.3891 6.58777Z" stroke="white" stroke-width="0.299999"/>
<path d="M4.6629 12.1919L7.55292 9.33289C7.71292 9.19385 7.84295 9.25489 7.84295 9.47889V10.6669C7.84295 10.8779 8.03286 11.0629 8.24286 11.0629L10.3829 11.0688H11.3829C11.6129 11.0688 11.7829 11.2619 11.7829 11.4779V13.4889C11.7829 13.6999 11.6129 13.8758 11.3829 13.8758L8.2829 13.8639C8.0729 13.8658 7.84295 14.0419 7.84295 14.2529V15.4458C7.84295 15.6568 7.70292 15.7159 7.55292 15.5849L4.6629 12.7309C4.4929 12.5549 4.4929 12.3288 4.6629 12.1919Z" fill="#08B848"/>
<path d="M7.55292 9.33289C7.71292 9.19385 7.84295 9.25489 7.84295 9.47889V10.6669C7.84295 10.8779 8.03286 11.0629 8.24286 11.0629L10.3829 11.0688H11.3829C11.6129 11.0688 11.7829 11.2619 11.7829 11.4779V13.4889C11.7829 13.6999 11.6129 13.8758 11.3829 13.8758L8.2829 13.8639C8.0729 13.8658 7.84295 14.0419 7.84295 14.2529V15.4458C7.84295 15.6568 7.70292 15.7159 7.55292 15.5849L4.6629 12.7309C4.4929 12.5549 4.4929 12.3288 4.6629 12.1919L7.55292 9.33289Z" stroke="white" stroke-width="0.299999"/>
</g>
</svg>
