<svg width="16" height="16" viewBox="0 0 16 16" fill="none" xmlns="http://www.w3.org/2000/svg">
<mask id="mask0_1742_2203" style="mask-type:alpha" maskUnits="userSpaceOnUse" x="0" y="0" width="16" height="16">
<rect width="16" height="16" fill="#D9D9D9"/>
</mask>
<g mask="url(#mask0_1742_2203)">
<path d="M12.9203 3.08087C10.1983 0.365867 5.80235 0.365867 3.08635 3.08087C0.364365 5.79686 0.364365 10.1989 3.08635 12.9119C5.80235 15.6359 10.2004 15.6359 12.9203 12.9159C15.6333 10.2019 15.6333 5.79986 12.9203 3.08087Z" fill="#FF6400"/>
<path d="M7.99738 9.62387C7.32538 9.62387 6.7984 10.1629 6.7984 10.8309C6.7984 11.4949 7.32538 12.0279 7.99738 12.0279C8.66339 12.0279 9.19836 11.4889 9.19836 10.8309C9.20135 10.1629 8.66437 9.62387 7.99738 9.62387Z" fill="white"/>
<path d="M6.79834 4.21086C6.79834 4.27786 6.80237 4.34686 6.81934 4.41386L7.42334 7.92286C7.46832 8.20787 7.71832 8.42187 8.01831 8.42187C8.3233 8.42187 8.56329 8.20987 8.6203 7.92286L9.21429 4.41386C9.23529 4.34686 9.23529 4.27886 9.23529 4.21086C9.23529 3.54687 8.70032 3.00687 8.03131 3.00687C7.33136 3.00987 6.79834 3.54787 6.79834 4.21086Z" fill="white"/>
</g>
</svg>
