<svg width="16" height="16" viewBox="0 0 16 16" fill="none" xmlns="http://www.w3.org/2000/svg">
<mask id="mask0_1742_1787" style="mask-type:alpha" maskUnits="userSpaceOnUse" x="0" y="0" width="16" height="16">
<rect width="16" height="16" fill="#D9D9D9"/>
</mask>
<g mask="url(#mask0_1742_1787)">
<path d="M12.92 3.08069C10.198 0.36569 5.80199 0.36669 3.08598 3.08069C0.363998 5.79669 0.363998 10.1987 3.08598 12.9117C5.80199 15.6357 10.2 15.6357 12.92 12.9157C15.634 10.2017 15.634 5.79969 12.92 3.08069Z" fill="#08B848"/>
<path d="M9.85598 11.5887C9.83499 11.6957 9.75399 11.8117 9.69796 11.8937C9.25997 12.3727 8.75997 12.6437 8.13595 12.6647C7.84896 12.6687 7.82394 12.6587 7.53195 12.6027C7.05294 12.5407 6.46298 11.9137 6.55197 11.2197C6.61398 10.7607 6.67398 10.3017 6.74099 9.84069C6.86599 9.04169 7.00601 8.24169 7.13699 7.44469C7.14297 7.39369 7.14297 7.34069 7.14297 7.28969C7.14297 6.95469 7.048 6.83969 6.74697 6.79269C6.61599 6.77169 6.47598 6.76069 6.35098 6.71469C6.20498 6.65769 6.13198 6.52869 6.15499 6.39469C6.17501 6.25469 6.259 6.16669 6.42599 6.13069C6.51297 6.10969 6.60397 6.10969 6.69699 6.10969C7.05398 6.10969 7.42599 6.10969 7.78701 6.10969C8.173 6.10969 8.29299 6.11069 8.68301 6.11069C8.95401 6.11069 9.121 6.24869 9.12698 6.54969C9.13595 6.79869 9.09896 7.04569 9.056 7.29369C8.91 8.20469 8.74398 9.11469 8.59701 10.0307C8.535 10.3297 8.49301 10.6347 8.45101 10.9337C8.43002 11.0797 8.45504 11.2357 8.48202 11.3717C8.527 11.5597 8.66604 11.6667 8.83602 11.6427C8.98202 11.6217 9.13601 11.5697 9.27401 11.5057C9.38198 11.4437 9.49502 11.3597 9.60202 11.3177C9.75698 11.2667 9.89901 11.3957 9.85598 11.5887Z" fill="white"/>
<path d="M7.99799 2.97069C7.32996 2.97069 6.80298 3.50969 6.80298 4.17669C6.80298 4.84169 7.32996 5.37369 7.99799 5.37369C8.66797 5.37369 9.203 4.83469 9.203 4.17669C9.20294 3.50969 8.66498 2.97069 7.99799 2.97069Z" fill="white"/>
</g>
</svg>
