<svg width="16" height="16" viewBox="0 0 16 16" fill="none" xmlns="http://www.w3.org/2000/svg">
<mask id="mask0_1742_2538" style="mask-type:alpha" maskUnits="userSpaceOnUse" x="0" y="0" width="16" height="16">
<rect width="16" height="16" fill="#D9D9D9"/>
</mask>
<g mask="url(#mask0_1742_2538)">
<path d="M3.07367 12.9263C5.79681 15.6443 10.2016 15.6413 12.9247 12.9263C15.6447 10.2043 15.6447 5.79728 12.9247 3.07731C10.2028 0.3563 5.79584 0.3563 3.07367 3.07529C0.355652 5.79532 0.355652 10.2053 3.07367 12.9263ZM4.40497 7.35624L7.70282 4.0156C7.86322 3.82993 8.12616 3.82993 8.31085 4.01334L11.603 7.35392C11.7473 7.52121 11.6918 7.69077 11.4345 7.69077H10.0641C10.0466 7.69077 10.0312 7.69876 10.014 7.70084L8.31085 5.97263C8.12616 5.78922 7.86322 5.78922 7.70282 5.97495L5.99579 7.70414C5.97723 7.70169 5.96063 7.69303 5.94135 7.69303H4.55951C4.315 7.69303 4.24457 7.52353 4.40497 7.35624ZM4.40497 10.8929L7.70282 7.55222C7.86322 7.36655 8.12616 7.36655 8.31085 7.54996L11.603 10.8905C11.7473 11.0578 11.6918 11.2274 11.4345 11.2274H10.0641C10.0466 11.2274 10.0312 11.2354 10.014 11.2375L8.31085 9.50925C8.12616 9.32584 7.86322 9.32584 7.70282 9.51157L5.99579 11.2408C5.97723 11.2383 5.96063 11.2297 5.94135 11.2297H4.55951C4.315 11.2297 4.24457 11.0602 4.40497 10.8929Z" fill="#FF9C00"/>
</g>
</svg>
