<svg width="16" height="16" viewBox="0 0 16 16" fill="none" xmlns="http://www.w3.org/2000/svg">
<mask id="mask0_1742_2532" style="mask-type:alpha" maskUnits="userSpaceOnUse" x="0" y="0" width="16" height="16">
<rect width="16" height="16" fill="#D9D9D9"/>
</mask>
<g mask="url(#mask0_1742_2532)">
<path d="M12.9262 3.07369C10.2031 0.355675 5.79828 0.358666 3.07513 3.07369C0.355164 5.79568 0.355164 10.2027 3.07513 12.9227C5.79706 15.6437 10.204 15.6437 12.9262 12.9247C15.6442 10.2047 15.6442 5.7947 12.9262 3.07369ZM11.1769 9.14004L8.26239 12.0922C8.12079 12.2564 7.88837 12.2564 7.72516 12.0943L4.81573 9.14205C4.68829 8.99423 4.73724 8.84439 4.96454 8.84439H6.17572C6.38959 8.84439 6.57928 8.66903 6.57928 8.45394V8.40603L6.56097 4.17684C6.56097 3.96072 6.74652 3.78439 6.96478 3.78439H9.02484C9.24115 3.78439 9.41644 3.96072 9.41644 4.1758H9.42157V6.24996L9.42767 8.44784C9.42767 8.66702 9.60614 8.84237 9.81915 8.84237H11.0405C11.2565 8.84237 11.3188 8.99221 11.1769 9.14004Z" fill="#7295A3"/>
</g>
</svg>
