<svg width="16" height="16" viewBox="0 0 16 16" fill="none" xmlns="http://www.w3.org/2000/svg">
<mask id="mask0_1742_2981" style="mask-type:alpha" maskUnits="userSpaceOnUse" x="0" y="0" width="16" height="16">
<rect width="16" height="16" fill="#D9D9D9"/>
</mask>
<g mask="url(#mask0_1742_2981)">
<path d="M12.92 3.08069C10.1979 0.36569 5.80191 0.36669 3.08597 3.08069C0.363922 5.79669 0.363922 10.1987 3.08597 12.9117C5.80191 15.6357 10.2 15.6357 12.92 12.9157C15.6339 10.2017 15.6339 5.79969 12.92 3.08069Z" fill="#FF6400"/>
<path d="M7.99701 11.3744C6.98053 11.3744 5.96405 11.3747 4.94757 11.3742C4.72113 11.3741 4.58332 11.2781 4.56793 11.0939C4.56183 11.0201 4.58319 10.9362 4.61603 10.8685C4.80841 10.4715 5.00983 10.0789 5.20307 9.68234C5.2331 9.62075 5.25006 9.54653 5.2508 9.47793C5.25617 8.91409 5.22992 8.34859 5.26386 7.78664C5.32953 6.69543 5.88666 5.91784 6.86212 5.43713C6.94904 5.39431 6.99738 5.34947 7.0224 5.24966C7.13568 4.79778 7.55426 4.48425 8.01435 4.49228C8.4881 4.50055 8.88874 4.83153 8.9953 5.29648C9.00458 5.33727 9.04096 5.38651 9.07794 5.4042C10.1641 5.9235 10.7291 6.77958 10.7465 7.98668C10.7537 8.48585 10.746 8.98521 10.7497 9.48445C10.7502 9.54956 10.7669 9.62004 10.7956 9.67856C10.9877 10.0716 11.1856 10.4618 11.3806 10.8535C11.5247 11.1433 11.3826 11.3736 11.0573 11.374C10.0372 11.3751 9.01715 11.3744 7.99701 11.3744Z" fill="white"/>
<path d="M6.5968 12.0285C7.54163 12.0285 8.46082 12.0285 9.40234 12.0285C9.05542 12.489 8.61426 12.7396 8.05798 12.7568C7.45679 12.7754 6.97778 12.5244 6.5968 12.0285Z" fill="white"/>
<path d="M3.17266 7.19218C3.22283 5.92063 3.68132 4.83376 4.5595 3.92477C4.67144 3.80882 4.80254 3.76028 4.9583 3.80201C5.09966 3.8399 5.18877 3.93753 5.22234 4.07941C5.25896 4.23364 5.19732 4.35698 5.09099 4.46536C4.75542 4.80706 4.4887 5.19595 4.29033 5.63224C4.05962 6.13973 3.94597 6.67311 3.92852 7.22875C3.92656 7.2914 3.92717 7.35619 3.91143 7.41594C3.86589 7.58807 3.6906 7.70739 3.52117 7.68989C3.33245 7.67041 3.19011 7.52592 3.17327 7.33316C3.16887 7.28317 3.17266 7.23248 3.17266 7.19218Z" fill="white"/>
<path d="M12.8378 7.08297C12.8378 7.14591 12.8375 7.20886 12.8378 7.27181C12.839 7.51188 12.6803 7.68903 12.4618 7.69143C12.2488 7.69378 12.0877 7.52752 12.0829 7.29014C12.0657 6.42692 11.8233 5.6369 11.3134 4.93644C11.1902 4.76733 11.0482 4.61139 10.9086 4.45498C10.7438 4.27026 10.733 4.04655 10.8904 3.89324C11.0493 3.73824 11.2837 3.75552 11.4594 3.93519C12.2914 4.78611 12.7454 5.82809 12.8378 7.08297Z" fill="white"/>
</g>
</svg>
