<svg width="16" height="16" viewBox="0 0 16 16" fill="none" xmlns="http://www.w3.org/2000/svg">
<mask id="mask0_1742_2022" style="mask-type:alpha" maskUnits="userSpaceOnUse" x="0" y="0" width="16" height="16">
<rect width="16" height="16" fill="#D9D9D9"/>
</mask>
<g mask="url(#mask0_1742_2022)">
<path d="M12.894 3.03912C10.165 0.319125 5.75501 0.321125 3.04 3.04012C0.32 5.75812 0.32 10.1661 3.04 12.8861C5.762 15.6071 10.173 15.6071 12.894 12.8881C15.613 10.1681 15.612 5.75612 12.894 3.03912Z" fill="#08B848"/>
<path d="M11.86 6.14712L11.153 5.43812C11.049 5.34012 10.937 5.29112 10.799 5.29112C10.659 5.29112 10.54 5.34112 10.445 5.43812L7.02597 8.86413L5.49097 7.32512C5.38896 7.22612 5.27797 7.17812 5.13696 7.17812C4.99396 7.17812 4.87996 7.22712 4.78296 7.32512L4.07596 8.03313C3.97195 8.13113 3.92996 8.25013 3.92996 8.38713C3.92996 8.52513 3.97696 8.64413 4.07596 8.74113L5.96196 10.6301L6.67096 11.3391C6.77496 11.4421 6.88795 11.4851 7.02596 11.4851C7.16396 11.4851 7.28296 11.4361 7.37996 11.3391L8.08997 10.6301L11.861 6.85912C11.96 6.76012 12.007 6.64212 12.007 6.50412C12.009 6.36112 11.959 6.24412 11.86 6.14712Z" fill="white"/>
</g>
</svg>
