<svg width="16" height="16" viewBox="0 0 16 16" fill="none" xmlns="http://www.w3.org/2000/svg">
<mask id="mask0_1742_3140" style="mask-type:alpha" maskUnits="userSpaceOnUse" x="0" y="0" width="16" height="16">
<rect width="16" height="16" fill="#D9D9D9"/>
</mask>
<g mask="url(#mask0_1742_3140)">
<path d="M12.894 3.03912C10.165 0.319125 5.75501 0.321125 3.04 3.04012C0.32 5.75812 0.32 10.1661 3.04 12.8861C5.762 15.6071 10.173 15.6071 12.894 12.8881C15.613 10.1681 15.612 5.75612 12.894 3.03912Z" fill="#D9DFE5"/>
<path d="M11.86 6.14714L11.153 5.43814C11.049 5.34014 10.937 5.29114 10.799 5.29114C10.659 5.29114 10.54 5.34114 10.445 5.43814L7.02597 8.86414L5.49097 7.32514C5.38896 7.22614 5.27797 7.17814 5.13696 7.17814C4.99396 7.17814 4.87996 7.22714 4.78296 7.32514L4.07596 8.03314C3.97195 8.13114 3.92996 8.25014 3.92996 8.38714C3.92996 8.52514 3.97696 8.64414 4.07596 8.74114L5.96196 10.6301L6.67096 11.3391C6.77496 11.4421 6.88795 11.4851 7.02596 11.4851C7.16396 11.4851 7.28296 11.4361 7.37996 11.3391L8.08997 10.6301L11.861 6.85914C11.96 6.76014 12.007 6.64214 12.007 6.50414C12.009 6.36114 11.959 6.24414 11.86 6.14714Z" fill="white"/>
</g>
</svg>
