<svg width="16" height="16" viewBox="0 0 16 16" fill="none" xmlns="http://www.w3.org/2000/svg">
<mask id="mask0_1742_1740" style="mask-type:alpha" maskUnits="userSpaceOnUse" x="0" y="0" width="16" height="16">
<rect width="16" height="16" fill="#D9D9D9"/>
</mask>
<g mask="url(#mask0_1742_1740)">
<path d="M15.148 12.9775L9.04401 1.72449C8.83099 1.33449 8.44 1.07249 7.98199 1.07249C7.54297 1.07249 7.13098 1.33449 6.91998 1.72449L0.815979 12.9775C0.711975 13.1655 0.667969 13.3915 0.667969 13.6235C0.667969 14.3435 1.21295 14.9275 1.88995 14.9275H14.108C14.782 14.9275 15.332 14.3435 15.332 13.6235C15.315 13.3915 15.256 13.1705 15.148 12.9775Z" fill="#FF9C00"/>
<path d="M7.98199 10.8155C7.461 10.8155 7.04297 11.2455 7.04297 11.7745C7.04297 12.3035 7.46698 12.7295 7.98199 12.7295C8.513 12.7295 8.94299 12.2995 8.94299 11.7745C8.94 11.2445 8.51703 10.8155 7.98199 10.8155Z" fill="white"/>
<path d="M7.02301 6.5095C7.02301 6.5645 7.026 6.6185 7.04401 6.6715L7.521 9.4635C7.55499 9.6895 7.75 9.8595 7.99298 9.8595C8.23401 9.8595 8.43097 9.6875 8.47198 9.4635L8.948 6.6715C8.96899 6.6195 8.96899 6.5655 8.96899 6.5095C8.96899 5.9825 8.53101 5.5535 8.01001 5.5535C7.45599 5.5545 7.02301 5.9815 7.02301 6.5095Z" fill="white"/>
</g>
</svg>
