<svg width="16" height="16" viewBox="0 0 16 16" fill="none" xmlns="http://www.w3.org/2000/svg">
<mask id="mask0_1742_2321" style="mask-type:alpha" maskUnits="userSpaceOnUse" x="0" y="0" width="16" height="16">
<rect width="16" height="16" fill="#D9D9D9"/>
</mask>
<g mask="url(#mask0_1742_2321)">
<path d="M10.0914 0.643005H2.46442C2.25342 0.643005 2.08142 0.814005 2.08142 1.14801V15.093C2.08142 15.186 2.25342 15.357 2.46442 15.357H12.9924C13.2064 15.357 13.3784 15.186 13.3784 15.093V4.05301C13.3784 3.86901 13.3574 3.81001 13.3164 3.76801L10.2564 0.709007C10.2124 0.668005 10.1604 0.643005 10.0914 0.643005Z" fill="#E8F0F5"/>
<path d="M10.2334 0.683006V3.79701H13.3394L10.2334 0.683006Z" fill="#ACC1C6"/>
<path d="M14.2654 6.951H1.20337C0.685364 6.951 0.265381 7.371 0.265381 7.887V11.125C0.265381 11.646 0.686401 12.065 1.20337 12.065H14.2654C14.7824 12.065 15.2034 11.645 15.2034 11.125V7.887C15.2014 7.369 14.7823 6.951 14.2654 6.951Z" fill="#08B848"/>
<path d="M9.42792 8.85246H9.07565C9.05482 8.75114 9.01836 8.66212 8.96628 8.58542C8.91514 8.50871 8.85264 8.44432 8.77878 8.39224C8.70586 8.33921 8.62489 8.29943 8.53588 8.27292C8.44686 8.2464 8.35406 8.23314 8.25747 8.23314C8.08133 8.23314 7.92177 8.27765 7.77878 8.36667C7.63673 8.45568 7.52357 8.58684 7.43929 8.76013C7.35595 8.93343 7.31429 9.14602 7.31429 9.39792C7.31429 9.64981 7.35595 9.86241 7.43929 10.0357C7.52357 10.209 7.63673 10.3402 7.77878 10.4292C7.92177 10.5182 8.08133 10.5627 8.25747 10.5627C8.35406 10.5627 8.44686 10.5494 8.53588 10.5229C8.62489 10.4964 8.70586 10.4571 8.77878 10.405C8.85264 10.352 8.91514 10.2871 8.96628 10.2104C9.01836 10.1328 9.05482 10.0438 9.07565 9.94337H9.42792C9.40141 10.092 9.35311 10.2251 9.28304 10.3425C9.21296 10.4599 9.12584 10.5598 9.02167 10.6422C8.91751 10.7237 8.80056 10.7857 8.67082 10.8283C8.54203 10.8709 8.40425 10.8922 8.25747 10.8922C8.00936 10.8922 7.78872 10.8316 7.59554 10.7104C7.40235 10.5892 7.25037 10.4169 7.13957 10.1934C7.02878 9.96989 6.97338 9.70474 6.97338 9.39792C6.97338 9.0911 7.02878 8.82595 7.13957 8.60246C7.25037 8.37898 7.40235 8.20663 7.59554 8.08542C7.78872 7.96421 8.00936 7.9036 8.25747 7.9036C8.40425 7.9036 8.54203 7.92491 8.67082 7.96752C8.80056 8.01013 8.91751 8.07263 9.02167 8.15502C9.12584 8.23646 9.21296 8.33589 9.28304 8.45332C9.35311 8.56979 9.40141 8.70284 9.42792 8.85246ZM11.5881 8.67064C11.571 8.52671 11.5019 8.41496 11.3807 8.33542C11.2595 8.25587 11.1108 8.2161 10.9347 8.2161C10.8059 8.2161 10.6932 8.23693 10.5966 8.2786C10.501 8.32027 10.4261 8.37756 10.3722 8.45047C10.3191 8.52339 10.2926 8.60625 10.2926 8.69905C10.2926 8.77671 10.3111 8.84347 10.348 8.89934C10.3859 8.95426 10.4342 9.00019 10.4929 9.03712C10.5516 9.07311 10.6132 9.10294 10.6776 9.12661C10.742 9.14934 10.8011 9.1678 10.8551 9.18201L11.1506 9.26155C11.2263 9.28144 11.3106 9.3089 11.4034 9.34394C11.4972 9.37898 11.5867 9.4268 11.6719 9.48741C11.7581 9.54706 11.8291 9.62377 11.885 9.71752C11.9408 9.81127 11.9688 9.92633 11.9688 10.0627C11.9688 10.2199 11.9276 10.3619 11.8452 10.4888C11.7637 10.6157 11.6444 10.7166 11.4872 10.7914C11.331 10.8662 11.1411 10.9036 10.9176 10.9036C10.7093 10.9036 10.5289 10.87 10.3764 10.8027C10.2249 10.7355 10.1056 10.6418 10.0185 10.5215C9.9323 10.4012 9.88353 10.2616 9.87217 10.1025H10.2358C10.2453 10.2123 10.2822 10.3032 10.3466 10.3752C10.4119 10.4462 10.4943 10.4992 10.5938 10.5343C10.6941 10.5684 10.8021 10.5854 10.9176 10.5854C11.0521 10.5854 11.1728 10.5636 11.2798 10.5201C11.3868 10.4756 11.4716 10.414 11.5341 10.3354C11.5966 10.2559 11.6279 10.1631 11.6279 10.057C11.6279 9.96042 11.6009 9.88182 11.5469 9.82121C11.4929 9.76061 11.4219 9.71136 11.3338 9.67349C11.2457 9.63561 11.1506 9.60246 11.0483 9.57405L10.6904 9.47178C10.4631 9.40644 10.2832 9.31316 10.1506 9.19195C10.018 9.07074 9.95172 8.91212 9.95172 8.7161C9.95172 8.55322 9.99575 8.41117 10.0838 8.28996C10.1728 8.1678 10.2922 8.07311 10.4418 8.00587C10.5923 7.93769 10.7604 7.9036 10.946 7.9036C11.1335 7.9036 11.3002 7.93722 11.446 8.00445C11.5919 8.07074 11.7074 8.16165 11.7926 8.27718C11.8788 8.39271 11.9243 8.52386 11.929 8.67064H11.5881ZM12.6673 7.94337L13.5309 10.3922H13.565L14.4286 7.94337H14.798L13.7298 10.8525H13.3661L12.298 7.94337H12.6673Z" fill="white"/>
</g>
</svg>
