<svg width="16" height="16" viewBox="0 0 16 16" fill="none" xmlns="http://www.w3.org/2000/svg">
<mask id="mask0_1742_2968" style="mask-type:alpha" maskUnits="userSpaceOnUse" x="0" y="0" width="16" height="16">
<rect width="16" height="16" fill="#D9D9D9"/>
</mask>
<g mask="url(#mask0_1742_2968)">
<path d="M10.275 0.797852H2.67505C2.4751 0.797852 2.27502 0.997851 2.27502 1.29785V15.1979C2.27502 15.2979 2.47498 15.4979 2.67505 15.4979H13.175C13.375 15.4979 13.5751 15.2979 13.5751 15.1979V4.19786C13.5751 3.99786 13.5751 3.99786 13.4751 3.89786L10.3751 0.797857C10.375 0.897851 10.275 0.797852 10.275 0.797852Z" fill="#E8F0F5"/>
<path d="M10.375 0.897858V3.99786H13.475L10.375 0.897858Z" fill="#ACC1C6"/>
<path d="M14.375 7.19785H1.27502C0.775024 7.19785 0.375 7.59785 0.375 8.09785V11.2979C0.375 11.7979 0.775024 12.1978 1.27502 12.1978H14.375C14.875 12.1978 15.275 11.7979 15.275 11.2979V8.09785C15.375 7.59785 14.875 7.19785 14.375 7.19785Z" fill="#486A7F"/>
<path d="M4.97493 11.1298V8.24008H5.95135C6.17805 8.24008 6.36336 8.281 6.50728 8.36284C6.65215 8.44374 6.75938 8.55332 6.82899 8.6916C6.8986 8.82988 6.93341 8.98415 6.93341 9.15441C6.93341 9.32467 6.8986 9.47941 6.82899 9.61863C6.76032 9.75785 6.65403 9.86885 6.5101 9.95163C6.36618 10.0335 6.18181 10.0744 5.95699 10.0744H5.25713V9.76397H5.9457C6.10091 9.76397 6.22555 9.73716 6.31962 9.68354C6.41369 9.62992 6.48188 9.55749 6.52421 9.46625C6.56749 9.37406 6.58912 9.27012 6.58912 9.15441C6.58912 9.03871 6.56749 8.93524 6.52421 8.84399C6.48188 8.75275 6.41322 8.68126 6.31821 8.62952C6.2232 8.57684 6.09715 8.5505 5.94006 8.5505H5.32486V11.1298H4.97493ZM9.82244 9.14313H9.47251C9.45182 9.04247 9.4156 8.95405 9.36386 8.87786C9.31307 8.80166 9.25098 8.7377 9.17761 8.68596C9.10518 8.63328 9.02475 8.59377 8.93633 8.56743C8.84791 8.5411 8.75572 8.52793 8.65977 8.52793C8.48481 8.52793 8.3263 8.57214 8.18426 8.66056C8.04316 8.74898 7.93075 8.87927 7.84703 9.05141C7.76425 9.22355 7.72286 9.43473 7.72286 9.68495C7.72286 9.93517 7.76425 10.1464 7.84703 10.3185C7.93075 10.4906 8.04316 10.6209 8.18426 10.7093C8.3263 10.7978 8.48481 10.842 8.65977 10.842C8.75572 10.842 8.84791 10.8288 8.93633 10.8025C9.02475 10.7761 9.10518 10.7371 9.17761 10.6854C9.25098 10.6327 9.31307 10.5682 9.36386 10.492C9.4156 10.4149 9.45182 10.3265 9.47251 10.2268H9.82244C9.7961 10.3745 9.74813 10.5066 9.67852 10.6233C9.60891 10.7399 9.52237 10.8392 9.41889 10.921C9.31542 11.0019 9.19925 11.0635 9.07038 11.1058C8.94244 11.1482 8.80558 11.1693 8.65977 11.1693C8.41332 11.1693 8.19414 11.1091 8.00224 10.9887C7.81035 10.8683 7.65937 10.6971 7.54931 10.4751C7.43925 10.2531 7.38422 9.98973 7.38422 9.68495C7.38422 9.38017 7.43925 9.11679 7.54931 8.89479C7.65937 8.67279 7.81035 8.50159 8.00224 8.38118C8.19414 8.26078 8.41332 8.20057 8.65977 8.20057C8.80558 8.20057 8.94244 8.22174 9.07038 8.26407C9.19925 8.3064 9.31542 8.36848 9.41889 8.45032C9.52237 8.53122 9.60891 8.62999 9.67852 8.74663C9.74813 8.86233 9.7961 8.9945 9.82244 9.14313ZM10.5064 11.1298H10.1396L11.2006 8.24008H11.5619L12.6229 11.1298H12.2561L11.3925 8.69725H11.37L10.5064 11.1298ZM10.6419 10.001H12.1206V10.3114H10.6419V10.001ZM13.073 11.1298V8.24008H14.0495C14.2762 8.24008 14.4615 8.281 14.6054 8.36284C14.7503 8.44374 14.8575 8.55332 14.9271 8.6916C14.9967 8.82988 15.0315 8.98415 15.0315 9.15441C15.0315 9.32467 14.9967 9.47941 14.9271 9.61863C14.8584 9.75785 14.7521 9.86885 14.6082 9.95163C14.4643 10.0335 14.2799 10.0744 14.0551 10.0744H13.3552V9.76397H14.0438C14.199 9.76397 14.3237 9.73716 14.4177 9.68354C14.5118 9.62992 14.58 9.55749 14.6223 9.46625C14.6656 9.37406 14.6872 9.27012 14.6872 9.15441C14.6872 9.03871 14.6656 8.93524 14.6223 8.84399C14.58 8.75275 14.5113 8.68126 14.4163 8.62952C14.3213 8.57684 14.1953 8.5505 14.0382 8.5505H13.423V11.1298H13.073Z" fill="white"/>
</g>
</svg>
