<svg width="16" height="16" viewBox="0 0 16 16" fill="none" xmlns="http://www.w3.org/2000/svg">
<mask id="mask0_1742_2395" style="mask-type:alpha" maskUnits="userSpaceOnUse" x="0" y="0" width="16" height="16">
<rect width="16" height="16" fill="#D9D9D9"/>
</mask>
<g mask="url(#mask0_1742_2395)">
<path d="M10.4436 0.649994H2.84363C2.64368 0.649994 2.4436 0.849994 2.4436 1.14999V15.05C2.4436 15.15 2.64355 15.35 2.84363 15.35H13.3436C13.5436 15.35 13.7437 15.15 13.7437 15.05V4.05C13.7437 3.85 13.7437 3.85 13.6437 3.75L10.5437 0.649999C10.5436 0.749994 10.4436 0.649994 10.4436 0.649994Z" fill="#E8F0F5"/>
<path d="M10.5436 0.749992V3.84999H13.6436L10.5436 0.749992Z" fill="#ACC1C6"/>
<path d="M14.5436 7.05H1.4436C0.943604 7.05 0.543579 7.45 0.543579 7.95V11.15C0.543579 11.65 0.943604 12.05 1.4436 12.05H14.5436C15.0436 12.05 15.4436 11.65 15.4436 11.15V7.95C15.5436 7.45 15.0436 7.05 14.5436 7.05Z" fill="#294F69"/>
<path d="M8.66748 10.679L10.0474 8.6756V8.6629H8.7915V8.25568H10.687V8.54376L9.32764 10.5267V10.5423H10.7065V10.9505H8.66748V10.679Z" fill="white"/>
<path d="M11.603 8.25568V10.9505H11.1118V8.25568H11.603Z" fill="white"/>
<path d="M12.1685 8.29181C12.3442 8.25958 12.5884 8.23517 12.9194 8.23517C13.2798 8.23517 13.5435 8.31134 13.7153 8.4549C13.8755 8.58771 13.979 8.79962 13.979 9.05109C13.979 9.30695 13.8989 9.51886 13.7476 9.66339C13.5513 9.8587 13.2437 9.95148 12.896 9.95148C12.8042 9.95148 12.7202 9.94659 12.6558 9.93488V10.9505H12.1685V8.29181ZM12.6558 9.54718C12.7153 9.56281 12.7954 9.56769 12.896 9.56769C13.2632 9.56769 13.4878 9.38702 13.4878 9.07159C13.4878 8.7713 13.2798 8.61115 12.9399 8.61115C12.8042 8.61115 12.7075 8.62286 12.6558 8.63556V9.54718Z" fill="white"/>
</g>
</svg>
